G04 EAGLE Gerber RS-274X export*
G75*
%MOMM*%
%FSLAX34Y34*%
%LPD*%
%INTop Copper*%
%IPPOS*%
%AMOC8*
5,1,8,0,0,1.08239X$1,22.5*%
G01*
%ADD10C,1.650000*%
%ADD11P,1.319650X8X292.500000*%
%ADD12C,1.500000*%
%ADD13C,1.400000*%
%ADD14R,2.850000X2.850000*%
%ADD15R,1.500000X1.500000*%
%ADD16R,1.524000X1.524000*%
%ADD17P,1.649562X8X292.500000*%
%ADD18C,1.524000*%
%ADD19C,0.908000*%
%ADD20C,0.203200*%
%ADD21C,0.406400*%

G36*
X283462Y5589D02*
X283462Y5589D01*
X283520Y5587D01*
X283602Y5609D01*
X283686Y5621D01*
X283739Y5644D01*
X283795Y5659D01*
X283868Y5702D01*
X283945Y5737D01*
X283990Y5775D01*
X284040Y5804D01*
X284098Y5866D01*
X284162Y5920D01*
X284194Y5969D01*
X284234Y6012D01*
X284273Y6087D01*
X284320Y6157D01*
X284337Y6213D01*
X284364Y6265D01*
X284375Y6333D01*
X284405Y6428D01*
X284408Y6528D01*
X284419Y6596D01*
X284419Y398032D01*
X284415Y398061D01*
X284418Y398091D01*
X284395Y398202D01*
X284379Y398314D01*
X284367Y398340D01*
X284362Y398369D01*
X284310Y398470D01*
X284263Y398573D01*
X284244Y398596D01*
X284231Y398622D01*
X284153Y398704D01*
X284080Y398790D01*
X284055Y398806D01*
X284035Y398828D01*
X283937Y398885D01*
X283843Y398948D01*
X283815Y398957D01*
X283790Y398971D01*
X283680Y398999D01*
X283572Y399033D01*
X283543Y399034D01*
X283514Y399041D01*
X283401Y399038D01*
X283288Y399041D01*
X283259Y399033D01*
X283230Y399032D01*
X283122Y398998D01*
X283013Y398969D01*
X282987Y398954D01*
X282959Y398945D01*
X282896Y398899D01*
X282768Y398824D01*
X282725Y398778D01*
X282686Y398750D01*
X282579Y398643D01*
X280257Y397681D01*
X277743Y397681D01*
X277517Y397775D01*
X277450Y397792D01*
X277386Y397819D01*
X277313Y397828D01*
X277242Y397846D01*
X277173Y397844D01*
X277104Y397852D01*
X277031Y397840D01*
X276958Y397838D01*
X276892Y397817D01*
X276823Y397805D01*
X276757Y397774D01*
X276687Y397751D01*
X276629Y397713D01*
X276567Y397683D01*
X276512Y397634D01*
X276451Y397593D01*
X276406Y397540D01*
X276354Y397494D01*
X276315Y397432D01*
X276268Y397375D01*
X276240Y397312D01*
X276203Y397254D01*
X276182Y397183D01*
X276152Y397115D01*
X276143Y397047D01*
X276123Y396980D01*
X276123Y396907D01*
X276113Y396834D01*
X276123Y396765D01*
X276123Y396696D01*
X276142Y396637D01*
X276154Y396553D01*
X276201Y396447D01*
X276224Y396376D01*
X276334Y396159D01*
X276798Y394732D01*
X276830Y394531D01*
X269531Y394531D01*
X269531Y401830D01*
X269732Y401798D01*
X271159Y401334D01*
X271376Y401224D01*
X271442Y401201D01*
X271503Y401170D01*
X271575Y401155D01*
X271645Y401132D01*
X271714Y401128D01*
X271782Y401115D01*
X271855Y401121D01*
X271929Y401117D01*
X271996Y401133D01*
X272065Y401139D01*
X272134Y401166D01*
X272206Y401182D01*
X272266Y401216D01*
X272330Y401241D01*
X272389Y401286D01*
X272453Y401322D01*
X272502Y401371D01*
X272557Y401413D01*
X272601Y401472D01*
X272653Y401524D01*
X272686Y401585D01*
X272727Y401641D01*
X272753Y401709D01*
X272788Y401774D01*
X272803Y401842D01*
X272828Y401907D01*
X272834Y401980D01*
X272849Y402052D01*
X272845Y402121D01*
X272850Y402190D01*
X272836Y402250D01*
X272831Y402336D01*
X272792Y402444D01*
X272775Y402517D01*
X272681Y402743D01*
X272681Y405257D01*
X273643Y407579D01*
X275421Y409357D01*
X275579Y409422D01*
X275580Y409423D01*
X275581Y409423D01*
X275700Y409494D01*
X275823Y409567D01*
X275824Y409568D01*
X275826Y409569D01*
X275923Y409673D01*
X276019Y409773D01*
X276019Y409775D01*
X276020Y409776D01*
X276085Y409902D01*
X276149Y410026D01*
X276149Y410028D01*
X276150Y410029D01*
X276152Y410043D01*
X276204Y410305D01*
X276201Y410335D01*
X276205Y410360D01*
X276205Y589422D01*
X276193Y589508D01*
X276190Y589596D01*
X276173Y589649D01*
X276165Y589703D01*
X276130Y589783D01*
X276103Y589866D01*
X276075Y589906D01*
X276049Y589963D01*
X275953Y590076D01*
X275908Y590140D01*
X257205Y608842D01*
X257205Y622674D01*
X257193Y622761D01*
X257190Y622848D01*
X257173Y622901D01*
X257165Y622956D01*
X257130Y623036D01*
X257103Y623119D01*
X257075Y623158D01*
X257049Y623215D01*
X256953Y623329D01*
X256908Y623392D01*
X241044Y639256D01*
X240975Y639308D01*
X240911Y639368D01*
X240861Y639394D01*
X240817Y639427D01*
X240735Y639458D01*
X240658Y639498D01*
X240610Y639506D01*
X240551Y639528D01*
X240404Y639540D01*
X240326Y639553D01*
X226016Y639553D01*
X217553Y648016D01*
X217553Y691343D01*
X217541Y691429D01*
X217538Y691517D01*
X217521Y691569D01*
X217513Y691624D01*
X217478Y691704D01*
X217451Y691787D01*
X217423Y691827D01*
X217397Y691884D01*
X217301Y691997D01*
X217256Y692061D01*
X211617Y697699D01*
X211617Y733010D01*
X211605Y733096D01*
X211602Y733184D01*
X211585Y733237D01*
X211577Y733291D01*
X211542Y733371D01*
X211515Y733454D01*
X211487Y733494D01*
X211461Y733551D01*
X211365Y733664D01*
X211320Y733728D01*
X185140Y759908D01*
X185070Y759960D01*
X185006Y760020D01*
X184957Y760046D01*
X184913Y760079D01*
X184831Y760110D01*
X184753Y760150D01*
X184705Y760158D01*
X184647Y760180D01*
X184499Y760192D01*
X184422Y760205D01*
X167334Y760205D01*
X167276Y760197D01*
X167218Y760199D01*
X167136Y760177D01*
X167052Y760165D01*
X166999Y760142D01*
X166943Y760127D01*
X166870Y760084D01*
X166793Y760049D01*
X166748Y760011D01*
X166698Y759982D01*
X166640Y759920D01*
X166576Y759866D01*
X166544Y759817D01*
X166504Y759774D01*
X166465Y759699D01*
X166418Y759629D01*
X166401Y759573D01*
X166374Y759521D01*
X166363Y759453D01*
X166333Y759358D01*
X166330Y759258D01*
X166319Y759190D01*
X166319Y757543D01*
X165357Y755221D01*
X163579Y753443D01*
X161257Y752481D01*
X158743Y752481D01*
X156421Y753443D01*
X154643Y755221D01*
X153681Y757543D01*
X153681Y760057D01*
X154643Y762379D01*
X155902Y763638D01*
X155937Y763685D01*
X155980Y763725D01*
X156022Y763798D01*
X156073Y763865D01*
X156094Y763920D01*
X156123Y763970D01*
X156144Y764052D01*
X156174Y764131D01*
X156179Y764189D01*
X156193Y764246D01*
X156191Y764330D01*
X156198Y764414D01*
X156186Y764472D01*
X156184Y764530D01*
X156158Y764610D01*
X156142Y764693D01*
X156115Y764745D01*
X156097Y764801D01*
X156057Y764857D01*
X156011Y764945D01*
X155942Y765018D01*
X155902Y765074D01*
X154643Y766333D01*
X153681Y768655D01*
X153681Y771169D01*
X154643Y773491D01*
X156444Y775293D01*
X156494Y775315D01*
X156538Y775352D01*
X156586Y775380D01*
X156646Y775443D01*
X156711Y775499D01*
X156743Y775546D01*
X156782Y775587D01*
X156821Y775664D01*
X156869Y775735D01*
X156886Y775789D01*
X156912Y775840D01*
X156929Y775924D01*
X156955Y776006D01*
X156956Y776063D01*
X156967Y776119D01*
X156960Y776204D01*
X156962Y776290D01*
X156947Y776345D01*
X156943Y776402D01*
X156912Y776482D01*
X156890Y776565D01*
X156861Y776614D01*
X156841Y776667D01*
X156789Y776736D01*
X156745Y776810D01*
X156703Y776849D01*
X156669Y776894D01*
X156600Y776945D01*
X156537Y777004D01*
X156487Y777030D01*
X156441Y777064D01*
X156361Y777095D01*
X156284Y777134D01*
X156236Y777142D01*
X156175Y777165D01*
X156031Y777176D01*
X155953Y777189D01*
X112999Y777189D01*
X112912Y777177D01*
X112825Y777174D01*
X112772Y777157D01*
X112717Y777149D01*
X112638Y777114D01*
X112554Y777087D01*
X112515Y777059D01*
X112458Y777033D01*
X112345Y776937D01*
X112281Y776892D01*
X104108Y768719D01*
X104101Y768709D01*
X104100Y768708D01*
X104056Y768649D01*
X103996Y768585D01*
X103970Y768536D01*
X103937Y768492D01*
X103906Y768410D01*
X103866Y768332D01*
X103858Y768285D01*
X103836Y768226D01*
X103824Y768078D01*
X103811Y768001D01*
X103811Y728530D01*
X103823Y728443D01*
X103826Y728356D01*
X103843Y728303D01*
X103851Y728248D01*
X103886Y728169D01*
X103913Y728085D01*
X103941Y728046D01*
X103967Y727989D01*
X104063Y727876D01*
X104108Y727812D01*
X105929Y725991D01*
X106891Y723669D01*
X106891Y721155D01*
X105929Y718833D01*
X104151Y717055D01*
X101829Y716093D01*
X99315Y716093D01*
X96993Y717055D01*
X95215Y718833D01*
X94253Y721155D01*
X94253Y723669D01*
X95215Y725991D01*
X95892Y726668D01*
X95944Y726738D01*
X96004Y726802D01*
X96030Y726851D01*
X96063Y726895D01*
X96094Y726977D01*
X96134Y727055D01*
X96142Y727102D01*
X96164Y727161D01*
X96171Y727241D01*
X96175Y727256D01*
X96177Y727311D01*
X96189Y727386D01*
X96189Y771578D01*
X109422Y784811D01*
X153802Y784811D01*
X153832Y784815D01*
X153861Y784812D01*
X153972Y784835D01*
X154084Y784851D01*
X154111Y784863D01*
X154140Y784869D01*
X154240Y784921D01*
X154343Y784967D01*
X154366Y784986D01*
X154392Y785000D01*
X154474Y785077D01*
X154560Y785150D01*
X154577Y785175D01*
X154598Y785196D01*
X154655Y785293D01*
X154718Y785387D01*
X154727Y785415D01*
X154742Y785441D01*
X154769Y785550D01*
X154803Y785658D01*
X154804Y785688D01*
X154812Y785717D01*
X154808Y785829D01*
X154811Y785942D01*
X154803Y785971D01*
X154802Y786001D01*
X154767Y786108D01*
X154739Y786217D01*
X154724Y786243D01*
X154715Y786271D01*
X154692Y786303D01*
X153681Y788743D01*
X153681Y791257D01*
X153747Y791415D01*
X153747Y791416D01*
X153748Y791418D01*
X153781Y791547D01*
X153818Y791690D01*
X153818Y791692D01*
X153818Y791693D01*
X153814Y791828D01*
X153809Y791974D01*
X153809Y791976D01*
X153809Y791977D01*
X153765Y792114D01*
X153723Y792245D01*
X153722Y792246D01*
X153721Y792248D01*
X153713Y792260D01*
X153565Y792481D01*
X153541Y792501D01*
X153527Y792521D01*
X151464Y794584D01*
X151394Y794636D01*
X151330Y794696D01*
X151281Y794722D01*
X151237Y794755D01*
X151155Y794786D01*
X151077Y794826D01*
X151029Y794834D01*
X150971Y794856D01*
X150823Y794868D01*
X150746Y794881D01*
X82807Y794881D01*
X82693Y794865D01*
X82579Y794855D01*
X82553Y794845D01*
X82525Y794841D01*
X82421Y794794D01*
X82313Y794753D01*
X82291Y794737D01*
X82266Y794725D01*
X82178Y794651D01*
X82087Y794582D01*
X82070Y794559D01*
X82049Y794542D01*
X81985Y794446D01*
X81917Y794354D01*
X81907Y794328D01*
X81891Y794305D01*
X81857Y794195D01*
X81816Y794088D01*
X81814Y794060D01*
X81806Y794034D01*
X81803Y793919D01*
X81793Y793805D01*
X81799Y793780D01*
X81798Y793750D01*
X81865Y793493D01*
X81869Y793477D01*
X82752Y791345D01*
X82752Y788831D01*
X81790Y786509D01*
X80013Y784731D01*
X77690Y783769D01*
X75177Y783769D01*
X75019Y783835D01*
X75017Y783835D01*
X75016Y783836D01*
X74883Y783870D01*
X74744Y783906D01*
X74742Y783906D01*
X74740Y783906D01*
X74600Y783901D01*
X74459Y783897D01*
X74458Y783897D01*
X74456Y783897D01*
X74321Y783853D01*
X74189Y783811D01*
X74187Y783810D01*
X74186Y783809D01*
X74173Y783801D01*
X73953Y783653D01*
X73933Y783629D01*
X73912Y783615D01*
X69396Y779098D01*
X69344Y779028D01*
X69284Y778964D01*
X69258Y778915D01*
X69225Y778871D01*
X69194Y778789D01*
X69154Y778711D01*
X69146Y778664D01*
X69124Y778605D01*
X69112Y778458D01*
X69099Y778380D01*
X69099Y698626D01*
X69111Y698540D01*
X69114Y698452D01*
X69131Y698399D01*
X69139Y698345D01*
X69174Y698265D01*
X69201Y698182D01*
X69229Y698142D01*
X69255Y698085D01*
X69351Y697972D01*
X69396Y697908D01*
X76147Y691158D01*
X76147Y670447D01*
X65332Y659632D01*
X65280Y659563D01*
X65220Y659499D01*
X65194Y659449D01*
X65161Y659405D01*
X65130Y659323D01*
X65090Y659246D01*
X65082Y659198D01*
X65060Y659139D01*
X65048Y658992D01*
X65035Y658914D01*
X65035Y646888D01*
X57156Y639009D01*
X57104Y638939D01*
X57044Y638875D01*
X57018Y638826D01*
X56985Y638782D01*
X56954Y638700D01*
X56914Y638622D01*
X56906Y638575D01*
X56884Y638516D01*
X56872Y638368D01*
X56859Y638291D01*
X56859Y593262D01*
X56871Y593175D01*
X56874Y593088D01*
X56891Y593035D01*
X56899Y592980D01*
X56934Y592900D01*
X56961Y592817D01*
X56989Y592778D01*
X57015Y592721D01*
X57111Y592607D01*
X57156Y592544D01*
X72544Y577156D01*
X72613Y577104D01*
X72677Y577044D01*
X72727Y577018D01*
X72771Y576985D01*
X72853Y576954D01*
X72930Y576914D01*
X72978Y576906D01*
X73037Y576884D01*
X73184Y576872D01*
X73262Y576859D01*
X97841Y576859D01*
X107164Y567536D01*
X107211Y567501D01*
X107251Y567458D01*
X107324Y567416D01*
X107391Y567365D01*
X107446Y567344D01*
X107496Y567314D01*
X107578Y567294D01*
X107657Y567264D01*
X107715Y567259D01*
X107772Y567244D01*
X107856Y567247D01*
X107940Y567240D01*
X107997Y567252D01*
X108056Y567253D01*
X108136Y567279D01*
X108219Y567296D01*
X108271Y567323D01*
X108326Y567341D01*
X108383Y567381D01*
X108471Y567427D01*
X108544Y567496D01*
X108600Y567536D01*
X109286Y568222D01*
X111609Y569184D01*
X114122Y569184D01*
X116445Y568222D01*
X118222Y566445D01*
X119184Y564122D01*
X119184Y561609D01*
X118222Y559286D01*
X116445Y557509D01*
X114312Y556625D01*
X114213Y556567D01*
X114111Y556514D01*
X114091Y556495D01*
X114067Y556481D01*
X113989Y556398D01*
X113905Y556318D01*
X113891Y556294D01*
X113872Y556274D01*
X113820Y556172D01*
X113762Y556073D01*
X113755Y556046D01*
X113742Y556022D01*
X113720Y555909D01*
X113691Y555798D01*
X113692Y555770D01*
X113687Y555743D01*
X113697Y555628D01*
X113700Y555513D01*
X113709Y555487D01*
X113711Y555459D01*
X113753Y555352D01*
X113788Y555243D01*
X113802Y555223D01*
X113813Y555194D01*
X113975Y554981D01*
X113983Y554970D01*
X113985Y554967D01*
X115213Y553739D01*
X115215Y553738D01*
X115216Y553737D01*
X115335Y553648D01*
X115441Y553568D01*
X115442Y553568D01*
X115443Y553567D01*
X115580Y553515D01*
X115706Y553467D01*
X115708Y553467D01*
X115709Y553466D01*
X115854Y553455D01*
X115990Y553443D01*
X115991Y553444D01*
X115993Y553443D01*
X116008Y553447D01*
X116268Y553499D01*
X116295Y553513D01*
X116320Y553519D01*
X118154Y554279D01*
X121846Y554279D01*
X125256Y552866D01*
X127866Y550256D01*
X128300Y549208D01*
X128344Y549134D01*
X128379Y549056D01*
X128416Y549013D01*
X128445Y548964D01*
X128507Y548904D01*
X128563Y548839D01*
X128610Y548807D01*
X128651Y548768D01*
X128728Y548729D01*
X128799Y548681D01*
X128853Y548664D01*
X128904Y548638D01*
X128988Y548622D01*
X129070Y548596D01*
X129127Y548594D01*
X129183Y548583D01*
X129268Y548591D01*
X129354Y548588D01*
X129409Y548603D01*
X129466Y548608D01*
X129547Y548638D01*
X129629Y548660D01*
X129678Y548689D01*
X129731Y548710D01*
X129800Y548762D01*
X129874Y548805D01*
X129913Y548847D01*
X129958Y548881D01*
X130010Y548950D01*
X130068Y549013D01*
X130094Y549063D01*
X130128Y549109D01*
X130159Y549189D01*
X130198Y549266D01*
X130206Y549315D01*
X130229Y549375D01*
X130240Y549520D01*
X130253Y549597D01*
X130253Y558206D01*
X148232Y576184D01*
X148284Y576254D01*
X148344Y576318D01*
X148370Y576367D01*
X148403Y576411D01*
X148434Y576493D01*
X148474Y576571D01*
X148482Y576619D01*
X148504Y576677D01*
X148516Y576825D01*
X148529Y576902D01*
X148529Y685475D01*
X148517Y685562D01*
X148514Y685649D01*
X148497Y685702D01*
X148489Y685757D01*
X148454Y685837D01*
X148427Y685920D01*
X148399Y685959D01*
X148373Y686016D01*
X148277Y686129D01*
X148232Y686193D01*
X124528Y709897D01*
X124504Y709915D01*
X124485Y709937D01*
X124430Y709974D01*
X124425Y709979D01*
X124415Y709984D01*
X124391Y710000D01*
X124301Y710068D01*
X124273Y710079D01*
X124249Y710095D01*
X124141Y710129D01*
X124035Y710169D01*
X124006Y710172D01*
X123978Y710181D01*
X123864Y710184D01*
X123752Y710193D01*
X123723Y710187D01*
X123694Y710188D01*
X123584Y710159D01*
X123473Y710137D01*
X123447Y710124D01*
X123419Y710116D01*
X123321Y710058D01*
X123221Y710006D01*
X123199Y709986D01*
X123174Y709971D01*
X123097Y709888D01*
X123015Y709810D01*
X123000Y709785D01*
X122980Y709764D01*
X122928Y709663D01*
X122871Y709565D01*
X122864Y709537D01*
X122850Y709510D01*
X122837Y709433D01*
X122801Y709289D01*
X122803Y709227D01*
X122795Y709179D01*
X122795Y699564D01*
X122795Y699562D01*
X122795Y699561D01*
X122815Y699421D01*
X122835Y699282D01*
X122835Y699281D01*
X122835Y699279D01*
X122892Y699154D01*
X122951Y699023D01*
X122952Y699022D01*
X122953Y699020D01*
X123044Y698913D01*
X123134Y698806D01*
X123136Y698805D01*
X123137Y698804D01*
X123150Y698796D01*
X123371Y698648D01*
X123400Y698639D01*
X123421Y698626D01*
X125256Y697866D01*
X127866Y695256D01*
X129279Y691846D01*
X129279Y688154D01*
X127866Y684744D01*
X125256Y682134D01*
X121846Y680721D01*
X118154Y680721D01*
X114744Y682134D01*
X112134Y684744D01*
X110721Y688154D01*
X110721Y691846D01*
X112134Y695256D01*
X114744Y697866D01*
X116579Y698626D01*
X116580Y698627D01*
X116581Y698627D01*
X116700Y698697D01*
X116823Y698771D01*
X116824Y698772D01*
X116826Y698772D01*
X116923Y698877D01*
X117019Y698977D01*
X117019Y698979D01*
X117020Y698980D01*
X117083Y699102D01*
X117149Y699230D01*
X117149Y699232D01*
X117150Y699233D01*
X117152Y699248D01*
X117204Y699509D01*
X117201Y699539D01*
X117205Y699564D01*
X117205Y711052D01*
X117193Y711139D01*
X117190Y711226D01*
X117173Y711279D01*
X117165Y711333D01*
X117130Y711413D01*
X117103Y711496D01*
X117075Y711536D01*
X117049Y711593D01*
X116953Y711706D01*
X116908Y711770D01*
X116077Y712600D01*
X116077Y756508D01*
X123287Y763718D01*
X123288Y763719D01*
X123290Y763720D01*
X123374Y763834D01*
X123458Y763945D01*
X123459Y763947D01*
X123460Y763948D01*
X123509Y764078D01*
X123559Y764211D01*
X123560Y764213D01*
X123560Y764214D01*
X123571Y764345D01*
X123583Y764494D01*
X123583Y764496D01*
X123583Y764497D01*
X123579Y764512D01*
X123527Y764773D01*
X123513Y764800D01*
X123507Y764825D01*
X123442Y764982D01*
X123442Y767496D01*
X124404Y769819D01*
X126181Y771596D01*
X128504Y772558D01*
X131018Y772558D01*
X133340Y771596D01*
X135118Y769819D01*
X135912Y767901D01*
X135926Y767876D01*
X135935Y767848D01*
X135999Y767754D01*
X136056Y767657D01*
X136077Y767636D01*
X136094Y767612D01*
X136181Y767539D01*
X136263Y767461D01*
X136289Y767448D01*
X136311Y767429D01*
X136415Y767383D01*
X136516Y767331D01*
X136544Y767326D01*
X136571Y767314D01*
X136683Y767298D01*
X136794Y767276D01*
X136824Y767279D01*
X136853Y767275D01*
X136965Y767291D01*
X137078Y767301D01*
X137105Y767311D01*
X137134Y767315D01*
X137237Y767362D01*
X137343Y767403D01*
X137366Y767420D01*
X137393Y767432D01*
X137479Y767506D01*
X137570Y767574D01*
X137587Y767598D01*
X137610Y767617D01*
X137651Y767683D01*
X137740Y767802D01*
X137762Y767861D01*
X137788Y767901D01*
X138643Y769967D01*
X140421Y771745D01*
X142743Y772707D01*
X145257Y772707D01*
X147579Y771745D01*
X149357Y769967D01*
X150319Y767645D01*
X150319Y765131D01*
X149357Y762809D01*
X147579Y761031D01*
X145257Y760069D01*
X142743Y760069D01*
X142585Y760135D01*
X142584Y760135D01*
X142582Y760136D01*
X142449Y760170D01*
X142310Y760206D01*
X142308Y760206D01*
X142307Y760206D01*
X142166Y760201D01*
X142026Y760197D01*
X142024Y760197D01*
X142023Y760197D01*
X141887Y760153D01*
X141755Y760111D01*
X141754Y760110D01*
X141752Y760109D01*
X141740Y760101D01*
X141519Y759953D01*
X141499Y759929D01*
X141479Y759915D01*
X140828Y759264D01*
X140811Y759240D01*
X140788Y759221D01*
X140725Y759127D01*
X140657Y759037D01*
X140647Y759009D01*
X140631Y758985D01*
X140596Y758877D01*
X140556Y758771D01*
X140554Y758742D01*
X140545Y758714D01*
X140542Y758600D01*
X140533Y758488D01*
X140538Y758459D01*
X140538Y758430D01*
X140566Y758320D01*
X140588Y758209D01*
X140602Y758183D01*
X140609Y758155D01*
X140667Y758057D01*
X140719Y757957D01*
X140740Y757935D01*
X140755Y757910D01*
X140837Y757833D01*
X140915Y757751D01*
X140941Y757736D01*
X140962Y757716D01*
X141063Y757664D01*
X141160Y757607D01*
X141189Y757600D01*
X141215Y757586D01*
X141292Y757573D01*
X141436Y757537D01*
X141498Y757539D01*
X141546Y757531D01*
X143200Y757531D01*
X145522Y756569D01*
X147300Y754791D01*
X148262Y752469D01*
X148262Y749955D01*
X147300Y747633D01*
X145522Y745855D01*
X143200Y744893D01*
X140686Y744893D01*
X140528Y744959D01*
X140527Y744959D01*
X140525Y744960D01*
X140392Y744994D01*
X140253Y745030D01*
X140251Y745030D01*
X140250Y745030D01*
X140109Y745025D01*
X139969Y745021D01*
X139967Y745021D01*
X139966Y745021D01*
X139830Y744977D01*
X139698Y744935D01*
X139697Y744934D01*
X139695Y744933D01*
X139683Y744925D01*
X139462Y744777D01*
X139442Y744753D01*
X139422Y744739D01*
X130092Y735409D01*
X130040Y735339D01*
X129980Y735275D01*
X129954Y735226D01*
X129921Y735181D01*
X129890Y735100D01*
X129850Y735022D01*
X129842Y734974D01*
X129820Y734916D01*
X129808Y734768D01*
X129795Y734691D01*
X129795Y727796D01*
X129811Y727682D01*
X129821Y727567D01*
X129831Y727542D01*
X129835Y727514D01*
X129882Y727409D01*
X129923Y727302D01*
X129939Y727280D01*
X129951Y727255D01*
X130025Y727167D01*
X130094Y727075D01*
X130117Y727059D01*
X130134Y727038D01*
X130230Y726974D01*
X130322Y726905D01*
X130348Y726895D01*
X130371Y726880D01*
X130481Y726845D01*
X130588Y726805D01*
X130616Y726803D01*
X130642Y726794D01*
X130757Y726791D01*
X130871Y726782D01*
X130896Y726788D01*
X130926Y726787D01*
X131183Y726854D01*
X131199Y726858D01*
X133693Y727891D01*
X136206Y727891D01*
X138529Y726929D01*
X140306Y725151D01*
X141268Y722829D01*
X141268Y720315D01*
X141203Y720157D01*
X141203Y720156D01*
X141202Y720154D01*
X141168Y720021D01*
X141132Y719882D01*
X141132Y719880D01*
X141132Y719879D01*
X141136Y719738D01*
X141140Y719598D01*
X141141Y719596D01*
X141141Y719595D01*
X141185Y719459D01*
X141227Y719327D01*
X141228Y719326D01*
X141228Y719324D01*
X141237Y719312D01*
X141385Y719091D01*
X141408Y719071D01*
X141423Y719051D01*
X160312Y700162D01*
X162247Y698227D01*
X162247Y698143D01*
X162260Y698051D01*
X162263Y697959D01*
X162279Y697911D01*
X162287Y697861D01*
X162324Y697777D01*
X162353Y697690D01*
X162382Y697648D01*
X162403Y697602D01*
X162462Y697531D01*
X162514Y697456D01*
X162554Y697423D01*
X162586Y697385D01*
X162663Y697334D01*
X162734Y697275D01*
X162781Y697255D01*
X162823Y697227D01*
X162911Y697199D01*
X162995Y697163D01*
X163046Y697157D01*
X163094Y697141D01*
X163186Y697139D01*
X163277Y697127D01*
X163328Y697135D01*
X163378Y697134D01*
X163467Y697157D01*
X163558Y697171D01*
X163598Y697191D01*
X163653Y697206D01*
X163790Y697287D01*
X163859Y697321D01*
X165004Y698153D01*
X166341Y698834D01*
X167768Y699298D01*
X167969Y699330D01*
X167969Y691016D01*
X167977Y690958D01*
X167975Y690900D01*
X167997Y690818D01*
X168009Y690735D01*
X168033Y690681D01*
X168047Y690625D01*
X168090Y690552D01*
X168125Y690475D01*
X168163Y690431D01*
X168193Y690380D01*
X168254Y690323D01*
X168309Y690258D01*
X168357Y690226D01*
X168400Y690186D01*
X168475Y690147D01*
X168545Y690101D01*
X168601Y690083D01*
X168653Y690056D01*
X168721Y690045D01*
X168816Y690015D01*
X168916Y690012D01*
X168984Y690001D01*
X171016Y690001D01*
X171074Y690009D01*
X171132Y690008D01*
X171214Y690029D01*
X171297Y690041D01*
X171351Y690065D01*
X171407Y690079D01*
X171480Y690122D01*
X171557Y690157D01*
X171602Y690195D01*
X171652Y690225D01*
X171710Y690286D01*
X171774Y690341D01*
X171806Y690389D01*
X171846Y690432D01*
X171885Y690507D01*
X171931Y690577D01*
X171949Y690633D01*
X171976Y690685D01*
X171987Y690753D01*
X172017Y690848D01*
X172020Y690948D01*
X172031Y691016D01*
X172031Y698820D01*
X172027Y698851D01*
X172029Y698881D01*
X172012Y698958D01*
X171991Y699102D01*
X171965Y699160D01*
X171954Y699209D01*
X171132Y701194D01*
X171132Y703707D01*
X172094Y706030D01*
X173871Y707807D01*
X176194Y708769D01*
X178707Y708769D01*
X181030Y707807D01*
X182807Y706030D01*
X183769Y703707D01*
X183769Y701550D01*
X183785Y701436D01*
X183795Y701322D01*
X183805Y701296D01*
X183809Y701268D01*
X183856Y701164D01*
X183897Y701057D01*
X183914Y701034D01*
X183925Y701009D01*
X184000Y700921D01*
X184069Y700830D01*
X184091Y700813D01*
X184109Y700792D01*
X184205Y700728D01*
X184296Y700660D01*
X184322Y700650D01*
X184346Y700634D01*
X184455Y700600D01*
X184562Y700559D01*
X184590Y700557D01*
X184617Y700549D01*
X184731Y700546D01*
X184846Y700537D01*
X184870Y700542D01*
X184901Y700541D01*
X185158Y700608D01*
X185173Y700612D01*
X186879Y701319D01*
X189393Y701319D01*
X191715Y700357D01*
X193493Y698579D01*
X194455Y696257D01*
X194455Y693743D01*
X193447Y691310D01*
X193432Y691253D01*
X193408Y691200D01*
X193397Y691116D01*
X193376Y691034D01*
X193378Y690976D01*
X193370Y690918D01*
X193382Y690835D01*
X193384Y690750D01*
X193402Y690695D01*
X193410Y690637D01*
X193445Y690560D01*
X193471Y690480D01*
X193503Y690431D01*
X193527Y690378D01*
X193582Y690314D01*
X193629Y690243D01*
X193674Y690206D01*
X193712Y690161D01*
X193770Y690125D01*
X193847Y690060D01*
X193938Y690020D01*
X193996Y689983D01*
X195779Y689245D01*
X197557Y687467D01*
X198519Y685145D01*
X198519Y682631D01*
X197557Y680309D01*
X197253Y680005D01*
X197184Y679913D01*
X197110Y679825D01*
X197098Y679800D01*
X197082Y679777D01*
X197041Y679670D01*
X196994Y679565D01*
X196990Y679538D01*
X196980Y679512D01*
X196971Y679397D01*
X196955Y679284D01*
X196959Y679256D01*
X196957Y679228D01*
X196980Y679116D01*
X196996Y679002D01*
X197007Y678977D01*
X197013Y678950D01*
X197066Y678848D01*
X197113Y678743D01*
X197131Y678722D01*
X197144Y678697D01*
X197223Y678614D01*
X197297Y678527D01*
X197319Y678513D01*
X197340Y678491D01*
X197570Y678356D01*
X197582Y678349D01*
X197585Y678348D01*
X198103Y678133D01*
X199881Y676355D01*
X200843Y674033D01*
X200843Y671519D01*
X199881Y669197D01*
X198103Y667419D01*
X195781Y666457D01*
X194810Y666457D01*
X194752Y666449D01*
X194694Y666451D01*
X194612Y666429D01*
X194528Y666417D01*
X194475Y666394D01*
X194419Y666379D01*
X194346Y666336D01*
X194269Y666301D01*
X194224Y666263D01*
X194174Y666234D01*
X194116Y666172D01*
X194052Y666118D01*
X194020Y666069D01*
X193980Y666026D01*
X193941Y665951D01*
X193894Y665881D01*
X193877Y665825D01*
X193850Y665773D01*
X193839Y665705D01*
X193809Y665610D01*
X193806Y665510D01*
X193795Y665442D01*
X193795Y636620D01*
X193799Y636591D01*
X193796Y636562D01*
X193819Y636451D01*
X193835Y636339D01*
X193847Y636312D01*
X193852Y636283D01*
X193904Y636183D01*
X193951Y636080D01*
X193970Y636057D01*
X193983Y636031D01*
X194061Y635949D01*
X194134Y635863D01*
X194159Y635846D01*
X194179Y635825D01*
X194277Y635768D01*
X194371Y635705D01*
X194399Y635696D01*
X194425Y635681D01*
X194534Y635653D01*
X194642Y635619D01*
X194672Y635618D01*
X194700Y635611D01*
X194813Y635615D01*
X194926Y635612D01*
X194955Y635619D01*
X194984Y635620D01*
X195092Y635655D01*
X195201Y635684D01*
X195227Y635699D01*
X195255Y635708D01*
X195319Y635753D01*
X195446Y635829D01*
X195477Y635862D01*
X195965Y636144D01*
X196482Y636283D01*
X208969Y636283D01*
X208969Y621016D01*
X208977Y620958D01*
X208975Y620900D01*
X208997Y620818D01*
X209009Y620735D01*
X209033Y620681D01*
X209047Y620625D01*
X209090Y620552D01*
X209125Y620475D01*
X209163Y620431D01*
X209193Y620380D01*
X209254Y620323D01*
X209309Y620258D01*
X209357Y620226D01*
X209400Y620186D01*
X209475Y620147D01*
X209545Y620101D01*
X209601Y620083D01*
X209653Y620056D01*
X209721Y620045D01*
X209816Y620015D01*
X209916Y620012D01*
X209984Y620001D01*
X211001Y620001D01*
X211001Y619999D01*
X209984Y619999D01*
X209926Y619991D01*
X209868Y619992D01*
X209786Y619971D01*
X209703Y619959D01*
X209649Y619935D01*
X209593Y619921D01*
X209520Y619878D01*
X209443Y619843D01*
X209398Y619805D01*
X209348Y619775D01*
X209290Y619714D01*
X209226Y619659D01*
X209194Y619611D01*
X209154Y619568D01*
X209115Y619493D01*
X209069Y619423D01*
X209051Y619367D01*
X209024Y619315D01*
X209013Y619247D01*
X208983Y619152D01*
X208980Y619052D01*
X208969Y618984D01*
X208969Y603717D01*
X199686Y603717D01*
X199657Y603713D01*
X199628Y603716D01*
X199517Y603693D01*
X199405Y603677D01*
X199378Y603665D01*
X199349Y603660D01*
X199249Y603608D01*
X199145Y603561D01*
X199123Y603542D01*
X199097Y603529D01*
X199015Y603451D01*
X198928Y603378D01*
X198912Y603353D01*
X198891Y603333D01*
X198833Y603235D01*
X198771Y603141D01*
X198762Y603113D01*
X198747Y603088D01*
X198719Y602978D01*
X198685Y602870D01*
X198684Y602840D01*
X198677Y602812D01*
X198680Y602699D01*
X198678Y602586D01*
X198685Y602557D01*
X198686Y602528D01*
X198721Y602420D01*
X198749Y602311D01*
X198764Y602285D01*
X198773Y602257D01*
X198819Y602194D01*
X198895Y602066D01*
X198940Y602023D01*
X198968Y601984D01*
X206859Y594094D01*
X206859Y402514D01*
X206866Y402461D01*
X206865Y402427D01*
X206872Y402403D01*
X206874Y402340D01*
X206891Y402287D01*
X206899Y402233D01*
X206934Y402153D01*
X206961Y402070D01*
X206989Y402030D01*
X207015Y401973D01*
X207111Y401860D01*
X207156Y401796D01*
X210592Y398360D01*
X212553Y396400D01*
X212644Y396331D01*
X212732Y396257D01*
X212758Y396245D01*
X212780Y396229D01*
X212887Y396188D01*
X212992Y396141D01*
X213020Y396137D01*
X213045Y396128D01*
X213160Y396118D01*
X213274Y396102D01*
X213301Y396106D01*
X213329Y396104D01*
X213441Y396127D01*
X213555Y396143D01*
X213580Y396154D01*
X213608Y396160D01*
X213709Y396213D01*
X213814Y396260D01*
X213835Y396278D01*
X213860Y396291D01*
X213943Y396370D01*
X214031Y396444D01*
X214044Y396466D01*
X214066Y396487D01*
X214201Y396716D01*
X214209Y396729D01*
X214634Y397756D01*
X217244Y400366D01*
X220654Y401779D01*
X224346Y401779D01*
X227756Y400366D01*
X229872Y398250D01*
X229896Y398232D01*
X229915Y398210D01*
X230009Y398147D01*
X230099Y398079D01*
X230127Y398069D01*
X230151Y398052D01*
X230259Y398018D01*
X230365Y397978D01*
X230394Y397975D01*
X230422Y397967D01*
X230536Y397964D01*
X230648Y397954D01*
X230677Y397960D01*
X230706Y397959D01*
X230816Y397988D01*
X230927Y398010D01*
X230953Y398024D01*
X230981Y398031D01*
X231079Y398089D01*
X231179Y398141D01*
X231201Y398161D01*
X231226Y398176D01*
X231303Y398259D01*
X231385Y398337D01*
X231400Y398362D01*
X231420Y398384D01*
X231472Y398484D01*
X231529Y398582D01*
X231536Y398611D01*
X231550Y398637D01*
X231563Y398714D01*
X231599Y398858D01*
X231597Y398920D01*
X231605Y398968D01*
X231605Y602038D01*
X231593Y602125D01*
X231590Y602212D01*
X231573Y602265D01*
X231565Y602320D01*
X231530Y602399D01*
X231503Y602483D01*
X231475Y602522D01*
X231449Y602579D01*
X231353Y602692D01*
X231308Y602756D01*
X230059Y604005D01*
X229236Y605992D01*
X229192Y606066D01*
X229157Y606145D01*
X229120Y606188D01*
X229091Y606237D01*
X229029Y606296D01*
X228973Y606362D01*
X228926Y606393D01*
X228885Y606432D01*
X228808Y606472D01*
X228737Y606519D01*
X228683Y606537D01*
X228632Y606563D01*
X228548Y606579D01*
X228466Y606605D01*
X228409Y606607D01*
X228353Y606618D01*
X228268Y606610D01*
X228182Y606612D01*
X228127Y606598D01*
X228070Y606593D01*
X227989Y606562D01*
X227907Y606541D01*
X227858Y606512D01*
X227805Y606491D01*
X227736Y606439D01*
X227662Y606395D01*
X227623Y606354D01*
X227578Y606320D01*
X227526Y606251D01*
X227468Y606188D01*
X227442Y606137D01*
X227408Y606092D01*
X227389Y606042D01*
X227382Y606032D01*
X227373Y606004D01*
X227338Y605935D01*
X227330Y605886D01*
X227307Y605826D01*
X227304Y605784D01*
X227297Y605761D01*
X227294Y605674D01*
X227283Y605604D01*
X227283Y605482D01*
X227144Y604965D01*
X226877Y604502D01*
X226498Y604123D01*
X226035Y603856D01*
X225518Y603717D01*
X213031Y603717D01*
X213031Y617969D01*
X227283Y617969D01*
X227283Y609564D01*
X227295Y609479D01*
X227297Y609393D01*
X227315Y609339D01*
X227323Y609283D01*
X227358Y609204D01*
X227384Y609122D01*
X227416Y609075D01*
X227439Y609023D01*
X227494Y608958D01*
X227542Y608886D01*
X227586Y608850D01*
X227622Y608806D01*
X227694Y608759D01*
X227760Y608703D01*
X227812Y608680D01*
X227859Y608649D01*
X227941Y608623D01*
X228020Y608588D01*
X228076Y608580D01*
X228130Y608563D01*
X228216Y608561D01*
X228301Y608549D01*
X228357Y608557D01*
X228414Y608555D01*
X228497Y608577D01*
X228583Y608589D01*
X228634Y608613D01*
X228689Y608627D01*
X228763Y608671D01*
X228842Y608707D01*
X228885Y608743D01*
X228934Y608773D01*
X228993Y608835D01*
X229058Y608891D01*
X229084Y608933D01*
X229128Y608980D01*
X229194Y609109D01*
X229236Y609176D01*
X230059Y611163D01*
X231837Y612941D01*
X234159Y613903D01*
X236673Y613903D01*
X238995Y612941D01*
X240773Y611163D01*
X241735Y608841D01*
X241735Y606327D01*
X240773Y604005D01*
X239524Y602756D01*
X239472Y602686D01*
X239412Y602622D01*
X239386Y602573D01*
X239353Y602529D01*
X239322Y602447D01*
X239282Y602369D01*
X239274Y602322D01*
X239252Y602263D01*
X239240Y602115D01*
X239227Y602038D01*
X239227Y319838D01*
X229578Y310189D01*
X151098Y310189D01*
X151069Y310185D01*
X151040Y310188D01*
X150929Y310165D01*
X150817Y310149D01*
X150790Y310137D01*
X150761Y310132D01*
X150661Y310079D01*
X150557Y310033D01*
X150535Y310014D01*
X150509Y310001D01*
X150427Y309923D01*
X150340Y309850D01*
X150324Y309825D01*
X150303Y309805D01*
X150246Y309707D01*
X150183Y309613D01*
X150174Y309585D01*
X150159Y309560D01*
X150131Y309450D01*
X150097Y309342D01*
X150096Y309312D01*
X150089Y309284D01*
X150093Y309171D01*
X150090Y309058D01*
X150097Y309029D01*
X150098Y309000D01*
X150133Y308892D01*
X150162Y308783D01*
X150177Y308757D01*
X150186Y308729D01*
X150231Y308666D01*
X150307Y308538D01*
X150338Y308509D01*
X150340Y308505D01*
X150357Y308489D01*
X150380Y308456D01*
X152875Y305962D01*
X152875Y299438D01*
X148262Y294825D01*
X141738Y294825D01*
X137125Y299438D01*
X137125Y305962D01*
X139620Y308456D01*
X139637Y308480D01*
X139660Y308499D01*
X139722Y308593D01*
X139790Y308683D01*
X139801Y308711D01*
X139817Y308735D01*
X139851Y308843D01*
X139892Y308949D01*
X139894Y308978D01*
X139903Y309006D01*
X139906Y309120D01*
X139915Y309232D01*
X139910Y309261D01*
X139910Y309290D01*
X139882Y309400D01*
X139859Y309511D01*
X139846Y309537D01*
X139838Y309565D01*
X139781Y309663D01*
X139728Y309763D01*
X139708Y309785D01*
X139693Y309810D01*
X139611Y309887D01*
X139533Y309969D01*
X139507Y309984D01*
X139486Y310004D01*
X139385Y310056D01*
X139287Y310113D01*
X139259Y310120D01*
X139233Y310134D01*
X139155Y310147D01*
X139012Y310183D01*
X138949Y310181D01*
X138902Y310189D01*
X121999Y310189D01*
X121912Y310177D01*
X121825Y310174D01*
X121772Y310157D01*
X121717Y310149D01*
X121638Y310114D01*
X121554Y310087D01*
X121515Y310059D01*
X121458Y310033D01*
X121345Y309937D01*
X121281Y309892D01*
X118108Y306719D01*
X118056Y306649D01*
X117996Y306585D01*
X117970Y306536D01*
X117937Y306492D01*
X117906Y306410D01*
X117866Y306332D01*
X117858Y306285D01*
X117836Y306226D01*
X117824Y306078D01*
X117811Y306001D01*
X117811Y252999D01*
X117823Y252912D01*
X117826Y252825D01*
X117843Y252772D01*
X117851Y252717D01*
X117886Y252638D01*
X117913Y252554D01*
X117941Y252515D01*
X117967Y252458D01*
X118063Y252345D01*
X118108Y252281D01*
X126811Y243578D01*
X126811Y199336D01*
X126823Y199251D01*
X126825Y199165D01*
X126843Y199111D01*
X126851Y199054D01*
X126886Y198976D01*
X126912Y198894D01*
X126944Y198847D01*
X126967Y198795D01*
X127022Y198729D01*
X127070Y198658D01*
X127114Y198621D01*
X127150Y198578D01*
X127222Y198530D01*
X127288Y198475D01*
X127340Y198452D01*
X127387Y198420D01*
X127469Y198394D01*
X127548Y198360D01*
X127604Y198352D01*
X127658Y198335D01*
X127744Y198332D01*
X127829Y198321D01*
X127885Y198329D01*
X127942Y198327D01*
X128025Y198349D01*
X128110Y198361D01*
X128162Y198385D01*
X128217Y198399D01*
X128291Y198443D01*
X128370Y198478D01*
X128413Y198515D01*
X128462Y198544D01*
X128521Y198607D01*
X128586Y198663D01*
X128612Y198705D01*
X128656Y198752D01*
X128722Y198881D01*
X128764Y198947D01*
X131003Y204353D01*
X135647Y208997D01*
X141716Y211511D01*
X148284Y211511D01*
X154353Y208997D01*
X158997Y204353D01*
X161511Y198284D01*
X161511Y191716D01*
X158997Y185647D01*
X154353Y181003D01*
X148284Y178489D01*
X141716Y178489D01*
X135647Y181003D01*
X131003Y185647D01*
X130872Y185964D01*
X130857Y185989D01*
X130848Y186017D01*
X130785Y186111D01*
X130727Y186209D01*
X130706Y186229D01*
X130690Y186253D01*
X130603Y186326D01*
X130521Y186404D01*
X130495Y186417D01*
X130472Y186436D01*
X130369Y186482D01*
X130268Y186534D01*
X130239Y186540D01*
X130212Y186552D01*
X130100Y186567D01*
X129989Y186589D01*
X129960Y186586D01*
X129931Y186590D01*
X129818Y186574D01*
X129706Y186565D01*
X129678Y186554D01*
X129649Y186550D01*
X129546Y186503D01*
X129440Y186462D01*
X129417Y186445D01*
X129390Y186433D01*
X129304Y186359D01*
X129214Y186291D01*
X129196Y186267D01*
X129174Y186248D01*
X129132Y186182D01*
X129044Y186063D01*
X129021Y186005D01*
X128996Y185964D01*
X128357Y184421D01*
X126579Y182643D01*
X124257Y181681D01*
X121743Y181681D01*
X119421Y182643D01*
X117643Y184421D01*
X116681Y186743D01*
X116681Y189257D01*
X117643Y191579D01*
X118892Y192828D01*
X118944Y192898D01*
X119004Y192962D01*
X119030Y193011D01*
X119063Y193055D01*
X119094Y193137D01*
X119134Y193215D01*
X119142Y193262D01*
X119164Y193321D01*
X119176Y193469D01*
X119189Y193546D01*
X119189Y240001D01*
X119177Y240088D01*
X119174Y240175D01*
X119157Y240228D01*
X119149Y240283D01*
X119114Y240362D01*
X119087Y240446D01*
X119059Y240485D01*
X119033Y240542D01*
X118937Y240655D01*
X118892Y240719D01*
X110189Y249422D01*
X110189Y280345D01*
X110177Y280430D01*
X110175Y280516D01*
X110157Y280570D01*
X110149Y280627D01*
X110114Y280705D01*
X110088Y280787D01*
X110056Y280834D01*
X110033Y280886D01*
X109978Y280952D01*
X109930Y281023D01*
X109886Y281060D01*
X109850Y281103D01*
X109778Y281151D01*
X109712Y281206D01*
X109660Y281229D01*
X109613Y281261D01*
X109531Y281287D01*
X109452Y281322D01*
X109396Y281329D01*
X109342Y281346D01*
X109256Y281349D01*
X109171Y281360D01*
X109115Y281352D01*
X109058Y281354D01*
X108975Y281332D01*
X108890Y281320D01*
X108838Y281296D01*
X108783Y281282D01*
X108709Y281238D01*
X108630Y281203D01*
X108587Y281166D01*
X108538Y281137D01*
X108479Y281074D01*
X108414Y281018D01*
X108388Y280976D01*
X108344Y280929D01*
X108278Y280800D01*
X108236Y280734D01*
X107222Y278286D01*
X105445Y276509D01*
X103122Y275547D01*
X102571Y275547D01*
X102513Y275539D01*
X102454Y275540D01*
X102373Y275519D01*
X102289Y275507D01*
X102236Y275483D01*
X102179Y275468D01*
X102107Y275425D01*
X102030Y275391D01*
X101985Y275353D01*
X101935Y275323D01*
X101877Y275262D01*
X101813Y275207D01*
X101780Y275158D01*
X101740Y275116D01*
X101702Y275041D01*
X101655Y274970D01*
X101638Y274915D01*
X101611Y274863D01*
X101600Y274795D01*
X101569Y274699D01*
X101567Y274600D01*
X101556Y274532D01*
X101556Y264121D01*
X101556Y264119D01*
X101556Y264118D01*
X101576Y263978D01*
X101595Y263839D01*
X101596Y263838D01*
X101596Y263836D01*
X101653Y263710D01*
X101712Y263580D01*
X101713Y263579D01*
X101713Y263577D01*
X101805Y263470D01*
X101895Y263363D01*
X101897Y263362D01*
X101898Y263361D01*
X101911Y263353D01*
X102132Y263205D01*
X102161Y263196D01*
X102182Y263183D01*
X102340Y263118D01*
X104118Y261340D01*
X105080Y259018D01*
X105080Y256504D01*
X104118Y254181D01*
X102340Y252404D01*
X100018Y251442D01*
X97504Y251442D01*
X95181Y252404D01*
X93404Y254181D01*
X92442Y256504D01*
X92442Y259018D01*
X93404Y261340D01*
X95181Y263118D01*
X95339Y263183D01*
X95341Y263184D01*
X95342Y263184D01*
X95460Y263254D01*
X95584Y263327D01*
X95585Y263329D01*
X95587Y263329D01*
X95684Y263433D01*
X95779Y263534D01*
X95780Y263536D01*
X95781Y263537D01*
X95845Y263662D01*
X95910Y263787D01*
X95910Y263788D01*
X95911Y263790D01*
X95913Y263804D01*
X95965Y264066D01*
X95962Y264096D01*
X95966Y264121D01*
X95966Y279395D01*
X95962Y279425D01*
X95964Y279456D01*
X95947Y279533D01*
X95926Y279676D01*
X95900Y279735D01*
X95889Y279783D01*
X95547Y280609D01*
X95547Y283122D01*
X96509Y285445D01*
X98286Y287222D01*
X100609Y288184D01*
X103122Y288184D01*
X105445Y287222D01*
X107222Y285445D01*
X108236Y282997D01*
X108280Y282923D01*
X108315Y282845D01*
X108352Y282801D01*
X108381Y282753D01*
X108443Y282694D01*
X108499Y282628D01*
X108546Y282596D01*
X108587Y282557D01*
X108664Y282518D01*
X108735Y282470D01*
X108789Y282453D01*
X108840Y282427D01*
X108924Y282411D01*
X109006Y282385D01*
X109063Y282383D01*
X109119Y282372D01*
X109204Y282379D01*
X109290Y282377D01*
X109345Y282392D01*
X109402Y282397D01*
X109482Y282427D01*
X109565Y282449D01*
X109614Y282478D01*
X109667Y282499D01*
X109736Y282551D01*
X109810Y282594D01*
X109849Y282636D01*
X109894Y282670D01*
X109946Y282739D01*
X110004Y282802D01*
X110030Y282852D01*
X110064Y282898D01*
X110095Y282978D01*
X110134Y283055D01*
X110142Y283104D01*
X110165Y283164D01*
X110176Y283309D01*
X110189Y283386D01*
X110189Y306001D01*
X110177Y306088D01*
X110174Y306175D01*
X110157Y306228D01*
X110149Y306283D01*
X110114Y306362D01*
X110087Y306446D01*
X110059Y306485D01*
X110033Y306542D01*
X109937Y306655D01*
X109892Y306719D01*
X106719Y309892D01*
X106649Y309944D01*
X106585Y310004D01*
X106536Y310030D01*
X106492Y310063D01*
X106410Y310094D01*
X106332Y310134D01*
X106285Y310142D01*
X106226Y310164D01*
X106078Y310176D01*
X106001Y310189D01*
X51098Y310189D01*
X51069Y310185D01*
X51040Y310188D01*
X50929Y310165D01*
X50817Y310149D01*
X50790Y310137D01*
X50761Y310132D01*
X50661Y310079D01*
X50557Y310033D01*
X50535Y310014D01*
X50509Y310001D01*
X50427Y309923D01*
X50340Y309850D01*
X50324Y309825D01*
X50303Y309805D01*
X50246Y309707D01*
X50183Y309613D01*
X50174Y309585D01*
X50159Y309560D01*
X50131Y309450D01*
X50097Y309342D01*
X50096Y309312D01*
X50089Y309284D01*
X50093Y309171D01*
X50090Y309058D01*
X50097Y309029D01*
X50098Y309000D01*
X50133Y308892D01*
X50162Y308783D01*
X50177Y308757D01*
X50186Y308729D01*
X50231Y308666D01*
X50307Y308538D01*
X50338Y308509D01*
X50340Y308505D01*
X50357Y308489D01*
X50380Y308456D01*
X52875Y305962D01*
X52875Y299438D01*
X48262Y294825D01*
X41738Y294825D01*
X37125Y299438D01*
X37125Y305962D01*
X41738Y310575D01*
X43585Y310575D01*
X43614Y310579D01*
X43643Y310576D01*
X43754Y310599D01*
X43867Y310615D01*
X43893Y310627D01*
X43922Y310632D01*
X44023Y310684D01*
X44126Y310731D01*
X44148Y310750D01*
X44174Y310763D01*
X44257Y310841D01*
X44343Y310914D01*
X44359Y310939D01*
X44381Y310959D01*
X44438Y311057D01*
X44501Y311151D01*
X44509Y311179D01*
X44524Y311204D01*
X44552Y311314D01*
X44586Y311422D01*
X44587Y311451D01*
X44594Y311480D01*
X44591Y311593D01*
X44594Y311706D01*
X44586Y311735D01*
X44585Y311764D01*
X44550Y311872D01*
X44522Y311981D01*
X44507Y312007D01*
X44498Y312035D01*
X44452Y312099D01*
X44377Y312226D01*
X44331Y312269D01*
X44303Y312308D01*
X43892Y312719D01*
X40528Y316083D01*
X40504Y316101D01*
X40485Y316123D01*
X40391Y316186D01*
X40301Y316254D01*
X40273Y316264D01*
X40249Y316281D01*
X40141Y316315D01*
X40035Y316355D01*
X40006Y316358D01*
X39978Y316366D01*
X39864Y316369D01*
X39752Y316379D01*
X39723Y316373D01*
X39694Y316374D01*
X39584Y316345D01*
X39473Y316323D01*
X39447Y316309D01*
X39419Y316302D01*
X39321Y316244D01*
X39221Y316192D01*
X39199Y316172D01*
X39174Y316157D01*
X39097Y316074D01*
X39015Y315996D01*
X39000Y315971D01*
X38980Y315949D01*
X38928Y315848D01*
X38871Y315751D01*
X38864Y315722D01*
X38850Y315696D01*
X38837Y315619D01*
X38801Y315475D01*
X38803Y315413D01*
X38795Y315365D01*
X38795Y314842D01*
X18172Y294220D01*
X18120Y294150D01*
X18060Y294086D01*
X18034Y294037D01*
X18001Y293993D01*
X17970Y293911D01*
X17930Y293833D01*
X17922Y293785D01*
X17900Y293727D01*
X17888Y293579D01*
X17875Y293502D01*
X17875Y126498D01*
X17887Y126412D01*
X17890Y126324D01*
X17907Y126271D01*
X17915Y126217D01*
X17950Y126137D01*
X17977Y126054D01*
X18005Y126014D01*
X18031Y125957D01*
X18127Y125844D01*
X18172Y125780D01*
X24860Y119092D01*
X24930Y119040D01*
X24994Y118980D01*
X25043Y118954D01*
X25087Y118921D01*
X25169Y118890D01*
X25247Y118850D01*
X25295Y118842D01*
X25353Y118820D01*
X25501Y118808D01*
X25578Y118795D01*
X40113Y118795D01*
X40159Y118801D01*
X40205Y118799D01*
X40299Y118821D01*
X40395Y118835D01*
X40437Y118853D01*
X40482Y118864D01*
X40566Y118911D01*
X40654Y118951D01*
X40689Y118981D01*
X40730Y119003D01*
X40797Y119072D01*
X40871Y119134D01*
X40897Y119173D01*
X40929Y119206D01*
X40975Y119291D01*
X41029Y119371D01*
X41043Y119415D01*
X41065Y119456D01*
X41085Y119550D01*
X41114Y119642D01*
X41116Y119688D01*
X41125Y119733D01*
X41119Y119830D01*
X41122Y119926D01*
X41110Y119971D01*
X41107Y120017D01*
X41074Y120108D01*
X41050Y120201D01*
X41026Y120241D01*
X41011Y120285D01*
X40954Y120363D01*
X40905Y120446D01*
X40871Y120477D01*
X40844Y120515D01*
X40783Y120560D01*
X40697Y120640D01*
X40623Y120678D01*
X40574Y120715D01*
X39611Y121205D01*
X38301Y122157D01*
X37157Y123301D01*
X36205Y124611D01*
X35471Y126053D01*
X34970Y127592D01*
X34911Y127969D01*
X42969Y127969D01*
X42969Y119810D01*
X42977Y119752D01*
X42975Y119694D01*
X42997Y119612D01*
X43009Y119528D01*
X43033Y119475D01*
X43047Y119419D01*
X43090Y119346D01*
X43125Y119269D01*
X43163Y119224D01*
X43193Y119174D01*
X43254Y119116D01*
X43309Y119052D01*
X43357Y119020D01*
X43400Y118980D01*
X43475Y118941D01*
X43545Y118894D01*
X43601Y118877D01*
X43653Y118850D01*
X43721Y118839D01*
X43816Y118809D01*
X43916Y118806D01*
X43984Y118795D01*
X46016Y118795D01*
X46074Y118803D01*
X46132Y118801D01*
X46214Y118823D01*
X46297Y118835D01*
X46351Y118858D01*
X46407Y118873D01*
X46480Y118916D01*
X46557Y118951D01*
X46602Y118989D01*
X46652Y119018D01*
X46710Y119080D01*
X46774Y119134D01*
X46806Y119183D01*
X46846Y119226D01*
X46885Y119301D01*
X46931Y119371D01*
X46949Y119427D01*
X46976Y119479D01*
X46987Y119547D01*
X47017Y119642D01*
X47020Y119742D01*
X47031Y119810D01*
X47031Y127969D01*
X55089Y127969D01*
X55030Y127592D01*
X54529Y126053D01*
X53795Y124611D01*
X52843Y123301D01*
X51699Y122157D01*
X50389Y121205D01*
X49426Y120715D01*
X49388Y120688D01*
X49346Y120669D01*
X49272Y120607D01*
X49193Y120551D01*
X49164Y120515D01*
X49129Y120485D01*
X49076Y120405D01*
X49015Y120330D01*
X48997Y120287D01*
X48971Y120249D01*
X48942Y120157D01*
X48905Y120068D01*
X48900Y120022D01*
X48886Y119978D01*
X48883Y119881D01*
X48872Y119785D01*
X48880Y119740D01*
X48878Y119694D01*
X48903Y119600D01*
X48919Y119505D01*
X48938Y119463D01*
X48950Y119419D01*
X48999Y119336D01*
X49041Y119248D01*
X49072Y119214D01*
X49095Y119174D01*
X49166Y119108D01*
X49230Y119036D01*
X49269Y119011D01*
X49303Y118980D01*
X49389Y118936D01*
X49470Y118884D01*
X49515Y118871D01*
X49556Y118850D01*
X49630Y118838D01*
X49743Y118805D01*
X49827Y118805D01*
X49887Y118795D01*
X97158Y118795D01*
X99092Y116860D01*
X122479Y93473D01*
X122480Y93472D01*
X122481Y93471D01*
X122595Y93386D01*
X122706Y93303D01*
X122708Y93302D01*
X122709Y93301D01*
X122839Y93252D01*
X122972Y93201D01*
X122973Y93201D01*
X122975Y93201D01*
X123113Y93190D01*
X123255Y93178D01*
X123257Y93178D01*
X123258Y93178D01*
X123273Y93181D01*
X123534Y93234D01*
X123561Y93248D01*
X123585Y93253D01*
X123743Y93319D01*
X126257Y93319D01*
X128579Y92357D01*
X130357Y90579D01*
X131319Y88257D01*
X131319Y85743D01*
X130357Y83421D01*
X128579Y81643D01*
X126257Y80681D01*
X123743Y80681D01*
X121421Y81643D01*
X119643Y83421D01*
X118681Y85743D01*
X118681Y88257D01*
X118747Y88415D01*
X118747Y88416D01*
X118748Y88418D01*
X118782Y88551D01*
X118818Y88690D01*
X118818Y88692D01*
X118818Y88693D01*
X118813Y88834D01*
X118809Y88974D01*
X118809Y88976D01*
X118809Y88977D01*
X118766Y89110D01*
X118723Y89245D01*
X118722Y89246D01*
X118721Y89248D01*
X118713Y89260D01*
X118565Y89481D01*
X118541Y89501D01*
X118527Y89521D01*
X95140Y112908D01*
X95070Y112960D01*
X95006Y113020D01*
X94957Y113046D01*
X94913Y113079D01*
X94831Y113110D01*
X94753Y113150D01*
X94705Y113158D01*
X94647Y113180D01*
X94499Y113192D01*
X94422Y113205D01*
X22842Y113205D01*
X20908Y115140D01*
X15544Y120504D01*
X15520Y120521D01*
X15501Y120544D01*
X15407Y120607D01*
X15317Y120675D01*
X15289Y120685D01*
X15265Y120701D01*
X15157Y120736D01*
X15051Y120776D01*
X15022Y120778D01*
X14994Y120787D01*
X14880Y120790D01*
X14768Y120799D01*
X14739Y120794D01*
X14710Y120794D01*
X14600Y120766D01*
X14489Y120744D01*
X14463Y120730D01*
X14435Y120723D01*
X14337Y120665D01*
X14237Y120613D01*
X14215Y120592D01*
X14190Y120577D01*
X14113Y120495D01*
X14031Y120417D01*
X14016Y120391D01*
X13996Y120370D01*
X13944Y120269D01*
X13887Y120172D01*
X13880Y120143D01*
X13866Y120117D01*
X13853Y120040D01*
X13817Y119896D01*
X13819Y119834D01*
X13811Y119786D01*
X13811Y111999D01*
X13823Y111912D01*
X13826Y111825D01*
X13843Y111772D01*
X13851Y111717D01*
X13886Y111638D01*
X13913Y111554D01*
X13941Y111515D01*
X13967Y111458D01*
X14063Y111345D01*
X14108Y111281D01*
X36281Y89108D01*
X36351Y89056D01*
X36415Y88996D01*
X36464Y88970D01*
X36508Y88937D01*
X36590Y88906D01*
X36668Y88866D01*
X36715Y88858D01*
X36774Y88836D01*
X36922Y88824D01*
X36999Y88811D01*
X40703Y88811D01*
X40788Y88823D01*
X40874Y88825D01*
X40928Y88843D01*
X40984Y88851D01*
X41063Y88886D01*
X41145Y88912D01*
X41192Y88944D01*
X41244Y88967D01*
X41309Y89022D01*
X41381Y89070D01*
X41417Y89114D01*
X41461Y89150D01*
X41509Y89222D01*
X41564Y89288D01*
X41587Y89340D01*
X41618Y89387D01*
X41644Y89469D01*
X41679Y89548D01*
X41687Y89604D01*
X41704Y89658D01*
X41706Y89744D01*
X41718Y89829D01*
X41710Y89885D01*
X41712Y89942D01*
X41690Y90025D01*
X41678Y90111D01*
X41654Y90162D01*
X41640Y90217D01*
X41596Y90291D01*
X41560Y90370D01*
X41524Y90413D01*
X41494Y90462D01*
X41432Y90521D01*
X41376Y90586D01*
X41334Y90612D01*
X41287Y90656D01*
X41158Y90722D01*
X41091Y90764D01*
X39319Y91498D01*
X36498Y94319D01*
X34971Y98005D01*
X34971Y101995D01*
X36498Y105681D01*
X39319Y108502D01*
X43005Y110029D01*
X46995Y110029D01*
X50681Y108502D01*
X53502Y105681D01*
X55029Y101995D01*
X55029Y98005D01*
X53502Y94319D01*
X50681Y91498D01*
X48909Y90764D01*
X48835Y90720D01*
X48756Y90685D01*
X48713Y90648D01*
X48664Y90619D01*
X48605Y90557D01*
X48539Y90501D01*
X48508Y90454D01*
X48469Y90413D01*
X48429Y90336D01*
X48382Y90265D01*
X48364Y90211D01*
X48338Y90160D01*
X48322Y90076D01*
X48296Y89994D01*
X48294Y89937D01*
X48283Y89881D01*
X48291Y89796D01*
X48288Y89710D01*
X48303Y89655D01*
X48308Y89598D01*
X48339Y89517D01*
X48360Y89435D01*
X48389Y89386D01*
X48410Y89333D01*
X48462Y89264D01*
X48506Y89190D01*
X48547Y89151D01*
X48581Y89106D01*
X48650Y89054D01*
X48713Y88996D01*
X48764Y88970D01*
X48809Y88936D01*
X48889Y88905D01*
X48966Y88866D01*
X49015Y88858D01*
X49075Y88835D01*
X49220Y88824D01*
X49297Y88811D01*
X56962Y88811D01*
X57076Y88827D01*
X57190Y88837D01*
X57216Y88847D01*
X57244Y88851D01*
X57349Y88898D01*
X57456Y88939D01*
X57478Y88955D01*
X57503Y88967D01*
X57591Y89041D01*
X57682Y89110D01*
X57699Y89133D01*
X57720Y89150D01*
X57784Y89246D01*
X57853Y89338D01*
X57862Y89364D01*
X57878Y89387D01*
X57912Y89497D01*
X57953Y89604D01*
X57955Y89632D01*
X57964Y89658D01*
X57966Y89773D01*
X57976Y89887D01*
X57970Y89912D01*
X57971Y89942D01*
X57904Y90199D01*
X57900Y90215D01*
X57681Y90743D01*
X57681Y93257D01*
X58643Y95579D01*
X60421Y97357D01*
X62743Y98319D01*
X65257Y98319D01*
X67579Y97357D01*
X69357Y95579D01*
X70319Y93257D01*
X70319Y90743D01*
X69357Y88421D01*
X67579Y86643D01*
X66832Y86334D01*
X66806Y86318D01*
X66776Y86309D01*
X66712Y86263D01*
X66587Y86189D01*
X66543Y86142D01*
X66503Y86114D01*
X65281Y84892D01*
X61578Y81189D01*
X54164Y81189D01*
X54079Y81177D01*
X53993Y81175D01*
X53939Y81157D01*
X53883Y81149D01*
X53804Y81114D01*
X53723Y81088D01*
X53675Y81056D01*
X53623Y81033D01*
X53558Y80978D01*
X53486Y80930D01*
X53450Y80886D01*
X53406Y80850D01*
X53359Y80778D01*
X53303Y80712D01*
X53280Y80660D01*
X53249Y80613D01*
X53223Y80531D01*
X53188Y80452D01*
X53180Y80396D01*
X53163Y80342D01*
X53161Y80256D01*
X53149Y80171D01*
X53157Y80115D01*
X53156Y80058D01*
X53177Y79975D01*
X53190Y79889D01*
X53213Y79838D01*
X53228Y79783D01*
X53271Y79709D01*
X53307Y79630D01*
X53344Y79587D01*
X53373Y79538D01*
X53435Y79479D01*
X53491Y79414D01*
X53533Y79388D01*
X53580Y79344D01*
X53709Y79278D01*
X53776Y79236D01*
X54353Y78997D01*
X58997Y74353D01*
X61511Y68284D01*
X61511Y61716D01*
X58997Y55647D01*
X54353Y51003D01*
X48284Y48489D01*
X41716Y48489D01*
X35647Y51003D01*
X31003Y55647D01*
X28489Y61716D01*
X28489Y68284D01*
X31003Y74353D01*
X35647Y78997D01*
X36224Y79236D01*
X36298Y79280D01*
X36377Y79315D01*
X36420Y79352D01*
X36469Y79381D01*
X36528Y79443D01*
X36594Y79499D01*
X36625Y79546D01*
X36664Y79587D01*
X36704Y79664D01*
X36751Y79735D01*
X36768Y79789D01*
X36794Y79840D01*
X36811Y79924D01*
X36837Y80006D01*
X36838Y80063D01*
X36849Y80119D01*
X36842Y80204D01*
X36844Y80290D01*
X36830Y80345D01*
X36825Y80402D01*
X36794Y80482D01*
X36772Y80565D01*
X36743Y80614D01*
X36723Y80667D01*
X36671Y80736D01*
X36627Y80810D01*
X36586Y80849D01*
X36551Y80894D01*
X36483Y80946D01*
X36420Y81004D01*
X36369Y81030D01*
X36324Y81064D01*
X36243Y81095D01*
X36167Y81134D01*
X36118Y81142D01*
X36058Y81165D01*
X35913Y81176D01*
X35836Y81189D01*
X33422Y81189D01*
X30892Y83719D01*
X7314Y107297D01*
X7290Y107315D01*
X7271Y107337D01*
X7177Y107400D01*
X7087Y107468D01*
X7059Y107478D01*
X7035Y107495D01*
X6927Y107529D01*
X6821Y107569D01*
X6792Y107572D01*
X6764Y107580D01*
X6650Y107583D01*
X6538Y107593D01*
X6509Y107587D01*
X6480Y107588D01*
X6370Y107559D01*
X6259Y107537D01*
X6233Y107523D01*
X6205Y107516D01*
X6107Y107458D01*
X6007Y107406D01*
X5985Y107386D01*
X5960Y107371D01*
X5883Y107288D01*
X5801Y107210D01*
X5786Y107185D01*
X5766Y107163D01*
X5714Y107062D01*
X5657Y106965D01*
X5650Y106936D01*
X5636Y106910D01*
X5623Y106833D01*
X5587Y106689D01*
X5589Y106627D01*
X5581Y106579D01*
X5581Y56479D01*
X5597Y56365D01*
X5607Y56250D01*
X5617Y56225D01*
X5621Y56197D01*
X5668Y56092D01*
X5709Y55985D01*
X5725Y55963D01*
X5737Y55938D01*
X5811Y55850D01*
X5880Y55758D01*
X5903Y55742D01*
X5920Y55721D01*
X6016Y55657D01*
X6108Y55588D01*
X6134Y55578D01*
X6157Y55563D01*
X6267Y55528D01*
X6374Y55488D01*
X6402Y55486D01*
X6428Y55477D01*
X6543Y55474D01*
X6657Y55465D01*
X6682Y55471D01*
X6712Y55470D01*
X6969Y55537D01*
X6985Y55541D01*
X8863Y56319D01*
X11377Y56319D01*
X13699Y55357D01*
X15477Y53579D01*
X16439Y51257D01*
X16439Y48743D01*
X15477Y46421D01*
X13699Y44643D01*
X13541Y44578D01*
X13540Y44577D01*
X13539Y44577D01*
X13420Y44506D01*
X13297Y44433D01*
X13296Y44432D01*
X13294Y44431D01*
X13197Y44327D01*
X13101Y44227D01*
X13101Y44225D01*
X13100Y44224D01*
X13035Y44098D01*
X12971Y43974D01*
X12971Y43972D01*
X12970Y43971D01*
X12968Y43956D01*
X12916Y43695D01*
X12919Y43665D01*
X12915Y43640D01*
X12915Y41458D01*
X12927Y41372D01*
X12930Y41284D01*
X12947Y41231D01*
X12955Y41177D01*
X12990Y41097D01*
X13017Y41014D01*
X13045Y40974D01*
X13071Y40917D01*
X13167Y40804D01*
X13212Y40740D01*
X20860Y33092D01*
X20930Y33040D01*
X20994Y32980D01*
X21043Y32954D01*
X21087Y32921D01*
X21169Y32890D01*
X21247Y32850D01*
X21295Y32842D01*
X21353Y32820D01*
X21501Y32808D01*
X21578Y32795D01*
X221158Y32795D01*
X223092Y30860D01*
X234479Y19474D01*
X234570Y19405D01*
X234658Y19331D01*
X234684Y19319D01*
X234706Y19303D01*
X234813Y19262D01*
X234918Y19215D01*
X234946Y19211D01*
X234971Y19202D01*
X235086Y19192D01*
X235200Y19176D01*
X235227Y19180D01*
X235255Y19178D01*
X235367Y19201D01*
X235481Y19217D01*
X235506Y19228D01*
X235534Y19234D01*
X235636Y19287D01*
X235740Y19334D01*
X235761Y19352D01*
X235786Y19365D01*
X235869Y19444D01*
X235957Y19518D01*
X235970Y19540D01*
X235992Y19561D01*
X236127Y19790D01*
X236134Y19803D01*
X236498Y20681D01*
X239319Y23502D01*
X243005Y25029D01*
X246995Y25029D01*
X250681Y23502D01*
X253502Y20681D01*
X255029Y16995D01*
X255029Y13005D01*
X253502Y9319D01*
X251497Y7314D01*
X251479Y7290D01*
X251457Y7271D01*
X251394Y7177D01*
X251326Y7087D01*
X251315Y7059D01*
X251299Y7035D01*
X251265Y6927D01*
X251225Y6821D01*
X251222Y6792D01*
X251213Y6764D01*
X251210Y6650D01*
X251201Y6538D01*
X251207Y6509D01*
X251206Y6480D01*
X251235Y6370D01*
X251257Y6259D01*
X251270Y6233D01*
X251278Y6205D01*
X251336Y6107D01*
X251388Y6007D01*
X251408Y5985D01*
X251423Y5960D01*
X251506Y5883D01*
X251584Y5801D01*
X251609Y5786D01*
X251630Y5766D01*
X251731Y5714D01*
X251829Y5657D01*
X251857Y5650D01*
X251883Y5636D01*
X251961Y5623D01*
X252104Y5587D01*
X252167Y5589D01*
X252215Y5581D01*
X283404Y5581D01*
X283462Y5589D01*
G37*
G36*
X6599Y842415D02*
X6599Y842415D01*
X6712Y842412D01*
X6741Y842420D01*
X6770Y842421D01*
X6878Y842456D01*
X6987Y842484D01*
X7013Y842499D01*
X7041Y842508D01*
X7105Y842554D01*
X7232Y842629D01*
X7275Y842675D01*
X7314Y842703D01*
X8719Y844108D01*
X28422Y863811D01*
X128001Y863811D01*
X128088Y863823D01*
X128175Y863826D01*
X128228Y863843D01*
X128283Y863851D01*
X128362Y863886D01*
X128446Y863913D01*
X128485Y863941D01*
X128542Y863967D01*
X128655Y864063D01*
X128719Y864108D01*
X145892Y881281D01*
X145944Y881351D01*
X146004Y881415D01*
X146030Y881464D01*
X146063Y881508D01*
X146094Y881590D01*
X146134Y881668D01*
X146142Y881715D01*
X146164Y881774D01*
X146176Y881922D01*
X146189Y881999D01*
X146189Y944454D01*
X146177Y944541D01*
X146174Y944628D01*
X146157Y944681D01*
X146149Y944736D01*
X146114Y944815D01*
X146087Y944899D01*
X146059Y944938D01*
X146033Y944995D01*
X145937Y945108D01*
X145892Y945172D01*
X144643Y946421D01*
X143681Y948743D01*
X143681Y951257D01*
X144643Y953579D01*
X146421Y955357D01*
X148743Y956319D01*
X151257Y956319D01*
X153501Y955389D01*
X153613Y955360D01*
X153722Y955326D01*
X153750Y955325D01*
X153777Y955318D01*
X153891Y955321D01*
X154006Y955318D01*
X154033Y955325D01*
X154061Y955326D01*
X154170Y955361D01*
X154281Y955390D01*
X154305Y955404D01*
X154332Y955413D01*
X154427Y955477D01*
X154526Y955535D01*
X154545Y955556D01*
X154568Y955571D01*
X154642Y955659D01*
X154720Y955743D01*
X154733Y955767D01*
X154751Y955789D01*
X154798Y955894D01*
X154850Y955996D01*
X154854Y956021D01*
X154866Y956048D01*
X154903Y956312D01*
X154905Y956327D01*
X154905Y1056436D01*
X154905Y1056438D01*
X154905Y1056439D01*
X154885Y1056579D01*
X154865Y1056718D01*
X154865Y1056719D01*
X154865Y1056721D01*
X154808Y1056846D01*
X154749Y1056977D01*
X154748Y1056978D01*
X154747Y1056980D01*
X154656Y1057087D01*
X154566Y1057194D01*
X154564Y1057195D01*
X154563Y1057196D01*
X154550Y1057204D01*
X154329Y1057352D01*
X154300Y1057361D01*
X154279Y1057374D01*
X152444Y1058134D01*
X149834Y1060744D01*
X148421Y1064154D01*
X148421Y1067846D01*
X149834Y1071256D01*
X151264Y1072686D01*
X151282Y1072710D01*
X151304Y1072729D01*
X151367Y1072823D01*
X151435Y1072913D01*
X151445Y1072941D01*
X151462Y1072965D01*
X151496Y1073073D01*
X151536Y1073179D01*
X151539Y1073208D01*
X151547Y1073236D01*
X151550Y1073350D01*
X151560Y1073462D01*
X151554Y1073491D01*
X151555Y1073520D01*
X151526Y1073630D01*
X151504Y1073741D01*
X151490Y1073767D01*
X151483Y1073795D01*
X151425Y1073893D01*
X151373Y1073993D01*
X151353Y1074015D01*
X151338Y1074040D01*
X151255Y1074117D01*
X151177Y1074199D01*
X151152Y1074214D01*
X151130Y1074234D01*
X151029Y1074286D01*
X150932Y1074343D01*
X150903Y1074350D01*
X150877Y1074364D01*
X150800Y1074377D01*
X150656Y1074413D01*
X150594Y1074411D01*
X150546Y1074419D01*
X139454Y1074419D01*
X139425Y1074415D01*
X139396Y1074418D01*
X139285Y1074395D01*
X139172Y1074379D01*
X139146Y1074367D01*
X139117Y1074362D01*
X139016Y1074309D01*
X138913Y1074263D01*
X138891Y1074244D01*
X138865Y1074231D01*
X138782Y1074153D01*
X138696Y1074080D01*
X138680Y1074055D01*
X138658Y1074035D01*
X138601Y1073937D01*
X138538Y1073843D01*
X138529Y1073815D01*
X138515Y1073790D01*
X138487Y1073680D01*
X138453Y1073572D01*
X138452Y1073542D01*
X138445Y1073514D01*
X138448Y1073401D01*
X138445Y1073288D01*
X138453Y1073259D01*
X138454Y1073230D01*
X138489Y1073122D01*
X138517Y1073013D01*
X138532Y1072987D01*
X138541Y1072959D01*
X138587Y1072895D01*
X138662Y1072768D01*
X138708Y1072725D01*
X138736Y1072686D01*
X140166Y1071256D01*
X141579Y1067846D01*
X141579Y1064154D01*
X140166Y1060744D01*
X137556Y1058134D01*
X134146Y1056721D01*
X130454Y1056721D01*
X127044Y1058134D01*
X124434Y1060744D01*
X123021Y1064154D01*
X123021Y1067846D01*
X124434Y1071256D01*
X125864Y1072686D01*
X125882Y1072710D01*
X125904Y1072729D01*
X125967Y1072823D01*
X126035Y1072913D01*
X126045Y1072941D01*
X126062Y1072965D01*
X126096Y1073073D01*
X126136Y1073179D01*
X126139Y1073208D01*
X126147Y1073236D01*
X126150Y1073350D01*
X126160Y1073462D01*
X126154Y1073491D01*
X126155Y1073520D01*
X126126Y1073630D01*
X126104Y1073741D01*
X126090Y1073767D01*
X126083Y1073795D01*
X126025Y1073893D01*
X125973Y1073993D01*
X125953Y1074015D01*
X125938Y1074040D01*
X125855Y1074117D01*
X125777Y1074199D01*
X125752Y1074214D01*
X125730Y1074234D01*
X125629Y1074286D01*
X125532Y1074343D01*
X125503Y1074350D01*
X125477Y1074364D01*
X125400Y1074377D01*
X125256Y1074413D01*
X125194Y1074411D01*
X125146Y1074419D01*
X117448Y1074419D01*
X117390Y1074411D01*
X117332Y1074413D01*
X117250Y1074391D01*
X117166Y1074379D01*
X117113Y1074356D01*
X117057Y1074341D01*
X116984Y1074298D01*
X116907Y1074263D01*
X116862Y1074225D01*
X116812Y1074196D01*
X116754Y1074134D01*
X116690Y1074080D01*
X116658Y1074031D01*
X116618Y1073988D01*
X116579Y1073913D01*
X116532Y1073843D01*
X116515Y1073787D01*
X116488Y1073735D01*
X116477Y1073667D01*
X116447Y1073572D01*
X116444Y1073472D01*
X116433Y1073404D01*
X116433Y1068031D01*
X107916Y1068031D01*
X107858Y1068023D01*
X107800Y1068025D01*
X107718Y1068003D01*
X107635Y1067991D01*
X107581Y1067967D01*
X107525Y1067953D01*
X107452Y1067910D01*
X107375Y1067875D01*
X107331Y1067837D01*
X107280Y1067807D01*
X107223Y1067746D01*
X107158Y1067691D01*
X107126Y1067643D01*
X107086Y1067600D01*
X107047Y1067525D01*
X107001Y1067455D01*
X106983Y1067399D01*
X106956Y1067347D01*
X106945Y1067279D01*
X106915Y1067184D01*
X106912Y1067084D01*
X106901Y1067016D01*
X106901Y1065999D01*
X106899Y1065999D01*
X106899Y1067016D01*
X106891Y1067074D01*
X106892Y1067132D01*
X106871Y1067214D01*
X106859Y1067297D01*
X106835Y1067351D01*
X106821Y1067407D01*
X106778Y1067480D01*
X106743Y1067557D01*
X106705Y1067602D01*
X106675Y1067652D01*
X106614Y1067710D01*
X106559Y1067774D01*
X106511Y1067806D01*
X106468Y1067846D01*
X106393Y1067885D01*
X106323Y1067931D01*
X106267Y1067949D01*
X106215Y1067976D01*
X106147Y1067987D01*
X106052Y1068017D01*
X105952Y1068020D01*
X105884Y1068031D01*
X97367Y1068031D01*
X97367Y1073404D01*
X97359Y1073462D01*
X97361Y1073520D01*
X97339Y1073602D01*
X97327Y1073686D01*
X97304Y1073739D01*
X97289Y1073795D01*
X97246Y1073868D01*
X97211Y1073945D01*
X97173Y1073990D01*
X97144Y1074040D01*
X97082Y1074098D01*
X97028Y1074162D01*
X96979Y1074194D01*
X96936Y1074234D01*
X96861Y1074273D01*
X96791Y1074320D01*
X96735Y1074337D01*
X96683Y1074364D01*
X96615Y1074375D01*
X96520Y1074405D01*
X96420Y1074408D01*
X96352Y1074419D01*
X6596Y1074419D01*
X6538Y1074411D01*
X6480Y1074413D01*
X6398Y1074391D01*
X6314Y1074379D01*
X6261Y1074356D01*
X6205Y1074341D01*
X6132Y1074298D01*
X6055Y1074263D01*
X6010Y1074225D01*
X5960Y1074196D01*
X5902Y1074134D01*
X5838Y1074080D01*
X5806Y1074031D01*
X5766Y1073988D01*
X5727Y1073913D01*
X5680Y1073843D01*
X5663Y1073787D01*
X5636Y1073735D01*
X5625Y1073667D01*
X5595Y1073572D01*
X5592Y1073472D01*
X5581Y1073404D01*
X5581Y843421D01*
X5585Y843392D01*
X5582Y843363D01*
X5605Y843252D01*
X5621Y843139D01*
X5633Y843113D01*
X5638Y843084D01*
X5691Y842983D01*
X5737Y842880D01*
X5756Y842858D01*
X5769Y842832D01*
X5847Y842749D01*
X5920Y842663D01*
X5945Y842647D01*
X5965Y842625D01*
X6063Y842568D01*
X6157Y842505D01*
X6185Y842497D01*
X6210Y842482D01*
X6320Y842454D01*
X6428Y842420D01*
X6458Y842419D01*
X6486Y842412D01*
X6599Y842415D01*
G37*
G36*
X283491Y408960D02*
X283491Y408960D01*
X283520Y408959D01*
X283630Y408988D01*
X283741Y409010D01*
X283767Y409024D01*
X283795Y409031D01*
X283892Y409089D01*
X283993Y409141D01*
X284015Y409161D01*
X284040Y409176D01*
X284117Y409259D01*
X284199Y409337D01*
X284214Y409362D01*
X284234Y409384D01*
X284286Y409484D01*
X284343Y409582D01*
X284350Y409611D01*
X284364Y409637D01*
X284377Y409714D01*
X284413Y409858D01*
X284411Y409920D01*
X284419Y409968D01*
X284419Y1073404D01*
X284411Y1073462D01*
X284413Y1073520D01*
X284391Y1073602D01*
X284379Y1073686D01*
X284356Y1073739D01*
X284341Y1073795D01*
X284298Y1073868D01*
X284263Y1073945D01*
X284225Y1073990D01*
X284196Y1074040D01*
X284134Y1074098D01*
X284080Y1074162D01*
X284031Y1074194D01*
X283988Y1074234D01*
X283913Y1074273D01*
X283843Y1074320D01*
X283787Y1074337D01*
X283735Y1074364D01*
X283667Y1074375D01*
X283572Y1074405D01*
X283472Y1074408D01*
X283404Y1074419D01*
X190254Y1074419D01*
X190225Y1074415D01*
X190196Y1074418D01*
X190085Y1074395D01*
X189972Y1074379D01*
X189946Y1074367D01*
X189917Y1074362D01*
X189816Y1074309D01*
X189713Y1074263D01*
X189691Y1074244D01*
X189665Y1074231D01*
X189582Y1074153D01*
X189496Y1074080D01*
X189480Y1074055D01*
X189458Y1074035D01*
X189401Y1073937D01*
X189338Y1073843D01*
X189329Y1073815D01*
X189315Y1073790D01*
X189287Y1073680D01*
X189253Y1073572D01*
X189252Y1073542D01*
X189245Y1073514D01*
X189248Y1073401D01*
X189245Y1073288D01*
X189253Y1073259D01*
X189254Y1073230D01*
X189289Y1073122D01*
X189317Y1073013D01*
X189332Y1072987D01*
X189341Y1072959D01*
X189387Y1072895D01*
X189462Y1072768D01*
X189508Y1072725D01*
X189536Y1072686D01*
X190966Y1071256D01*
X192379Y1067846D01*
X192379Y1064154D01*
X190966Y1060744D01*
X188356Y1058134D01*
X184946Y1056721D01*
X181254Y1056721D01*
X180763Y1056925D01*
X180762Y1056925D01*
X180760Y1056926D01*
X180625Y1056960D01*
X180488Y1056996D01*
X180486Y1056996D01*
X180485Y1056996D01*
X180344Y1056991D01*
X180204Y1056987D01*
X180202Y1056987D01*
X180201Y1056987D01*
X180070Y1056944D01*
X179933Y1056901D01*
X179932Y1056900D01*
X179930Y1056899D01*
X179918Y1056891D01*
X179697Y1056743D01*
X179677Y1056719D01*
X179657Y1056705D01*
X164856Y1041904D01*
X164804Y1041834D01*
X164744Y1041770D01*
X164718Y1041721D01*
X164685Y1041677D01*
X164654Y1041595D01*
X164614Y1041517D01*
X164606Y1041469D01*
X164584Y1041411D01*
X164576Y1041314D01*
X164573Y1041304D01*
X164572Y1041263D01*
X164559Y1041186D01*
X164559Y975946D01*
X164563Y975917D01*
X164560Y975887D01*
X164583Y975777D01*
X164599Y975664D01*
X164611Y975637D01*
X164616Y975609D01*
X164668Y975508D01*
X164715Y975405D01*
X164734Y975382D01*
X164747Y975356D01*
X164825Y975274D01*
X164898Y975188D01*
X164923Y975172D01*
X164943Y975150D01*
X165041Y975093D01*
X165135Y975030D01*
X165163Y975021D01*
X165188Y975007D01*
X165298Y974979D01*
X165406Y974945D01*
X165435Y974944D01*
X165464Y974937D01*
X165577Y974940D01*
X165690Y974937D01*
X165719Y974945D01*
X165748Y974946D01*
X165856Y974980D01*
X165965Y975009D01*
X165991Y975024D01*
X166019Y975033D01*
X166082Y975079D01*
X166210Y975154D01*
X166253Y975200D01*
X166292Y975228D01*
X166421Y975357D01*
X168743Y976319D01*
X171257Y976319D01*
X173579Y975357D01*
X175357Y973579D01*
X176319Y971257D01*
X176319Y969491D01*
X176331Y969404D01*
X176334Y969317D01*
X176351Y969264D01*
X176359Y969209D01*
X176394Y969130D01*
X176421Y969046D01*
X176449Y969007D01*
X176475Y968950D01*
X176571Y968837D01*
X176616Y968773D01*
X253811Y891578D01*
X253811Y783422D01*
X245571Y775182D01*
X245519Y775113D01*
X245460Y775050D01*
X245434Y775000D01*
X245400Y774954D01*
X245369Y774874D01*
X245330Y774798D01*
X245319Y774742D01*
X245299Y774689D01*
X245291Y774603D01*
X245275Y774519D01*
X245280Y774462D01*
X245275Y774405D01*
X245292Y774321D01*
X245299Y774236D01*
X245320Y774182D01*
X245331Y774127D01*
X245371Y774050D01*
X245401Y773970D01*
X245436Y773925D01*
X245462Y773874D01*
X245521Y773812D01*
X245573Y773744D01*
X245618Y773710D01*
X245658Y773668D01*
X245732Y773625D01*
X245801Y773573D01*
X245854Y773553D01*
X245903Y773524D01*
X245986Y773503D01*
X246067Y773473D01*
X246123Y773468D01*
X246178Y773454D01*
X246264Y773457D01*
X246350Y773450D01*
X246398Y773461D01*
X246463Y773463D01*
X246600Y773508D01*
X246677Y773526D01*
X248254Y774179D01*
X251746Y774179D01*
X254973Y772842D01*
X257442Y770373D01*
X258779Y767146D01*
X258779Y763654D01*
X257442Y760427D01*
X254973Y757958D01*
X251746Y756621D01*
X248254Y756621D01*
X245027Y757958D01*
X242558Y760427D01*
X241764Y762344D01*
X241720Y762418D01*
X241685Y762496D01*
X241648Y762540D01*
X241619Y762588D01*
X241557Y762647D01*
X241501Y762713D01*
X241454Y762745D01*
X241413Y762784D01*
X241336Y762823D01*
X241265Y762871D01*
X241211Y762888D01*
X241160Y762914D01*
X241076Y762930D01*
X240994Y762956D01*
X240937Y762958D01*
X240881Y762969D01*
X240796Y762962D01*
X240710Y762964D01*
X240655Y762949D01*
X240598Y762944D01*
X240518Y762914D01*
X240435Y762892D01*
X240386Y762863D01*
X240333Y762842D01*
X240264Y762790D01*
X240190Y762747D01*
X240151Y762705D01*
X240106Y762671D01*
X240054Y762602D01*
X239996Y762539D01*
X239970Y762489D01*
X239936Y762443D01*
X239914Y762387D01*
X239910Y762381D01*
X239904Y762360D01*
X239866Y762286D01*
X239858Y762237D01*
X239835Y762177D01*
X239832Y762132D01*
X239825Y762110D01*
X239823Y762026D01*
X239811Y761955D01*
X239811Y744109D01*
X239823Y744023D01*
X239825Y743938D01*
X239843Y743883D01*
X239851Y743827D01*
X239886Y743749D01*
X239912Y743667D01*
X239944Y743620D01*
X239967Y743568D01*
X240022Y743502D01*
X240070Y743431D01*
X240114Y743394D01*
X240150Y743351D01*
X240222Y743303D01*
X240288Y743248D01*
X240340Y743225D01*
X240387Y743193D01*
X240469Y743167D01*
X240548Y743132D01*
X240604Y743124D01*
X240658Y743107D01*
X240744Y743105D01*
X240829Y743093D01*
X240885Y743101D01*
X240942Y743100D01*
X241025Y743122D01*
X241111Y743134D01*
X241162Y743157D01*
X241217Y743172D01*
X241291Y743216D01*
X241370Y743251D01*
X241413Y743288D01*
X241462Y743317D01*
X241521Y743380D01*
X241586Y743435D01*
X241612Y743477D01*
X241656Y743524D01*
X241722Y743653D01*
X241764Y743720D01*
X241995Y744279D01*
X242984Y745758D01*
X244242Y747016D01*
X245721Y748005D01*
X247365Y748686D01*
X248001Y748812D01*
X248001Y740984D01*
X248009Y740926D01*
X248007Y740868D01*
X248029Y740786D01*
X248041Y740703D01*
X248064Y740649D01*
X248079Y740593D01*
X248122Y740520D01*
X248157Y740443D01*
X248195Y740399D01*
X248224Y740348D01*
X248286Y740291D01*
X248340Y740226D01*
X248389Y740194D01*
X248432Y740154D01*
X248507Y740115D01*
X248577Y740069D01*
X248633Y740051D01*
X248685Y740024D01*
X248753Y740013D01*
X248795Y740000D01*
X248734Y739991D01*
X248681Y739967D01*
X248625Y739953D01*
X248552Y739909D01*
X248475Y739875D01*
X248430Y739837D01*
X248380Y739807D01*
X248322Y739746D01*
X248258Y739691D01*
X248226Y739643D01*
X248186Y739600D01*
X248147Y739525D01*
X248100Y739455D01*
X248083Y739399D01*
X248056Y739347D01*
X248045Y739279D01*
X248015Y739184D01*
X248012Y739084D01*
X248001Y739016D01*
X248001Y731188D01*
X247365Y731314D01*
X245721Y731995D01*
X244242Y732984D01*
X242984Y734242D01*
X241995Y735721D01*
X241764Y736280D01*
X241720Y736354D01*
X241685Y736432D01*
X241648Y736476D01*
X241619Y736525D01*
X241557Y736584D01*
X241501Y736649D01*
X241454Y736681D01*
X241413Y736720D01*
X241336Y736759D01*
X241265Y736807D01*
X241211Y736824D01*
X241160Y736850D01*
X241076Y736867D01*
X240994Y736893D01*
X240937Y736894D01*
X240881Y736905D01*
X240796Y736898D01*
X240710Y736900D01*
X240655Y736886D01*
X240598Y736881D01*
X240518Y736850D01*
X240435Y736828D01*
X240386Y736799D01*
X240333Y736779D01*
X240264Y736727D01*
X240190Y736683D01*
X240151Y736641D01*
X240106Y736607D01*
X240055Y736538D01*
X239996Y736476D01*
X239970Y736425D01*
X239936Y736379D01*
X239905Y736299D01*
X239866Y736222D01*
X239858Y736174D01*
X239835Y736113D01*
X239824Y735969D01*
X239811Y735891D01*
X239811Y718045D01*
X239823Y717960D01*
X239825Y717874D01*
X239843Y717820D01*
X239851Y717763D01*
X239886Y717685D01*
X239912Y717603D01*
X239944Y717556D01*
X239967Y717504D01*
X240022Y717438D01*
X240070Y717367D01*
X240114Y717330D01*
X240150Y717287D01*
X240222Y717239D01*
X240288Y717184D01*
X240340Y717161D01*
X240387Y717129D01*
X240469Y717103D01*
X240548Y717069D01*
X240604Y717061D01*
X240658Y717044D01*
X240744Y717041D01*
X240829Y717030D01*
X240885Y717038D01*
X240942Y717036D01*
X241025Y717058D01*
X241111Y717070D01*
X241162Y717094D01*
X241217Y717108D01*
X241291Y717152D01*
X241370Y717187D01*
X241413Y717224D01*
X241462Y717253D01*
X241521Y717316D01*
X241586Y717372D01*
X241612Y717414D01*
X241656Y717461D01*
X241722Y717590D01*
X241764Y717656D01*
X242558Y719573D01*
X245027Y722042D01*
X248254Y723379D01*
X251746Y723379D01*
X254973Y722042D01*
X257442Y719573D01*
X258779Y716346D01*
X258779Y712854D01*
X257442Y709627D01*
X254973Y707158D01*
X251746Y705821D01*
X248254Y705821D01*
X245027Y707158D01*
X242558Y709627D01*
X241764Y711544D01*
X241720Y711618D01*
X241685Y711696D01*
X241648Y711740D01*
X241619Y711788D01*
X241557Y711847D01*
X241501Y711913D01*
X241454Y711945D01*
X241413Y711984D01*
X241336Y712023D01*
X241265Y712071D01*
X241211Y712088D01*
X241160Y712114D01*
X241076Y712130D01*
X240994Y712156D01*
X240937Y712158D01*
X240881Y712169D01*
X240796Y712162D01*
X240710Y712164D01*
X240655Y712149D01*
X240598Y712144D01*
X240518Y712114D01*
X240435Y712092D01*
X240386Y712063D01*
X240333Y712042D01*
X240264Y711990D01*
X240190Y711947D01*
X240151Y711905D01*
X240106Y711871D01*
X240054Y711802D01*
X239996Y711739D01*
X239970Y711689D01*
X239936Y711643D01*
X239905Y711563D01*
X239866Y711486D01*
X239858Y711437D01*
X239835Y711377D01*
X239824Y711232D01*
X239811Y711155D01*
X239811Y656422D01*
X238616Y655227D01*
X238564Y655157D01*
X238504Y655093D01*
X238478Y655044D01*
X238445Y655000D01*
X238414Y654918D01*
X238374Y654840D01*
X238366Y654793D01*
X238344Y654734D01*
X238332Y654586D01*
X238319Y654509D01*
X238319Y652743D01*
X237435Y650611D01*
X237407Y650499D01*
X237372Y650390D01*
X237371Y650362D01*
X237364Y650335D01*
X237368Y650221D01*
X237365Y650106D01*
X237372Y650079D01*
X237373Y650051D01*
X237408Y649942D01*
X237437Y649831D01*
X237451Y649807D01*
X237459Y649780D01*
X237523Y649685D01*
X237582Y649586D01*
X237602Y649567D01*
X237618Y649544D01*
X237705Y649470D01*
X237789Y649392D01*
X237814Y649379D01*
X237835Y649361D01*
X237940Y649315D01*
X238042Y649262D01*
X238067Y649258D01*
X238095Y649246D01*
X238359Y649209D01*
X238373Y649207D01*
X244746Y649207D01*
X246680Y647272D01*
X268563Y625389D01*
X268564Y625389D01*
X268565Y625387D01*
X268679Y625302D01*
X268790Y625219D01*
X268792Y625218D01*
X268793Y625217D01*
X268923Y625168D01*
X269056Y625117D01*
X269057Y625117D01*
X269059Y625117D01*
X269197Y625106D01*
X269339Y625094D01*
X269341Y625094D01*
X269342Y625094D01*
X269357Y625097D01*
X269618Y625150D01*
X269645Y625164D01*
X269669Y625169D01*
X269827Y625235D01*
X272341Y625235D01*
X274663Y624273D01*
X276441Y622495D01*
X277403Y620173D01*
X277403Y617659D01*
X276441Y615337D01*
X274663Y613559D01*
X272341Y612597D01*
X269827Y612597D01*
X267505Y613559D01*
X265727Y615337D01*
X264748Y617701D01*
X264704Y617775D01*
X264669Y617853D01*
X264632Y617897D01*
X264603Y617946D01*
X264541Y618005D01*
X264485Y618070D01*
X264438Y618102D01*
X264397Y618141D01*
X264320Y618180D01*
X264249Y618228D01*
X264195Y618245D01*
X264144Y618271D01*
X264060Y618288D01*
X263978Y618314D01*
X263921Y618315D01*
X263865Y618326D01*
X263780Y618319D01*
X263694Y618321D01*
X263639Y618307D01*
X263582Y618302D01*
X263502Y618271D01*
X263419Y618249D01*
X263370Y618220D01*
X263317Y618200D01*
X263248Y618148D01*
X263174Y618104D01*
X263135Y618062D01*
X263090Y618028D01*
X263038Y617959D01*
X262980Y617897D01*
X262954Y617846D01*
X262920Y617800D01*
X262889Y617720D01*
X262850Y617643D01*
X262842Y617595D01*
X262819Y617534D01*
X262808Y617390D01*
X262795Y617312D01*
X262795Y611578D01*
X262807Y611492D01*
X262810Y611404D01*
X262827Y611351D01*
X262835Y611297D01*
X262870Y611217D01*
X262897Y611134D01*
X262925Y611094D01*
X262951Y611037D01*
X263047Y610924D01*
X263092Y610860D01*
X281795Y592158D01*
X281795Y410360D01*
X281795Y410359D01*
X281795Y410357D01*
X281815Y410217D01*
X281835Y410079D01*
X281835Y410077D01*
X281835Y410076D01*
X281892Y409950D01*
X281951Y409819D01*
X281952Y409818D01*
X281953Y409817D01*
X282044Y409709D01*
X282134Y409602D01*
X282136Y409601D01*
X282137Y409600D01*
X282150Y409592D01*
X282371Y409445D01*
X282400Y409435D01*
X282421Y409422D01*
X282579Y409357D01*
X282686Y409250D01*
X282710Y409232D01*
X282729Y409210D01*
X282823Y409147D01*
X282913Y409079D01*
X282941Y409069D01*
X282965Y409052D01*
X283073Y409018D01*
X283179Y408978D01*
X283208Y408975D01*
X283236Y408967D01*
X283349Y408964D01*
X283462Y408954D01*
X283491Y408960D01*
G37*
G36*
X46325Y683202D02*
X46325Y683202D01*
X46354Y683201D01*
X46464Y683230D01*
X46575Y683252D01*
X46601Y683265D01*
X46629Y683273D01*
X46727Y683331D01*
X46827Y683383D01*
X46849Y683403D01*
X46874Y683418D01*
X46951Y683501D01*
X47033Y683579D01*
X47048Y683604D01*
X47068Y683625D01*
X47120Y683726D01*
X47177Y683824D01*
X47184Y683852D01*
X47198Y683878D01*
X47211Y683956D01*
X47247Y684099D01*
X47245Y684162D01*
X47253Y684210D01*
X47253Y706987D01*
X47249Y707016D01*
X47252Y707046D01*
X47229Y707157D01*
X47213Y707269D01*
X47201Y707295D01*
X47196Y707324D01*
X47143Y707425D01*
X47097Y707528D01*
X47078Y707551D01*
X47065Y707577D01*
X46987Y707659D01*
X46914Y707745D01*
X46889Y707761D01*
X46869Y707783D01*
X46771Y707840D01*
X46677Y707903D01*
X46649Y707912D01*
X46624Y707926D01*
X46514Y707954D01*
X46406Y707989D01*
X46376Y707989D01*
X46348Y707996D01*
X46235Y707993D01*
X46122Y707996D01*
X46093Y707988D01*
X46064Y707987D01*
X45956Y707953D01*
X45847Y707924D01*
X45821Y707909D01*
X45793Y707900D01*
X45729Y707854D01*
X45602Y707779D01*
X45559Y707733D01*
X45520Y707705D01*
X44973Y707158D01*
X41746Y705821D01*
X38254Y705821D01*
X35027Y707158D01*
X32558Y709627D01*
X31221Y712854D01*
X31221Y716346D01*
X32558Y719573D01*
X35027Y722042D01*
X38254Y723379D01*
X41746Y723379D01*
X44973Y722042D01*
X45520Y721495D01*
X45544Y721477D01*
X45563Y721455D01*
X45657Y721392D01*
X45747Y721324D01*
X45775Y721314D01*
X45799Y721297D01*
X45907Y721263D01*
X46013Y721223D01*
X46042Y721220D01*
X46070Y721211D01*
X46184Y721209D01*
X46296Y721199D01*
X46325Y721205D01*
X46354Y721204D01*
X46464Y721233D01*
X46575Y721255D01*
X46601Y721269D01*
X46629Y721276D01*
X46727Y721334D01*
X46827Y721386D01*
X46849Y721406D01*
X46874Y721421D01*
X46951Y721504D01*
X47033Y721582D01*
X47048Y721607D01*
X47068Y721629D01*
X47120Y721730D01*
X47177Y721827D01*
X47184Y721856D01*
X47198Y721882D01*
X47211Y721959D01*
X47247Y722103D01*
X47245Y722165D01*
X47253Y722213D01*
X47253Y732084D01*
X47243Y732155D01*
X47243Y732227D01*
X47223Y732295D01*
X47213Y732365D01*
X47184Y732431D01*
X47164Y732500D01*
X47126Y732560D01*
X47097Y732624D01*
X47051Y732679D01*
X47012Y732741D01*
X46959Y732788D01*
X46914Y732841D01*
X46853Y732881D01*
X46799Y732929D01*
X46736Y732960D01*
X46677Y732999D01*
X46608Y733021D01*
X46543Y733052D01*
X46473Y733064D01*
X46406Y733085D01*
X46334Y733087D01*
X46262Y733098D01*
X46192Y733090D01*
X46122Y733092D01*
X46052Y733074D01*
X45980Y733065D01*
X45925Y733041D01*
X45847Y733020D01*
X45743Y732959D01*
X45674Y732928D01*
X44279Y731995D01*
X42635Y731314D01*
X41999Y731188D01*
X41999Y739016D01*
X41991Y739074D01*
X41993Y739132D01*
X41971Y739214D01*
X41959Y739297D01*
X41936Y739351D01*
X41921Y739407D01*
X41878Y739480D01*
X41843Y739557D01*
X41805Y739601D01*
X41776Y739652D01*
X41714Y739709D01*
X41660Y739774D01*
X41611Y739806D01*
X41568Y739846D01*
X41493Y739885D01*
X41423Y739931D01*
X41367Y739949D01*
X41315Y739976D01*
X41247Y739987D01*
X41205Y740000D01*
X41266Y740009D01*
X41319Y740033D01*
X41375Y740047D01*
X41448Y740091D01*
X41525Y740125D01*
X41570Y740163D01*
X41620Y740193D01*
X41678Y740254D01*
X41742Y740309D01*
X41774Y740357D01*
X41814Y740400D01*
X41853Y740475D01*
X41900Y740545D01*
X41917Y740601D01*
X41944Y740653D01*
X41955Y740721D01*
X41985Y740816D01*
X41988Y740916D01*
X41999Y740984D01*
X41999Y748812D01*
X42635Y748686D01*
X44279Y748005D01*
X45674Y747072D01*
X45739Y747041D01*
X45799Y747001D01*
X45867Y746980D01*
X45930Y746949D01*
X46001Y746937D01*
X46070Y746915D01*
X46141Y746913D01*
X46210Y746902D01*
X46282Y746910D01*
X46354Y746908D01*
X46423Y746926D01*
X46493Y746934D01*
X46560Y746962D01*
X46629Y746980D01*
X46690Y747016D01*
X46755Y747043D01*
X46812Y747088D01*
X46874Y747125D01*
X46922Y747177D01*
X46977Y747221D01*
X47019Y747280D01*
X47068Y747332D01*
X47101Y747395D01*
X47141Y747453D01*
X47165Y747521D01*
X47198Y747585D01*
X47208Y747645D01*
X47234Y747721D01*
X47241Y747842D01*
X47253Y747916D01*
X47253Y757787D01*
X47249Y757816D01*
X47252Y757846D01*
X47229Y757957D01*
X47213Y758069D01*
X47201Y758095D01*
X47196Y758124D01*
X47143Y758225D01*
X47097Y758328D01*
X47078Y758351D01*
X47065Y758377D01*
X46987Y758459D01*
X46914Y758545D01*
X46889Y758561D01*
X46869Y758583D01*
X46771Y758640D01*
X46677Y758703D01*
X46649Y758712D01*
X46624Y758726D01*
X46514Y758754D01*
X46406Y758789D01*
X46376Y758789D01*
X46348Y758796D01*
X46235Y758793D01*
X46122Y758796D01*
X46093Y758788D01*
X46064Y758787D01*
X45956Y758753D01*
X45847Y758724D01*
X45821Y758709D01*
X45793Y758700D01*
X45729Y758654D01*
X45602Y758579D01*
X45559Y758533D01*
X45520Y758505D01*
X44973Y757958D01*
X41746Y756621D01*
X38254Y756621D01*
X35027Y757958D01*
X32558Y760427D01*
X31221Y763654D01*
X31221Y767146D01*
X32558Y770373D01*
X35027Y772842D01*
X38254Y774179D01*
X41746Y774179D01*
X44973Y772842D01*
X45520Y772295D01*
X45544Y772277D01*
X45563Y772255D01*
X45657Y772192D01*
X45747Y772124D01*
X45775Y772114D01*
X45799Y772097D01*
X45907Y772063D01*
X46013Y772023D01*
X46042Y772020D01*
X46070Y772011D01*
X46184Y772009D01*
X46296Y771999D01*
X46325Y772005D01*
X46354Y772004D01*
X46464Y772033D01*
X46575Y772055D01*
X46601Y772069D01*
X46629Y772076D01*
X46727Y772134D01*
X46827Y772186D01*
X46849Y772206D01*
X46874Y772221D01*
X46951Y772304D01*
X47033Y772382D01*
X47048Y772407D01*
X47068Y772429D01*
X47120Y772530D01*
X47177Y772627D01*
X47184Y772656D01*
X47198Y772682D01*
X47211Y772759D01*
X47247Y772903D01*
X47245Y772965D01*
X47253Y773013D01*
X47253Y779879D01*
X47241Y779966D01*
X47238Y780053D01*
X47221Y780106D01*
X47213Y780161D01*
X47178Y780240D01*
X47151Y780324D01*
X47123Y780363D01*
X47097Y780420D01*
X47001Y780533D01*
X46956Y780597D01*
X46077Y781476D01*
X46077Y797524D01*
X46956Y798403D01*
X47008Y798473D01*
X47068Y798537D01*
X47094Y798586D01*
X47127Y798630D01*
X47158Y798712D01*
X47198Y798790D01*
X47206Y798837D01*
X47228Y798896D01*
X47240Y799044D01*
X47253Y799121D01*
X47253Y803620D01*
X47253Y803622D01*
X47253Y803623D01*
X47246Y803672D01*
X47247Y803684D01*
X47242Y803701D01*
X47233Y803764D01*
X47213Y803902D01*
X47213Y803903D01*
X47213Y803905D01*
X47155Y804032D01*
X47097Y804161D01*
X47096Y804162D01*
X47095Y804164D01*
X47004Y804271D01*
X46914Y804378D01*
X46912Y804379D01*
X46911Y804380D01*
X46898Y804388D01*
X46677Y804536D01*
X46648Y804545D01*
X46627Y804558D01*
X46421Y804643D01*
X44643Y806421D01*
X43681Y808743D01*
X43681Y811257D01*
X44643Y813579D01*
X46421Y815357D01*
X48743Y816319D01*
X51257Y816319D01*
X53579Y815357D01*
X55357Y813579D01*
X56313Y811270D01*
X56343Y811219D01*
X56364Y811165D01*
X56415Y811098D01*
X56458Y811025D01*
X56500Y810985D01*
X56536Y810938D01*
X56603Y810888D01*
X56665Y810830D01*
X56717Y810803D01*
X56763Y810768D01*
X56842Y810738D01*
X56917Y810700D01*
X56975Y810688D01*
X57029Y810668D01*
X57113Y810661D01*
X57196Y810645D01*
X57254Y810650D01*
X57313Y810645D01*
X57380Y810660D01*
X57479Y810669D01*
X57573Y810705D01*
X57640Y810720D01*
X59722Y811583D01*
X62236Y811583D01*
X64558Y810621D01*
X66335Y808843D01*
X67297Y806521D01*
X67297Y804007D01*
X66414Y801875D01*
X66385Y801763D01*
X66351Y801654D01*
X66350Y801626D01*
X66343Y801599D01*
X66346Y801485D01*
X66344Y801370D01*
X66351Y801343D01*
X66351Y801315D01*
X66386Y801206D01*
X66415Y801095D01*
X66429Y801071D01*
X66438Y801044D01*
X66502Y800949D01*
X66561Y800850D01*
X66581Y800831D01*
X66596Y800808D01*
X66684Y800734D01*
X66768Y800656D01*
X66793Y800643D01*
X66814Y800625D01*
X66919Y800579D01*
X67021Y800526D01*
X67046Y800522D01*
X67074Y800510D01*
X67337Y800473D01*
X67352Y800471D01*
X153482Y800471D01*
X155416Y798536D01*
X157479Y796473D01*
X157480Y796472D01*
X157481Y796471D01*
X157595Y796386D01*
X157706Y796303D01*
X157708Y796302D01*
X157709Y796301D01*
X157839Y796252D01*
X157972Y796201D01*
X157973Y796201D01*
X157975Y796201D01*
X158113Y796190D01*
X158255Y796178D01*
X158257Y796178D01*
X158258Y796178D01*
X158273Y796181D01*
X158534Y796234D01*
X158561Y796248D01*
X158585Y796253D01*
X158743Y796319D01*
X161257Y796319D01*
X163579Y795357D01*
X165357Y793579D01*
X166319Y791257D01*
X166319Y788743D01*
X165320Y786331D01*
X165309Y786317D01*
X165299Y786290D01*
X165282Y786265D01*
X165248Y786157D01*
X165208Y786052D01*
X165205Y786022D01*
X165197Y785994D01*
X165194Y785881D01*
X165184Y785769D01*
X165190Y785739D01*
X165189Y785710D01*
X165218Y785600D01*
X165240Y785490D01*
X165254Y785463D01*
X165261Y785435D01*
X165319Y785338D01*
X165371Y785237D01*
X165391Y785216D01*
X165406Y785190D01*
X165489Y785113D01*
X165566Y785031D01*
X165592Y785016D01*
X165614Y784996D01*
X165714Y784944D01*
X165811Y784887D01*
X165840Y784880D01*
X165867Y784866D01*
X165944Y784853D01*
X166087Y784817D01*
X166150Y784819D01*
X166198Y784811D01*
X185001Y784811D01*
X185088Y784823D01*
X185175Y784826D01*
X185228Y784843D01*
X185283Y784851D01*
X185362Y784886D01*
X185446Y784913D01*
X185485Y784941D01*
X185542Y784967D01*
X185655Y785063D01*
X185719Y785108D01*
X195892Y795281D01*
X195944Y795351D01*
X196004Y795415D01*
X196030Y795464D01*
X196063Y795508D01*
X196094Y795590D01*
X196134Y795668D01*
X196142Y795715D01*
X196164Y795774D01*
X196176Y795922D01*
X196189Y795999D01*
X196189Y842650D01*
X205312Y851773D01*
X205364Y851843D01*
X205424Y851907D01*
X205450Y851956D01*
X205483Y852000D01*
X205514Y852082D01*
X205554Y852160D01*
X205562Y852207D01*
X205584Y852266D01*
X205596Y852414D01*
X205609Y852491D01*
X205609Y854257D01*
X206571Y856579D01*
X208349Y858357D01*
X210671Y859319D01*
X213185Y859319D01*
X215507Y858357D01*
X217285Y856579D01*
X218247Y854257D01*
X218247Y851743D01*
X217285Y849421D01*
X215507Y847643D01*
X213185Y846681D01*
X211419Y846681D01*
X211332Y846669D01*
X211245Y846666D01*
X211192Y846649D01*
X211137Y846641D01*
X211058Y846606D01*
X210974Y846579D01*
X210935Y846551D01*
X210878Y846525D01*
X210765Y846429D01*
X210701Y846384D01*
X204108Y839791D01*
X204099Y839779D01*
X204096Y839776D01*
X204087Y839762D01*
X204056Y839721D01*
X203996Y839657D01*
X203970Y839608D01*
X203937Y839564D01*
X203906Y839482D01*
X203866Y839404D01*
X203858Y839357D01*
X203836Y839298D01*
X203824Y839150D01*
X203811Y839073D01*
X203811Y794562D01*
X203823Y794476D01*
X203826Y794388D01*
X203843Y794335D01*
X203851Y794281D01*
X203886Y794201D01*
X203913Y794118D01*
X203941Y794078D01*
X203967Y794021D01*
X204063Y793908D01*
X204108Y793844D01*
X204860Y793092D01*
X204930Y793040D01*
X204994Y792980D01*
X205043Y792954D01*
X205087Y792921D01*
X205169Y792890D01*
X205247Y792850D01*
X205295Y792842D01*
X205353Y792820D01*
X205501Y792808D01*
X205578Y792795D01*
X233640Y792795D01*
X233641Y792795D01*
X233643Y792795D01*
X233783Y792815D01*
X233921Y792835D01*
X233923Y792835D01*
X233924Y792835D01*
X234050Y792892D01*
X234181Y792951D01*
X234182Y792952D01*
X234183Y792953D01*
X234291Y793044D01*
X234398Y793134D01*
X234399Y793136D01*
X234400Y793137D01*
X234408Y793150D01*
X234555Y793371D01*
X234565Y793400D01*
X234578Y793421D01*
X234643Y793579D01*
X236421Y795357D01*
X238743Y796319D01*
X241257Y796319D01*
X243579Y795357D01*
X244456Y794480D01*
X244480Y794462D01*
X244499Y794440D01*
X244593Y794377D01*
X244683Y794309D01*
X244711Y794299D01*
X244735Y794282D01*
X244843Y794248D01*
X244949Y794208D01*
X244978Y794205D01*
X245006Y794197D01*
X245120Y794194D01*
X245232Y794184D01*
X245261Y794190D01*
X245290Y794189D01*
X245400Y794218D01*
X245511Y794240D01*
X245537Y794254D01*
X245565Y794261D01*
X245663Y794319D01*
X245763Y794371D01*
X245785Y794391D01*
X245810Y794406D01*
X245887Y794489D01*
X245969Y794567D01*
X245984Y794592D01*
X246004Y794614D01*
X246056Y794715D01*
X246113Y794812D01*
X246120Y794841D01*
X246134Y794867D01*
X246147Y794944D01*
X246183Y795088D01*
X246181Y795150D01*
X246189Y795198D01*
X246189Y888001D01*
X246177Y888088D01*
X246174Y888175D01*
X246157Y888228D01*
X246149Y888283D01*
X246114Y888362D01*
X246087Y888446D01*
X246059Y888485D01*
X246033Y888542D01*
X245937Y888655D01*
X245892Y888719D01*
X171227Y963384D01*
X171157Y963436D01*
X171093Y963496D01*
X171044Y963522D01*
X171000Y963555D01*
X170918Y963586D01*
X170840Y963626D01*
X170793Y963634D01*
X170734Y963656D01*
X170586Y963668D01*
X170509Y963681D01*
X168743Y963681D01*
X166421Y964643D01*
X166292Y964772D01*
X166268Y964790D01*
X166249Y964812D01*
X166155Y964875D01*
X166065Y964943D01*
X166037Y964953D01*
X166013Y964970D01*
X165905Y965004D01*
X165799Y965044D01*
X165770Y965047D01*
X165742Y965055D01*
X165629Y965058D01*
X165516Y965068D01*
X165487Y965062D01*
X165458Y965063D01*
X165348Y965034D01*
X165237Y965012D01*
X165211Y964998D01*
X165183Y964991D01*
X165085Y964933D01*
X164985Y964881D01*
X164963Y964861D01*
X164938Y964846D01*
X164861Y964763D01*
X164779Y964685D01*
X164764Y964660D01*
X164744Y964638D01*
X164692Y964538D01*
X164635Y964440D01*
X164628Y964411D01*
X164614Y964385D01*
X164601Y964308D01*
X164565Y964164D01*
X164567Y964102D01*
X164559Y964054D01*
X164559Y864859D01*
X145782Y846082D01*
X145747Y846036D01*
X145705Y845995D01*
X145662Y845923D01*
X145611Y845855D01*
X145591Y845801D01*
X145561Y845750D01*
X145540Y845668D01*
X145510Y845590D01*
X145505Y845531D01*
X145491Y845475D01*
X145494Y845390D01*
X145487Y845306D01*
X145498Y845249D01*
X145500Y845191D01*
X145526Y845110D01*
X145542Y845028D01*
X145569Y844976D01*
X145587Y844920D01*
X145628Y844864D01*
X145673Y844775D01*
X145742Y844703D01*
X145782Y844647D01*
X146469Y843960D01*
X147431Y841638D01*
X147431Y839124D01*
X146469Y836802D01*
X144691Y835024D01*
X142369Y834062D01*
X139855Y834062D01*
X137533Y835024D01*
X136464Y836093D01*
X136418Y836128D01*
X136377Y836170D01*
X136304Y836213D01*
X136237Y836263D01*
X136182Y836284D01*
X136132Y836314D01*
X136050Y836335D01*
X135971Y836365D01*
X135913Y836369D01*
X135857Y836384D01*
X135772Y836381D01*
X135688Y836388D01*
X135631Y836377D01*
X135572Y836375D01*
X135492Y836349D01*
X135409Y836332D01*
X135358Y836305D01*
X135302Y836287D01*
X135246Y836247D01*
X135157Y836201D01*
X135085Y836133D01*
X135029Y836093D01*
X133579Y834643D01*
X131257Y833681D01*
X128743Y833681D01*
X126421Y834643D01*
X124643Y836421D01*
X123681Y838743D01*
X123681Y841257D01*
X124643Y843579D01*
X126421Y845357D01*
X128743Y846319D01*
X131257Y846319D01*
X131415Y846253D01*
X131416Y846253D01*
X131418Y846252D01*
X131551Y846218D01*
X131690Y846182D01*
X131692Y846182D01*
X131693Y846182D01*
X131834Y846187D01*
X131974Y846191D01*
X131976Y846191D01*
X131977Y846191D01*
X132113Y846235D01*
X132245Y846277D01*
X132246Y846278D01*
X132248Y846279D01*
X132260Y846287D01*
X132371Y846362D01*
X132376Y846364D01*
X132382Y846369D01*
X132481Y846435D01*
X132501Y846459D01*
X132521Y846473D01*
X154608Y868560D01*
X154660Y868630D01*
X154720Y868694D01*
X154746Y868743D01*
X154779Y868787D01*
X154810Y868869D01*
X154850Y868947D01*
X154858Y868995D01*
X154880Y869053D01*
X154892Y869201D01*
X154905Y869278D01*
X154905Y877065D01*
X154901Y877094D01*
X154904Y877123D01*
X154881Y877234D01*
X154865Y877347D01*
X154853Y877373D01*
X154848Y877402D01*
X154796Y877503D01*
X154749Y877606D01*
X154730Y877628D01*
X154717Y877654D01*
X154639Y877736D01*
X154566Y877823D01*
X154541Y877839D01*
X154521Y877861D01*
X154423Y877918D01*
X154329Y877981D01*
X154301Y877989D01*
X154276Y878004D01*
X154166Y878032D01*
X154058Y878066D01*
X154028Y878067D01*
X154000Y878074D01*
X153887Y878071D01*
X153774Y878074D01*
X153745Y878066D01*
X153716Y878065D01*
X153608Y878030D01*
X153499Y878002D01*
X153473Y877987D01*
X153445Y877978D01*
X153382Y877932D01*
X153254Y877857D01*
X153211Y877811D01*
X153172Y877783D01*
X134108Y858719D01*
X131578Y856189D01*
X31999Y856189D01*
X31912Y856177D01*
X31825Y856174D01*
X31772Y856157D01*
X31717Y856149D01*
X31638Y856114D01*
X31554Y856087D01*
X31515Y856059D01*
X31458Y856033D01*
X31345Y855937D01*
X31281Y855892D01*
X14108Y838719D01*
X14056Y838649D01*
X13996Y838585D01*
X13970Y838536D01*
X13937Y838492D01*
X13906Y838410D01*
X13866Y838332D01*
X13858Y838285D01*
X13836Y838226D01*
X13824Y838078D01*
X13811Y838001D01*
X13811Y685274D01*
X13815Y685244D01*
X13812Y685215D01*
X13835Y685104D01*
X13851Y684992D01*
X13863Y684965D01*
X13868Y684937D01*
X13921Y684836D01*
X13967Y684733D01*
X13986Y684710D01*
X13999Y684684D01*
X14077Y684602D01*
X14150Y684516D01*
X14175Y684499D01*
X14195Y684478D01*
X14293Y684421D01*
X14387Y684358D01*
X14415Y684349D01*
X14440Y684334D01*
X14550Y684307D01*
X14658Y684272D01*
X14688Y684272D01*
X14716Y684264D01*
X14829Y684268D01*
X14942Y684265D01*
X14971Y684272D01*
X15000Y684273D01*
X15108Y684308D01*
X15217Y684337D01*
X15243Y684352D01*
X15271Y684361D01*
X15335Y684406D01*
X15462Y684482D01*
X15505Y684528D01*
X15544Y684556D01*
X17056Y686068D01*
X20510Y687499D01*
X39490Y687499D01*
X42944Y686068D01*
X45520Y683492D01*
X45544Y683474D01*
X45563Y683452D01*
X45657Y683389D01*
X45747Y683321D01*
X45775Y683310D01*
X45799Y683294D01*
X45907Y683260D01*
X46013Y683220D01*
X46042Y683217D01*
X46070Y683208D01*
X46184Y683205D01*
X46296Y683196D01*
X46325Y683202D01*
G37*
G36*
X114116Y313823D02*
X114116Y313823D01*
X114174Y313825D01*
X114254Y313851D01*
X114337Y313867D01*
X114389Y313894D01*
X114445Y313912D01*
X114501Y313952D01*
X114589Y313998D01*
X114662Y314067D01*
X114718Y314107D01*
X118141Y317530D01*
X118186Y317591D01*
X118239Y317644D01*
X118272Y317704D01*
X118312Y317758D01*
X118339Y317828D01*
X118375Y317894D01*
X118389Y317960D01*
X118413Y318023D01*
X118420Y318098D01*
X118436Y318172D01*
X118431Y318239D01*
X118437Y318307D01*
X118422Y318380D01*
X118417Y318456D01*
X118394Y318519D01*
X118381Y318585D01*
X118346Y318652D01*
X118321Y318723D01*
X118281Y318778D01*
X118250Y318838D01*
X118198Y318892D01*
X118154Y318953D01*
X118108Y318987D01*
X118054Y319044D01*
X117959Y319100D01*
X117950Y319108D01*
X117934Y319116D01*
X117884Y319153D01*
X117504Y319347D01*
X116290Y320229D01*
X115229Y321290D01*
X114347Y322504D01*
X113666Y323841D01*
X113202Y325268D01*
X113170Y325469D01*
X121484Y325469D01*
X121542Y325477D01*
X121600Y325475D01*
X121682Y325497D01*
X121765Y325509D01*
X121819Y325533D01*
X121875Y325547D01*
X121948Y325590D01*
X122025Y325625D01*
X122069Y325663D01*
X122120Y325693D01*
X122177Y325754D01*
X122242Y325809D01*
X122274Y325857D01*
X122314Y325900D01*
X122353Y325975D01*
X122399Y326045D01*
X122417Y326101D01*
X122444Y326153D01*
X122455Y326221D01*
X122485Y326316D01*
X122488Y326416D01*
X122499Y326484D01*
X122499Y327501D01*
X122501Y327501D01*
X122501Y326484D01*
X122509Y326426D01*
X122508Y326368D01*
X122529Y326286D01*
X122541Y326203D01*
X122565Y326149D01*
X122579Y326093D01*
X122622Y326020D01*
X122657Y325943D01*
X122695Y325898D01*
X122725Y325848D01*
X122786Y325790D01*
X122841Y325726D01*
X122889Y325694D01*
X122932Y325654D01*
X123007Y325615D01*
X123077Y325569D01*
X123133Y325551D01*
X123185Y325524D01*
X123253Y325513D01*
X123348Y325483D01*
X123448Y325480D01*
X123516Y325469D01*
X131830Y325469D01*
X131798Y325268D01*
X131334Y323841D01*
X130653Y322504D01*
X129771Y321290D01*
X128710Y320229D01*
X127910Y319647D01*
X127831Y319572D01*
X127749Y319501D01*
X127730Y319473D01*
X127705Y319450D01*
X127651Y319355D01*
X127591Y319265D01*
X127581Y319232D01*
X127564Y319203D01*
X127538Y319098D01*
X127505Y318994D01*
X127504Y318960D01*
X127496Y318927D01*
X127501Y318818D01*
X127498Y318710D01*
X127507Y318677D01*
X127508Y318643D01*
X127542Y318540D01*
X127570Y318435D01*
X127587Y318406D01*
X127598Y318373D01*
X127660Y318283D01*
X127715Y318190D01*
X127740Y318167D01*
X127759Y318139D01*
X127843Y318070D01*
X127922Y317996D01*
X127953Y317980D01*
X127979Y317959D01*
X128079Y317916D01*
X128175Y317866D01*
X128205Y317861D01*
X128240Y317846D01*
X128457Y317819D01*
X128507Y317811D01*
X161616Y317811D01*
X161645Y317815D01*
X161674Y317812D01*
X161785Y317835D01*
X161898Y317851D01*
X161924Y317863D01*
X161953Y317868D01*
X162054Y317921D01*
X162157Y317967D01*
X162179Y317986D01*
X162205Y317999D01*
X162288Y318077D01*
X162374Y318150D01*
X162390Y318175D01*
X162412Y318195D01*
X162469Y318293D01*
X162532Y318387D01*
X162541Y318415D01*
X162555Y318440D01*
X162583Y318550D01*
X162617Y318658D01*
X162618Y318688D01*
X162625Y318716D01*
X162622Y318829D01*
X162625Y318942D01*
X162617Y318971D01*
X162616Y319000D01*
X162581Y319108D01*
X162553Y319217D01*
X162538Y319243D01*
X162529Y319271D01*
X162483Y319334D01*
X162408Y319462D01*
X162362Y319505D01*
X162334Y319544D01*
X159634Y322244D01*
X158221Y325654D01*
X158221Y329346D01*
X159634Y332756D01*
X162244Y335366D01*
X165654Y336779D01*
X169346Y336779D01*
X172756Y335366D01*
X175366Y332756D01*
X176779Y329346D01*
X176779Y325654D01*
X175366Y322244D01*
X172666Y319544D01*
X172648Y319520D01*
X172626Y319501D01*
X172563Y319407D01*
X172495Y319317D01*
X172485Y319289D01*
X172468Y319265D01*
X172434Y319157D01*
X172394Y319051D01*
X172391Y319022D01*
X172383Y318994D01*
X172380Y318880D01*
X172370Y318768D01*
X172376Y318739D01*
X172375Y318710D01*
X172404Y318600D01*
X172426Y318489D01*
X172440Y318463D01*
X172447Y318435D01*
X172505Y318337D01*
X172557Y318237D01*
X172577Y318215D01*
X172592Y318190D01*
X172675Y318113D01*
X172753Y318031D01*
X172778Y318016D01*
X172800Y317996D01*
X172901Y317944D01*
X172998Y317887D01*
X173027Y317880D01*
X173053Y317866D01*
X173130Y317853D01*
X173274Y317817D01*
X173336Y317819D01*
X173384Y317811D01*
X216616Y317811D01*
X216645Y317815D01*
X216674Y317812D01*
X216785Y317835D01*
X216898Y317851D01*
X216924Y317863D01*
X216953Y317868D01*
X217054Y317921D01*
X217157Y317967D01*
X217179Y317986D01*
X217205Y317999D01*
X217288Y318077D01*
X217374Y318150D01*
X217390Y318175D01*
X217412Y318195D01*
X217469Y318293D01*
X217532Y318387D01*
X217541Y318415D01*
X217555Y318440D01*
X217583Y318550D01*
X217617Y318658D01*
X217618Y318688D01*
X217625Y318716D01*
X217622Y318829D01*
X217625Y318942D01*
X217617Y318971D01*
X217616Y319000D01*
X217581Y319108D01*
X217553Y319217D01*
X217538Y319243D01*
X217529Y319271D01*
X217483Y319334D01*
X217408Y319462D01*
X217362Y319505D01*
X217334Y319544D01*
X214634Y322244D01*
X213221Y325654D01*
X213221Y329346D01*
X214634Y332756D01*
X217244Y335366D01*
X220654Y336779D01*
X224346Y336779D01*
X227756Y335366D01*
X229872Y333250D01*
X229896Y333232D01*
X229915Y333210D01*
X230009Y333147D01*
X230099Y333079D01*
X230127Y333069D01*
X230151Y333052D01*
X230259Y333018D01*
X230365Y332978D01*
X230394Y332975D01*
X230422Y332967D01*
X230536Y332964D01*
X230648Y332954D01*
X230677Y332960D01*
X230706Y332959D01*
X230816Y332988D01*
X230927Y333010D01*
X230953Y333024D01*
X230981Y333031D01*
X231079Y333089D01*
X231179Y333141D01*
X231201Y333161D01*
X231226Y333176D01*
X231303Y333259D01*
X231385Y333337D01*
X231400Y333362D01*
X231420Y333384D01*
X231472Y333484D01*
X231529Y333582D01*
X231536Y333611D01*
X231550Y333637D01*
X231563Y333714D01*
X231599Y333858D01*
X231597Y333920D01*
X231605Y333968D01*
X231605Y386032D01*
X231601Y386061D01*
X231604Y386090D01*
X231581Y386202D01*
X231565Y386314D01*
X231554Y386340D01*
X231548Y386369D01*
X231495Y386470D01*
X231449Y386573D01*
X231430Y386595D01*
X231417Y386622D01*
X231339Y386704D01*
X231266Y386790D01*
X231241Y386806D01*
X231221Y386828D01*
X231123Y386885D01*
X231029Y386948D01*
X231001Y386957D01*
X230976Y386971D01*
X230866Y386999D01*
X230758Y387033D01*
X230729Y387034D01*
X230700Y387041D01*
X230587Y387038D01*
X230474Y387041D01*
X230445Y387033D01*
X230416Y387032D01*
X230308Y386997D01*
X230199Y386969D01*
X230173Y386954D01*
X230146Y386945D01*
X230082Y386899D01*
X229954Y386824D01*
X229911Y386778D01*
X229872Y386750D01*
X227756Y384634D01*
X224346Y383221D01*
X220654Y383221D01*
X217244Y384634D01*
X214634Y387244D01*
X213874Y389079D01*
X213873Y389080D01*
X213873Y389081D01*
X213803Y389199D01*
X213729Y389323D01*
X213728Y389324D01*
X213728Y389326D01*
X213628Y389419D01*
X213523Y389519D01*
X213521Y389519D01*
X213520Y389520D01*
X213395Y389585D01*
X213270Y389649D01*
X213268Y389649D01*
X213267Y389650D01*
X213252Y389652D01*
X212991Y389704D01*
X212961Y389701D01*
X212936Y389705D01*
X211342Y389705D01*
X206640Y394408D01*
X204528Y396520D01*
X204504Y396537D01*
X204485Y396560D01*
X204391Y396623D01*
X204301Y396691D01*
X204273Y396701D01*
X204249Y396717D01*
X204141Y396752D01*
X204035Y396792D01*
X204006Y396794D01*
X203978Y396803D01*
X203864Y396806D01*
X203752Y396815D01*
X203723Y396810D01*
X203694Y396810D01*
X203584Y396782D01*
X203473Y396760D01*
X203447Y396746D01*
X203419Y396739D01*
X203321Y396681D01*
X203221Y396629D01*
X203199Y396608D01*
X203174Y396593D01*
X203097Y396511D01*
X203015Y396433D01*
X203000Y396407D01*
X202980Y396386D01*
X202928Y396285D01*
X202871Y396188D01*
X202864Y396159D01*
X202850Y396133D01*
X202837Y396056D01*
X202801Y395912D01*
X202803Y395850D01*
X202795Y395802D01*
X202795Y391578D01*
X202807Y391492D01*
X202810Y391404D01*
X202827Y391351D01*
X202835Y391297D01*
X202870Y391217D01*
X202897Y391134D01*
X202925Y391094D01*
X202951Y391037D01*
X203047Y390924D01*
X203092Y390860D01*
X207479Y386473D01*
X207480Y386472D01*
X207481Y386471D01*
X207595Y386386D01*
X207706Y386303D01*
X207708Y386302D01*
X207709Y386301D01*
X207839Y386252D01*
X207972Y386201D01*
X207973Y386201D01*
X207975Y386201D01*
X208113Y386190D01*
X208255Y386178D01*
X208257Y386178D01*
X208258Y386178D01*
X208273Y386181D01*
X208534Y386234D01*
X208561Y386248D01*
X208585Y386253D01*
X208743Y386319D01*
X211257Y386319D01*
X213579Y385357D01*
X215357Y383579D01*
X216319Y381257D01*
X216319Y378743D01*
X215357Y376421D01*
X213579Y374643D01*
X211257Y373681D01*
X208743Y373681D01*
X206421Y374643D01*
X204643Y376421D01*
X203681Y378743D01*
X203681Y381257D01*
X203747Y381415D01*
X203747Y381416D01*
X203748Y381418D01*
X203782Y381550D01*
X203818Y381690D01*
X203818Y381692D01*
X203818Y381693D01*
X203813Y381834D01*
X203809Y381974D01*
X203809Y381976D01*
X203809Y381977D01*
X203765Y382113D01*
X203723Y382245D01*
X203722Y382246D01*
X203721Y382248D01*
X203713Y382260D01*
X203565Y382481D01*
X203541Y382501D01*
X203527Y382521D01*
X199140Y386908D01*
X197682Y388366D01*
X197590Y388435D01*
X197502Y388509D01*
X197477Y388520D01*
X197455Y388537D01*
X197347Y388578D01*
X197242Y388624D01*
X197215Y388628D01*
X197189Y388638D01*
X197075Y388647D01*
X196961Y388663D01*
X196933Y388659D01*
X196906Y388661D01*
X196793Y388639D01*
X196679Y388622D01*
X196654Y388611D01*
X196627Y388606D01*
X196525Y388553D01*
X196420Y388505D01*
X196399Y388487D01*
X196375Y388475D01*
X196291Y388396D01*
X196204Y388321D01*
X196191Y388300D01*
X196169Y388279D01*
X196034Y388049D01*
X196026Y388036D01*
X195357Y386421D01*
X193579Y384643D01*
X191257Y383681D01*
X188743Y383681D01*
X186869Y384458D01*
X186840Y384465D01*
X186814Y384478D01*
X186703Y384500D01*
X186594Y384529D01*
X186564Y384528D01*
X186535Y384533D01*
X186423Y384524D01*
X186309Y384520D01*
X186281Y384511D01*
X186252Y384509D01*
X186147Y384468D01*
X186039Y384434D01*
X186014Y384417D01*
X185987Y384407D01*
X185897Y384339D01*
X185803Y384275D01*
X185784Y384253D01*
X185760Y384235D01*
X185692Y384144D01*
X185620Y384058D01*
X185608Y384031D01*
X185590Y384008D01*
X185550Y383901D01*
X185504Y383798D01*
X185500Y383769D01*
X185490Y383742D01*
X185481Y383629D01*
X185465Y383517D01*
X185469Y383488D01*
X185467Y383458D01*
X185485Y383382D01*
X185506Y383235D01*
X185532Y383178D01*
X185542Y383131D01*
X186319Y381257D01*
X186319Y378743D01*
X185357Y376421D01*
X183579Y374643D01*
X181257Y373681D01*
X178743Y373681D01*
X176421Y374643D01*
X174643Y376421D01*
X173681Y378743D01*
X173681Y381257D01*
X174643Y383579D01*
X176421Y385357D01*
X176579Y385422D01*
X176580Y385423D01*
X176581Y385423D01*
X176700Y385494D01*
X176823Y385567D01*
X176824Y385568D01*
X176826Y385569D01*
X176923Y385673D01*
X177019Y385773D01*
X177019Y385775D01*
X177020Y385776D01*
X177085Y385902D01*
X177149Y386026D01*
X177149Y386028D01*
X177150Y386029D01*
X177152Y386043D01*
X177204Y386305D01*
X177201Y386335D01*
X177205Y386360D01*
X177205Y386632D01*
X177201Y386661D01*
X177204Y386690D01*
X177181Y386801D01*
X177165Y386914D01*
X177153Y386940D01*
X177148Y386969D01*
X177095Y387070D01*
X177049Y387173D01*
X177030Y387195D01*
X177017Y387221D01*
X176939Y387304D01*
X176866Y387390D01*
X176841Y387406D01*
X176821Y387428D01*
X176723Y387485D01*
X176629Y387548D01*
X176601Y387557D01*
X176576Y387571D01*
X176466Y387599D01*
X176358Y387633D01*
X176328Y387634D01*
X176300Y387641D01*
X176187Y387638D01*
X176074Y387641D01*
X176045Y387633D01*
X176016Y387632D01*
X175908Y387597D01*
X175799Y387569D01*
X175773Y387554D01*
X175745Y387545D01*
X175682Y387499D01*
X175554Y387424D01*
X175511Y387378D01*
X175472Y387350D01*
X172756Y384634D01*
X169346Y383221D01*
X165654Y383221D01*
X162244Y384634D01*
X159634Y387244D01*
X158221Y390654D01*
X158221Y394346D01*
X159634Y397756D01*
X162244Y400366D01*
X165654Y401779D01*
X169346Y401779D01*
X172756Y400366D01*
X175366Y397756D01*
X176779Y394346D01*
X176779Y394182D01*
X176783Y394153D01*
X176780Y394124D01*
X176803Y394013D01*
X176819Y393901D01*
X176831Y393874D01*
X176836Y393845D01*
X176888Y393745D01*
X176935Y393641D01*
X176954Y393619D01*
X176967Y393593D01*
X177045Y393511D01*
X177118Y393424D01*
X177143Y393408D01*
X177163Y393387D01*
X177261Y393329D01*
X177355Y393267D01*
X177383Y393258D01*
X177408Y393243D01*
X177518Y393215D01*
X177626Y393181D01*
X177656Y393180D01*
X177684Y393173D01*
X177797Y393176D01*
X177910Y393174D01*
X177939Y393181D01*
X177968Y393182D01*
X178076Y393217D01*
X178185Y393245D01*
X178211Y393260D01*
X178239Y393269D01*
X178302Y393315D01*
X178430Y393391D01*
X178473Y393436D01*
X178512Y393464D01*
X188780Y403732D01*
X188832Y403802D01*
X188892Y403866D01*
X188918Y403915D01*
X188951Y403959D01*
X188982Y404041D01*
X189022Y404119D01*
X189030Y404167D01*
X189052Y404225D01*
X189064Y404373D01*
X189077Y404450D01*
X189077Y472674D01*
X189073Y472703D01*
X189076Y472732D01*
X189053Y472843D01*
X189037Y472955D01*
X189025Y472982D01*
X189020Y473011D01*
X188968Y473111D01*
X188921Y473215D01*
X188902Y473237D01*
X188889Y473263D01*
X188811Y473345D01*
X188738Y473432D01*
X188713Y473448D01*
X188693Y473469D01*
X188595Y473527D01*
X188501Y473589D01*
X188473Y473598D01*
X188448Y473613D01*
X188338Y473641D01*
X188230Y473675D01*
X188200Y473676D01*
X188172Y473683D01*
X188059Y473680D01*
X187946Y473682D01*
X187917Y473675D01*
X187888Y473674D01*
X187780Y473639D01*
X187671Y473611D01*
X187645Y473596D01*
X187617Y473587D01*
X187554Y473541D01*
X187426Y473465D01*
X187383Y473420D01*
X187344Y473392D01*
X186473Y472521D01*
X186473Y472520D01*
X186471Y472519D01*
X186383Y472401D01*
X186303Y472294D01*
X186302Y472292D01*
X186301Y472291D01*
X186251Y472159D01*
X186201Y472028D01*
X186201Y472027D01*
X186201Y472025D01*
X186190Y471887D01*
X186178Y471745D01*
X186178Y471743D01*
X186178Y471742D01*
X186181Y471727D01*
X186234Y471466D01*
X186248Y471439D01*
X186253Y471415D01*
X186319Y471257D01*
X186319Y468743D01*
X185357Y466421D01*
X183579Y464643D01*
X181257Y463681D01*
X178743Y463681D01*
X176421Y464643D01*
X174643Y466421D01*
X173681Y468743D01*
X173681Y471257D01*
X174643Y473579D01*
X176421Y475357D01*
X178743Y476319D01*
X181257Y476319D01*
X181415Y476253D01*
X181416Y476253D01*
X181418Y476252D01*
X181549Y476219D01*
X181690Y476182D01*
X181692Y476182D01*
X181693Y476182D01*
X181834Y476187D01*
X181974Y476191D01*
X181976Y476191D01*
X181977Y476191D01*
X182114Y476235D01*
X182245Y476277D01*
X182246Y476278D01*
X182248Y476279D01*
X182260Y476287D01*
X182481Y476435D01*
X182501Y476459D01*
X182521Y476473D01*
X184716Y478668D01*
X184768Y478738D01*
X184828Y478802D01*
X184854Y478851D01*
X184887Y478895D01*
X184918Y478977D01*
X184958Y479055D01*
X184966Y479103D01*
X184988Y479161D01*
X185000Y479309D01*
X185013Y479386D01*
X185013Y584624D01*
X185001Y584711D01*
X184998Y584798D01*
X184981Y584851D01*
X184973Y584906D01*
X184938Y584986D01*
X184911Y585069D01*
X184883Y585108D01*
X184857Y585165D01*
X184761Y585279D01*
X184716Y585342D01*
X171949Y598109D01*
X171949Y668761D01*
X171937Y668847D01*
X171934Y668935D01*
X171917Y668987D01*
X171909Y669042D01*
X171874Y669122D01*
X171847Y669205D01*
X171819Y669245D01*
X171793Y669302D01*
X171697Y669415D01*
X171652Y669479D01*
X160076Y681055D01*
X160052Y681072D01*
X160033Y681095D01*
X159939Y681157D01*
X159849Y681226D01*
X159821Y681236D01*
X159797Y681252D01*
X159689Y681286D01*
X159583Y681327D01*
X159554Y681329D01*
X159526Y681338D01*
X159412Y681341D01*
X159300Y681350D01*
X159271Y681345D01*
X159242Y681345D01*
X159132Y681317D01*
X159021Y681294D01*
X158995Y681281D01*
X158967Y681274D01*
X158869Y681216D01*
X158769Y681163D01*
X158747Y681143D01*
X158722Y681128D01*
X158645Y681046D01*
X158563Y680968D01*
X158548Y680942D01*
X158528Y680921D01*
X158476Y680820D01*
X158419Y680722D01*
X158412Y680694D01*
X158398Y680668D01*
X158385Y680590D01*
X158349Y680447D01*
X158351Y680384D01*
X158343Y680337D01*
X158343Y539473D01*
X156408Y537539D01*
X140204Y521335D01*
X140152Y521265D01*
X140092Y521201D01*
X140066Y521152D01*
X140033Y521107D01*
X140002Y521026D01*
X139962Y520948D01*
X139954Y520900D01*
X139932Y520842D01*
X139920Y520694D01*
X139907Y520617D01*
X139907Y385290D01*
X107758Y353141D01*
X75514Y353141D01*
X75428Y353129D01*
X75340Y353126D01*
X75287Y353109D01*
X75233Y353101D01*
X75153Y353066D01*
X75070Y353039D01*
X75030Y353011D01*
X74973Y352985D01*
X74860Y352889D01*
X74796Y352844D01*
X62473Y340521D01*
X62472Y340520D01*
X62471Y340519D01*
X62386Y340405D01*
X62303Y340294D01*
X62302Y340292D01*
X62301Y340291D01*
X62252Y340161D01*
X62201Y340028D01*
X62201Y340027D01*
X62201Y340025D01*
X62190Y339887D01*
X62178Y339745D01*
X62178Y339743D01*
X62178Y339742D01*
X62181Y339727D01*
X62234Y339466D01*
X62248Y339439D01*
X62253Y339415D01*
X62319Y339257D01*
X62319Y336916D01*
X62335Y336803D01*
X62345Y336688D01*
X62355Y336662D01*
X62359Y336635D01*
X62406Y336530D01*
X62447Y336423D01*
X62463Y336401D01*
X62475Y336376D01*
X62549Y336288D01*
X62618Y336196D01*
X62641Y336180D01*
X62658Y336159D01*
X62754Y336095D01*
X62846Y336026D01*
X62872Y336016D01*
X62895Y336001D01*
X63005Y335966D01*
X63112Y335926D01*
X63140Y335924D01*
X63166Y335915D01*
X63281Y335912D01*
X63395Y335903D01*
X63420Y335909D01*
X63450Y335908D01*
X63707Y335975D01*
X63723Y335979D01*
X65654Y336779D01*
X69346Y336779D01*
X72756Y335366D01*
X75366Y332756D01*
X76779Y329346D01*
X76779Y325654D01*
X75366Y322244D01*
X72666Y319544D01*
X72648Y319520D01*
X72626Y319501D01*
X72563Y319407D01*
X72495Y319317D01*
X72485Y319289D01*
X72468Y319265D01*
X72434Y319157D01*
X72394Y319051D01*
X72391Y319022D01*
X72383Y318994D01*
X72380Y318880D01*
X72370Y318768D01*
X72376Y318739D01*
X72375Y318710D01*
X72404Y318600D01*
X72426Y318489D01*
X72440Y318463D01*
X72447Y318435D01*
X72505Y318337D01*
X72557Y318237D01*
X72577Y318215D01*
X72592Y318190D01*
X72675Y318113D01*
X72753Y318031D01*
X72778Y318016D01*
X72800Y317996D01*
X72901Y317944D01*
X72998Y317887D01*
X73027Y317880D01*
X73053Y317866D01*
X73130Y317853D01*
X73274Y317817D01*
X73336Y317819D01*
X73384Y317811D01*
X109578Y317811D01*
X113282Y314107D01*
X113329Y314072D01*
X113369Y314030D01*
X113442Y313987D01*
X113509Y313936D01*
X113564Y313915D01*
X113614Y313886D01*
X113696Y313865D01*
X113775Y313835D01*
X113833Y313830D01*
X113890Y313816D01*
X113974Y313818D01*
X114058Y313811D01*
X114116Y313823D01*
G37*
G36*
X103426Y362807D02*
X103426Y362807D01*
X103513Y362810D01*
X103566Y362827D01*
X103620Y362835D01*
X103700Y362870D01*
X103783Y362897D01*
X103823Y362925D01*
X103880Y362951D01*
X103993Y363047D01*
X104057Y363092D01*
X124234Y383269D01*
X124286Y383339D01*
X124346Y383403D01*
X124372Y383452D01*
X124405Y383496D01*
X124436Y383578D01*
X124476Y383656D01*
X124484Y383703D01*
X124506Y383762D01*
X124518Y383910D01*
X124531Y383987D01*
X124531Y391484D01*
X124523Y391542D01*
X124525Y391600D01*
X124503Y391682D01*
X124491Y391765D01*
X124467Y391819D01*
X124453Y391875D01*
X124410Y391948D01*
X124375Y392025D01*
X124337Y392069D01*
X124307Y392120D01*
X124246Y392177D01*
X124191Y392242D01*
X124143Y392274D01*
X124100Y392314D01*
X124025Y392353D01*
X123955Y392399D01*
X123899Y392417D01*
X123847Y392444D01*
X123779Y392455D01*
X123684Y392485D01*
X123584Y392488D01*
X123516Y392499D01*
X122499Y392499D01*
X122499Y392501D01*
X123516Y392501D01*
X123574Y392509D01*
X123632Y392508D01*
X123714Y392529D01*
X123797Y392541D01*
X123851Y392565D01*
X123907Y392579D01*
X123980Y392622D01*
X124057Y392657D01*
X124102Y392695D01*
X124152Y392725D01*
X124210Y392786D01*
X124274Y392841D01*
X124306Y392889D01*
X124346Y392932D01*
X124385Y393007D01*
X124431Y393077D01*
X124449Y393133D01*
X124476Y393185D01*
X124487Y393253D01*
X124517Y393348D01*
X124520Y393448D01*
X124531Y393516D01*
X124531Y401830D01*
X124732Y401798D01*
X126159Y401334D01*
X127496Y400653D01*
X128641Y399821D01*
X128723Y399778D01*
X128799Y399727D01*
X128848Y399712D01*
X128892Y399688D01*
X128982Y399669D01*
X129070Y399641D01*
X129121Y399640D01*
X129171Y399630D01*
X129262Y399636D01*
X129354Y399634D01*
X129403Y399647D01*
X129454Y399651D01*
X129541Y399683D01*
X129629Y399706D01*
X129673Y399732D01*
X129721Y399749D01*
X129795Y399804D01*
X129874Y399851D01*
X129909Y399888D01*
X129949Y399918D01*
X130005Y399991D01*
X130068Y400058D01*
X130091Y400104D01*
X130122Y400144D01*
X130156Y400230D01*
X130198Y400311D01*
X130205Y400355D01*
X130226Y400409D01*
X130241Y400567D01*
X130253Y400643D01*
X130253Y540403D01*
X130241Y540488D01*
X130239Y540574D01*
X130221Y540628D01*
X130213Y540685D01*
X130178Y540763D01*
X130152Y540845D01*
X130120Y540892D01*
X130097Y540944D01*
X130042Y541010D01*
X129994Y541081D01*
X129950Y541118D01*
X129914Y541161D01*
X129842Y541209D01*
X129776Y541264D01*
X129724Y541287D01*
X129677Y541319D01*
X129595Y541345D01*
X129516Y541379D01*
X129460Y541387D01*
X129406Y541404D01*
X129320Y541407D01*
X129235Y541418D01*
X129179Y541410D01*
X129122Y541412D01*
X129039Y541390D01*
X128953Y541378D01*
X128902Y541354D01*
X128847Y541340D01*
X128773Y541296D01*
X128694Y541261D01*
X128651Y541224D01*
X128602Y541195D01*
X128543Y541132D01*
X128478Y541076D01*
X128452Y541034D01*
X128408Y540987D01*
X128342Y540858D01*
X128300Y540792D01*
X127866Y539744D01*
X125256Y537134D01*
X121846Y535721D01*
X118154Y535721D01*
X114744Y537134D01*
X112134Y539744D01*
X110721Y543154D01*
X110721Y546846D01*
X111481Y548680D01*
X111482Y548682D01*
X111482Y548683D01*
X111516Y548817D01*
X111552Y548955D01*
X111552Y548957D01*
X111552Y548959D01*
X111548Y549099D01*
X111544Y549240D01*
X111543Y549241D01*
X111543Y549243D01*
X111501Y549375D01*
X111457Y549510D01*
X111456Y549512D01*
X111456Y549513D01*
X111447Y549525D01*
X111299Y549747D01*
X111276Y549766D01*
X111261Y549787D01*
X94140Y566908D01*
X94070Y566960D01*
X94006Y567020D01*
X93957Y567046D01*
X93913Y567079D01*
X93831Y567110D01*
X93753Y567150D01*
X93705Y567158D01*
X93647Y567180D01*
X93499Y567192D01*
X93422Y567205D01*
X74182Y567205D01*
X74153Y567201D01*
X74124Y567204D01*
X74012Y567181D01*
X73900Y567165D01*
X73874Y567153D01*
X73845Y567148D01*
X73744Y567095D01*
X73641Y567049D01*
X73619Y567030D01*
X73592Y567017D01*
X73510Y566939D01*
X73424Y566866D01*
X73408Y566841D01*
X73386Y566821D01*
X73329Y566723D01*
X73266Y566629D01*
X73257Y566601D01*
X73243Y566576D01*
X73215Y566466D01*
X73181Y566358D01*
X73180Y566328D01*
X73173Y566300D01*
X73176Y566187D01*
X73173Y566074D01*
X73181Y566045D01*
X73182Y566016D01*
X73216Y565908D01*
X73245Y565799D01*
X73260Y565773D01*
X73269Y565745D01*
X73315Y565682D01*
X73390Y565554D01*
X73436Y565511D01*
X73464Y565472D01*
X75357Y563579D01*
X76319Y561257D01*
X76319Y558743D01*
X75357Y556421D01*
X74108Y555172D01*
X74056Y555102D01*
X73996Y555038D01*
X73970Y554989D01*
X73937Y554945D01*
X73906Y554863D01*
X73866Y554785D01*
X73858Y554738D01*
X73836Y554679D01*
X73824Y554531D01*
X73811Y554454D01*
X73811Y548716D01*
X71281Y546186D01*
X68969Y543874D01*
X68916Y543804D01*
X68857Y543740D01*
X68831Y543691D01*
X68798Y543647D01*
X68767Y543565D01*
X68727Y543487D01*
X68719Y543440D01*
X68697Y543381D01*
X68685Y543233D01*
X68672Y543156D01*
X68672Y541390D01*
X67710Y539068D01*
X65932Y537290D01*
X63610Y536328D01*
X61096Y536328D01*
X60056Y536759D01*
X60026Y536767D01*
X59999Y536781D01*
X59921Y536794D01*
X59781Y536830D01*
X59717Y536828D01*
X59668Y536836D01*
X22646Y536836D01*
X22559Y536824D01*
X22472Y536821D01*
X22419Y536804D01*
X22365Y536797D01*
X22285Y536761D01*
X22202Y536734D01*
X22162Y536706D01*
X22105Y536680D01*
X21992Y536584D01*
X21928Y536539D01*
X20634Y535245D01*
X14108Y528719D01*
X14056Y528649D01*
X13996Y528585D01*
X13970Y528536D01*
X13937Y528492D01*
X13906Y528410D01*
X13866Y528332D01*
X13858Y528285D01*
X13836Y528226D01*
X13824Y528078D01*
X13811Y528001D01*
X13811Y399743D01*
X13815Y399714D01*
X13812Y399685D01*
X13835Y399574D01*
X13851Y399462D01*
X13863Y399435D01*
X13868Y399406D01*
X13921Y399305D01*
X13967Y399202D01*
X13986Y399180D01*
X13999Y399154D01*
X14077Y399072D01*
X14150Y398985D01*
X14175Y398969D01*
X14195Y398948D01*
X14293Y398890D01*
X14387Y398828D01*
X14415Y398819D01*
X14440Y398804D01*
X14550Y398776D01*
X14658Y398742D01*
X14688Y398741D01*
X14716Y398734D01*
X14829Y398737D01*
X14942Y398734D01*
X14971Y398742D01*
X15000Y398743D01*
X15108Y398778D01*
X15217Y398806D01*
X15243Y398821D01*
X15271Y398830D01*
X15335Y398876D01*
X15462Y398952D01*
X15505Y398997D01*
X15544Y399025D01*
X16290Y399771D01*
X17504Y400653D01*
X18841Y401334D01*
X20268Y401798D01*
X20469Y401830D01*
X20469Y393516D01*
X20477Y393458D01*
X20475Y393400D01*
X20497Y393318D01*
X20509Y393235D01*
X20533Y393181D01*
X20547Y393125D01*
X20590Y393052D01*
X20625Y392975D01*
X20663Y392931D01*
X20693Y392880D01*
X20754Y392823D01*
X20809Y392758D01*
X20857Y392726D01*
X20900Y392686D01*
X20975Y392647D01*
X21045Y392601D01*
X21101Y392583D01*
X21153Y392556D01*
X21221Y392545D01*
X21316Y392515D01*
X21416Y392512D01*
X21484Y392501D01*
X23516Y392501D01*
X23574Y392509D01*
X23632Y392508D01*
X23714Y392529D01*
X23797Y392541D01*
X23851Y392565D01*
X23907Y392579D01*
X23980Y392622D01*
X24057Y392657D01*
X24102Y392695D01*
X24152Y392725D01*
X24210Y392786D01*
X24274Y392841D01*
X24306Y392889D01*
X24346Y392932D01*
X24385Y393007D01*
X24431Y393077D01*
X24449Y393133D01*
X24476Y393185D01*
X24487Y393253D01*
X24517Y393348D01*
X24520Y393448D01*
X24531Y393516D01*
X24531Y401830D01*
X24732Y401798D01*
X26159Y401334D01*
X27496Y400653D01*
X28260Y400098D01*
X28291Y400082D01*
X28319Y400059D01*
X28417Y400015D01*
X28511Y399965D01*
X28546Y399958D01*
X28578Y399943D01*
X28685Y399928D01*
X28789Y399906D01*
X28825Y399909D01*
X28860Y399904D01*
X28966Y399920D01*
X29073Y399927D01*
X29106Y399940D01*
X29141Y399945D01*
X29239Y399989D01*
X29339Y400026D01*
X29368Y400047D01*
X29400Y400062D01*
X29482Y400132D01*
X29568Y400195D01*
X29590Y400223D01*
X29617Y400246D01*
X29658Y400313D01*
X29741Y400421D01*
X29767Y400486D01*
X29795Y400531D01*
X30643Y402579D01*
X32421Y404357D01*
X34743Y405319D01*
X37257Y405319D01*
X39579Y404357D01*
X41357Y402579D01*
X42319Y400257D01*
X42319Y398159D01*
X42323Y398130D01*
X42320Y398101D01*
X42343Y397990D01*
X42359Y397877D01*
X42371Y397851D01*
X42376Y397822D01*
X42428Y397721D01*
X42475Y397618D01*
X42494Y397596D01*
X42507Y397570D01*
X42585Y397487D01*
X42658Y397401D01*
X42683Y397385D01*
X42703Y397363D01*
X42801Y397306D01*
X42895Y397243D01*
X42923Y397235D01*
X42948Y397220D01*
X43058Y397192D01*
X43166Y397158D01*
X43196Y397157D01*
X43224Y397150D01*
X43337Y397153D01*
X43450Y397150D01*
X43479Y397158D01*
X43508Y397159D01*
X43616Y397194D01*
X43725Y397222D01*
X43751Y397237D01*
X43779Y397246D01*
X43842Y397292D01*
X43970Y397367D01*
X44013Y397413D01*
X44052Y397441D01*
X66892Y420281D01*
X66944Y420351D01*
X67004Y420415D01*
X67030Y420464D01*
X67063Y420508D01*
X67094Y420590D01*
X67134Y420668D01*
X67142Y420715D01*
X67164Y420774D01*
X67176Y420922D01*
X67189Y420999D01*
X67189Y425882D01*
X67177Y425969D01*
X67174Y426056D01*
X67157Y426109D01*
X67149Y426164D01*
X67114Y426243D01*
X67087Y426327D01*
X67059Y426366D01*
X67033Y426423D01*
X66979Y426487D01*
X66953Y426530D01*
X66918Y426563D01*
X66892Y426600D01*
X65643Y427849D01*
X64681Y430171D01*
X64681Y432685D01*
X65643Y435007D01*
X67421Y436785D01*
X69743Y437747D01*
X72257Y437747D01*
X74610Y436772D01*
X74721Y436743D01*
X74831Y436709D01*
X74858Y436708D01*
X74885Y436701D01*
X75000Y436704D01*
X75115Y436701D01*
X75142Y436708D01*
X75169Y436709D01*
X75279Y436744D01*
X75390Y436773D01*
X75414Y436787D01*
X75440Y436796D01*
X75536Y436860D01*
X75634Y436919D01*
X75653Y436939D01*
X75676Y436954D01*
X75750Y437042D01*
X75829Y437126D01*
X75841Y437151D01*
X75859Y437172D01*
X75906Y437277D01*
X75958Y437379D01*
X75962Y437404D01*
X75975Y437432D01*
X76011Y437695D01*
X76014Y437710D01*
X76014Y459613D01*
X76001Y459700D01*
X75999Y459787D01*
X75982Y459840D01*
X75974Y459895D01*
X75938Y459975D01*
X75911Y460058D01*
X75883Y460097D01*
X75858Y460154D01*
X75762Y460268D01*
X75716Y460331D01*
X69140Y466908D01*
X69070Y466960D01*
X69006Y467020D01*
X68957Y467046D01*
X68913Y467079D01*
X68831Y467110D01*
X68753Y467150D01*
X68705Y467158D01*
X68647Y467180D01*
X68499Y467192D01*
X68422Y467205D01*
X44189Y467205D01*
X44187Y467205D01*
X44185Y467205D01*
X44045Y467185D01*
X43907Y467165D01*
X43906Y467165D01*
X43904Y467165D01*
X43778Y467108D01*
X43648Y467049D01*
X43646Y467048D01*
X43645Y467047D01*
X43538Y466956D01*
X43431Y466866D01*
X43430Y466864D01*
X43429Y466863D01*
X43420Y466850D01*
X43273Y466629D01*
X43264Y466600D01*
X43251Y466579D01*
X42357Y464421D01*
X40579Y462643D01*
X38257Y461681D01*
X35743Y461681D01*
X33421Y462643D01*
X31643Y464421D01*
X30681Y466743D01*
X30681Y469257D01*
X31643Y471579D01*
X33421Y473357D01*
X35743Y474319D01*
X38257Y474319D01*
X40579Y473357D01*
X40844Y473092D01*
X40914Y473040D01*
X40978Y472980D01*
X41027Y472954D01*
X41071Y472921D01*
X41153Y472890D01*
X41231Y472850D01*
X41278Y472842D01*
X41337Y472820D01*
X41485Y472808D01*
X41562Y472795D01*
X71158Y472795D01*
X81603Y462349D01*
X81603Y387552D01*
X81603Y387550D01*
X81603Y387548D01*
X81623Y387408D01*
X81643Y387270D01*
X81644Y387269D01*
X81644Y387267D01*
X81701Y387141D01*
X81759Y387011D01*
X81760Y387009D01*
X81761Y387008D01*
X81854Y386899D01*
X81943Y386794D01*
X81944Y386793D01*
X81945Y386792D01*
X81958Y386783D01*
X82180Y386636D01*
X82209Y386627D01*
X82230Y386614D01*
X82388Y386548D01*
X82539Y386397D01*
X82607Y386346D01*
X82670Y386287D01*
X82721Y386261D01*
X82766Y386226D01*
X82846Y386196D01*
X82923Y386156D01*
X82979Y386145D01*
X83032Y386125D01*
X83117Y386118D01*
X83202Y386101D01*
X83258Y386106D01*
X83315Y386102D01*
X83399Y386118D01*
X83485Y386126D01*
X83538Y386146D01*
X83594Y386157D01*
X83670Y386197D01*
X83750Y386228D01*
X83796Y386262D01*
X83846Y386288D01*
X83908Y386348D01*
X83977Y386399D01*
X84011Y386445D01*
X84052Y386484D01*
X84096Y386558D01*
X84147Y386627D01*
X84167Y386680D01*
X84196Y386729D01*
X84217Y386813D01*
X84247Y386893D01*
X84252Y386950D01*
X84266Y387005D01*
X84263Y387091D01*
X84270Y387177D01*
X84259Y387225D01*
X84257Y387289D01*
X84212Y387427D01*
X84195Y387504D01*
X83681Y388743D01*
X83681Y391257D01*
X84643Y393579D01*
X86421Y395357D01*
X86579Y395422D01*
X86580Y395423D01*
X86581Y395423D01*
X86700Y395494D01*
X86823Y395567D01*
X86824Y395568D01*
X86826Y395569D01*
X86923Y395673D01*
X87019Y395773D01*
X87019Y395775D01*
X87020Y395776D01*
X87085Y395902D01*
X87149Y396026D01*
X87149Y396028D01*
X87150Y396029D01*
X87152Y396044D01*
X87204Y396305D01*
X87201Y396335D01*
X87205Y396360D01*
X87205Y473640D01*
X87205Y473641D01*
X87205Y473643D01*
X87198Y473695D01*
X87199Y473727D01*
X87186Y473775D01*
X87186Y473779D01*
X87165Y473921D01*
X87165Y473923D01*
X87165Y473924D01*
X87108Y474050D01*
X87049Y474181D01*
X87048Y474182D01*
X87047Y474183D01*
X86960Y474286D01*
X86866Y474398D01*
X86864Y474399D01*
X86863Y474400D01*
X86850Y474408D01*
X86629Y474555D01*
X86600Y474565D01*
X86579Y474578D01*
X86421Y474643D01*
X84643Y476421D01*
X83681Y478743D01*
X83681Y481257D01*
X84643Y483579D01*
X86421Y485357D01*
X88743Y486319D01*
X91257Y486319D01*
X93579Y485357D01*
X95357Y483579D01*
X96319Y481257D01*
X96319Y478743D01*
X95542Y476869D01*
X95535Y476840D01*
X95522Y476814D01*
X95500Y476703D01*
X95471Y476594D01*
X95472Y476564D01*
X95467Y476535D01*
X95476Y476423D01*
X95480Y476309D01*
X95489Y476281D01*
X95491Y476252D01*
X95532Y476147D01*
X95566Y476039D01*
X95583Y476014D01*
X95593Y475987D01*
X95661Y475897D01*
X95725Y475803D01*
X95747Y475784D01*
X95765Y475760D01*
X95856Y475692D01*
X95942Y475620D01*
X95969Y475608D01*
X95992Y475590D01*
X96099Y475550D01*
X96202Y475504D01*
X96231Y475500D01*
X96258Y475490D01*
X96371Y475481D01*
X96483Y475465D01*
X96512Y475469D01*
X96542Y475467D01*
X96618Y475485D01*
X96765Y475506D01*
X96822Y475532D01*
X96869Y475542D01*
X98743Y476319D01*
X101257Y476319D01*
X103579Y475357D01*
X105357Y473579D01*
X106319Y471257D01*
X106319Y468743D01*
X105357Y466421D01*
X103579Y464643D01*
X103421Y464578D01*
X103420Y464577D01*
X103419Y464577D01*
X103300Y464506D01*
X103177Y464433D01*
X103176Y464432D01*
X103174Y464431D01*
X103077Y464327D01*
X102981Y464227D01*
X102981Y464225D01*
X102980Y464224D01*
X102915Y464098D01*
X102851Y463974D01*
X102851Y463972D01*
X102850Y463971D01*
X102848Y463956D01*
X102796Y463695D01*
X102799Y463665D01*
X102795Y463640D01*
X102795Y421198D01*
X102799Y421169D01*
X102796Y421140D01*
X102819Y421029D01*
X102835Y420917D01*
X102847Y420890D01*
X102852Y420861D01*
X102904Y420761D01*
X102951Y420657D01*
X102970Y420635D01*
X102983Y420609D01*
X103061Y420527D01*
X103134Y420440D01*
X103159Y420424D01*
X103179Y420403D01*
X103277Y420345D01*
X103371Y420283D01*
X103399Y420274D01*
X103424Y420259D01*
X103534Y420231D01*
X103642Y420197D01*
X103672Y420196D01*
X103700Y420189D01*
X103813Y420192D01*
X103926Y420190D01*
X103955Y420197D01*
X103984Y420198D01*
X104092Y420233D01*
X104201Y420261D01*
X104227Y420276D01*
X104255Y420285D01*
X104318Y420331D01*
X104446Y420407D01*
X104489Y420452D01*
X104528Y420480D01*
X105527Y421479D01*
X105527Y421480D01*
X105529Y421481D01*
X105617Y421599D01*
X105697Y421706D01*
X105698Y421708D01*
X105699Y421709D01*
X105749Y421841D01*
X105799Y421972D01*
X105799Y421973D01*
X105799Y421975D01*
X105810Y422113D01*
X105822Y422255D01*
X105822Y422257D01*
X105822Y422258D01*
X105819Y422273D01*
X105766Y422534D01*
X105752Y422561D01*
X105747Y422585D01*
X105681Y422743D01*
X105681Y425257D01*
X106643Y427579D01*
X108421Y429357D01*
X110743Y430319D01*
X113257Y430319D01*
X115579Y429357D01*
X117357Y427579D01*
X118319Y425257D01*
X118319Y422743D01*
X117357Y420421D01*
X115579Y418643D01*
X113257Y417681D01*
X111398Y417681D01*
X111340Y417673D01*
X111282Y417675D01*
X111200Y417653D01*
X111116Y417641D01*
X111063Y417618D01*
X111007Y417603D01*
X110934Y417560D01*
X110857Y417525D01*
X110812Y417487D01*
X110762Y417458D01*
X110704Y417396D01*
X110640Y417342D01*
X110608Y417293D01*
X110568Y417250D01*
X110529Y417175D01*
X110482Y417105D01*
X110465Y417049D01*
X110438Y416997D01*
X110427Y416929D01*
X110397Y416834D01*
X110394Y416734D01*
X110383Y416666D01*
X110383Y404708D01*
X110383Y404707D01*
X110383Y404705D01*
X110403Y404565D01*
X110423Y404427D01*
X110423Y404425D01*
X110423Y404424D01*
X110480Y404298D01*
X110539Y404167D01*
X110540Y404166D01*
X110541Y404165D01*
X110632Y404057D01*
X110722Y403950D01*
X110724Y403949D01*
X110725Y403948D01*
X110738Y403940D01*
X110959Y403793D01*
X110988Y403783D01*
X111009Y403770D01*
X111167Y403705D01*
X112945Y401927D01*
X113975Y399441D01*
X114033Y399342D01*
X114086Y399240D01*
X114105Y399220D01*
X114119Y399196D01*
X114203Y399117D01*
X114282Y399034D01*
X114306Y399020D01*
X114326Y399001D01*
X114428Y398949D01*
X114527Y398890D01*
X114554Y398884D01*
X114578Y398871D01*
X114691Y398849D01*
X114802Y398820D01*
X114830Y398821D01*
X114857Y398816D01*
X114972Y398826D01*
X115087Y398829D01*
X115113Y398838D01*
X115141Y398840D01*
X115248Y398881D01*
X115357Y398917D01*
X115377Y398931D01*
X115406Y398942D01*
X115618Y399103D01*
X115630Y399112D01*
X116290Y399771D01*
X117504Y400653D01*
X118841Y401334D01*
X120268Y401798D01*
X120469Y401830D01*
X120469Y394531D01*
X113128Y394531D01*
X113041Y394519D01*
X112954Y394516D01*
X112901Y394499D01*
X112846Y394491D01*
X112766Y394456D01*
X112683Y394429D01*
X112644Y394401D01*
X112587Y394375D01*
X112474Y394279D01*
X112410Y394234D01*
X111167Y392991D01*
X108845Y392029D01*
X106331Y392029D01*
X104199Y392913D01*
X104087Y392941D01*
X103978Y392976D01*
X103950Y392977D01*
X103923Y392984D01*
X103809Y392980D01*
X103694Y392983D01*
X103667Y392976D01*
X103639Y392975D01*
X103530Y392940D01*
X103419Y392911D01*
X103395Y392897D01*
X103368Y392889D01*
X103273Y392825D01*
X103174Y392766D01*
X103155Y392746D01*
X103132Y392730D01*
X103058Y392643D01*
X102980Y392559D01*
X102967Y392534D01*
X102949Y392513D01*
X102903Y392408D01*
X102850Y392306D01*
X102846Y392281D01*
X102834Y392253D01*
X102797Y391989D01*
X102795Y391975D01*
X102795Y388111D01*
X94301Y379617D01*
X92338Y379617D01*
X92252Y379605D01*
X92164Y379602D01*
X92111Y379585D01*
X92057Y379577D01*
X91977Y379542D01*
X91894Y379515D01*
X91854Y379487D01*
X91797Y379461D01*
X91684Y379365D01*
X91620Y379320D01*
X84821Y372521D01*
X84820Y372520D01*
X84819Y372519D01*
X84734Y372405D01*
X84651Y372294D01*
X84650Y372292D01*
X84649Y372291D01*
X84600Y372161D01*
X84549Y372028D01*
X84549Y372027D01*
X84549Y372025D01*
X84538Y371887D01*
X84526Y371745D01*
X84526Y371743D01*
X84526Y371742D01*
X84529Y371727D01*
X84582Y371466D01*
X84596Y371439D01*
X84601Y371415D01*
X84667Y371257D01*
X84667Y368743D01*
X83705Y366421D01*
X81812Y364528D01*
X81794Y364504D01*
X81772Y364485D01*
X81709Y364391D01*
X81641Y364301D01*
X81631Y364273D01*
X81614Y364249D01*
X81580Y364141D01*
X81540Y364035D01*
X81537Y364006D01*
X81529Y363978D01*
X81526Y363864D01*
X81516Y363752D01*
X81522Y363723D01*
X81521Y363694D01*
X81550Y363584D01*
X81572Y363473D01*
X81586Y363447D01*
X81593Y363419D01*
X81651Y363321D01*
X81703Y363221D01*
X81723Y363199D01*
X81738Y363174D01*
X81821Y363097D01*
X81899Y363015D01*
X81924Y363000D01*
X81946Y362980D01*
X82046Y362928D01*
X82144Y362871D01*
X82173Y362864D01*
X82199Y362850D01*
X82276Y362837D01*
X82420Y362801D01*
X82482Y362803D01*
X82530Y362795D01*
X103339Y362795D01*
X103426Y362807D01*
G37*
G36*
X37815Y5585D02*
X37815Y5585D01*
X37844Y5582D01*
X37955Y5605D01*
X38067Y5621D01*
X38094Y5633D01*
X38123Y5638D01*
X38223Y5691D01*
X38326Y5737D01*
X38349Y5756D01*
X38375Y5769D01*
X38457Y5847D01*
X38543Y5920D01*
X38560Y5945D01*
X38581Y5965D01*
X38638Y6063D01*
X38701Y6157D01*
X38710Y6185D01*
X38725Y6210D01*
X38752Y6320D01*
X38787Y6428D01*
X38788Y6458D01*
X38795Y6486D01*
X38791Y6599D01*
X38794Y6712D01*
X38787Y6741D01*
X38786Y6770D01*
X38751Y6878D01*
X38722Y6987D01*
X38707Y7013D01*
X38698Y7041D01*
X38653Y7104D01*
X38577Y7232D01*
X38531Y7275D01*
X38503Y7314D01*
X36498Y9319D01*
X34971Y13005D01*
X34971Y16995D01*
X36498Y20681D01*
X39319Y23502D01*
X43005Y25029D01*
X46995Y25029D01*
X50681Y23502D01*
X53502Y20681D01*
X55029Y16995D01*
X55029Y13005D01*
X53502Y9319D01*
X51497Y7314D01*
X51479Y7290D01*
X51457Y7271D01*
X51394Y7177D01*
X51326Y7087D01*
X51315Y7059D01*
X51299Y7035D01*
X51265Y6927D01*
X51225Y6821D01*
X51222Y6792D01*
X51213Y6764D01*
X51210Y6650D01*
X51201Y6538D01*
X51207Y6509D01*
X51206Y6480D01*
X51235Y6370D01*
X51257Y6259D01*
X51270Y6233D01*
X51278Y6205D01*
X51336Y6107D01*
X51388Y6007D01*
X51408Y5985D01*
X51423Y5960D01*
X51506Y5883D01*
X51584Y5801D01*
X51609Y5786D01*
X51630Y5766D01*
X51731Y5714D01*
X51829Y5657D01*
X51857Y5650D01*
X51883Y5636D01*
X51961Y5623D01*
X52104Y5587D01*
X52167Y5589D01*
X52215Y5581D01*
X137785Y5581D01*
X137815Y5585D01*
X137844Y5582D01*
X137955Y5605D01*
X138067Y5621D01*
X138094Y5633D01*
X138123Y5638D01*
X138223Y5691D01*
X138326Y5737D01*
X138349Y5756D01*
X138375Y5769D01*
X138457Y5847D01*
X138543Y5920D01*
X138560Y5945D01*
X138581Y5965D01*
X138638Y6063D01*
X138701Y6157D01*
X138710Y6185D01*
X138725Y6210D01*
X138752Y6320D01*
X138787Y6428D01*
X138788Y6458D01*
X138795Y6486D01*
X138791Y6599D01*
X138794Y6712D01*
X138787Y6741D01*
X138786Y6770D01*
X138751Y6878D01*
X138722Y6987D01*
X138707Y7013D01*
X138698Y7041D01*
X138653Y7104D01*
X138577Y7232D01*
X138531Y7275D01*
X138503Y7314D01*
X136498Y9319D01*
X134971Y13005D01*
X134971Y16995D01*
X136498Y20681D01*
X139319Y23502D01*
X143005Y25029D01*
X146995Y25029D01*
X150681Y23502D01*
X153502Y20681D01*
X155029Y16995D01*
X155029Y13005D01*
X153502Y9319D01*
X151497Y7314D01*
X151479Y7290D01*
X151457Y7271D01*
X151394Y7177D01*
X151326Y7087D01*
X151315Y7059D01*
X151299Y7035D01*
X151265Y6927D01*
X151225Y6821D01*
X151222Y6792D01*
X151213Y6764D01*
X151210Y6650D01*
X151201Y6538D01*
X151207Y6509D01*
X151206Y6480D01*
X151235Y6370D01*
X151257Y6259D01*
X151270Y6233D01*
X151278Y6205D01*
X151336Y6107D01*
X151388Y6007D01*
X151408Y5985D01*
X151423Y5960D01*
X151506Y5883D01*
X151584Y5801D01*
X151609Y5786D01*
X151630Y5766D01*
X151731Y5714D01*
X151829Y5657D01*
X151857Y5650D01*
X151883Y5636D01*
X151961Y5623D01*
X152104Y5587D01*
X152167Y5589D01*
X152215Y5581D01*
X237785Y5581D01*
X237815Y5585D01*
X237844Y5582D01*
X237955Y5605D01*
X238067Y5621D01*
X238094Y5633D01*
X238123Y5638D01*
X238223Y5691D01*
X238326Y5737D01*
X238349Y5756D01*
X238375Y5769D01*
X238457Y5847D01*
X238543Y5920D01*
X238560Y5945D01*
X238581Y5965D01*
X238638Y6063D01*
X238701Y6157D01*
X238710Y6185D01*
X238725Y6210D01*
X238752Y6320D01*
X238787Y6428D01*
X238788Y6458D01*
X238795Y6486D01*
X238791Y6599D01*
X238794Y6712D01*
X238787Y6741D01*
X238786Y6770D01*
X238751Y6878D01*
X238722Y6987D01*
X238707Y7013D01*
X238698Y7041D01*
X238653Y7104D01*
X238577Y7232D01*
X238531Y7275D01*
X238503Y7314D01*
X236498Y9319D01*
X235562Y11579D01*
X235561Y11580D01*
X235561Y11581D01*
X235489Y11702D01*
X235418Y11823D01*
X235417Y11824D01*
X235416Y11826D01*
X235312Y11923D01*
X235211Y12019D01*
X235210Y12019D01*
X235208Y12020D01*
X235083Y12085D01*
X234958Y12149D01*
X234957Y12149D01*
X234955Y12150D01*
X234940Y12152D01*
X234679Y12204D01*
X234649Y12201D01*
X234624Y12205D01*
X233842Y12205D01*
X219140Y26908D01*
X219070Y26960D01*
X219006Y27020D01*
X218957Y27046D01*
X218913Y27079D01*
X218831Y27110D01*
X218753Y27150D01*
X218705Y27158D01*
X218647Y27180D01*
X218499Y27192D01*
X218422Y27205D01*
X18842Y27205D01*
X9260Y36788D01*
X7314Y38734D01*
X7290Y38751D01*
X7271Y38774D01*
X7177Y38837D01*
X7087Y38905D01*
X7059Y38915D01*
X7035Y38931D01*
X6927Y38966D01*
X6821Y39006D01*
X6792Y39008D01*
X6764Y39017D01*
X6650Y39020D01*
X6538Y39029D01*
X6509Y39024D01*
X6480Y39024D01*
X6370Y38996D01*
X6259Y38974D01*
X6233Y38960D01*
X6205Y38953D01*
X6107Y38895D01*
X6007Y38843D01*
X5985Y38822D01*
X5960Y38807D01*
X5883Y38725D01*
X5801Y38647D01*
X5786Y38621D01*
X5766Y38600D01*
X5714Y38499D01*
X5657Y38402D01*
X5650Y38373D01*
X5636Y38347D01*
X5623Y38270D01*
X5587Y38126D01*
X5589Y38064D01*
X5581Y38016D01*
X5581Y6596D01*
X5589Y6538D01*
X5587Y6480D01*
X5609Y6398D01*
X5621Y6314D01*
X5644Y6261D01*
X5659Y6205D01*
X5702Y6132D01*
X5737Y6055D01*
X5775Y6010D01*
X5804Y5960D01*
X5866Y5902D01*
X5920Y5838D01*
X5969Y5806D01*
X6012Y5766D01*
X6087Y5727D01*
X6157Y5680D01*
X6213Y5663D01*
X6265Y5636D01*
X6333Y5625D01*
X6428Y5595D01*
X6528Y5592D01*
X6596Y5581D01*
X37785Y5581D01*
X37815Y5585D01*
G37*
G36*
X55587Y544458D02*
X55587Y544458D01*
X55588Y544458D01*
X55729Y544478D01*
X55867Y544498D01*
X55868Y544498D01*
X55870Y544499D01*
X55998Y544556D01*
X56126Y544614D01*
X56127Y544615D01*
X56129Y544616D01*
X56236Y544707D01*
X56343Y544798D01*
X56344Y544799D01*
X56345Y544800D01*
X56353Y544813D01*
X56501Y545034D01*
X56510Y545063D01*
X56523Y545085D01*
X56996Y546226D01*
X58774Y548004D01*
X61096Y548966D01*
X62862Y548966D01*
X62949Y548978D01*
X63036Y548981D01*
X63089Y548998D01*
X63143Y549006D01*
X63223Y549041D01*
X63306Y549068D01*
X63346Y549096D01*
X63403Y549122D01*
X63516Y549218D01*
X63580Y549263D01*
X65892Y551575D01*
X65944Y551645D01*
X66004Y551709D01*
X66030Y551758D01*
X66063Y551802D01*
X66094Y551884D01*
X66134Y551962D01*
X66142Y552010D01*
X66164Y552068D01*
X66176Y552216D01*
X66189Y552293D01*
X66189Y554454D01*
X66177Y554541D01*
X66174Y554628D01*
X66157Y554681D01*
X66149Y554736D01*
X66114Y554815D01*
X66087Y554899D01*
X66059Y554938D01*
X66033Y554995D01*
X65937Y555108D01*
X65892Y555172D01*
X64643Y556421D01*
X63681Y558743D01*
X63681Y561257D01*
X64643Y563579D01*
X66421Y565357D01*
X68036Y566026D01*
X68135Y566084D01*
X68237Y566137D01*
X68257Y566156D01*
X68281Y566171D01*
X68360Y566254D01*
X68443Y566333D01*
X68457Y566357D01*
X68476Y566377D01*
X68529Y566479D01*
X68587Y566578D01*
X68594Y566605D01*
X68607Y566630D01*
X68629Y566743D01*
X68657Y566854D01*
X68656Y566882D01*
X68662Y566909D01*
X68652Y567023D01*
X68648Y567138D01*
X68640Y567164D01*
X68637Y567192D01*
X68596Y567299D01*
X68561Y567409D01*
X68546Y567429D01*
X68535Y567457D01*
X68375Y567669D01*
X68366Y567682D01*
X49140Y586908D01*
X47205Y588842D01*
X47205Y595546D01*
X47190Y595654D01*
X47182Y595762D01*
X47170Y595794D01*
X47165Y595828D01*
X47121Y595927D01*
X47083Y596029D01*
X47063Y596056D01*
X47049Y596087D01*
X46979Y596170D01*
X46914Y596258D01*
X46887Y596278D01*
X46866Y596304D01*
X46775Y596364D01*
X46689Y596431D01*
X46657Y596443D01*
X46629Y596462D01*
X46525Y596495D01*
X46424Y596534D01*
X46390Y596537D01*
X46358Y596547D01*
X46249Y596550D01*
X46141Y596560D01*
X46108Y596554D01*
X46074Y596555D01*
X45968Y596527D01*
X45862Y596507D01*
X45831Y596492D01*
X45799Y596483D01*
X45705Y596427D01*
X45608Y596378D01*
X45587Y596357D01*
X45554Y596338D01*
X45404Y596178D01*
X45369Y596143D01*
X44983Y595612D01*
X43908Y594537D01*
X42679Y593644D01*
X41325Y592954D01*
X39880Y592485D01*
X38380Y592247D01*
X32031Y592247D01*
X32031Y600884D01*
X32023Y600942D01*
X32025Y601000D01*
X32003Y601082D01*
X31991Y601165D01*
X31967Y601219D01*
X31953Y601275D01*
X31910Y601348D01*
X31875Y601425D01*
X31837Y601469D01*
X31807Y601520D01*
X31746Y601577D01*
X31691Y601642D01*
X31643Y601674D01*
X31600Y601714D01*
X31525Y601753D01*
X31455Y601799D01*
X31399Y601817D01*
X31347Y601844D01*
X31279Y601855D01*
X31184Y601885D01*
X31084Y601888D01*
X31016Y601899D01*
X28984Y601899D01*
X28926Y601891D01*
X28868Y601892D01*
X28786Y601871D01*
X28703Y601859D01*
X28649Y601835D01*
X28593Y601821D01*
X28520Y601778D01*
X28443Y601743D01*
X28398Y601705D01*
X28348Y601675D01*
X28290Y601614D01*
X28226Y601559D01*
X28194Y601511D01*
X28154Y601468D01*
X28115Y601393D01*
X28069Y601323D01*
X28051Y601267D01*
X28024Y601215D01*
X28013Y601147D01*
X27983Y601052D01*
X27980Y600952D01*
X27969Y600884D01*
X27969Y592247D01*
X21620Y592247D01*
X20120Y592485D01*
X18675Y592954D01*
X17321Y593644D01*
X16092Y594537D01*
X15544Y595085D01*
X15520Y595103D01*
X15501Y595125D01*
X15407Y595188D01*
X15317Y595256D01*
X15289Y595266D01*
X15265Y595283D01*
X15157Y595317D01*
X15051Y595357D01*
X15022Y595360D01*
X14994Y595369D01*
X14880Y595371D01*
X14768Y595381D01*
X14739Y595375D01*
X14710Y595376D01*
X14600Y595347D01*
X14489Y595325D01*
X14463Y595311D01*
X14435Y595304D01*
X14337Y595246D01*
X14237Y595194D01*
X14215Y595174D01*
X14190Y595159D01*
X14113Y595076D01*
X14031Y594998D01*
X14016Y594973D01*
X13996Y594951D01*
X13944Y594850D01*
X13887Y594753D01*
X13880Y594724D01*
X13866Y594698D01*
X13853Y594621D01*
X13817Y594477D01*
X13819Y594415D01*
X13811Y594367D01*
X13811Y551999D01*
X13823Y551912D01*
X13826Y551825D01*
X13843Y551772D01*
X13851Y551717D01*
X13886Y551638D01*
X13913Y551554D01*
X13941Y551515D01*
X13967Y551458D01*
X14063Y551345D01*
X14108Y551281D01*
X20634Y544755D01*
X20704Y544703D01*
X20768Y544643D01*
X20817Y544617D01*
X20861Y544584D01*
X20943Y544553D01*
X21021Y544513D01*
X21068Y544505D01*
X21127Y544483D01*
X21275Y544471D01*
X21352Y544458D01*
X55585Y544458D01*
X55587Y544458D01*
G37*
G36*
X61645Y317815D02*
X61645Y317815D01*
X61674Y317812D01*
X61785Y317835D01*
X61898Y317851D01*
X61924Y317863D01*
X61953Y317868D01*
X62054Y317921D01*
X62157Y317967D01*
X62179Y317986D01*
X62205Y317999D01*
X62288Y318077D01*
X62374Y318150D01*
X62390Y318175D01*
X62412Y318195D01*
X62469Y318293D01*
X62532Y318387D01*
X62541Y318415D01*
X62555Y318440D01*
X62583Y318550D01*
X62617Y318658D01*
X62618Y318688D01*
X62625Y318716D01*
X62622Y318829D01*
X62625Y318942D01*
X62617Y318971D01*
X62616Y319000D01*
X62581Y319108D01*
X62553Y319217D01*
X62538Y319243D01*
X62529Y319271D01*
X62483Y319334D01*
X62408Y319462D01*
X62362Y319505D01*
X62334Y319544D01*
X59634Y322244D01*
X58221Y325654D01*
X58221Y329346D01*
X58651Y330383D01*
X58658Y330411D01*
X58672Y330437D01*
X58694Y330549D01*
X58722Y330658D01*
X58721Y330687D01*
X58727Y330716D01*
X58717Y330829D01*
X58714Y330942D01*
X58705Y330970D01*
X58702Y330999D01*
X58661Y331105D01*
X58627Y331213D01*
X58611Y331237D01*
X58600Y331265D01*
X58532Y331355D01*
X58469Y331449D01*
X58446Y331468D01*
X58429Y331491D01*
X58338Y331559D01*
X58251Y331632D01*
X58224Y331644D01*
X58201Y331662D01*
X58095Y331702D01*
X57991Y331748D01*
X57962Y331752D01*
X57935Y331762D01*
X57822Y331771D01*
X57710Y331787D01*
X57681Y331782D01*
X57651Y331785D01*
X57575Y331767D01*
X57428Y331746D01*
X57371Y331720D01*
X57324Y331709D01*
X57257Y331681D01*
X54743Y331681D01*
X52421Y332643D01*
X50643Y334421D01*
X49681Y336743D01*
X49681Y339257D01*
X50643Y341579D01*
X52421Y343357D01*
X54743Y344319D01*
X57257Y344319D01*
X57415Y344253D01*
X57416Y344253D01*
X57418Y344252D01*
X57551Y344218D01*
X57690Y344182D01*
X57692Y344182D01*
X57693Y344182D01*
X57834Y344187D01*
X57974Y344191D01*
X57976Y344191D01*
X57977Y344191D01*
X58113Y344235D01*
X58245Y344277D01*
X58246Y344278D01*
X58248Y344279D01*
X58260Y344287D01*
X58481Y344435D01*
X58501Y344459D01*
X58521Y344473D01*
X69520Y355472D01*
X69537Y355496D01*
X69560Y355515D01*
X69623Y355609D01*
X69691Y355699D01*
X69701Y355727D01*
X69717Y355751D01*
X69752Y355859D01*
X69792Y355965D01*
X69794Y355994D01*
X69803Y356022D01*
X69806Y356136D01*
X69815Y356248D01*
X69810Y356277D01*
X69810Y356306D01*
X69782Y356416D01*
X69760Y356527D01*
X69746Y356553D01*
X69739Y356581D01*
X69681Y356679D01*
X69629Y356779D01*
X69608Y356801D01*
X69593Y356826D01*
X69511Y356903D01*
X69433Y356985D01*
X69407Y357000D01*
X69386Y357020D01*
X69285Y357072D01*
X69188Y357129D01*
X69159Y357136D01*
X69133Y357150D01*
X69056Y357163D01*
X68912Y357199D01*
X68850Y357197D01*
X64705Y361342D01*
X64705Y382936D01*
X64705Y382938D01*
X64705Y382939D01*
X64685Y383079D01*
X64665Y383218D01*
X64665Y383219D01*
X64665Y383221D01*
X64608Y383346D01*
X64549Y383477D01*
X64548Y383478D01*
X64547Y383480D01*
X64456Y383587D01*
X64366Y383694D01*
X64364Y383695D01*
X64363Y383696D01*
X64350Y383704D01*
X64129Y383852D01*
X64100Y383861D01*
X64079Y383874D01*
X62244Y384634D01*
X59634Y387244D01*
X58221Y390654D01*
X58221Y394346D01*
X59634Y397756D01*
X62244Y400366D01*
X65654Y401779D01*
X69346Y401779D01*
X72756Y400366D01*
X74281Y398842D01*
X74304Y398824D01*
X74323Y398801D01*
X74417Y398739D01*
X74508Y398671D01*
X74535Y398660D01*
X74560Y398644D01*
X74668Y398610D01*
X74773Y398569D01*
X74803Y398567D01*
X74831Y398558D01*
X74944Y398555D01*
X75057Y398546D01*
X75085Y398552D01*
X75115Y398551D01*
X75224Y398579D01*
X75335Y398602D01*
X75362Y398615D01*
X75390Y398623D01*
X75487Y398680D01*
X75588Y398733D01*
X75609Y398753D01*
X75634Y398768D01*
X75712Y398850D01*
X75794Y398928D01*
X75809Y398954D01*
X75829Y398975D01*
X75880Y399076D01*
X75938Y399174D01*
X75945Y399202D01*
X75958Y399228D01*
X75971Y399306D01*
X76008Y399449D01*
X76006Y399512D01*
X76014Y399559D01*
X76014Y416174D01*
X76010Y416203D01*
X76012Y416232D01*
X75990Y416343D01*
X75974Y416455D01*
X75962Y416482D01*
X75956Y416511D01*
X75904Y416611D01*
X75858Y416714D01*
X75839Y416737D01*
X75825Y416763D01*
X75747Y416845D01*
X75674Y416931D01*
X75650Y416948D01*
X75629Y416969D01*
X75532Y417026D01*
X75437Y417089D01*
X75409Y417098D01*
X75384Y417113D01*
X75275Y417141D01*
X75166Y417175D01*
X75137Y417176D01*
X75109Y417183D01*
X74996Y417179D01*
X74882Y417182D01*
X74854Y417175D01*
X74824Y417174D01*
X74717Y417139D01*
X74607Y417110D01*
X74582Y417095D01*
X74554Y417086D01*
X74490Y417041D01*
X74363Y416965D01*
X74320Y416919D01*
X74281Y416891D01*
X72281Y414892D01*
X45188Y387799D01*
X45136Y387729D01*
X45076Y387665D01*
X45050Y387616D01*
X45017Y387572D01*
X44986Y387490D01*
X44946Y387412D01*
X44938Y387365D01*
X44916Y387306D01*
X44904Y387158D01*
X44891Y387081D01*
X44891Y322919D01*
X44903Y322832D01*
X44906Y322745D01*
X44923Y322692D01*
X44931Y322637D01*
X44966Y322558D01*
X44993Y322474D01*
X45021Y322435D01*
X45047Y322378D01*
X45143Y322265D01*
X45188Y322201D01*
X49281Y318108D01*
X49351Y318056D01*
X49415Y317996D01*
X49464Y317970D01*
X49508Y317937D01*
X49590Y317906D01*
X49668Y317866D01*
X49715Y317858D01*
X49774Y317836D01*
X49922Y317824D01*
X49999Y317811D01*
X61616Y317811D01*
X61645Y317815D01*
G37*
%LPC*%
G36*
X218743Y407205D02*
X218743Y407205D01*
X216421Y408167D01*
X214643Y409945D01*
X213681Y412267D01*
X213681Y414781D01*
X214643Y417103D01*
X215892Y418352D01*
X215944Y418422D01*
X216004Y418486D01*
X216030Y418535D01*
X216063Y418579D01*
X216094Y418661D01*
X216134Y418739D01*
X216142Y418786D01*
X216164Y418845D01*
X216176Y418993D01*
X216189Y419070D01*
X216189Y564454D01*
X216177Y564541D01*
X216174Y564628D01*
X216157Y564681D01*
X216149Y564736D01*
X216114Y564815D01*
X216087Y564899D01*
X216059Y564938D01*
X216033Y564995D01*
X215937Y565108D01*
X215892Y565172D01*
X214643Y566421D01*
X213681Y568743D01*
X213681Y571257D01*
X214643Y573579D01*
X216421Y575357D01*
X218743Y576319D01*
X221257Y576319D01*
X223579Y575357D01*
X225357Y573579D01*
X226319Y571257D01*
X226319Y568743D01*
X225357Y566421D01*
X224108Y565172D01*
X224056Y565102D01*
X223996Y565038D01*
X223970Y564989D01*
X223937Y564945D01*
X223906Y564863D01*
X223866Y564785D01*
X223858Y564738D01*
X223836Y564679D01*
X223824Y564531D01*
X223811Y564454D01*
X223811Y419070D01*
X223823Y418983D01*
X223826Y418896D01*
X223843Y418843D01*
X223851Y418788D01*
X223886Y418709D01*
X223913Y418625D01*
X223941Y418586D01*
X223967Y418529D01*
X224063Y418416D01*
X224108Y418352D01*
X225357Y417103D01*
X226319Y414781D01*
X226319Y412267D01*
X225357Y409945D01*
X223579Y408167D01*
X221257Y407205D01*
X218743Y407205D01*
G37*
%LPD*%
G36*
X23574Y327509D02*
X23574Y327509D01*
X23632Y327508D01*
X23714Y327529D01*
X23797Y327541D01*
X23851Y327565D01*
X23907Y327579D01*
X23980Y327622D01*
X24057Y327657D01*
X24102Y327695D01*
X24152Y327725D01*
X24210Y327786D01*
X24274Y327841D01*
X24306Y327889D01*
X24346Y327932D01*
X24385Y328007D01*
X24431Y328077D01*
X24449Y328133D01*
X24476Y328185D01*
X24487Y328253D01*
X24517Y328348D01*
X24520Y328448D01*
X24531Y328516D01*
X24531Y336830D01*
X24732Y336798D01*
X26159Y336334D01*
X27496Y335653D01*
X28710Y334771D01*
X29771Y333710D01*
X30653Y332496D01*
X31285Y331255D01*
X31312Y331217D01*
X31331Y331175D01*
X31393Y331102D01*
X31449Y331023D01*
X31485Y330994D01*
X31515Y330958D01*
X31595Y330905D01*
X31670Y330844D01*
X31713Y330826D01*
X31751Y330801D01*
X31843Y330772D01*
X31932Y330734D01*
X31978Y330729D01*
X32022Y330715D01*
X32119Y330712D01*
X32215Y330701D01*
X32260Y330709D01*
X32306Y330708D01*
X32400Y330732D01*
X32495Y330748D01*
X32537Y330768D01*
X32581Y330779D01*
X32664Y330829D01*
X32752Y330870D01*
X32786Y330901D01*
X32826Y330925D01*
X32892Y330995D01*
X32964Y331059D01*
X32989Y331098D01*
X33020Y331132D01*
X33064Y331218D01*
X33116Y331300D01*
X33129Y331344D01*
X33150Y331385D01*
X33162Y331459D01*
X33195Y331573D01*
X33195Y331656D01*
X33205Y331716D01*
X33205Y388284D01*
X33199Y388330D01*
X33201Y388376D01*
X33179Y388470D01*
X33165Y388565D01*
X33147Y388607D01*
X33136Y388652D01*
X33089Y388737D01*
X33049Y388825D01*
X33019Y388860D01*
X32997Y388900D01*
X32928Y388968D01*
X32866Y389042D01*
X32827Y389067D01*
X32794Y389100D01*
X32709Y389146D01*
X32629Y389199D01*
X32585Y389213D01*
X32544Y389235D01*
X32450Y389256D01*
X32358Y389285D01*
X32312Y389286D01*
X32267Y389296D01*
X32170Y389290D01*
X32074Y389292D01*
X32029Y389281D01*
X31983Y389278D01*
X31892Y389245D01*
X31799Y389221D01*
X31759Y389197D01*
X31715Y389181D01*
X31637Y389125D01*
X31554Y389075D01*
X31523Y389042D01*
X31485Y389015D01*
X31440Y388954D01*
X31360Y388868D01*
X31322Y388794D01*
X31285Y388745D01*
X30653Y387504D01*
X29771Y386290D01*
X28710Y385229D01*
X27496Y384347D01*
X26159Y383666D01*
X24732Y383202D01*
X24531Y383170D01*
X24531Y391484D01*
X24523Y391542D01*
X24525Y391600D01*
X24503Y391682D01*
X24491Y391765D01*
X24467Y391819D01*
X24453Y391875D01*
X24410Y391948D01*
X24375Y392025D01*
X24337Y392069D01*
X24307Y392120D01*
X24246Y392177D01*
X24191Y392242D01*
X24143Y392274D01*
X24100Y392314D01*
X24025Y392353D01*
X23955Y392399D01*
X23899Y392417D01*
X23847Y392444D01*
X23779Y392455D01*
X23684Y392485D01*
X23584Y392488D01*
X23516Y392499D01*
X21484Y392499D01*
X21426Y392491D01*
X21368Y392492D01*
X21286Y392471D01*
X21203Y392459D01*
X21149Y392435D01*
X21093Y392421D01*
X21020Y392378D01*
X20943Y392343D01*
X20898Y392305D01*
X20848Y392275D01*
X20790Y392214D01*
X20726Y392159D01*
X20694Y392111D01*
X20654Y392068D01*
X20615Y391993D01*
X20569Y391923D01*
X20551Y391867D01*
X20524Y391815D01*
X20513Y391747D01*
X20483Y391652D01*
X20480Y391552D01*
X20469Y391484D01*
X20469Y383170D01*
X20268Y383202D01*
X18841Y383666D01*
X17504Y384347D01*
X16290Y385229D01*
X15544Y385975D01*
X15520Y385992D01*
X15501Y386015D01*
X15407Y386078D01*
X15317Y386146D01*
X15289Y386156D01*
X15265Y386172D01*
X15157Y386207D01*
X15051Y386247D01*
X15022Y386249D01*
X14994Y386258D01*
X14880Y386261D01*
X14768Y386271D01*
X14739Y386265D01*
X14710Y386266D01*
X14600Y386237D01*
X14489Y386215D01*
X14463Y386201D01*
X14435Y386194D01*
X14337Y386136D01*
X14237Y386084D01*
X14215Y386063D01*
X14190Y386048D01*
X14113Y385966D01*
X14031Y385888D01*
X14016Y385863D01*
X13996Y385841D01*
X13944Y385740D01*
X13887Y385643D01*
X13880Y385614D01*
X13866Y385588D01*
X13853Y385511D01*
X13817Y385367D01*
X13819Y385305D01*
X13811Y385257D01*
X13811Y334743D01*
X13815Y334714D01*
X13812Y334685D01*
X13835Y334574D01*
X13851Y334462D01*
X13863Y334435D01*
X13868Y334406D01*
X13921Y334305D01*
X13967Y334202D01*
X13986Y334180D01*
X13999Y334154D01*
X14077Y334072D01*
X14150Y333985D01*
X14175Y333969D01*
X14195Y333948D01*
X14293Y333890D01*
X14387Y333828D01*
X14415Y333819D01*
X14440Y333804D01*
X14550Y333776D01*
X14658Y333742D01*
X14688Y333741D01*
X14716Y333734D01*
X14829Y333737D01*
X14942Y333734D01*
X14971Y333742D01*
X15000Y333743D01*
X15108Y333778D01*
X15217Y333806D01*
X15243Y333821D01*
X15271Y333830D01*
X15335Y333876D01*
X15462Y333952D01*
X15505Y333997D01*
X15544Y334025D01*
X16290Y334771D01*
X17504Y335653D01*
X18841Y336334D01*
X20268Y336798D01*
X20469Y336830D01*
X20469Y328516D01*
X20477Y328458D01*
X20475Y328400D01*
X20497Y328318D01*
X20509Y328235D01*
X20533Y328181D01*
X20547Y328125D01*
X20590Y328052D01*
X20625Y327975D01*
X20663Y327931D01*
X20693Y327880D01*
X20754Y327823D01*
X20809Y327758D01*
X20857Y327726D01*
X20900Y327686D01*
X20975Y327647D01*
X21045Y327601D01*
X21101Y327583D01*
X21153Y327556D01*
X21221Y327545D01*
X21316Y327515D01*
X21416Y327512D01*
X21484Y327501D01*
X23516Y327501D01*
X23574Y327509D01*
G37*
%LPC*%
G36*
X41716Y178489D02*
X41716Y178489D01*
X35647Y181003D01*
X31003Y185647D01*
X28489Y191716D01*
X28489Y198284D01*
X31003Y204353D01*
X35647Y208997D01*
X41716Y211511D01*
X48284Y211511D01*
X54353Y208997D01*
X58997Y204353D01*
X61511Y198284D01*
X61511Y191716D01*
X58997Y185647D01*
X54353Y181003D01*
X48284Y178489D01*
X41716Y178489D01*
G37*
%LPD*%
%LPC*%
G36*
X141716Y48489D02*
X141716Y48489D01*
X135647Y51003D01*
X131003Y55647D01*
X128489Y61716D01*
X128489Y68284D01*
X131003Y74353D01*
X135647Y78997D01*
X141716Y81511D01*
X148284Y81511D01*
X154353Y78997D01*
X158997Y74353D01*
X161511Y68284D01*
X161511Y61716D01*
X158997Y55647D01*
X154353Y51003D01*
X148284Y48489D01*
X141716Y48489D01*
G37*
%LPD*%
%LPC*%
G36*
X241716Y48489D02*
X241716Y48489D01*
X235647Y51003D01*
X231003Y55647D01*
X228489Y61716D01*
X228489Y68284D01*
X231003Y74353D01*
X235647Y78997D01*
X241716Y81511D01*
X248284Y81511D01*
X254353Y78997D01*
X258997Y74353D01*
X261511Y68284D01*
X261511Y61716D01*
X258997Y55647D01*
X254353Y51003D01*
X248284Y48489D01*
X241716Y48489D01*
G37*
%LPD*%
%LPC*%
G36*
X241716Y178489D02*
X241716Y178489D01*
X235647Y181003D01*
X231003Y185647D01*
X228489Y191716D01*
X228489Y198284D01*
X231003Y204353D01*
X235647Y208997D01*
X241716Y211511D01*
X248284Y211511D01*
X254353Y208997D01*
X258997Y204353D01*
X261511Y198284D01*
X261511Y191716D01*
X258997Y185647D01*
X254353Y181003D01*
X248284Y178489D01*
X241716Y178489D01*
G37*
%LPD*%
%LPC*%
G36*
X54343Y976401D02*
X54343Y976401D01*
X53301Y977443D01*
X53301Y994157D01*
X54343Y995199D01*
X71057Y995199D01*
X72099Y994157D01*
X72099Y977443D01*
X71057Y976401D01*
X54343Y976401D01*
G37*
%LPD*%
%LPC*%
G36*
X243005Y234971D02*
X243005Y234971D01*
X239319Y236498D01*
X236498Y239319D01*
X234971Y243005D01*
X234971Y246995D01*
X236498Y250681D01*
X239319Y253502D01*
X243005Y255029D01*
X246995Y255029D01*
X250681Y253502D01*
X253502Y250681D01*
X255029Y246995D01*
X255029Y243005D01*
X253502Y239319D01*
X250681Y236498D01*
X246995Y234971D01*
X243005Y234971D01*
G37*
%LPD*%
%LPC*%
G36*
X143005Y149971D02*
X143005Y149971D01*
X139319Y151498D01*
X136498Y154319D01*
X134971Y158005D01*
X134971Y161995D01*
X136498Y165681D01*
X139319Y168502D01*
X143005Y170029D01*
X146995Y170029D01*
X150681Y168502D01*
X153502Y165681D01*
X155029Y161995D01*
X155029Y158005D01*
X153502Y154319D01*
X150681Y151498D01*
X146995Y149971D01*
X143005Y149971D01*
G37*
%LPD*%
%LPC*%
G36*
X43005Y149971D02*
X43005Y149971D01*
X39319Y151498D01*
X36498Y154319D01*
X34971Y158005D01*
X34971Y161995D01*
X36498Y165681D01*
X39319Y168502D01*
X43005Y170029D01*
X46995Y170029D01*
X50681Y168502D01*
X53502Y165681D01*
X55029Y161995D01*
X55029Y158005D01*
X53502Y154319D01*
X50681Y151498D01*
X46995Y149971D01*
X43005Y149971D01*
G37*
%LPD*%
%LPC*%
G36*
X143005Y89971D02*
X143005Y89971D01*
X139319Y91498D01*
X136498Y94319D01*
X134971Y98005D01*
X134971Y101995D01*
X136498Y105681D01*
X139319Y108502D01*
X143005Y110029D01*
X146995Y110029D01*
X150681Y108502D01*
X153502Y105681D01*
X155029Y101995D01*
X155029Y98005D01*
X153502Y94319D01*
X150681Y91498D01*
X146995Y89971D01*
X143005Y89971D01*
G37*
%LPD*%
%LPC*%
G36*
X243005Y149971D02*
X243005Y149971D01*
X239319Y151498D01*
X236498Y154319D01*
X234971Y158005D01*
X234971Y161995D01*
X236498Y165681D01*
X239319Y168502D01*
X243005Y170029D01*
X246995Y170029D01*
X250681Y168502D01*
X253502Y165681D01*
X255029Y161995D01*
X255029Y158005D01*
X253502Y154319D01*
X250681Y151498D01*
X246995Y149971D01*
X243005Y149971D01*
G37*
%LPD*%
%LPC*%
G36*
X43005Y234971D02*
X43005Y234971D01*
X39319Y236498D01*
X36498Y239319D01*
X34971Y243005D01*
X34971Y246995D01*
X36498Y250681D01*
X39319Y253502D01*
X43005Y255029D01*
X46995Y255029D01*
X50681Y253502D01*
X53502Y250681D01*
X55029Y246995D01*
X55029Y243005D01*
X53502Y239319D01*
X50681Y236498D01*
X46995Y234971D01*
X43005Y234971D01*
G37*
%LPD*%
%LPC*%
G36*
X143005Y234971D02*
X143005Y234971D01*
X139319Y236498D01*
X136498Y239319D01*
X134971Y243005D01*
X134971Y246995D01*
X136498Y250681D01*
X139319Y253502D01*
X143005Y255029D01*
X146995Y255029D01*
X150681Y253502D01*
X153502Y250681D01*
X155029Y246995D01*
X155029Y243005D01*
X153502Y239319D01*
X150681Y236498D01*
X146995Y234971D01*
X143005Y234971D01*
G37*
%LPD*%
%LPC*%
G36*
X243005Y89971D02*
X243005Y89971D01*
X239319Y91498D01*
X236498Y94319D01*
X234971Y98005D01*
X234971Y101995D01*
X236498Y105681D01*
X239319Y108502D01*
X243005Y110029D01*
X246995Y110029D01*
X250681Y108502D01*
X253502Y105681D01*
X255029Y101995D01*
X255029Y98005D01*
X253502Y94319D01*
X250681Y91498D01*
X246995Y89971D01*
X243005Y89971D01*
G37*
%LPD*%
G36*
X31074Y601909D02*
X31074Y601909D01*
X31132Y601908D01*
X31214Y601929D01*
X31297Y601941D01*
X31351Y601965D01*
X31407Y601979D01*
X31480Y602022D01*
X31557Y602057D01*
X31602Y602095D01*
X31652Y602125D01*
X31710Y602186D01*
X31774Y602241D01*
X31806Y602289D01*
X31846Y602332D01*
X31885Y602407D01*
X31931Y602477D01*
X31949Y602533D01*
X31976Y602585D01*
X31987Y602653D01*
X32017Y602748D01*
X32020Y602848D01*
X32031Y602916D01*
X32031Y611553D01*
X38380Y611553D01*
X39880Y611315D01*
X41325Y610846D01*
X42679Y610156D01*
X43908Y609263D01*
X44983Y608188D01*
X45369Y607657D01*
X45444Y607579D01*
X45515Y607496D01*
X45543Y607477D01*
X45566Y607453D01*
X45661Y607399D01*
X45751Y607338D01*
X45783Y607328D01*
X45813Y607311D01*
X45919Y607285D01*
X46022Y607253D01*
X46056Y607252D01*
X46089Y607244D01*
X46198Y607248D01*
X46306Y607245D01*
X46339Y607254D01*
X46373Y607255D01*
X46476Y607290D01*
X46581Y607317D01*
X46611Y607334D01*
X46643Y607345D01*
X46732Y607407D01*
X46826Y607462D01*
X46849Y607487D01*
X46877Y607506D01*
X46946Y607590D01*
X47020Y607670D01*
X47036Y607700D01*
X47057Y607726D01*
X47100Y607826D01*
X47150Y607923D01*
X47155Y607953D01*
X47170Y607987D01*
X47197Y608204D01*
X47205Y608254D01*
X47205Y621142D01*
X47201Y621172D01*
X47204Y621201D01*
X47181Y621312D01*
X47165Y621424D01*
X47153Y621451D01*
X47148Y621479D01*
X47095Y621580D01*
X47049Y621683D01*
X47030Y621706D01*
X47017Y621732D01*
X46939Y621814D01*
X46866Y621900D01*
X46841Y621917D01*
X46821Y621938D01*
X46723Y621995D01*
X46629Y622058D01*
X46601Y622067D01*
X46576Y622082D01*
X46466Y622109D01*
X46358Y622144D01*
X46328Y622144D01*
X46300Y622152D01*
X46187Y622148D01*
X46074Y622151D01*
X46045Y622144D01*
X46016Y622143D01*
X45908Y622108D01*
X45799Y622079D01*
X45773Y622064D01*
X45745Y622055D01*
X45682Y622010D01*
X45554Y621934D01*
X45511Y621888D01*
X45472Y621860D01*
X42944Y619332D01*
X39490Y617901D01*
X20510Y617901D01*
X17056Y619332D01*
X15544Y620844D01*
X15520Y620862D01*
X15501Y620884D01*
X15407Y620947D01*
X15317Y621015D01*
X15289Y621026D01*
X15265Y621042D01*
X15157Y621076D01*
X15051Y621116D01*
X15022Y621119D01*
X14994Y621128D01*
X14880Y621131D01*
X14768Y621140D01*
X14739Y621134D01*
X14710Y621135D01*
X14600Y621106D01*
X14489Y621084D01*
X14463Y621071D01*
X14435Y621063D01*
X14337Y621006D01*
X14237Y620953D01*
X14215Y620933D01*
X14190Y620918D01*
X14113Y620835D01*
X14031Y620757D01*
X14016Y620732D01*
X13996Y620711D01*
X13944Y620610D01*
X13887Y620512D01*
X13880Y620484D01*
X13866Y620458D01*
X13853Y620380D01*
X13817Y620237D01*
X13819Y620174D01*
X13811Y620126D01*
X13811Y609433D01*
X13815Y609404D01*
X13812Y609374D01*
X13835Y609263D01*
X13851Y609151D01*
X13863Y609125D01*
X13868Y609096D01*
X13921Y608995D01*
X13967Y608892D01*
X13986Y608869D01*
X13999Y608843D01*
X14077Y608761D01*
X14150Y608675D01*
X14175Y608659D01*
X14195Y608637D01*
X14293Y608580D01*
X14387Y608517D01*
X14415Y608508D01*
X14440Y608494D01*
X14550Y608466D01*
X14658Y608431D01*
X14688Y608431D01*
X14716Y608424D01*
X14829Y608427D01*
X14942Y608424D01*
X14971Y608432D01*
X15000Y608433D01*
X15108Y608467D01*
X15217Y608496D01*
X15243Y608511D01*
X15271Y608520D01*
X15335Y608566D01*
X15462Y608641D01*
X15505Y608687D01*
X15544Y608715D01*
X16092Y609263D01*
X17321Y610156D01*
X18675Y610846D01*
X20120Y611315D01*
X21620Y611553D01*
X27969Y611553D01*
X27969Y602916D01*
X27977Y602858D01*
X27975Y602800D01*
X27997Y602718D01*
X28009Y602635D01*
X28033Y602581D01*
X28047Y602525D01*
X28090Y602452D01*
X28125Y602375D01*
X28163Y602331D01*
X28193Y602280D01*
X28254Y602223D01*
X28309Y602158D01*
X28357Y602126D01*
X28400Y602086D01*
X28475Y602047D01*
X28545Y602001D01*
X28601Y601983D01*
X28653Y601956D01*
X28721Y601945D01*
X28816Y601915D01*
X28916Y601912D01*
X28984Y601901D01*
X31016Y601901D01*
X31074Y601909D01*
G37*
%LPC*%
G36*
X33407Y874801D02*
X33407Y874801D01*
X27901Y880307D01*
X27901Y888093D01*
X33407Y893599D01*
X41193Y893599D01*
X46699Y888093D01*
X46699Y880307D01*
X41193Y874801D01*
X33407Y874801D01*
G37*
%LPD*%
%LPC*%
G36*
X33407Y976401D02*
X33407Y976401D01*
X27901Y981907D01*
X27901Y989693D01*
X33407Y995199D01*
X41193Y995199D01*
X46699Y989693D01*
X46699Y981907D01*
X41193Y976401D01*
X33407Y976401D01*
G37*
%LPD*%
%LPC*%
G36*
X58807Y874801D02*
X58807Y874801D01*
X53301Y880307D01*
X53301Y888093D01*
X58807Y893599D01*
X66593Y893599D01*
X72099Y888093D01*
X72099Y880307D01*
X66593Y874801D01*
X58807Y874801D01*
G37*
%LPD*%
G36*
X14829Y299208D02*
X14829Y299208D01*
X14942Y299206D01*
X14971Y299213D01*
X15000Y299214D01*
X15108Y299249D01*
X15217Y299277D01*
X15243Y299292D01*
X15271Y299301D01*
X15334Y299347D01*
X15462Y299423D01*
X15505Y299468D01*
X15544Y299496D01*
X32908Y316860D01*
X32960Y316930D01*
X33020Y316994D01*
X33046Y317043D01*
X33079Y317087D01*
X33110Y317169D01*
X33150Y317247D01*
X33158Y317295D01*
X33180Y317353D01*
X33192Y317501D01*
X33205Y317578D01*
X33205Y323284D01*
X33199Y323330D01*
X33201Y323376D01*
X33179Y323470D01*
X33165Y323565D01*
X33147Y323607D01*
X33136Y323652D01*
X33089Y323737D01*
X33049Y323825D01*
X33019Y323860D01*
X32997Y323900D01*
X32928Y323968D01*
X32866Y324042D01*
X32827Y324067D01*
X32794Y324100D01*
X32709Y324146D01*
X32629Y324199D01*
X32585Y324213D01*
X32544Y324235D01*
X32450Y324256D01*
X32358Y324285D01*
X32312Y324286D01*
X32267Y324296D01*
X32170Y324290D01*
X32074Y324292D01*
X32029Y324281D01*
X31983Y324278D01*
X31892Y324245D01*
X31799Y324221D01*
X31759Y324197D01*
X31715Y324181D01*
X31637Y324125D01*
X31554Y324075D01*
X31523Y324042D01*
X31485Y324015D01*
X31440Y323954D01*
X31360Y323868D01*
X31322Y323794D01*
X31285Y323745D01*
X30653Y322504D01*
X29771Y321290D01*
X28710Y320229D01*
X27496Y319347D01*
X26159Y318666D01*
X24732Y318202D01*
X24531Y318170D01*
X24531Y326484D01*
X24523Y326542D01*
X24525Y326600D01*
X24503Y326682D01*
X24491Y326765D01*
X24467Y326819D01*
X24453Y326875D01*
X24410Y326948D01*
X24375Y327025D01*
X24337Y327069D01*
X24307Y327120D01*
X24246Y327177D01*
X24191Y327242D01*
X24143Y327274D01*
X24100Y327314D01*
X24025Y327353D01*
X23955Y327399D01*
X23899Y327417D01*
X23847Y327444D01*
X23779Y327455D01*
X23684Y327485D01*
X23584Y327488D01*
X23516Y327499D01*
X21484Y327499D01*
X21426Y327491D01*
X21368Y327492D01*
X21286Y327471D01*
X21203Y327459D01*
X21149Y327435D01*
X21093Y327421D01*
X21020Y327378D01*
X20943Y327343D01*
X20898Y327305D01*
X20848Y327275D01*
X20790Y327214D01*
X20726Y327159D01*
X20694Y327111D01*
X20654Y327068D01*
X20615Y326993D01*
X20569Y326923D01*
X20551Y326867D01*
X20524Y326815D01*
X20513Y326747D01*
X20483Y326652D01*
X20480Y326552D01*
X20469Y326484D01*
X20469Y318170D01*
X20268Y318202D01*
X18841Y318666D01*
X17504Y319347D01*
X16290Y320229D01*
X15544Y320975D01*
X15520Y320992D01*
X15501Y321015D01*
X15407Y321078D01*
X15317Y321146D01*
X15289Y321156D01*
X15265Y321172D01*
X15157Y321207D01*
X15051Y321247D01*
X15022Y321249D01*
X14994Y321258D01*
X14880Y321261D01*
X14768Y321271D01*
X14739Y321265D01*
X14710Y321266D01*
X14600Y321237D01*
X14489Y321215D01*
X14463Y321201D01*
X14435Y321194D01*
X14337Y321136D01*
X14237Y321084D01*
X14215Y321063D01*
X14190Y321048D01*
X14113Y320966D01*
X14031Y320888D01*
X14016Y320863D01*
X13996Y320841D01*
X13944Y320740D01*
X13887Y320643D01*
X13880Y320614D01*
X13866Y320588D01*
X13853Y320511D01*
X13817Y320367D01*
X13819Y320305D01*
X13811Y320257D01*
X13811Y300214D01*
X13815Y300185D01*
X13812Y300156D01*
X13835Y300045D01*
X13851Y299933D01*
X13863Y299906D01*
X13868Y299877D01*
X13920Y299777D01*
X13967Y299673D01*
X13986Y299651D01*
X13999Y299625D01*
X14077Y299543D01*
X14150Y299456D01*
X14175Y299440D01*
X14195Y299419D01*
X14293Y299361D01*
X14387Y299299D01*
X14415Y299290D01*
X14440Y299275D01*
X14550Y299247D01*
X14658Y299213D01*
X14688Y299212D01*
X14716Y299205D01*
X14829Y299208D01*
G37*
%LPC*%
G36*
X263154Y975321D02*
X263154Y975321D01*
X259744Y976734D01*
X257134Y979344D01*
X255721Y982754D01*
X255721Y986446D01*
X257134Y989856D01*
X259744Y992466D01*
X263154Y993879D01*
X266846Y993879D01*
X270256Y992466D01*
X272866Y989856D01*
X274279Y986446D01*
X274279Y982754D01*
X272866Y979344D01*
X270256Y976734D01*
X266846Y975321D01*
X263154Y975321D01*
G37*
%LPD*%
%LPC*%
G36*
X168154Y535721D02*
X168154Y535721D01*
X164744Y537134D01*
X162134Y539744D01*
X160721Y543154D01*
X160721Y546846D01*
X162134Y550256D01*
X164744Y552866D01*
X168154Y554279D01*
X171846Y554279D01*
X175256Y552866D01*
X177866Y550256D01*
X179279Y546846D01*
X179279Y543154D01*
X177866Y539744D01*
X175256Y537134D01*
X171846Y535721D01*
X168154Y535721D01*
G37*
%LPD*%
%LPC*%
G36*
X263154Y1026121D02*
X263154Y1026121D01*
X259744Y1027534D01*
X257134Y1030144D01*
X255721Y1033554D01*
X255721Y1037246D01*
X257134Y1040656D01*
X259744Y1043266D01*
X263154Y1044679D01*
X266846Y1044679D01*
X270256Y1043266D01*
X272866Y1040656D01*
X274279Y1037246D01*
X274279Y1033554D01*
X272866Y1030144D01*
X270256Y1027534D01*
X266846Y1026121D01*
X263154Y1026121D01*
G37*
%LPD*%
G36*
X146074Y545009D02*
X146074Y545009D01*
X146132Y545008D01*
X146214Y545029D01*
X146297Y545041D01*
X146351Y545065D01*
X146407Y545079D01*
X146480Y545122D01*
X146557Y545157D01*
X146602Y545195D01*
X146652Y545225D01*
X146710Y545286D01*
X146774Y545341D01*
X146806Y545389D01*
X146846Y545432D01*
X146885Y545507D01*
X146931Y545577D01*
X146949Y545633D01*
X146976Y545685D01*
X146987Y545753D01*
X147017Y545848D01*
X147020Y545948D01*
X147031Y546016D01*
X147031Y554330D01*
X147232Y554298D01*
X148659Y553834D01*
X149996Y553153D01*
X151141Y552321D01*
X151223Y552278D01*
X151299Y552227D01*
X151348Y552212D01*
X151392Y552188D01*
X151482Y552169D01*
X151570Y552141D01*
X151621Y552140D01*
X151671Y552130D01*
X151762Y552136D01*
X151854Y552134D01*
X151903Y552147D01*
X151954Y552151D01*
X152041Y552183D01*
X152129Y552206D01*
X152173Y552232D01*
X152221Y552249D01*
X152295Y552304D01*
X152374Y552351D01*
X152409Y552388D01*
X152449Y552418D01*
X152505Y552491D01*
X152568Y552558D01*
X152591Y552604D01*
X152622Y552644D01*
X152656Y552730D01*
X152698Y552811D01*
X152705Y552855D01*
X152726Y552909D01*
X152741Y553067D01*
X152753Y553143D01*
X152753Y570350D01*
X152749Y570379D01*
X152752Y570408D01*
X152729Y570519D01*
X152713Y570631D01*
X152701Y570658D01*
X152696Y570687D01*
X152644Y570787D01*
X152597Y570891D01*
X152578Y570913D01*
X152565Y570939D01*
X152487Y571021D01*
X152414Y571108D01*
X152389Y571124D01*
X152369Y571145D01*
X152271Y571203D01*
X152177Y571265D01*
X152149Y571274D01*
X152124Y571289D01*
X152014Y571317D01*
X151906Y571351D01*
X151876Y571352D01*
X151848Y571359D01*
X151735Y571356D01*
X151622Y571358D01*
X151593Y571351D01*
X151564Y571350D01*
X151456Y571315D01*
X151347Y571287D01*
X151321Y571272D01*
X151293Y571263D01*
X151230Y571217D01*
X151102Y571141D01*
X151059Y571096D01*
X151020Y571068D01*
X136140Y556188D01*
X136088Y556118D01*
X136028Y556054D01*
X136002Y556005D01*
X135969Y555961D01*
X135938Y555879D01*
X135898Y555801D01*
X135890Y555753D01*
X135868Y555695D01*
X135856Y555547D01*
X135843Y555470D01*
X135843Y551739D01*
X135850Y551688D01*
X135849Y551669D01*
X135856Y551642D01*
X135858Y551631D01*
X135866Y551523D01*
X135878Y551491D01*
X135883Y551457D01*
X135927Y551358D01*
X135965Y551256D01*
X135985Y551229D01*
X135999Y551198D01*
X136069Y551115D01*
X136134Y551027D01*
X136161Y551007D01*
X136182Y550981D01*
X136273Y550921D01*
X136359Y550854D01*
X136391Y550842D01*
X136419Y550823D01*
X136523Y550790D01*
X136624Y550751D01*
X136658Y550748D01*
X136690Y550737D01*
X136799Y550735D01*
X136907Y550725D01*
X136941Y550731D01*
X136974Y550730D01*
X137080Y550758D01*
X137186Y550778D01*
X137217Y550793D01*
X137249Y550802D01*
X137343Y550857D01*
X137440Y550907D01*
X137462Y550928D01*
X137494Y550947D01*
X137633Y551096D01*
X137650Y551110D01*
X137656Y551119D01*
X137679Y551142D01*
X137729Y551210D01*
X138790Y552271D01*
X140004Y553153D01*
X141341Y553834D01*
X142768Y554298D01*
X142969Y554330D01*
X142969Y546016D01*
X142977Y545958D01*
X142975Y545900D01*
X142997Y545818D01*
X143009Y545735D01*
X143033Y545681D01*
X143047Y545625D01*
X143090Y545552D01*
X143125Y545475D01*
X143163Y545431D01*
X143193Y545380D01*
X143254Y545323D01*
X143309Y545258D01*
X143357Y545226D01*
X143400Y545186D01*
X143475Y545147D01*
X143545Y545101D01*
X143601Y545083D01*
X143653Y545056D01*
X143721Y545045D01*
X143816Y545015D01*
X143916Y545012D01*
X143984Y545001D01*
X146016Y545001D01*
X146074Y545009D01*
G37*
%LPC*%
G36*
X241738Y294825D02*
X241738Y294825D01*
X237125Y299438D01*
X237125Y305962D01*
X241738Y310575D01*
X248262Y310575D01*
X252875Y305962D01*
X252875Y299438D01*
X248262Y294825D01*
X241738Y294825D01*
G37*
%LPD*%
%LPC*%
G36*
X213031Y622031D02*
X213031Y622031D01*
X213031Y636283D01*
X225518Y636283D01*
X226035Y636144D01*
X226498Y635877D01*
X226877Y635498D01*
X227144Y635035D01*
X227283Y634518D01*
X227283Y622031D01*
X213031Y622031D01*
G37*
%LPD*%
%LPC*%
G36*
X81031Y622031D02*
X81031Y622031D01*
X81031Y636283D01*
X93518Y636283D01*
X94035Y636144D01*
X94498Y635877D01*
X94877Y635498D01*
X95144Y635035D01*
X95283Y634518D01*
X95283Y622031D01*
X81031Y622031D01*
G37*
%LPD*%
%LPC*%
G36*
X62717Y622031D02*
X62717Y622031D01*
X62717Y634518D01*
X62856Y635035D01*
X63123Y635498D01*
X63502Y635877D01*
X63965Y636144D01*
X64482Y636283D01*
X76969Y636283D01*
X76969Y622031D01*
X62717Y622031D01*
G37*
%LPD*%
%LPC*%
G36*
X81031Y603717D02*
X81031Y603717D01*
X81031Y617969D01*
X95283Y617969D01*
X95283Y605482D01*
X95144Y604965D01*
X94877Y604502D01*
X94498Y604123D01*
X94035Y603856D01*
X93518Y603717D01*
X81031Y603717D01*
G37*
%LPD*%
%LPC*%
G36*
X64482Y603717D02*
X64482Y603717D01*
X63965Y603856D01*
X63502Y604123D01*
X63123Y604502D01*
X62856Y604965D01*
X62717Y605482D01*
X62717Y617969D01*
X76969Y617969D01*
X76969Y603717D01*
X64482Y603717D01*
G37*
%LPD*%
G36*
X136861Y526323D02*
X136861Y526323D01*
X136974Y526320D01*
X137003Y526328D01*
X137032Y526329D01*
X137140Y526364D01*
X137249Y526392D01*
X137275Y526407D01*
X137303Y526416D01*
X137366Y526462D01*
X137494Y526537D01*
X137537Y526583D01*
X137576Y526611D01*
X146734Y535769D01*
X146786Y535839D01*
X146846Y535903D01*
X146872Y535952D01*
X146905Y535996D01*
X146936Y536078D01*
X146976Y536156D01*
X146984Y536203D01*
X147006Y536262D01*
X147016Y536385D01*
X147017Y536389D01*
X147018Y536402D01*
X147018Y536410D01*
X147031Y536487D01*
X147031Y543984D01*
X147023Y544042D01*
X147025Y544100D01*
X147003Y544182D01*
X146991Y544265D01*
X146967Y544319D01*
X146953Y544375D01*
X146910Y544448D01*
X146875Y544525D01*
X146837Y544569D01*
X146807Y544620D01*
X146746Y544677D01*
X146691Y544742D01*
X146643Y544774D01*
X146600Y544814D01*
X146525Y544853D01*
X146455Y544899D01*
X146399Y544917D01*
X146347Y544944D01*
X146279Y544955D01*
X146184Y544985D01*
X146084Y544988D01*
X146016Y544999D01*
X143984Y544999D01*
X143926Y544991D01*
X143868Y544992D01*
X143786Y544971D01*
X143703Y544959D01*
X143649Y544935D01*
X143593Y544921D01*
X143520Y544878D01*
X143443Y544843D01*
X143398Y544805D01*
X143348Y544775D01*
X143290Y544714D01*
X143226Y544659D01*
X143194Y544611D01*
X143154Y544568D01*
X143115Y544493D01*
X143069Y544423D01*
X143051Y544367D01*
X143024Y544315D01*
X143013Y544247D01*
X142983Y544152D01*
X142980Y544052D01*
X142969Y543984D01*
X142969Y535670D01*
X142768Y535702D01*
X141341Y536166D01*
X140004Y536847D01*
X138790Y537729D01*
X137729Y538790D01*
X137679Y538858D01*
X137604Y538936D01*
X137533Y539019D01*
X137505Y539038D01*
X137482Y539062D01*
X137387Y539116D01*
X137297Y539177D01*
X137265Y539187D01*
X137235Y539204D01*
X137130Y539230D01*
X137026Y539263D01*
X136992Y539263D01*
X136959Y539271D01*
X136851Y539267D01*
X136742Y539270D01*
X136709Y539261D01*
X136675Y539260D01*
X136572Y539225D01*
X136467Y539198D01*
X136438Y539181D01*
X136405Y539170D01*
X136315Y539108D01*
X136222Y539053D01*
X136199Y539028D01*
X136171Y539009D01*
X136102Y538925D01*
X136028Y538845D01*
X136012Y538815D01*
X135991Y538789D01*
X135948Y538689D01*
X135898Y538592D01*
X135893Y538563D01*
X135878Y538528D01*
X135851Y538311D01*
X135843Y538261D01*
X135843Y527329D01*
X135847Y527300D01*
X135844Y527271D01*
X135867Y527160D01*
X135883Y527047D01*
X135895Y527021D01*
X135900Y526992D01*
X135952Y526891D01*
X135999Y526788D01*
X136018Y526766D01*
X136031Y526740D01*
X136109Y526658D01*
X136182Y526571D01*
X136207Y526555D01*
X136227Y526534D01*
X136325Y526476D01*
X136419Y526413D01*
X136447Y526405D01*
X136472Y526390D01*
X136582Y526362D01*
X136690Y526328D01*
X136720Y526327D01*
X136748Y526320D01*
X136861Y526323D01*
G37*
G36*
X175085Y674465D02*
X175085Y674465D01*
X175114Y674464D01*
X175224Y674493D01*
X175335Y674515D01*
X175361Y674529D01*
X175389Y674536D01*
X175487Y674594D01*
X175587Y674646D01*
X175609Y674666D01*
X175634Y674681D01*
X175711Y674764D01*
X175793Y674842D01*
X175808Y674867D01*
X175828Y674889D01*
X175880Y674990D01*
X175937Y675087D01*
X175944Y675116D01*
X175958Y675142D01*
X175971Y675219D01*
X176007Y675363D01*
X176005Y675425D01*
X176013Y675473D01*
X176013Y680708D01*
X176012Y680721D01*
X176013Y680733D01*
X175992Y680861D01*
X175973Y680990D01*
X175968Y681001D01*
X175966Y681013D01*
X175910Y681131D01*
X175857Y681249D01*
X175849Y681259D01*
X175844Y681270D01*
X175757Y681367D01*
X175674Y681466D01*
X175663Y681473D01*
X175655Y681482D01*
X175545Y681552D01*
X175437Y681624D01*
X175425Y681628D01*
X175415Y681634D01*
X175290Y681670D01*
X175166Y681710D01*
X175153Y681710D01*
X175142Y681713D01*
X175012Y681714D01*
X174882Y681717D01*
X174870Y681714D01*
X174857Y681714D01*
X174797Y681695D01*
X174607Y681645D01*
X174570Y681623D01*
X174537Y681613D01*
X173659Y681166D01*
X172232Y680702D01*
X172031Y680670D01*
X172031Y688984D01*
X172023Y689042D01*
X172025Y689100D01*
X172003Y689182D01*
X171991Y689265D01*
X171967Y689319D01*
X171953Y689375D01*
X171910Y689448D01*
X171875Y689525D01*
X171837Y689569D01*
X171807Y689620D01*
X171746Y689677D01*
X171691Y689742D01*
X171643Y689774D01*
X171600Y689814D01*
X171525Y689853D01*
X171455Y689899D01*
X171399Y689917D01*
X171347Y689944D01*
X171279Y689955D01*
X171184Y689985D01*
X171084Y689988D01*
X171016Y689999D01*
X168984Y689999D01*
X168926Y689991D01*
X168868Y689992D01*
X168786Y689971D01*
X168703Y689959D01*
X168649Y689935D01*
X168593Y689921D01*
X168520Y689878D01*
X168443Y689843D01*
X168398Y689805D01*
X168348Y689775D01*
X168290Y689714D01*
X168226Y689659D01*
X168194Y689611D01*
X168154Y689568D01*
X168115Y689493D01*
X168069Y689423D01*
X168051Y689367D01*
X168024Y689315D01*
X168013Y689247D01*
X167983Y689152D01*
X167980Y689052D01*
X167969Y688984D01*
X167969Y681487D01*
X167981Y681400D01*
X167984Y681313D01*
X168001Y681260D01*
X168009Y681206D01*
X168044Y681126D01*
X168071Y681042D01*
X168099Y681003D01*
X168125Y680946D01*
X168221Y680833D01*
X168266Y680769D01*
X174280Y674755D01*
X174304Y674737D01*
X174323Y674715D01*
X174417Y674652D01*
X174507Y674584D01*
X174535Y674574D01*
X174559Y674557D01*
X174667Y674523D01*
X174773Y674483D01*
X174802Y674481D01*
X174830Y674472D01*
X174944Y674469D01*
X175056Y674459D01*
X175085Y674465D01*
G37*
%LPC*%
G36*
X108931Y1056467D02*
X108931Y1056467D01*
X108931Y1063969D01*
X116433Y1063969D01*
X116433Y1058232D01*
X116294Y1057715D01*
X116027Y1057252D01*
X115648Y1056873D01*
X115185Y1056606D01*
X114668Y1056467D01*
X108931Y1056467D01*
G37*
%LPD*%
%LPC*%
G36*
X99132Y1056467D02*
X99132Y1056467D01*
X98615Y1056606D01*
X98152Y1056873D01*
X97773Y1057252D01*
X97506Y1057715D01*
X97367Y1058232D01*
X97367Y1063969D01*
X104869Y1063969D01*
X104869Y1056467D01*
X99132Y1056467D01*
G37*
%LPD*%
%LPC*%
G36*
X47031Y132031D02*
X47031Y132031D01*
X47031Y140089D01*
X47408Y140030D01*
X48947Y139529D01*
X50389Y138795D01*
X51699Y137843D01*
X52843Y136699D01*
X53795Y135389D01*
X54529Y133947D01*
X55030Y132408D01*
X55089Y132031D01*
X47031Y132031D01*
G37*
%LPD*%
%LPC*%
G36*
X147031Y132031D02*
X147031Y132031D01*
X147031Y140089D01*
X147408Y140030D01*
X148947Y139529D01*
X150389Y138795D01*
X151699Y137843D01*
X152843Y136699D01*
X153795Y135389D01*
X154529Y133947D01*
X155030Y132408D01*
X155089Y132031D01*
X147031Y132031D01*
G37*
%LPD*%
%LPC*%
G36*
X247031Y132031D02*
X247031Y132031D01*
X247031Y140089D01*
X247408Y140030D01*
X248947Y139529D01*
X250389Y138795D01*
X251699Y137843D01*
X252843Y136699D01*
X253795Y135389D01*
X254529Y133947D01*
X255030Y132408D01*
X255089Y132031D01*
X247031Y132031D01*
G37*
%LPD*%
%LPC*%
G36*
X34911Y132031D02*
X34911Y132031D01*
X34970Y132408D01*
X35471Y133947D01*
X36205Y135389D01*
X37157Y136699D01*
X38301Y137843D01*
X39611Y138795D01*
X41053Y139529D01*
X42592Y140030D01*
X42969Y140089D01*
X42969Y132031D01*
X34911Y132031D01*
G37*
%LPD*%
%LPC*%
G36*
X134911Y132031D02*
X134911Y132031D01*
X134970Y132408D01*
X135471Y133947D01*
X136205Y135389D01*
X137157Y136699D01*
X138301Y137843D01*
X139611Y138795D01*
X141053Y139529D01*
X142592Y140030D01*
X142969Y140089D01*
X142969Y132031D01*
X134911Y132031D01*
G37*
%LPD*%
%LPC*%
G36*
X247031Y127969D02*
X247031Y127969D01*
X255089Y127969D01*
X255030Y127592D01*
X254529Y126053D01*
X253795Y124611D01*
X252843Y123301D01*
X251699Y122157D01*
X250389Y121205D01*
X248947Y120471D01*
X247408Y119970D01*
X247031Y119911D01*
X247031Y127969D01*
G37*
%LPD*%
%LPC*%
G36*
X147031Y127969D02*
X147031Y127969D01*
X155089Y127969D01*
X155030Y127592D01*
X154529Y126053D01*
X153795Y124611D01*
X152843Y123301D01*
X151699Y122157D01*
X150389Y121205D01*
X148947Y120471D01*
X147408Y119970D01*
X147031Y119911D01*
X147031Y127969D01*
G37*
%LPD*%
%LPC*%
G36*
X234911Y132031D02*
X234911Y132031D01*
X234970Y132408D01*
X235471Y133947D01*
X236205Y135389D01*
X237157Y136699D01*
X238301Y137843D01*
X239611Y138795D01*
X241053Y139529D01*
X242592Y140030D01*
X242969Y140089D01*
X242969Y132031D01*
X234911Y132031D01*
G37*
%LPD*%
%LPC*%
G36*
X142592Y119970D02*
X142592Y119970D01*
X141053Y120471D01*
X139611Y121205D01*
X138301Y122157D01*
X137157Y123301D01*
X136205Y124611D01*
X135471Y126053D01*
X134970Y127592D01*
X134911Y127969D01*
X142969Y127969D01*
X142969Y119911D01*
X142592Y119970D01*
G37*
%LPD*%
%LPC*%
G36*
X242592Y119970D02*
X242592Y119970D01*
X241053Y120471D01*
X239611Y121205D01*
X238301Y122157D01*
X237157Y123301D01*
X236205Y124611D01*
X235471Y126053D01*
X234970Y127592D01*
X234911Y127969D01*
X242969Y127969D01*
X242969Y119911D01*
X242592Y119970D01*
G37*
%LPD*%
%LPC*%
G36*
X39331Y911631D02*
X39331Y911631D01*
X39331Y919253D01*
X41298Y919253D01*
X46953Y913598D01*
X46953Y911631D01*
X39331Y911631D01*
G37*
%LPD*%
%LPC*%
G36*
X64731Y911631D02*
X64731Y911631D01*
X64731Y919253D01*
X66698Y919253D01*
X72353Y913598D01*
X72353Y911631D01*
X64731Y911631D01*
G37*
%LPD*%
%LPC*%
G36*
X64731Y962431D02*
X64731Y962431D01*
X64731Y970053D01*
X66698Y970053D01*
X72353Y964398D01*
X72353Y962431D01*
X64731Y962431D01*
G37*
%LPD*%
%LPC*%
G36*
X39331Y937031D02*
X39331Y937031D01*
X39331Y944653D01*
X41298Y944653D01*
X46953Y938998D01*
X46953Y937031D01*
X39331Y937031D01*
G37*
%LPD*%
%LPC*%
G36*
X64731Y937031D02*
X64731Y937031D01*
X64731Y944653D01*
X66698Y944653D01*
X72353Y938998D01*
X72353Y937031D01*
X64731Y937031D01*
G37*
%LPD*%
%LPC*%
G36*
X39331Y962431D02*
X39331Y962431D01*
X39331Y970053D01*
X41298Y970053D01*
X46953Y964398D01*
X46953Y962431D01*
X39331Y962431D01*
G37*
%LPD*%
%LPC*%
G36*
X64731Y932969D02*
X64731Y932969D01*
X72353Y932969D01*
X72353Y931002D01*
X66698Y925347D01*
X64731Y925347D01*
X64731Y932969D01*
G37*
%LPD*%
%LPC*%
G36*
X39331Y932969D02*
X39331Y932969D01*
X46953Y932969D01*
X46953Y931002D01*
X41298Y925347D01*
X39331Y925347D01*
X39331Y932969D01*
G37*
%LPD*%
%LPC*%
G36*
X39331Y907569D02*
X39331Y907569D01*
X46953Y907569D01*
X46953Y905602D01*
X41298Y899947D01*
X39331Y899947D01*
X39331Y907569D01*
G37*
%LPD*%
%LPC*%
G36*
X64731Y907569D02*
X64731Y907569D01*
X72353Y907569D01*
X72353Y905602D01*
X66698Y899947D01*
X64731Y899947D01*
X64731Y907569D01*
G37*
%LPD*%
%LPC*%
G36*
X39331Y958369D02*
X39331Y958369D01*
X46953Y958369D01*
X46953Y956402D01*
X41298Y950747D01*
X39331Y950747D01*
X39331Y958369D01*
G37*
%LPD*%
%LPC*%
G36*
X64731Y958369D02*
X64731Y958369D01*
X72353Y958369D01*
X72353Y956402D01*
X66698Y950747D01*
X64731Y950747D01*
X64731Y958369D01*
G37*
%LPD*%
%LPC*%
G36*
X27647Y962431D02*
X27647Y962431D01*
X27647Y964398D01*
X33302Y970053D01*
X35269Y970053D01*
X35269Y962431D01*
X27647Y962431D01*
G37*
%LPD*%
%LPC*%
G36*
X27647Y937031D02*
X27647Y937031D01*
X27647Y938998D01*
X33302Y944653D01*
X35269Y944653D01*
X35269Y937031D01*
X27647Y937031D01*
G37*
%LPD*%
%LPC*%
G36*
X27647Y911631D02*
X27647Y911631D01*
X27647Y913598D01*
X33302Y919253D01*
X35269Y919253D01*
X35269Y911631D01*
X27647Y911631D01*
G37*
%LPD*%
%LPC*%
G36*
X53047Y911631D02*
X53047Y911631D01*
X53047Y913598D01*
X58702Y919253D01*
X60669Y919253D01*
X60669Y911631D01*
X53047Y911631D01*
G37*
%LPD*%
%LPC*%
G36*
X53047Y962431D02*
X53047Y962431D01*
X53047Y964398D01*
X58702Y970053D01*
X60669Y970053D01*
X60669Y962431D01*
X53047Y962431D01*
G37*
%LPD*%
%LPC*%
G36*
X53047Y937031D02*
X53047Y937031D01*
X53047Y938998D01*
X58702Y944653D01*
X60669Y944653D01*
X60669Y937031D01*
X53047Y937031D01*
G37*
%LPD*%
%LPC*%
G36*
X33302Y950747D02*
X33302Y950747D01*
X27647Y956402D01*
X27647Y958369D01*
X35269Y958369D01*
X35269Y950747D01*
X33302Y950747D01*
G37*
%LPD*%
%LPC*%
G36*
X58702Y950747D02*
X58702Y950747D01*
X53047Y956402D01*
X53047Y958369D01*
X60669Y958369D01*
X60669Y950747D01*
X58702Y950747D01*
G37*
%LPD*%
%LPC*%
G36*
X33302Y925347D02*
X33302Y925347D01*
X27647Y931002D01*
X27647Y932969D01*
X35269Y932969D01*
X35269Y925347D01*
X33302Y925347D01*
G37*
%LPD*%
%LPC*%
G36*
X58702Y899947D02*
X58702Y899947D01*
X53047Y905602D01*
X53047Y907569D01*
X60669Y907569D01*
X60669Y899947D01*
X58702Y899947D01*
G37*
%LPD*%
%LPC*%
G36*
X33302Y899947D02*
X33302Y899947D01*
X27647Y905602D01*
X27647Y907569D01*
X35269Y907569D01*
X35269Y899947D01*
X33302Y899947D01*
G37*
%LPD*%
%LPC*%
G36*
X58702Y925347D02*
X58702Y925347D01*
X53047Y931002D01*
X53047Y932969D01*
X60669Y932969D01*
X60669Y925347D01*
X58702Y925347D01*
G37*
%LPD*%
%LPC*%
G36*
X269531Y329531D02*
X269531Y329531D01*
X269531Y336830D01*
X269732Y336798D01*
X271159Y336334D01*
X272496Y335653D01*
X273710Y334771D01*
X274771Y333710D01*
X275653Y332496D01*
X276334Y331159D01*
X276798Y329732D01*
X276830Y329531D01*
X269531Y329531D01*
G37*
%LPD*%
%LPC*%
G36*
X267031Y1012031D02*
X267031Y1012031D01*
X267031Y1019330D01*
X267232Y1019298D01*
X268659Y1018834D01*
X269996Y1018153D01*
X271210Y1017271D01*
X272271Y1016210D01*
X273153Y1014996D01*
X273834Y1013659D01*
X274298Y1012232D01*
X274330Y1012031D01*
X267031Y1012031D01*
G37*
%LPD*%
%LPC*%
G36*
X124531Y329531D02*
X124531Y329531D01*
X124531Y336830D01*
X124732Y336798D01*
X126159Y336334D01*
X127496Y335653D01*
X128710Y334771D01*
X129771Y333710D01*
X130653Y332496D01*
X131334Y331159D01*
X131798Y329732D01*
X131830Y329531D01*
X124531Y329531D01*
G37*
%LPD*%
%LPC*%
G36*
X269531Y325469D02*
X269531Y325469D01*
X276830Y325469D01*
X276798Y325268D01*
X276334Y323841D01*
X275653Y322504D01*
X274771Y321290D01*
X273710Y320229D01*
X272496Y319347D01*
X271159Y318666D01*
X269732Y318202D01*
X269531Y318170D01*
X269531Y325469D01*
G37*
%LPD*%
%LPC*%
G36*
X258170Y394531D02*
X258170Y394531D01*
X258202Y394732D01*
X258666Y396159D01*
X259347Y397496D01*
X260229Y398710D01*
X261290Y399771D01*
X262504Y400653D01*
X263841Y401334D01*
X265268Y401798D01*
X265469Y401830D01*
X265469Y394531D01*
X258170Y394531D01*
G37*
%LPD*%
%LPC*%
G36*
X267031Y1007969D02*
X267031Y1007969D01*
X274330Y1007969D01*
X274298Y1007768D01*
X273834Y1006341D01*
X273153Y1005004D01*
X272271Y1003790D01*
X271210Y1002729D01*
X269996Y1001847D01*
X268659Y1001166D01*
X267232Y1000702D01*
X267031Y1000670D01*
X267031Y1007969D01*
G37*
%LPD*%
%LPC*%
G36*
X269531Y390469D02*
X269531Y390469D01*
X276830Y390469D01*
X276798Y390268D01*
X276334Y388841D01*
X275653Y387504D01*
X274771Y386290D01*
X273710Y385229D01*
X272496Y384347D01*
X271159Y383666D01*
X269732Y383202D01*
X269531Y383170D01*
X269531Y390469D01*
G37*
%LPD*%
%LPC*%
G36*
X258170Y329531D02*
X258170Y329531D01*
X258202Y329732D01*
X258666Y331159D01*
X259347Y332496D01*
X260229Y333710D01*
X261290Y334771D01*
X262504Y335653D01*
X263841Y336334D01*
X265268Y336798D01*
X265469Y336830D01*
X265469Y329531D01*
X258170Y329531D01*
G37*
%LPD*%
%LPC*%
G36*
X255670Y1012031D02*
X255670Y1012031D01*
X255702Y1012232D01*
X256166Y1013659D01*
X256847Y1014996D01*
X257729Y1016210D01*
X258790Y1017271D01*
X260004Y1018153D01*
X261341Y1018834D01*
X262768Y1019298D01*
X262969Y1019330D01*
X262969Y1012031D01*
X255670Y1012031D01*
G37*
%LPD*%
%LPC*%
G36*
X113170Y329531D02*
X113170Y329531D01*
X113202Y329732D01*
X113666Y331159D01*
X114347Y332496D01*
X115229Y333710D01*
X116290Y334771D01*
X117504Y335653D01*
X118841Y336334D01*
X120268Y336798D01*
X120469Y336830D01*
X120469Y329531D01*
X113170Y329531D01*
G37*
%LPD*%
%LPC*%
G36*
X265268Y318202D02*
X265268Y318202D01*
X263841Y318666D01*
X262504Y319347D01*
X261290Y320229D01*
X260229Y321290D01*
X259347Y322504D01*
X258666Y323841D01*
X258202Y325268D01*
X258170Y325469D01*
X265469Y325469D01*
X265469Y318170D01*
X265268Y318202D01*
G37*
%LPD*%
%LPC*%
G36*
X262768Y1000702D02*
X262768Y1000702D01*
X261341Y1001166D01*
X260004Y1001847D01*
X258790Y1002729D01*
X257729Y1003790D01*
X256847Y1005004D01*
X256166Y1006341D01*
X255702Y1007768D01*
X255670Y1007969D01*
X262969Y1007969D01*
X262969Y1000670D01*
X262768Y1000702D01*
G37*
%LPD*%
%LPC*%
G36*
X265268Y383202D02*
X265268Y383202D01*
X263841Y383666D01*
X262504Y384347D01*
X261290Y385229D01*
X260229Y386290D01*
X259347Y387504D01*
X258666Y388841D01*
X258202Y390268D01*
X258170Y390469D01*
X265469Y390469D01*
X265469Y383170D01*
X265268Y383202D01*
G37*
%LPD*%
%LPC*%
G36*
X120268Y383202D02*
X120268Y383202D01*
X118841Y383666D01*
X117504Y384347D01*
X116290Y385229D01*
X115229Y386290D01*
X114347Y387504D01*
X113666Y388841D01*
X113202Y390268D01*
X113170Y390469D01*
X120469Y390469D01*
X120469Y383170D01*
X120268Y383202D01*
G37*
%LPD*%
%LPC*%
G36*
X251999Y741999D02*
X251999Y741999D01*
X251999Y748812D01*
X252635Y748686D01*
X254279Y748005D01*
X255758Y747016D01*
X257016Y745758D01*
X258005Y744279D01*
X258686Y742635D01*
X258812Y741999D01*
X251999Y741999D01*
G37*
%LPD*%
%LPC*%
G36*
X251999Y738001D02*
X251999Y738001D01*
X258812Y738001D01*
X258686Y737365D01*
X258005Y735721D01*
X257016Y734242D01*
X255758Y732984D01*
X254279Y731995D01*
X252635Y731314D01*
X251999Y731188D01*
X251999Y738001D01*
G37*
%LPD*%
%LPC*%
G36*
X31188Y741999D02*
X31188Y741999D01*
X31314Y742635D01*
X31995Y744279D01*
X32984Y745758D01*
X34242Y747016D01*
X35721Y748005D01*
X37365Y748686D01*
X38001Y748812D01*
X38001Y741999D01*
X31188Y741999D01*
G37*
%LPD*%
%LPC*%
G36*
X37365Y731314D02*
X37365Y731314D01*
X35721Y731995D01*
X34242Y732984D01*
X32984Y734242D01*
X31995Y735721D01*
X31314Y737365D01*
X31188Y738001D01*
X38001Y738001D01*
X38001Y731188D01*
X37365Y731314D01*
G37*
%LPD*%
%LPC*%
G36*
X47031Y279331D02*
X47031Y279331D01*
X47031Y285429D01*
X48367Y285429D01*
X53129Y280667D01*
X53129Y279331D01*
X47031Y279331D01*
G37*
%LPD*%
%LPC*%
G36*
X247031Y279331D02*
X247031Y279331D01*
X247031Y285429D01*
X248367Y285429D01*
X253129Y280667D01*
X253129Y279331D01*
X247031Y279331D01*
G37*
%LPD*%
%LPC*%
G36*
X147031Y279331D02*
X147031Y279331D01*
X147031Y285429D01*
X148367Y285429D01*
X153129Y280667D01*
X153129Y279331D01*
X147031Y279331D01*
G37*
%LPD*%
%LPC*%
G36*
X236871Y279331D02*
X236871Y279331D01*
X236871Y280667D01*
X241633Y285429D01*
X242969Y285429D01*
X242969Y279331D01*
X236871Y279331D01*
G37*
%LPD*%
%LPC*%
G36*
X36871Y279331D02*
X36871Y279331D01*
X36871Y280667D01*
X41633Y285429D01*
X42969Y285429D01*
X42969Y279331D01*
X36871Y279331D01*
G37*
%LPD*%
%LPC*%
G36*
X136871Y279331D02*
X136871Y279331D01*
X136871Y280667D01*
X141633Y285429D01*
X142969Y285429D01*
X142969Y279331D01*
X136871Y279331D01*
G37*
%LPD*%
%LPC*%
G36*
X247031Y269171D02*
X247031Y269171D01*
X247031Y275269D01*
X253129Y275269D01*
X253129Y273933D01*
X248367Y269171D01*
X247031Y269171D01*
G37*
%LPD*%
%LPC*%
G36*
X47031Y269171D02*
X47031Y269171D01*
X47031Y275269D01*
X53129Y275269D01*
X53129Y273933D01*
X48367Y269171D01*
X47031Y269171D01*
G37*
%LPD*%
%LPC*%
G36*
X147031Y269171D02*
X147031Y269171D01*
X147031Y275269D01*
X153129Y275269D01*
X153129Y273933D01*
X148367Y269171D01*
X147031Y269171D01*
G37*
%LPD*%
%LPC*%
G36*
X141633Y269171D02*
X141633Y269171D01*
X136871Y273933D01*
X136871Y275269D01*
X142969Y275269D01*
X142969Y269171D01*
X141633Y269171D01*
G37*
%LPD*%
%LPC*%
G36*
X241633Y269171D02*
X241633Y269171D01*
X236871Y273933D01*
X236871Y275269D01*
X242969Y275269D01*
X242969Y269171D01*
X241633Y269171D01*
G37*
%LPD*%
%LPC*%
G36*
X41633Y269171D02*
X41633Y269171D01*
X36871Y273933D01*
X36871Y275269D01*
X42969Y275269D01*
X42969Y269171D01*
X41633Y269171D01*
G37*
%LPD*%
%LPC*%
G36*
X62699Y960399D02*
X62699Y960399D01*
X62699Y960401D01*
X62701Y960401D01*
X62701Y960399D01*
X62699Y960399D01*
G37*
%LPD*%
%LPC*%
G36*
X37299Y960399D02*
X37299Y960399D01*
X37299Y960401D01*
X37301Y960401D01*
X37301Y960399D01*
X37299Y960399D01*
G37*
%LPD*%
%LPC*%
G36*
X37299Y934999D02*
X37299Y934999D01*
X37299Y935001D01*
X37301Y935001D01*
X37301Y934999D01*
X37299Y934999D01*
G37*
%LPD*%
%LPC*%
G36*
X244999Y277299D02*
X244999Y277299D01*
X244999Y277301D01*
X245001Y277301D01*
X245001Y277299D01*
X244999Y277299D01*
G37*
%LPD*%
%LPC*%
G36*
X144999Y129999D02*
X144999Y129999D01*
X144999Y130001D01*
X145001Y130001D01*
X145001Y129999D01*
X144999Y129999D01*
G37*
%LPD*%
%LPC*%
G36*
X244999Y129999D02*
X244999Y129999D01*
X244999Y130001D01*
X245001Y130001D01*
X245001Y129999D01*
X244999Y129999D01*
G37*
%LPD*%
%LPC*%
G36*
X44999Y129999D02*
X44999Y129999D01*
X44999Y130001D01*
X45001Y130001D01*
X45001Y129999D01*
X44999Y129999D01*
G37*
%LPD*%
%LPC*%
G36*
X62699Y909599D02*
X62699Y909599D01*
X62699Y909601D01*
X62701Y909601D01*
X62701Y909599D01*
X62699Y909599D01*
G37*
%LPD*%
%LPC*%
G36*
X144999Y277299D02*
X144999Y277299D01*
X144999Y277301D01*
X145001Y277301D01*
X145001Y277299D01*
X144999Y277299D01*
G37*
%LPD*%
%LPC*%
G36*
X44999Y277299D02*
X44999Y277299D01*
X44999Y277301D01*
X45001Y277301D01*
X45001Y277299D01*
X44999Y277299D01*
G37*
%LPD*%
%LPC*%
G36*
X267499Y327499D02*
X267499Y327499D01*
X267499Y327501D01*
X267501Y327501D01*
X267501Y327499D01*
X267499Y327499D01*
G37*
%LPD*%
%LPC*%
G36*
X267499Y392499D02*
X267499Y392499D01*
X267499Y392501D01*
X267501Y392501D01*
X267501Y392499D01*
X267499Y392499D01*
G37*
%LPD*%
%LPC*%
G36*
X37299Y909599D02*
X37299Y909599D01*
X37299Y909601D01*
X37301Y909601D01*
X37301Y909599D01*
X37299Y909599D01*
G37*
%LPD*%
%LPC*%
G36*
X78999Y619999D02*
X78999Y619999D01*
X78999Y620001D01*
X79001Y620001D01*
X79001Y619999D01*
X78999Y619999D01*
G37*
%LPD*%
%LPC*%
G36*
X62699Y934999D02*
X62699Y934999D01*
X62699Y935001D01*
X62701Y935001D01*
X62701Y934999D01*
X62699Y934999D01*
G37*
%LPD*%
%LPC*%
G36*
X264999Y1009999D02*
X264999Y1009999D01*
X264999Y1010001D01*
X265001Y1010001D01*
X265001Y1009999D01*
X264999Y1009999D01*
G37*
%LPD*%
D10*
X45000Y245000D03*
X45000Y160000D03*
X45000Y130000D03*
X145000Y245000D03*
X145000Y160000D03*
X145000Y130000D03*
X245000Y245000D03*
X245000Y160000D03*
X245000Y130000D03*
X45000Y15000D03*
X45000Y100000D03*
X45000Y130000D03*
X145000Y15000D03*
X145000Y100000D03*
X145000Y130000D03*
X245000Y15000D03*
X245000Y100000D03*
X245000Y130000D03*
D11*
X45000Y302700D03*
X45000Y277300D03*
X145000Y302700D03*
X145000Y277300D03*
X245000Y302700D03*
X245000Y277300D03*
D12*
X265000Y1035400D03*
X265000Y1010000D03*
X265000Y984600D03*
D13*
X40000Y714600D03*
X40000Y740000D03*
X40000Y765400D03*
X250000Y714600D03*
X250000Y740000D03*
X250000Y765400D03*
D12*
X67500Y327500D03*
X67500Y392500D03*
X22500Y327500D03*
X22500Y392500D03*
X167500Y327500D03*
X167500Y392500D03*
X122500Y327500D03*
X122500Y392500D03*
X267500Y327500D03*
X267500Y392500D03*
X222500Y327500D03*
X222500Y392500D03*
X120000Y690000D03*
X170000Y690000D03*
X120000Y545000D03*
X145000Y545000D03*
X170000Y545000D03*
D14*
X79000Y620000D03*
X211000Y620000D03*
D15*
X106900Y1066000D03*
D12*
X132300Y1066000D03*
X157700Y1066000D03*
X183100Y1066000D03*
D16*
X62700Y985800D03*
D17*
X37300Y985800D03*
X62700Y960400D03*
X37300Y960400D03*
X62700Y935000D03*
X37300Y935000D03*
X62700Y909600D03*
X37300Y909600D03*
X62700Y884200D03*
X37300Y884200D03*
D18*
X37620Y678100D02*
X22380Y678100D01*
X22380Y652700D02*
X37620Y652700D01*
X37620Y627300D02*
X22380Y627300D01*
X22380Y601900D02*
X37620Y601900D01*
D19*
X130000Y840000D03*
D20*
X157700Y867700D01*
X157700Y1066000D01*
D19*
X141112Y840381D03*
D20*
X141112Y845365D01*
X183100Y1064100D02*
X183100Y1066000D01*
X161764Y866017D02*
X141112Y845365D01*
X161764Y1042764D02*
X183100Y1064100D01*
X161764Y1042764D02*
X161764Y866017D01*
X54112Y651412D02*
X30000Y627300D01*
D19*
X60979Y805264D03*
D20*
X52936Y784317D02*
X54112Y783141D01*
X52936Y784317D02*
X52936Y794683D01*
X60979Y802726D02*
X60979Y805264D01*
X60979Y802726D02*
X52936Y794683D01*
X54112Y783141D02*
X54112Y651412D01*
X30000Y652700D02*
X30000Y655393D01*
X50048Y675441D01*
X50048Y809952D02*
X50000Y810000D01*
D19*
X50000Y810000D03*
D20*
X48872Y782633D02*
X50048Y781457D01*
X48872Y796367D02*
X50048Y797543D01*
X50048Y809952D01*
X48872Y796367D02*
X48872Y782633D01*
X50048Y781457D02*
X50048Y675441D01*
D19*
X110000Y760000D03*
X103000Y706000D03*
X79000Y747000D03*
X90000Y665000D03*
X163000Y484000D03*
X217000Y593000D03*
X183000Y14000D03*
X83000Y14000D03*
X193000Y134000D03*
X143000Y354000D03*
X74000Y839000D03*
X207000Y1060000D03*
X55000Y364000D03*
X182000Y819000D03*
X237000Y980000D03*
X278000Y895000D03*
X167000Y565000D03*
X211928Y853000D03*
D21*
X200000Y841072D01*
D19*
X240000Y790000D03*
D20*
X204000Y790000D01*
D21*
X200000Y794000D02*
X200000Y841072D01*
D20*
X200000Y794000D02*
X204000Y790000D01*
D21*
X200000Y794000D02*
X187000Y781000D01*
X111000Y781000D02*
X100000Y770000D01*
X111000Y781000D02*
X187000Y781000D01*
X100000Y770000D02*
X100000Y722984D01*
X100572Y722412D01*
D19*
X100572Y722412D03*
X210000Y380000D03*
D20*
X200000Y390000D01*
X200000Y591253D02*
X190626Y600626D01*
X186936Y604317D01*
X200000Y591253D02*
X200000Y390000D01*
D19*
X192200Y683888D03*
D20*
X186936Y604317D02*
X190626Y600626D01*
X186936Y604317D02*
X186936Y678624D01*
X192200Y683888D01*
D19*
X180000Y380000D03*
D20*
X180000Y391000D01*
X191872Y402872D01*
X191872Y587886D02*
X178808Y600950D01*
X191872Y587886D02*
X191872Y402872D01*
D19*
X177450Y702450D03*
D20*
X180548Y685631D02*
X178808Y683891D01*
X180548Y685631D02*
X180548Y699353D01*
X177450Y702450D01*
X178808Y683891D02*
X178808Y600950D01*
D19*
X56000Y338000D03*
D20*
X73936Y355936D01*
X106601Y355936D01*
X137112Y386448D01*
X137112Y522195D02*
X155548Y540631D01*
X137112Y522195D02*
X137112Y386448D01*
X127000Y736269D02*
X141943Y751212D01*
D19*
X141943Y751212D03*
D20*
X127000Y736269D02*
X127000Y717125D01*
X155388Y683948D02*
X155548Y683788D01*
X155548Y540631D01*
X132062Y712062D02*
X127000Y717125D01*
X132062Y712062D02*
X155388Y688737D01*
X155388Y683948D01*
D19*
X180000Y470000D03*
D20*
X187808Y477808D01*
X187808Y586203D02*
X174744Y599267D01*
X174744Y670339D02*
X159452Y685631D01*
X187808Y586203D02*
X187808Y477808D01*
X174744Y599267D02*
X174744Y670339D01*
X159452Y697070D02*
X134950Y721572D01*
D19*
X134950Y721572D03*
D20*
X159452Y697070D02*
X159452Y685631D01*
D19*
X279000Y404000D03*
D20*
X279000Y591000D01*
X260000Y610000D02*
X260000Y624253D01*
X241905Y642348D02*
X227174Y642348D01*
X220348Y649174D01*
X220348Y692921D02*
X214412Y698857D01*
X214412Y734588D01*
X260000Y610000D02*
X279000Y591000D01*
X260000Y624253D02*
X241905Y642348D01*
X220348Y649174D02*
X220348Y692921D01*
X214412Y734588D02*
X186000Y763000D01*
X164200Y763000D02*
X160000Y758800D01*
D19*
X160000Y758800D03*
D20*
X164200Y763000D02*
X186000Y763000D01*
D19*
X271084Y618916D03*
X160000Y769912D03*
D20*
X199912Y769912D01*
X230000Y739824D01*
X224412Y657143D02*
X224412Y650857D01*
X228857Y646412D01*
X243588Y646412D02*
X271084Y618916D01*
X230000Y662731D02*
X224412Y657143D01*
X228857Y646412D02*
X243588Y646412D01*
X230000Y662731D02*
X230000Y739824D01*
X95000Y570000D02*
X120000Y545000D01*
X95000Y570000D02*
X70000Y570000D01*
X50000Y590000D01*
X50000Y641553D02*
X58176Y649729D01*
X69288Y673288D02*
X69288Y685712D01*
X62240Y692760D01*
X50000Y641553D02*
X50000Y590000D01*
X58176Y649729D02*
X58176Y662176D01*
X69288Y673288D01*
D19*
X65322Y790088D03*
D20*
X65322Y784723D01*
X62240Y781642D01*
X62240Y692760D01*
D19*
X112866Y562866D03*
D20*
X107882Y562866D01*
X96683Y574064D01*
X71683Y574064D01*
X54064Y591683D01*
X54064Y639869D02*
X62240Y648045D01*
X62240Y660493D02*
X73352Y671605D01*
X54064Y639869D02*
X54064Y591683D01*
X62240Y648045D02*
X62240Y660493D01*
X73352Y671605D02*
X73352Y690000D01*
X66304Y697048D01*
X66304Y779958D02*
X76434Y790088D01*
D19*
X76434Y790088D03*
D20*
X66304Y779958D02*
X66304Y697048D01*
X67500Y392500D02*
X67500Y362500D01*
X70000Y360000D01*
X104917Y360000D01*
X133048Y388131D01*
X122936Y720000D02*
X122936Y737952D01*
X127492Y742508D01*
X122936Y720000D02*
X122936Y715442D01*
X151324Y687054D01*
X151324Y575324D01*
X133048Y557048D01*
X133048Y388131D01*
X127492Y742508D02*
X127492Y749880D01*
X144000Y766388D01*
D19*
X144000Y766388D03*
X190000Y390000D03*
D20*
X195936Y395936D01*
X195936Y589569D02*
X182872Y602633D01*
X195936Y589569D02*
X195936Y395936D01*
D19*
X188136Y695000D03*
D20*
X182872Y682208D02*
X182872Y602633D01*
X182872Y682208D02*
X184612Y683948D01*
X184612Y691476D02*
X188136Y695000D01*
X184612Y691476D02*
X184612Y683948D01*
X212500Y392500D02*
X222500Y392500D01*
X212500Y392500D02*
X207500Y397500D01*
X204064Y400936D01*
X204064Y592936D01*
X191000Y606000D01*
X191000Y669252D01*
X194524Y672776D01*
D19*
X194524Y672776D03*
X129761Y766239D03*
D20*
X120000Y712630D02*
X120000Y690000D01*
X120000Y712630D02*
X118872Y713758D01*
X118872Y755350D01*
X129761Y766239D01*
D19*
X78348Y370000D03*
X100000Y470000D03*
D20*
X90760Y382412D02*
X78348Y370000D01*
X90760Y382412D02*
X93143Y382412D01*
X100000Y389269D01*
X100000Y470000D01*
D19*
X98761Y257761D03*
D20*
X98761Y278761D01*
X101866Y281866D01*
D19*
X101866Y281866D03*
X107588Y398348D03*
D20*
X107588Y419588D01*
D19*
X112000Y424000D03*
D20*
X107588Y419588D01*
D19*
X37000Y468000D03*
X78808Y381192D03*
D20*
X78808Y461192D01*
X70000Y470000D01*
X39000Y470000D01*
X37000Y468000D01*
D19*
X36000Y399000D03*
D20*
X36000Y316000D01*
X96000Y116000D02*
X125000Y87000D01*
D19*
X125000Y87000D03*
D20*
X15080Y295080D02*
X36000Y316000D01*
X15080Y295080D02*
X15080Y124920D01*
X24000Y116000D01*
X96000Y116000D01*
D19*
X90000Y390000D03*
D20*
X90000Y480000D01*
D19*
X90000Y480000D03*
D20*
X235000Y15000D02*
X245000Y15000D01*
X235000Y15000D02*
X220000Y30000D01*
X20000Y30000D01*
X10120Y39880D01*
X10120Y50000D01*
D19*
X10120Y50000D03*
X220000Y570000D03*
X220000Y413524D03*
D21*
X220000Y570000D01*
D19*
X61700Y680000D03*
D20*
X60850Y680850D01*
D19*
X160000Y790000D03*
D20*
X58176Y683524D02*
X60850Y680850D01*
X58176Y683524D01*
X61700Y680000D01*
X58176Y683524D02*
X58176Y770000D01*
X58176Y780000D01*
X58176Y784824D01*
X57000Y786000D01*
X57000Y793000D01*
X152324Y797676D02*
X160000Y790000D01*
X61676Y797676D02*
X57000Y793000D01*
X61676Y797676D02*
X152324Y797676D01*
D21*
X222000Y728000D02*
X222000Y702000D01*
D19*
X222000Y728000D03*
X222000Y702000D03*
X62353Y542647D03*
X150000Y950000D03*
D21*
X150000Y880000D01*
X130000Y860000D01*
X30000Y860000D01*
X10000Y840000D01*
X10000Y550000D02*
X19353Y540647D01*
X10000Y550000D02*
X10000Y840000D01*
D19*
X70000Y560000D03*
D21*
X19353Y540647D02*
X19353Y539353D01*
X10000Y530000D01*
X10000Y110000D01*
X35000Y85000D01*
X60000Y85000D01*
X64000Y89000D01*
X64000Y92000D01*
D19*
X64000Y92000D03*
D21*
X62353Y542647D02*
X70000Y550294D01*
X70000Y560000D01*
X62353Y542647D02*
X60353Y540647D01*
X19353Y540647D01*
D19*
X170000Y970000D03*
D21*
X236000Y658000D02*
X232000Y654000D01*
D19*
X232000Y654000D03*
D21*
X250000Y890000D02*
X170000Y970000D01*
X250000Y890000D02*
X250000Y785000D01*
X236000Y771000D01*
X236000Y658000D01*
D19*
X235416Y607584D03*
D21*
X235416Y321416D01*
X235000Y321000D01*
X228000Y314000D01*
X120000Y314000D01*
X123000Y242000D02*
X123000Y188000D01*
D19*
X123000Y188000D03*
D21*
X114000Y251000D02*
X114000Y308000D01*
X114000Y251000D02*
X123000Y242000D01*
X114000Y308000D02*
X120000Y314000D01*
X114000Y308000D02*
X108000Y314000D01*
X48000Y314000D02*
X41080Y320920D01*
X41080Y322000D01*
X48000Y314000D02*
X108000Y314000D01*
X41080Y322000D02*
X41080Y382000D01*
X41080Y389080D01*
D19*
X71000Y431428D03*
D21*
X71000Y419000D01*
X41080Y389080D01*
M02*
