G04 EAGLE Gerber RS-274X export*
G75*
%MOMM*%
%FSLAX34Y34*%
%LPD*%
%IN*%
%IPPOS*%
%AMOC8*
5,1,8,0,0,1.08239X$1,22.5*%
G01*
%ADD10C,0.254000*%


D10*
X0Y0D02*
X290000Y0D01*
X290000Y1080000D01*
X0Y1080000D01*
X0Y0D01*
X56430Y194551D02*
X56360Y193656D01*
X56219Y192768D01*
X56009Y191895D01*
X55732Y191041D01*
X55388Y190211D01*
X54980Y189411D01*
X54511Y188645D01*
X53983Y187918D01*
X53400Y187235D01*
X52765Y186600D01*
X52082Y186017D01*
X51355Y185489D01*
X50589Y185020D01*
X49789Y184612D01*
X48959Y184268D01*
X48105Y183991D01*
X47232Y183781D01*
X46345Y183640D01*
X45449Y183570D01*
X44551Y183570D01*
X43656Y183640D01*
X42768Y183781D01*
X41895Y183991D01*
X41041Y184268D01*
X40211Y184612D01*
X39411Y185020D01*
X38645Y185489D01*
X37918Y186017D01*
X37235Y186600D01*
X36600Y187235D01*
X36017Y187918D01*
X35489Y188645D01*
X35020Y189411D01*
X34612Y190211D01*
X34268Y191041D01*
X33991Y191895D01*
X33781Y192768D01*
X33640Y193656D01*
X33570Y194551D01*
X33570Y195449D01*
X33640Y196345D01*
X33781Y197232D01*
X33991Y198105D01*
X34268Y198959D01*
X34612Y199789D01*
X35020Y200589D01*
X35489Y201355D01*
X36017Y202082D01*
X36600Y202765D01*
X37235Y203400D01*
X37918Y203983D01*
X38645Y204511D01*
X39411Y204980D01*
X40211Y205388D01*
X41041Y205732D01*
X41895Y206009D01*
X42768Y206219D01*
X43656Y206360D01*
X44551Y206430D01*
X45449Y206430D01*
X46345Y206360D01*
X47232Y206219D01*
X48105Y206009D01*
X48959Y205732D01*
X49789Y205388D01*
X50589Y204980D01*
X51355Y204511D01*
X52082Y203983D01*
X52765Y203400D01*
X53400Y202765D01*
X53983Y202082D01*
X54511Y201355D01*
X54980Y200589D01*
X55388Y199789D01*
X55732Y198959D01*
X56009Y198105D01*
X56219Y197232D01*
X56360Y196345D01*
X56430Y195449D01*
X56430Y194551D01*
X156430Y194551D02*
X156360Y193656D01*
X156219Y192768D01*
X156009Y191895D01*
X155732Y191041D01*
X155388Y190211D01*
X154980Y189411D01*
X154511Y188645D01*
X153983Y187918D01*
X153400Y187235D01*
X152765Y186600D01*
X152082Y186017D01*
X151355Y185489D01*
X150589Y185020D01*
X149789Y184612D01*
X148959Y184268D01*
X148105Y183991D01*
X147232Y183781D01*
X146345Y183640D01*
X145449Y183570D01*
X144551Y183570D01*
X143656Y183640D01*
X142768Y183781D01*
X141895Y183991D01*
X141041Y184268D01*
X140211Y184612D01*
X139411Y185020D01*
X138645Y185489D01*
X137918Y186017D01*
X137235Y186600D01*
X136600Y187235D01*
X136017Y187918D01*
X135489Y188645D01*
X135020Y189411D01*
X134612Y190211D01*
X134268Y191041D01*
X133991Y191895D01*
X133781Y192768D01*
X133640Y193656D01*
X133570Y194551D01*
X133570Y195449D01*
X133640Y196345D01*
X133781Y197232D01*
X133991Y198105D01*
X134268Y198959D01*
X134612Y199789D01*
X135020Y200589D01*
X135489Y201355D01*
X136017Y202082D01*
X136600Y202765D01*
X137235Y203400D01*
X137918Y203983D01*
X138645Y204511D01*
X139411Y204980D01*
X140211Y205388D01*
X141041Y205732D01*
X141895Y206009D01*
X142768Y206219D01*
X143656Y206360D01*
X144551Y206430D01*
X145449Y206430D01*
X146345Y206360D01*
X147232Y206219D01*
X148105Y206009D01*
X148959Y205732D01*
X149789Y205388D01*
X150589Y204980D01*
X151355Y204511D01*
X152082Y203983D01*
X152765Y203400D01*
X153400Y202765D01*
X153983Y202082D01*
X154511Y201355D01*
X154980Y200589D01*
X155388Y199789D01*
X155732Y198959D01*
X156009Y198105D01*
X156219Y197232D01*
X156360Y196345D01*
X156430Y195449D01*
X156430Y194551D01*
X256430Y194551D02*
X256360Y193656D01*
X256219Y192768D01*
X256009Y191895D01*
X255732Y191041D01*
X255388Y190211D01*
X254980Y189411D01*
X254511Y188645D01*
X253983Y187918D01*
X253400Y187235D01*
X252765Y186600D01*
X252082Y186017D01*
X251355Y185489D01*
X250589Y185020D01*
X249789Y184612D01*
X248959Y184268D01*
X248105Y183991D01*
X247232Y183781D01*
X246345Y183640D01*
X245449Y183570D01*
X244551Y183570D01*
X243656Y183640D01*
X242768Y183781D01*
X241895Y183991D01*
X241041Y184268D01*
X240211Y184612D01*
X239411Y185020D01*
X238645Y185489D01*
X237918Y186017D01*
X237235Y186600D01*
X236600Y187235D01*
X236017Y187918D01*
X235489Y188645D01*
X235020Y189411D01*
X234612Y190211D01*
X234268Y191041D01*
X233991Y191895D01*
X233781Y192768D01*
X233640Y193656D01*
X233570Y194551D01*
X233570Y195449D01*
X233640Y196345D01*
X233781Y197232D01*
X233991Y198105D01*
X234268Y198959D01*
X234612Y199789D01*
X235020Y200589D01*
X235489Y201355D01*
X236017Y202082D01*
X236600Y202765D01*
X237235Y203400D01*
X237918Y203983D01*
X238645Y204511D01*
X239411Y204980D01*
X240211Y205388D01*
X241041Y205732D01*
X241895Y206009D01*
X242768Y206219D01*
X243656Y206360D01*
X244551Y206430D01*
X245449Y206430D01*
X246345Y206360D01*
X247232Y206219D01*
X248105Y206009D01*
X248959Y205732D01*
X249789Y205388D01*
X250589Y204980D01*
X251355Y204511D01*
X252082Y203983D01*
X252765Y203400D01*
X253400Y202765D01*
X253983Y202082D01*
X254511Y201355D01*
X254980Y200589D01*
X255388Y199789D01*
X255732Y198959D01*
X256009Y198105D01*
X256219Y197232D01*
X256360Y196345D01*
X256430Y195449D01*
X256430Y194551D01*
X33570Y65449D02*
X33640Y66345D01*
X33781Y67232D01*
X33991Y68105D01*
X34268Y68959D01*
X34612Y69789D01*
X35020Y70589D01*
X35489Y71355D01*
X36017Y72082D01*
X36600Y72765D01*
X37235Y73400D01*
X37918Y73983D01*
X38645Y74511D01*
X39411Y74980D01*
X40211Y75388D01*
X41041Y75732D01*
X41895Y76009D01*
X42768Y76219D01*
X43656Y76360D01*
X44551Y76430D01*
X45449Y76430D01*
X46345Y76360D01*
X47232Y76219D01*
X48105Y76009D01*
X48959Y75732D01*
X49789Y75388D01*
X50589Y74980D01*
X51355Y74511D01*
X52082Y73983D01*
X52765Y73400D01*
X53400Y72765D01*
X53983Y72082D01*
X54511Y71355D01*
X54980Y70589D01*
X55388Y69789D01*
X55732Y68959D01*
X56009Y68105D01*
X56219Y67232D01*
X56360Y66345D01*
X56430Y65449D01*
X56430Y64551D01*
X56360Y63656D01*
X56219Y62768D01*
X56009Y61895D01*
X55732Y61041D01*
X55388Y60211D01*
X54980Y59411D01*
X54511Y58645D01*
X53983Y57918D01*
X53400Y57235D01*
X52765Y56600D01*
X52082Y56017D01*
X51355Y55489D01*
X50589Y55020D01*
X49789Y54612D01*
X48959Y54268D01*
X48105Y53991D01*
X47232Y53781D01*
X46345Y53640D01*
X45449Y53570D01*
X44551Y53570D01*
X43656Y53640D01*
X42768Y53781D01*
X41895Y53991D01*
X41041Y54268D01*
X40211Y54612D01*
X39411Y55020D01*
X38645Y55489D01*
X37918Y56017D01*
X37235Y56600D01*
X36600Y57235D01*
X36017Y57918D01*
X35489Y58645D01*
X35020Y59411D01*
X34612Y60211D01*
X34268Y61041D01*
X33991Y61895D01*
X33781Y62768D01*
X33640Y63656D01*
X33570Y64551D01*
X33570Y65449D01*
X133570Y65449D02*
X133640Y66345D01*
X133781Y67232D01*
X133991Y68105D01*
X134268Y68959D01*
X134612Y69789D01*
X135020Y70589D01*
X135489Y71355D01*
X136017Y72082D01*
X136600Y72765D01*
X137235Y73400D01*
X137918Y73983D01*
X138645Y74511D01*
X139411Y74980D01*
X140211Y75388D01*
X141041Y75732D01*
X141895Y76009D01*
X142768Y76219D01*
X143656Y76360D01*
X144551Y76430D01*
X145449Y76430D01*
X146345Y76360D01*
X147232Y76219D01*
X148105Y76009D01*
X148959Y75732D01*
X149789Y75388D01*
X150589Y74980D01*
X151355Y74511D01*
X152082Y73983D01*
X152765Y73400D01*
X153400Y72765D01*
X153983Y72082D01*
X154511Y71355D01*
X154980Y70589D01*
X155388Y69789D01*
X155732Y68959D01*
X156009Y68105D01*
X156219Y67232D01*
X156360Y66345D01*
X156430Y65449D01*
X156430Y64551D01*
X156360Y63656D01*
X156219Y62768D01*
X156009Y61895D01*
X155732Y61041D01*
X155388Y60211D01*
X154980Y59411D01*
X154511Y58645D01*
X153983Y57918D01*
X153400Y57235D01*
X152765Y56600D01*
X152082Y56017D01*
X151355Y55489D01*
X150589Y55020D01*
X149789Y54612D01*
X148959Y54268D01*
X148105Y53991D01*
X147232Y53781D01*
X146345Y53640D01*
X145449Y53570D01*
X144551Y53570D01*
X143656Y53640D01*
X142768Y53781D01*
X141895Y53991D01*
X141041Y54268D01*
X140211Y54612D01*
X139411Y55020D01*
X138645Y55489D01*
X137918Y56017D01*
X137235Y56600D01*
X136600Y57235D01*
X136017Y57918D01*
X135489Y58645D01*
X135020Y59411D01*
X134612Y60211D01*
X134268Y61041D01*
X133991Y61895D01*
X133781Y62768D01*
X133640Y63656D01*
X133570Y64551D01*
X133570Y65449D01*
X233570Y65449D02*
X233640Y66345D01*
X233781Y67232D01*
X233991Y68105D01*
X234268Y68959D01*
X234612Y69789D01*
X235020Y70589D01*
X235489Y71355D01*
X236017Y72082D01*
X236600Y72765D01*
X237235Y73400D01*
X237918Y73983D01*
X238645Y74511D01*
X239411Y74980D01*
X240211Y75388D01*
X241041Y75732D01*
X241895Y76009D01*
X242768Y76219D01*
X243656Y76360D01*
X244551Y76430D01*
X245449Y76430D01*
X246345Y76360D01*
X247232Y76219D01*
X248105Y76009D01*
X248959Y75732D01*
X249789Y75388D01*
X250589Y74980D01*
X251355Y74511D01*
X252082Y73983D01*
X252765Y73400D01*
X253400Y72765D01*
X253983Y72082D01*
X254511Y71355D01*
X254980Y70589D01*
X255388Y69789D01*
X255732Y68959D01*
X256009Y68105D01*
X256219Y67232D01*
X256360Y66345D01*
X256430Y65449D01*
X256430Y64551D01*
X256360Y63656D01*
X256219Y62768D01*
X256009Y61895D01*
X255732Y61041D01*
X255388Y60211D01*
X254980Y59411D01*
X254511Y58645D01*
X253983Y57918D01*
X253400Y57235D01*
X252765Y56600D01*
X252082Y56017D01*
X251355Y55489D01*
X250589Y55020D01*
X249789Y54612D01*
X248959Y54268D01*
X248105Y53991D01*
X247232Y53781D01*
X246345Y53640D01*
X245449Y53570D01*
X244551Y53570D01*
X243656Y53640D01*
X242768Y53781D01*
X241895Y53991D01*
X241041Y54268D01*
X240211Y54612D01*
X239411Y55020D01*
X238645Y55489D01*
X237918Y56017D01*
X237235Y56600D01*
X236600Y57235D01*
X236017Y57918D01*
X235489Y58645D01*
X235020Y59411D01*
X234612Y60211D01*
X234268Y61041D01*
X233991Y61895D01*
X233781Y62768D01*
X233640Y63656D01*
X233570Y64551D01*
X233570Y65449D01*
M02*
