G04 EAGLE Gerber RS-274X export*
G75*
%MOMM*%
%FSLAX34Y34*%
%LPD*%
%INSoldermask Top*%
%IPPOS*%
%AMOC8*
5,1,8,0,0,1.08239X$1,22.5*%
G01*
%ADD10C,1.802400*%
%ADD11C,2.438400*%
%ADD12P,1.484606X8X292.500000*%
%ADD13C,1.652400*%
%ADD14C,1.552400*%
%ADD15R,3.002400X3.002400*%
%ADD16R,1.652400X1.652400*%
%ADD17R,1.676400X1.676400*%
%ADD18P,1.814519X8X292.500000*%
%ADD19C,1.676400*%


D10*
X45000Y245000D03*
X45000Y160000D03*
X45000Y130000D03*
D11*
X45000Y195000D03*
D10*
X145000Y245000D03*
X145000Y160000D03*
X145000Y130000D03*
D11*
X145000Y195000D03*
D10*
X245000Y245000D03*
X245000Y160000D03*
X245000Y130000D03*
D11*
X245000Y195000D03*
D10*
X45000Y15000D03*
X45000Y100000D03*
X45000Y130000D03*
D11*
X45000Y65000D03*
D10*
X145000Y15000D03*
X145000Y100000D03*
X145000Y130000D03*
D11*
X145000Y65000D03*
D10*
X245000Y15000D03*
X245000Y100000D03*
X245000Y130000D03*
D11*
X245000Y65000D03*
D12*
X45000Y302700D03*
X45000Y277300D03*
X145000Y302700D03*
X145000Y277300D03*
X245000Y302700D03*
X245000Y277300D03*
D13*
X265000Y1035400D03*
X265000Y1010000D03*
X265000Y984600D03*
D14*
X40000Y714600D03*
X40000Y740000D03*
X40000Y765400D03*
X250000Y714600D03*
X250000Y740000D03*
X250000Y765400D03*
D13*
X67500Y327500D03*
X67500Y392500D03*
X22500Y327500D03*
X22500Y392500D03*
X167500Y327500D03*
X167500Y392500D03*
X122500Y327500D03*
X122500Y392500D03*
X267500Y327500D03*
X267500Y392500D03*
X222500Y327500D03*
X222500Y392500D03*
X120000Y690000D03*
X170000Y690000D03*
X120000Y545000D03*
X145000Y545000D03*
X170000Y545000D03*
D15*
X79000Y620000D03*
X211000Y620000D03*
D16*
X106900Y1066000D03*
D13*
X132300Y1066000D03*
X157700Y1066000D03*
X183100Y1066000D03*
D17*
X62700Y985800D03*
D18*
X37300Y985800D03*
X62700Y960400D03*
X37300Y960400D03*
X62700Y935000D03*
X37300Y935000D03*
X62700Y909600D03*
X37300Y909600D03*
X62700Y884200D03*
X37300Y884200D03*
D19*
X37620Y678100D02*
X22380Y678100D01*
X22380Y652700D02*
X37620Y652700D01*
X37620Y627300D02*
X22380Y627300D01*
X22380Y601900D02*
X37620Y601900D01*
M02*
