G04 EAGLE Gerber RS-274X export*
G75*
%MOMM*%
%FSLAX34Y34*%
%LPD*%
%INTop Copper*%
%IPPOS*%
%AMOC8*
5,1,8,0,0,1.08239X$1,22.5*%
G01*
%ADD10C,1.650000*%
%ADD11C,1.380000*%
%ADD12C,3.316000*%
%ADD13C,1.400000*%
%ADD14P,1.649562X8X112.500000*%
%ADD15C,1.524000*%
%ADD16C,0.908000*%
%ADD17C,0.406400*%
%ADD18C,0.203200*%

G36*
X45841Y5082D02*
X45841Y5082D01*
X45850Y5081D01*
X46042Y5102D01*
X46233Y5121D01*
X46242Y5123D01*
X46251Y5124D01*
X46433Y5182D01*
X46618Y5239D01*
X46626Y5243D01*
X46635Y5246D01*
X46803Y5339D01*
X46972Y5431D01*
X46979Y5436D01*
X46987Y5441D01*
X47135Y5566D01*
X47281Y5688D01*
X47287Y5695D01*
X47294Y5701D01*
X47413Y5852D01*
X47534Y6002D01*
X47538Y6010D01*
X47543Y6017D01*
X47630Y6186D01*
X47719Y6359D01*
X47722Y6368D01*
X47726Y6376D01*
X47777Y6561D01*
X47831Y6746D01*
X47831Y6755D01*
X47834Y6764D01*
X47848Y6956D01*
X47864Y7148D01*
X47863Y7156D01*
X47863Y7165D01*
X47839Y7356D01*
X47817Y7547D01*
X47814Y7556D01*
X47813Y7565D01*
X47752Y7746D01*
X47692Y7930D01*
X47687Y7938D01*
X47685Y7946D01*
X47589Y8112D01*
X47494Y8281D01*
X47488Y8288D01*
X47484Y8295D01*
X47269Y8548D01*
X46498Y9319D01*
X44971Y13005D01*
X44971Y16995D01*
X46498Y20681D01*
X49319Y23502D01*
X53005Y25029D01*
X56995Y25029D01*
X60681Y23502D01*
X63502Y20681D01*
X65029Y16995D01*
X65029Y13005D01*
X63502Y9319D01*
X62731Y8548D01*
X62725Y8541D01*
X62719Y8536D01*
X62599Y8387D01*
X62476Y8237D01*
X62472Y8229D01*
X62466Y8222D01*
X62378Y8052D01*
X62287Y7881D01*
X62285Y7872D01*
X62281Y7865D01*
X62228Y7680D01*
X62173Y7495D01*
X62172Y7486D01*
X62169Y7478D01*
X62154Y7287D01*
X62136Y7094D01*
X62137Y7085D01*
X62136Y7076D01*
X62159Y6887D01*
X62180Y6694D01*
X62182Y6685D01*
X62183Y6677D01*
X62243Y6494D01*
X62301Y6310D01*
X62305Y6302D01*
X62308Y6294D01*
X62402Y6127D01*
X62496Y5958D01*
X62502Y5951D01*
X62506Y5943D01*
X62631Y5798D01*
X62756Y5651D01*
X62763Y5645D01*
X62769Y5638D01*
X62921Y5521D01*
X63072Y5401D01*
X63080Y5397D01*
X63087Y5392D01*
X63259Y5306D01*
X63431Y5219D01*
X63440Y5216D01*
X63448Y5212D01*
X63633Y5163D01*
X63819Y5111D01*
X63828Y5110D01*
X63837Y5108D01*
X64167Y5081D01*
X225833Y5081D01*
X225841Y5082D01*
X225850Y5081D01*
X226042Y5102D01*
X226233Y5121D01*
X226242Y5123D01*
X226251Y5124D01*
X226433Y5182D01*
X226618Y5239D01*
X226626Y5243D01*
X226635Y5246D01*
X226803Y5339D01*
X226972Y5431D01*
X226979Y5436D01*
X226987Y5441D01*
X227135Y5566D01*
X227281Y5688D01*
X227287Y5695D01*
X227294Y5701D01*
X227413Y5852D01*
X227534Y6002D01*
X227538Y6010D01*
X227543Y6017D01*
X227630Y6186D01*
X227719Y6359D01*
X227722Y6368D01*
X227726Y6376D01*
X227777Y6561D01*
X227831Y6746D01*
X227831Y6755D01*
X227834Y6764D01*
X227848Y6956D01*
X227864Y7148D01*
X227863Y7156D01*
X227863Y7165D01*
X227839Y7356D01*
X227817Y7547D01*
X227814Y7556D01*
X227813Y7565D01*
X227752Y7746D01*
X227692Y7930D01*
X227687Y7938D01*
X227685Y7946D01*
X227589Y8112D01*
X227494Y8281D01*
X227488Y8288D01*
X227484Y8295D01*
X227269Y8548D01*
X226498Y9319D01*
X224971Y13005D01*
X224971Y15174D01*
X224969Y15192D01*
X224971Y15210D01*
X224950Y15392D01*
X224931Y15575D01*
X224926Y15592D01*
X224924Y15609D01*
X224867Y15784D01*
X224813Y15960D01*
X224805Y15975D01*
X224799Y15992D01*
X224709Y16152D01*
X224621Y16314D01*
X224610Y16327D01*
X224601Y16343D01*
X224481Y16482D01*
X224364Y16623D01*
X224350Y16634D01*
X224338Y16648D01*
X224193Y16760D01*
X224050Y16875D01*
X224034Y16883D01*
X224020Y16894D01*
X223855Y16976D01*
X223693Y17061D01*
X223676Y17066D01*
X223660Y17074D01*
X223481Y17121D01*
X223306Y17172D01*
X223288Y17174D01*
X223271Y17178D01*
X222940Y17205D01*
X146983Y17205D01*
X146956Y17203D01*
X146929Y17205D01*
X146755Y17183D01*
X146582Y17165D01*
X146557Y17158D01*
X146530Y17154D01*
X146364Y17099D01*
X146197Y17047D01*
X146174Y17034D01*
X146148Y17026D01*
X145997Y16939D01*
X145843Y16855D01*
X145823Y16838D01*
X145799Y16825D01*
X145546Y16610D01*
X143579Y14643D01*
X141257Y13681D01*
X138743Y13681D01*
X136421Y14643D01*
X134643Y16421D01*
X133681Y18743D01*
X133681Y21257D01*
X134643Y23579D01*
X136421Y25357D01*
X138743Y26319D01*
X141257Y26319D01*
X143579Y25357D01*
X145546Y23390D01*
X145567Y23373D01*
X145585Y23352D01*
X145722Y23245D01*
X145858Y23135D01*
X145882Y23122D01*
X145903Y23106D01*
X146060Y23028D01*
X146214Y22946D01*
X146239Y22938D01*
X146263Y22926D01*
X146433Y22881D01*
X146599Y22831D01*
X146626Y22829D01*
X146652Y22822D01*
X146983Y22795D01*
X152001Y22795D01*
X152014Y22796D01*
X152028Y22795D01*
X152214Y22816D01*
X152402Y22835D01*
X152414Y22839D01*
X152428Y22840D01*
X152607Y22898D01*
X152786Y22953D01*
X152798Y22959D01*
X152811Y22963D01*
X152975Y23055D01*
X153140Y23145D01*
X153151Y23153D01*
X153163Y23160D01*
X153306Y23283D01*
X153450Y23402D01*
X153458Y23413D01*
X153468Y23421D01*
X153585Y23570D01*
X153702Y23716D01*
X153708Y23728D01*
X153717Y23738D01*
X153802Y23908D01*
X153888Y24073D01*
X153891Y24086D01*
X153897Y24098D01*
X153947Y24280D01*
X153999Y24460D01*
X154000Y24474D01*
X154004Y24487D01*
X154016Y24673D01*
X154032Y24862D01*
X154030Y24875D01*
X154031Y24888D01*
X154007Y25074D01*
X153985Y25261D01*
X153981Y25274D01*
X153979Y25287D01*
X153878Y25603D01*
X153681Y26077D01*
X153681Y28591D01*
X154643Y30913D01*
X156421Y32691D01*
X158743Y33653D01*
X161257Y33653D01*
X163579Y32691D01*
X165546Y30724D01*
X165567Y30707D01*
X165585Y30686D01*
X165722Y30579D01*
X165858Y30469D01*
X165882Y30456D01*
X165903Y30440D01*
X166060Y30362D01*
X166214Y30280D01*
X166239Y30272D01*
X166263Y30260D01*
X166433Y30215D01*
X166599Y30165D01*
X166626Y30163D01*
X166652Y30156D01*
X166983Y30129D01*
X224328Y30129D01*
X224355Y30131D01*
X224382Y30129D01*
X224555Y30151D01*
X224729Y30169D01*
X224754Y30176D01*
X224781Y30180D01*
X224947Y30235D01*
X225114Y30287D01*
X225137Y30300D01*
X225163Y30308D01*
X225314Y30395D01*
X225468Y30479D01*
X225488Y30496D01*
X225512Y30509D01*
X225765Y30724D01*
X227690Y32649D01*
X267855Y32649D01*
X267882Y32651D01*
X267908Y32649D01*
X268082Y32671D01*
X268256Y32689D01*
X268281Y32696D01*
X268308Y32700D01*
X268473Y32755D01*
X268641Y32807D01*
X268664Y32820D01*
X268689Y32828D01*
X268841Y32915D01*
X268995Y32999D01*
X269015Y33016D01*
X269038Y33029D01*
X269291Y33244D01*
X276610Y40563D01*
X276627Y40583D01*
X276648Y40601D01*
X276755Y40739D01*
X276865Y40874D01*
X276878Y40898D01*
X276894Y40919D01*
X276972Y41076D01*
X277054Y41230D01*
X277062Y41255D01*
X277074Y41279D01*
X277119Y41449D01*
X277169Y41616D01*
X277171Y41642D01*
X277178Y41668D01*
X277205Y41999D01*
X277205Y272159D01*
X277204Y272168D01*
X277205Y272177D01*
X277184Y272370D01*
X277165Y272560D01*
X277163Y272568D01*
X277162Y272577D01*
X277103Y272762D01*
X277047Y272945D01*
X277043Y272952D01*
X277040Y272961D01*
X276947Y273129D01*
X276855Y273299D01*
X276850Y273306D01*
X276845Y273313D01*
X276721Y273460D01*
X276598Y273608D01*
X276591Y273613D01*
X276585Y273620D01*
X276433Y273740D01*
X276284Y273860D01*
X276276Y273864D01*
X276269Y273870D01*
X276096Y273958D01*
X275927Y274046D01*
X275918Y274048D01*
X275910Y274052D01*
X275724Y274104D01*
X275540Y274157D01*
X275531Y274158D01*
X275522Y274160D01*
X275329Y274174D01*
X275138Y274190D01*
X275130Y274189D01*
X275121Y274190D01*
X274928Y274165D01*
X274739Y274143D01*
X274730Y274140D01*
X274721Y274139D01*
X274539Y274078D01*
X274356Y274018D01*
X274348Y274014D01*
X274340Y274011D01*
X274173Y273915D01*
X274005Y273820D01*
X273998Y273815D01*
X273991Y273810D01*
X273738Y273595D01*
X270624Y270481D01*
X268392Y268249D01*
X245478Y268249D01*
X245465Y268248D01*
X245451Y268249D01*
X245265Y268228D01*
X245077Y268209D01*
X245065Y268205D01*
X245051Y268204D01*
X244873Y268147D01*
X244692Y268091D01*
X244681Y268085D01*
X244668Y268081D01*
X244504Y267989D01*
X244338Y267899D01*
X244328Y267891D01*
X244316Y267884D01*
X244173Y267762D01*
X244029Y267642D01*
X244021Y267631D01*
X244011Y267623D01*
X243894Y267474D01*
X243777Y267328D01*
X243771Y267316D01*
X243762Y267306D01*
X243677Y267136D01*
X243591Y266971D01*
X243588Y266958D01*
X243582Y266946D01*
X243532Y266763D01*
X243480Y266584D01*
X243479Y266570D01*
X243475Y266557D01*
X243462Y266369D01*
X243447Y266182D01*
X243449Y266169D01*
X243448Y266156D01*
X243472Y265968D01*
X243494Y265783D01*
X243498Y265770D01*
X243500Y265757D01*
X243601Y265441D01*
X245029Y261995D01*
X245029Y258005D01*
X243502Y254319D01*
X240681Y251498D01*
X236995Y249971D01*
X233005Y249971D01*
X229319Y251498D01*
X226498Y254319D01*
X224971Y258005D01*
X224971Y261995D01*
X225966Y264397D01*
X225970Y264410D01*
X225976Y264421D01*
X226028Y264602D01*
X226083Y264782D01*
X226084Y264795D01*
X226088Y264808D01*
X226103Y264997D01*
X226121Y265183D01*
X226119Y265196D01*
X226120Y265210D01*
X226099Y265395D01*
X226079Y265583D01*
X226075Y265596D01*
X226074Y265609D01*
X226016Y265787D01*
X225959Y265968D01*
X225953Y265979D01*
X225949Y265992D01*
X225856Y266156D01*
X225766Y266321D01*
X225757Y266331D01*
X225751Y266343D01*
X225628Y266485D01*
X225507Y266629D01*
X225496Y266637D01*
X225488Y266648D01*
X225340Y266762D01*
X225192Y266880D01*
X225180Y266886D01*
X225170Y266894D01*
X225001Y266978D01*
X224834Y267064D01*
X224821Y267068D01*
X224809Y267074D01*
X224626Y267123D01*
X224447Y267174D01*
X224433Y267175D01*
X224420Y267178D01*
X224090Y267205D01*
X156983Y267205D01*
X156956Y267203D01*
X156929Y267205D01*
X156755Y267183D01*
X156582Y267165D01*
X156557Y267158D01*
X156530Y267154D01*
X156364Y267099D01*
X156197Y267047D01*
X156174Y267034D01*
X156148Y267026D01*
X155997Y266939D01*
X155843Y266855D01*
X155823Y266838D01*
X155799Y266825D01*
X155546Y266610D01*
X153579Y264643D01*
X151257Y263681D01*
X148743Y263681D01*
X146421Y264643D01*
X144643Y266421D01*
X143681Y268743D01*
X143681Y271257D01*
X144643Y273579D01*
X146421Y275357D01*
X148743Y276319D01*
X151257Y276319D01*
X153579Y275357D01*
X155546Y273390D01*
X155567Y273373D01*
X155585Y273352D01*
X155722Y273245D01*
X155858Y273135D01*
X155882Y273122D01*
X155903Y273106D01*
X156060Y273028D01*
X156214Y272946D01*
X156239Y272938D01*
X156263Y272926D01*
X156433Y272881D01*
X156599Y272831D01*
X156626Y272829D01*
X156652Y272822D01*
X156983Y272795D01*
X162001Y272795D01*
X162014Y272796D01*
X162028Y272795D01*
X162214Y272816D01*
X162402Y272835D01*
X162414Y272839D01*
X162428Y272840D01*
X162607Y272898D01*
X162786Y272953D01*
X162798Y272959D01*
X162811Y272963D01*
X162975Y273055D01*
X163140Y273145D01*
X163151Y273153D01*
X163163Y273160D01*
X163306Y273283D01*
X163450Y273402D01*
X163458Y273413D01*
X163468Y273421D01*
X163585Y273570D01*
X163702Y273716D01*
X163708Y273728D01*
X163717Y273738D01*
X163802Y273908D01*
X163888Y274073D01*
X163891Y274086D01*
X163897Y274098D01*
X163947Y274280D01*
X163999Y274460D01*
X164000Y274474D01*
X164004Y274487D01*
X164016Y274673D01*
X164032Y274862D01*
X164030Y274875D01*
X164031Y274888D01*
X164007Y275074D01*
X163985Y275261D01*
X163981Y275274D01*
X163979Y275287D01*
X163878Y275603D01*
X163681Y276077D01*
X163681Y278591D01*
X164643Y280913D01*
X166421Y282691D01*
X168743Y283653D01*
X171257Y283653D01*
X173579Y282691D01*
X175546Y280724D01*
X175567Y280707D01*
X175585Y280686D01*
X175722Y280579D01*
X175858Y280469D01*
X175882Y280456D01*
X175903Y280440D01*
X176060Y280362D01*
X176214Y280280D01*
X176239Y280272D01*
X176263Y280260D01*
X176433Y280215D01*
X176599Y280165D01*
X176626Y280163D01*
X176652Y280156D01*
X176983Y280129D01*
X225475Y280129D01*
X225526Y280134D01*
X225577Y280131D01*
X225726Y280154D01*
X225876Y280169D01*
X225925Y280184D01*
X225975Y280191D01*
X226117Y280243D01*
X226261Y280287D01*
X226306Y280311D01*
X226354Y280329D01*
X226482Y280407D01*
X226615Y280479D01*
X226654Y280511D01*
X226698Y280538D01*
X226808Y280640D01*
X226924Y280736D01*
X226956Y280776D01*
X226994Y280811D01*
X227082Y280933D01*
X227176Y281050D01*
X227200Y281095D01*
X227230Y281137D01*
X227293Y281274D01*
X227362Y281407D01*
X227376Y281456D01*
X227397Y281503D01*
X227432Y281650D01*
X227473Y281794D01*
X227477Y281845D01*
X227489Y281895D01*
X227494Y282046D01*
X227506Y282196D01*
X227500Y282246D01*
X227502Y282297D01*
X227477Y282446D01*
X227459Y282595D01*
X227443Y282644D01*
X227435Y282694D01*
X227381Y282835D01*
X227334Y282978D01*
X227309Y283023D01*
X227291Y283070D01*
X227171Y283268D01*
X227136Y283329D01*
X227127Y283339D01*
X227119Y283354D01*
X226205Y284611D01*
X225471Y286053D01*
X225081Y287251D01*
X234282Y287251D01*
X234300Y287252D01*
X234317Y287251D01*
X234500Y287272D01*
X234682Y287291D01*
X234699Y287296D01*
X234717Y287298D01*
X234892Y287355D01*
X234992Y287386D01*
X234999Y287382D01*
X235177Y287334D01*
X235352Y287284D01*
X235370Y287282D01*
X235387Y287278D01*
X235718Y287251D01*
X244919Y287251D01*
X244529Y286053D01*
X243795Y284611D01*
X242881Y283354D01*
X242856Y283310D01*
X242824Y283270D01*
X242754Y283136D01*
X242678Y283006D01*
X242662Y282958D01*
X242638Y282913D01*
X242597Y282768D01*
X242548Y282626D01*
X242541Y282575D01*
X242527Y282526D01*
X242514Y282376D01*
X242495Y282226D01*
X242498Y282175D01*
X242494Y282124D01*
X242511Y281975D01*
X242521Y281825D01*
X242535Y281775D01*
X242541Y281725D01*
X242587Y281581D01*
X242627Y281436D01*
X242650Y281390D01*
X242666Y281342D01*
X242740Y281211D01*
X242807Y281076D01*
X242838Y281036D01*
X242864Y280991D01*
X242962Y280877D01*
X243054Y280759D01*
X243093Y280725D01*
X243127Y280686D01*
X243246Y280594D01*
X243360Y280496D01*
X243404Y280471D01*
X243445Y280440D01*
X243580Y280373D01*
X243711Y280299D01*
X243759Y280283D01*
X243805Y280260D01*
X243951Y280221D01*
X244094Y280175D01*
X244145Y280169D01*
X244194Y280156D01*
X244425Y280137D01*
X244494Y280129D01*
X244508Y280130D01*
X244525Y280129D01*
X265335Y280129D01*
X265362Y280131D01*
X265388Y280129D01*
X265562Y280151D01*
X265736Y280169D01*
X265761Y280176D01*
X265788Y280180D01*
X265953Y280235D01*
X266121Y280287D01*
X266144Y280300D01*
X266169Y280308D01*
X266321Y280395D01*
X266475Y280479D01*
X266495Y280496D01*
X266518Y280509D01*
X266771Y280724D01*
X268990Y282943D01*
X269007Y282963D01*
X269028Y282981D01*
X269135Y283119D01*
X269245Y283254D01*
X269258Y283278D01*
X269274Y283299D01*
X269352Y283456D01*
X269434Y283610D01*
X269442Y283635D01*
X269454Y283659D01*
X269499Y283829D01*
X269549Y283996D01*
X269551Y284022D01*
X269558Y284048D01*
X269585Y284379D01*
X269585Y360159D01*
X269584Y360168D01*
X269585Y360177D01*
X269564Y360370D01*
X269545Y360560D01*
X269543Y360568D01*
X269542Y360577D01*
X269484Y360761D01*
X269427Y360945D01*
X269423Y360953D01*
X269420Y360961D01*
X269328Y361129D01*
X269235Y361299D01*
X269230Y361306D01*
X269225Y361313D01*
X269101Y361460D01*
X268978Y361608D01*
X268971Y361613D01*
X268965Y361620D01*
X268813Y361740D01*
X268664Y361860D01*
X268656Y361864D01*
X268649Y361870D01*
X268476Y361958D01*
X268307Y362046D01*
X268298Y362048D01*
X268290Y362052D01*
X268104Y362104D01*
X267920Y362157D01*
X267911Y362158D01*
X267902Y362160D01*
X267709Y362174D01*
X267518Y362190D01*
X267510Y362189D01*
X267501Y362190D01*
X267308Y362165D01*
X267119Y362143D01*
X267110Y362140D01*
X267101Y362139D01*
X266918Y362078D01*
X266736Y362018D01*
X266728Y362014D01*
X266720Y362011D01*
X266553Y361915D01*
X266385Y361820D01*
X266378Y361815D01*
X266371Y361810D01*
X266118Y361595D01*
X253960Y349437D01*
X251728Y347205D01*
X241881Y347205D01*
X241873Y347204D01*
X241864Y347205D01*
X241672Y347184D01*
X241481Y347165D01*
X241472Y347163D01*
X241463Y347162D01*
X241281Y347104D01*
X241096Y347047D01*
X241088Y347043D01*
X241079Y347040D01*
X240911Y346947D01*
X240742Y346855D01*
X240735Y346850D01*
X240727Y346845D01*
X240580Y346721D01*
X240433Y346598D01*
X240427Y346591D01*
X240420Y346585D01*
X240301Y346434D01*
X240180Y346284D01*
X240176Y346276D01*
X240171Y346269D01*
X240083Y346096D01*
X239995Y345927D01*
X239992Y345918D01*
X239988Y345910D01*
X239936Y345723D01*
X239883Y345540D01*
X239883Y345531D01*
X239880Y345522D01*
X239866Y345329D01*
X239850Y345138D01*
X239851Y345130D01*
X239851Y345121D01*
X239875Y344928D01*
X239897Y344739D01*
X239900Y344730D01*
X239901Y344721D01*
X239963Y344538D01*
X240022Y344356D01*
X240027Y344348D01*
X240029Y344340D01*
X240126Y344173D01*
X240220Y344005D01*
X240226Y343998D01*
X240230Y343991D01*
X240445Y343738D01*
X243502Y340681D01*
X245029Y336995D01*
X245029Y333005D01*
X243502Y329319D01*
X240681Y326498D01*
X236995Y324971D01*
X233005Y324971D01*
X229319Y326498D01*
X226498Y329319D01*
X224971Y333005D01*
X224971Y336995D01*
X226498Y340681D01*
X229555Y343738D01*
X229561Y343745D01*
X229567Y343750D01*
X229688Y343900D01*
X229810Y344049D01*
X229814Y344057D01*
X229820Y344064D01*
X229908Y344234D01*
X229999Y344405D01*
X230001Y344414D01*
X230005Y344421D01*
X230058Y344606D01*
X230113Y344791D01*
X230114Y344800D01*
X230117Y344808D01*
X230132Y344999D01*
X230150Y345192D01*
X230149Y345201D01*
X230150Y345210D01*
X230127Y345399D01*
X230106Y345592D01*
X230104Y345601D01*
X230103Y345609D01*
X230043Y345791D01*
X229985Y345976D01*
X229981Y345984D01*
X229978Y345992D01*
X229883Y346161D01*
X229790Y346328D01*
X229784Y346335D01*
X229780Y346343D01*
X229654Y346489D01*
X229530Y346635D01*
X229523Y346641D01*
X229517Y346648D01*
X229365Y346765D01*
X229214Y346885D01*
X229206Y346889D01*
X229199Y346894D01*
X229027Y346980D01*
X228855Y347067D01*
X228846Y347070D01*
X228838Y347074D01*
X228652Y347124D01*
X228467Y347175D01*
X228458Y347176D01*
X228449Y347178D01*
X228119Y347205D01*
X146983Y347205D01*
X146956Y347203D01*
X146929Y347205D01*
X146755Y347183D01*
X146582Y347165D01*
X146557Y347158D01*
X146530Y347154D01*
X146364Y347099D01*
X146197Y347047D01*
X146174Y347034D01*
X146148Y347026D01*
X145997Y346939D01*
X145843Y346855D01*
X145823Y346838D01*
X145799Y346825D01*
X145546Y346610D01*
X143579Y344643D01*
X141257Y343681D01*
X138743Y343681D01*
X136421Y344643D01*
X134643Y346421D01*
X133681Y348743D01*
X133681Y351257D01*
X134643Y353579D01*
X136421Y355357D01*
X138743Y356319D01*
X141257Y356319D01*
X143579Y355357D01*
X145546Y353390D01*
X145567Y353373D01*
X145585Y353352D01*
X145722Y353245D01*
X145858Y353135D01*
X145882Y353122D01*
X145903Y353106D01*
X146060Y353028D01*
X146214Y352946D01*
X146239Y352938D01*
X146263Y352926D01*
X146433Y352881D01*
X146599Y352831D01*
X146626Y352829D01*
X146652Y352822D01*
X146983Y352795D01*
X175001Y352795D01*
X175014Y352796D01*
X175028Y352795D01*
X175214Y352816D01*
X175402Y352835D01*
X175414Y352839D01*
X175428Y352840D01*
X175607Y352898D01*
X175786Y352953D01*
X175798Y352959D01*
X175811Y352963D01*
X175975Y353055D01*
X176140Y353145D01*
X176151Y353153D01*
X176163Y353160D01*
X176306Y353283D01*
X176450Y353402D01*
X176458Y353413D01*
X176468Y353421D01*
X176585Y353570D01*
X176702Y353716D01*
X176708Y353728D01*
X176717Y353738D01*
X176802Y353908D01*
X176888Y354073D01*
X176891Y354086D01*
X176897Y354098D01*
X176947Y354280D01*
X176999Y354460D01*
X177000Y354474D01*
X177004Y354487D01*
X177016Y354673D01*
X177032Y354862D01*
X177030Y354875D01*
X177031Y354888D01*
X177007Y355074D01*
X176985Y355261D01*
X176981Y355274D01*
X176979Y355287D01*
X176878Y355603D01*
X176681Y356077D01*
X176681Y358591D01*
X177643Y360913D01*
X179421Y362691D01*
X181743Y363653D01*
X184257Y363653D01*
X186579Y362691D01*
X188357Y360913D01*
X189321Y358586D01*
X189340Y358418D01*
X189359Y358235D01*
X189364Y358218D01*
X189366Y358201D01*
X189423Y358026D01*
X189477Y357850D01*
X189485Y357835D01*
X189491Y357818D01*
X189581Y357658D01*
X189669Y357496D01*
X189680Y357483D01*
X189689Y357467D01*
X189809Y357328D01*
X189926Y357187D01*
X189940Y357176D01*
X189952Y357162D01*
X190097Y357050D01*
X190240Y356935D01*
X190256Y356927D01*
X190270Y356916D01*
X190435Y356834D01*
X190597Y356749D01*
X190614Y356744D01*
X190630Y356736D01*
X190809Y356689D01*
X190984Y356638D01*
X191002Y356636D01*
X191019Y356632D01*
X191350Y356605D01*
X246993Y356605D01*
X247019Y356607D01*
X247046Y356605D01*
X247220Y356627D01*
X247393Y356645D01*
X247419Y356652D01*
X247446Y356656D01*
X247611Y356711D01*
X247778Y356763D01*
X247802Y356776D01*
X247827Y356784D01*
X247979Y356871D01*
X248132Y356955D01*
X248153Y356972D01*
X248176Y356985D01*
X248429Y357200D01*
X261370Y370141D01*
X261387Y370162D01*
X261408Y370179D01*
X261515Y370317D01*
X261625Y370452D01*
X261638Y370476D01*
X261654Y370497D01*
X261732Y370654D01*
X261814Y370808D01*
X261822Y370834D01*
X261834Y370858D01*
X261879Y371027D01*
X261929Y371194D01*
X261931Y371221D01*
X261938Y371246D01*
X261965Y371577D01*
X261965Y587826D01*
X261973Y587855D01*
X262023Y588022D01*
X262025Y588049D01*
X262032Y588075D01*
X262059Y588406D01*
X262059Y639110D01*
X262057Y639137D01*
X262059Y639163D01*
X262037Y639337D01*
X262019Y639511D01*
X262012Y639536D01*
X262008Y639563D01*
X261953Y639728D01*
X261901Y639896D01*
X261888Y639919D01*
X261880Y639945D01*
X261793Y640096D01*
X261709Y640250D01*
X261692Y640270D01*
X261679Y640293D01*
X261464Y640546D01*
X260640Y641370D01*
X260620Y641387D01*
X260602Y641408D01*
X260464Y641515D01*
X260329Y641625D01*
X260305Y641638D01*
X260284Y641654D01*
X260127Y641732D01*
X259973Y641814D01*
X259948Y641822D01*
X259924Y641834D01*
X259754Y641879D01*
X259587Y641929D01*
X259561Y641931D01*
X259535Y641938D01*
X259204Y641965D01*
X196052Y641965D01*
X174217Y663800D01*
X174196Y663817D01*
X174178Y663838D01*
X174040Y663945D01*
X173905Y664055D01*
X173881Y664068D01*
X173860Y664084D01*
X173703Y664162D01*
X173549Y664244D01*
X173524Y664252D01*
X173500Y664264D01*
X173330Y664309D01*
X173163Y664359D01*
X173137Y664361D01*
X173111Y664368D01*
X172780Y664395D01*
X172569Y664395D01*
X172556Y664394D01*
X172542Y664395D01*
X172356Y664374D01*
X172169Y664355D01*
X172156Y664351D01*
X172142Y664350D01*
X171963Y664292D01*
X171784Y664237D01*
X171772Y664231D01*
X171759Y664227D01*
X171594Y664135D01*
X171430Y664045D01*
X171419Y664037D01*
X171408Y664030D01*
X171264Y663908D01*
X171120Y663788D01*
X171112Y663777D01*
X171102Y663769D01*
X170985Y663620D01*
X170868Y663474D01*
X170862Y663462D01*
X170854Y663452D01*
X170769Y663282D01*
X170682Y663117D01*
X170679Y663104D01*
X170673Y663092D01*
X170623Y662909D01*
X170571Y662730D01*
X170570Y662716D01*
X170566Y662703D01*
X170554Y662515D01*
X170538Y662328D01*
X170540Y662315D01*
X170539Y662302D01*
X170563Y662114D01*
X170585Y661929D01*
X170589Y661916D01*
X170591Y661903D01*
X170693Y661587D01*
X171319Y660075D01*
X171319Y657561D01*
X170357Y655239D01*
X168390Y653272D01*
X168373Y653251D01*
X168352Y653233D01*
X168245Y653096D01*
X168135Y652960D01*
X168122Y652936D01*
X168106Y652915D01*
X168028Y652758D01*
X167946Y652604D01*
X167938Y652579D01*
X167926Y652555D01*
X167881Y652385D01*
X167831Y652219D01*
X167829Y652192D01*
X167822Y652166D01*
X167795Y651835D01*
X167795Y636817D01*
X167797Y636790D01*
X167795Y636763D01*
X167817Y636589D01*
X167835Y636416D01*
X167842Y636391D01*
X167846Y636364D01*
X167902Y636198D01*
X167953Y636031D01*
X167966Y636008D01*
X167974Y635982D01*
X168061Y635831D01*
X168145Y635677D01*
X168162Y635657D01*
X168175Y635633D01*
X168390Y635380D01*
X170191Y633579D01*
X171153Y631257D01*
X171153Y628743D01*
X170191Y626421D01*
X168413Y624643D01*
X166091Y623681D01*
X163577Y623681D01*
X161255Y624643D01*
X159477Y626421D01*
X158515Y628743D01*
X158515Y631257D01*
X159477Y633579D01*
X161354Y635456D01*
X161478Y635563D01*
X161616Y635677D01*
X161630Y635695D01*
X161648Y635710D01*
X161757Y635851D01*
X161870Y635990D01*
X161881Y636010D01*
X161894Y636028D01*
X161974Y636188D01*
X162057Y636346D01*
X162064Y636368D01*
X162074Y636388D01*
X162120Y636562D01*
X162170Y636733D01*
X162172Y636755D01*
X162178Y636777D01*
X162205Y637108D01*
X162205Y651835D01*
X162203Y651862D01*
X162205Y651889D01*
X162183Y652063D01*
X162165Y652236D01*
X162158Y652261D01*
X162154Y652288D01*
X162099Y652454D01*
X162047Y652621D01*
X162034Y652644D01*
X162026Y652670D01*
X161939Y652821D01*
X161855Y652975D01*
X161838Y652995D01*
X161825Y653019D01*
X161610Y653272D01*
X159643Y655239D01*
X159132Y656473D01*
X159128Y656481D01*
X159125Y656490D01*
X159033Y656658D01*
X158942Y656828D01*
X158936Y656835D01*
X158932Y656843D01*
X158808Y656990D01*
X158685Y657139D01*
X158678Y657144D01*
X158673Y657151D01*
X158522Y657271D01*
X158373Y657392D01*
X158365Y657397D01*
X158358Y657402D01*
X158187Y657490D01*
X158016Y657579D01*
X158007Y657582D01*
X158000Y657586D01*
X157815Y657638D01*
X157630Y657693D01*
X157621Y657693D01*
X157612Y657696D01*
X157421Y657711D01*
X157229Y657727D01*
X157220Y657726D01*
X157211Y657727D01*
X157020Y657704D01*
X156828Y657682D01*
X156820Y657679D01*
X156811Y657678D01*
X156628Y657618D01*
X156445Y657559D01*
X156437Y657554D01*
X156429Y657552D01*
X156261Y657456D01*
X156094Y657362D01*
X156087Y657357D01*
X156079Y657352D01*
X155933Y657225D01*
X155788Y657101D01*
X155782Y657094D01*
X155776Y657088D01*
X155659Y656937D01*
X155540Y656784D01*
X155536Y656776D01*
X155530Y656769D01*
X155379Y656473D01*
X155357Y656421D01*
X153579Y654643D01*
X151257Y653681D01*
X148743Y653681D01*
X146421Y654643D01*
X146007Y655057D01*
X145994Y655068D01*
X145982Y655082D01*
X145838Y655195D01*
X145696Y655312D01*
X145680Y655320D01*
X145666Y655331D01*
X145503Y655414D01*
X145340Y655500D01*
X145323Y655505D01*
X145307Y655514D01*
X145131Y655563D01*
X144954Y655615D01*
X144936Y655617D01*
X144919Y655622D01*
X144736Y655635D01*
X144553Y655652D01*
X144536Y655650D01*
X144518Y655651D01*
X144336Y655628D01*
X144153Y655608D01*
X144136Y655603D01*
X144118Y655601D01*
X143944Y655542D01*
X143769Y655487D01*
X143754Y655478D01*
X143737Y655472D01*
X143577Y655380D01*
X143417Y655292D01*
X143403Y655280D01*
X143388Y655271D01*
X143135Y655057D01*
X142721Y654643D01*
X140399Y653681D01*
X137885Y653681D01*
X135563Y654643D01*
X133785Y656421D01*
X132823Y658743D01*
X132823Y661257D01*
X133785Y663579D01*
X135563Y665357D01*
X137885Y666319D01*
X140667Y666319D01*
X140694Y666321D01*
X140720Y666319D01*
X140894Y666341D01*
X141068Y666359D01*
X141093Y666366D01*
X141120Y666370D01*
X141285Y666425D01*
X141453Y666477D01*
X141476Y666490D01*
X141501Y666498D01*
X141653Y666585D01*
X141807Y666669D01*
X141827Y666686D01*
X141850Y666699D01*
X142103Y666914D01*
X142829Y667640D01*
X142835Y667647D01*
X142842Y667652D01*
X142962Y667801D01*
X143084Y667951D01*
X143089Y667959D01*
X143094Y667966D01*
X143182Y668135D01*
X143273Y668307D01*
X143276Y668316D01*
X143280Y668323D01*
X143332Y668507D01*
X143388Y668693D01*
X143389Y668702D01*
X143391Y668710D01*
X143407Y668901D01*
X143424Y669094D01*
X143423Y669103D01*
X143424Y669112D01*
X143402Y669301D01*
X143381Y669494D01*
X143378Y669503D01*
X143377Y669511D01*
X143317Y669694D01*
X143259Y669878D01*
X143255Y669886D01*
X143252Y669894D01*
X143157Y670063D01*
X143065Y670230D01*
X143059Y670237D01*
X143054Y670245D01*
X142929Y670390D01*
X142804Y670537D01*
X142797Y670543D01*
X142791Y670550D01*
X142639Y670667D01*
X142488Y670787D01*
X142480Y670791D01*
X142473Y670796D01*
X142300Y670883D01*
X142129Y670969D01*
X142121Y670972D01*
X142113Y670976D01*
X141924Y671026D01*
X141741Y671077D01*
X141733Y671078D01*
X141724Y671080D01*
X141393Y671107D01*
X138743Y671107D01*
X136421Y672069D01*
X134643Y673847D01*
X133681Y676169D01*
X133681Y678683D01*
X134643Y681005D01*
X135057Y681419D01*
X135068Y681432D01*
X135082Y681444D01*
X135195Y681588D01*
X135312Y681730D01*
X135320Y681746D01*
X135331Y681760D01*
X135414Y681923D01*
X135500Y682086D01*
X135505Y682103D01*
X135514Y682119D01*
X135563Y682295D01*
X135615Y682472D01*
X135617Y682490D01*
X135622Y682507D01*
X135635Y682690D01*
X135652Y682873D01*
X135650Y682890D01*
X135651Y682908D01*
X135628Y683090D01*
X135608Y683273D01*
X135603Y683290D01*
X135601Y683308D01*
X135542Y683482D01*
X135487Y683657D01*
X135478Y683672D01*
X135472Y683689D01*
X135380Y683849D01*
X135292Y684009D01*
X135280Y684023D01*
X135271Y684038D01*
X135057Y684291D01*
X134643Y684705D01*
X133681Y687027D01*
X133681Y689541D01*
X134643Y691863D01*
X135057Y692277D01*
X135068Y692291D01*
X135082Y692302D01*
X135196Y692446D01*
X135312Y692588D01*
X135320Y692604D01*
X135331Y692618D01*
X135415Y692782D01*
X135500Y692944D01*
X135505Y692961D01*
X135514Y692977D01*
X135563Y693154D01*
X135615Y693330D01*
X135617Y693348D01*
X135622Y693365D01*
X135635Y693548D01*
X135652Y693731D01*
X135650Y693749D01*
X135651Y693766D01*
X135628Y693948D01*
X135608Y694131D01*
X135603Y694148D01*
X135600Y694166D01*
X135542Y694339D01*
X135487Y694515D01*
X135478Y694531D01*
X135472Y694547D01*
X135380Y694707D01*
X135292Y694867D01*
X135280Y694881D01*
X135271Y694896D01*
X135057Y695149D01*
X134643Y695563D01*
X133681Y697885D01*
X133681Y700399D01*
X134643Y702721D01*
X135057Y703135D01*
X135068Y703148D01*
X135082Y703160D01*
X135195Y703304D01*
X135312Y703446D01*
X135320Y703462D01*
X135331Y703476D01*
X135414Y703639D01*
X135500Y703802D01*
X135505Y703819D01*
X135514Y703835D01*
X135563Y704011D01*
X135615Y704188D01*
X135617Y704206D01*
X135622Y704223D01*
X135635Y704406D01*
X135652Y704589D01*
X135650Y704606D01*
X135651Y704624D01*
X135628Y704806D01*
X135608Y704989D01*
X135603Y705006D01*
X135601Y705024D01*
X135542Y705198D01*
X135487Y705373D01*
X135478Y705388D01*
X135472Y705405D01*
X135380Y705565D01*
X135292Y705725D01*
X135280Y705739D01*
X135271Y705754D01*
X135057Y706007D01*
X134643Y706421D01*
X133681Y708743D01*
X133681Y711257D01*
X134643Y713579D01*
X136421Y715357D01*
X138743Y716319D01*
X141257Y716319D01*
X143579Y715357D01*
X145546Y713390D01*
X145567Y713373D01*
X145585Y713352D01*
X145722Y713245D01*
X145858Y713135D01*
X145882Y713122D01*
X145903Y713106D01*
X146060Y713028D01*
X146214Y712946D01*
X146239Y712938D01*
X146263Y712926D01*
X146433Y712881D01*
X146599Y712831D01*
X146626Y712829D01*
X146652Y712822D01*
X146983Y712795D01*
X179614Y712795D01*
X196004Y696405D01*
X196011Y696399D01*
X196016Y696392D01*
X196166Y696272D01*
X196315Y696150D01*
X196323Y696145D01*
X196330Y696140D01*
X196500Y696051D01*
X196671Y695961D01*
X196680Y695958D01*
X196687Y695954D01*
X196872Y695901D01*
X197057Y695846D01*
X197066Y695845D01*
X197074Y695843D01*
X197266Y695827D01*
X197458Y695810D01*
X197467Y695811D01*
X197476Y695810D01*
X197665Y695832D01*
X197858Y695853D01*
X197867Y695856D01*
X197875Y695857D01*
X198057Y695916D01*
X198242Y695975D01*
X198250Y695979D01*
X198258Y695982D01*
X198427Y696077D01*
X198594Y696169D01*
X198601Y696175D01*
X198609Y696180D01*
X198755Y696306D01*
X198901Y696430D01*
X198907Y696437D01*
X198914Y696443D01*
X199031Y696594D01*
X199151Y696746D01*
X199155Y696754D01*
X199160Y696761D01*
X199246Y696933D01*
X199333Y697105D01*
X199336Y697113D01*
X199340Y697121D01*
X199390Y697308D01*
X199441Y697493D01*
X199442Y697502D01*
X199444Y697510D01*
X199471Y697841D01*
X199471Y744887D01*
X199469Y744909D01*
X199471Y744931D01*
X199449Y745109D01*
X199431Y745288D01*
X199425Y745309D01*
X199422Y745331D01*
X199366Y745502D01*
X199313Y745673D01*
X199303Y745692D01*
X199296Y745713D01*
X199207Y745869D01*
X199121Y746027D01*
X199107Y746044D01*
X199096Y746063D01*
X198978Y746199D01*
X198864Y746336D01*
X198846Y746350D01*
X198832Y746367D01*
X198689Y746476D01*
X198550Y746588D01*
X198530Y746598D01*
X198513Y746612D01*
X198217Y746764D01*
X198139Y746796D01*
X196361Y748574D01*
X195399Y750896D01*
X195399Y753410D01*
X196361Y755732D01*
X198139Y757510D01*
X200461Y758472D01*
X202975Y758472D01*
X205297Y757510D01*
X207075Y755732D01*
X208037Y753410D01*
X208037Y750896D01*
X207247Y748990D01*
X207238Y748961D01*
X207224Y748933D01*
X207180Y748768D01*
X207131Y748605D01*
X207128Y748574D01*
X207120Y748544D01*
X207093Y748213D01*
X207093Y681967D01*
X207095Y681940D01*
X207093Y681913D01*
X207115Y681739D01*
X207133Y681566D01*
X207140Y681541D01*
X207144Y681514D01*
X207199Y681348D01*
X207251Y681181D01*
X207264Y681158D01*
X207272Y681132D01*
X207359Y680981D01*
X207443Y680827D01*
X207460Y680807D01*
X207473Y680783D01*
X207688Y680530D01*
X208639Y679579D01*
X209601Y677257D01*
X209601Y674743D01*
X208639Y672421D01*
X206824Y670606D01*
X206823Y670605D01*
X206650Y670513D01*
X206646Y670510D01*
X206642Y670507D01*
X206492Y670382D01*
X206339Y670256D01*
X206337Y670253D01*
X206333Y670250D01*
X206210Y670097D01*
X206086Y669943D01*
X206084Y669939D01*
X206081Y669936D01*
X205991Y669763D01*
X205899Y669587D01*
X205897Y669583D01*
X205895Y669579D01*
X205841Y669390D01*
X205785Y669201D01*
X205785Y669196D01*
X205784Y669192D01*
X205767Y668989D01*
X205751Y668799D01*
X205751Y668795D01*
X205751Y668790D01*
X205774Y668593D01*
X205796Y668399D01*
X205797Y668395D01*
X205798Y668391D01*
X205859Y668203D01*
X205919Y668016D01*
X205921Y668012D01*
X205923Y668008D01*
X206019Y667837D01*
X206115Y667665D01*
X206118Y667661D01*
X206121Y667657D01*
X206249Y667508D01*
X206377Y667359D01*
X206381Y667356D01*
X206384Y667352D01*
X206539Y667232D01*
X206694Y667110D01*
X206698Y667108D01*
X206702Y667106D01*
X206878Y667018D01*
X207054Y666930D01*
X207058Y666928D01*
X207062Y666926D01*
X207254Y666875D01*
X207442Y666823D01*
X207447Y666823D01*
X207451Y666822D01*
X207782Y666795D01*
X270062Y666795D01*
X281452Y655405D01*
X281459Y655399D01*
X281464Y655392D01*
X281614Y655272D01*
X281763Y655150D01*
X281771Y655145D01*
X281778Y655140D01*
X281948Y655051D01*
X282119Y654961D01*
X282128Y654958D01*
X282135Y654954D01*
X282320Y654901D01*
X282505Y654846D01*
X282514Y654845D01*
X282522Y654843D01*
X282714Y654827D01*
X282906Y654810D01*
X282915Y654811D01*
X282924Y654810D01*
X283113Y654832D01*
X283306Y654853D01*
X283315Y654856D01*
X283323Y654857D01*
X283505Y654916D01*
X283690Y654975D01*
X283698Y654979D01*
X283706Y654982D01*
X283875Y655077D01*
X284042Y655169D01*
X284049Y655175D01*
X284057Y655180D01*
X284203Y655306D01*
X284349Y655430D01*
X284355Y655437D01*
X284362Y655443D01*
X284479Y655594D01*
X284599Y655746D01*
X284603Y655754D01*
X284608Y655761D01*
X284694Y655933D01*
X284781Y656105D01*
X284784Y656113D01*
X284788Y656121D01*
X284838Y656308D01*
X284889Y656493D01*
X284890Y656502D01*
X284892Y656510D01*
X284919Y656841D01*
X284919Y742738D01*
X284914Y742789D01*
X284917Y742840D01*
X284894Y742989D01*
X284879Y743139D01*
X284864Y743188D01*
X284857Y743238D01*
X284805Y743380D01*
X284761Y743524D01*
X284737Y743569D01*
X284719Y743617D01*
X284641Y743746D01*
X284569Y743878D01*
X284537Y743917D01*
X284510Y743961D01*
X284408Y744072D01*
X284312Y744187D01*
X284272Y744219D01*
X284237Y744257D01*
X284115Y744345D01*
X283998Y744440D01*
X283953Y744463D01*
X283911Y744493D01*
X283774Y744556D01*
X283641Y744625D01*
X283592Y744639D01*
X283545Y744660D01*
X283398Y744695D01*
X283254Y744736D01*
X283203Y744741D01*
X283153Y744752D01*
X283002Y744757D01*
X282852Y744769D01*
X282802Y744763D01*
X282751Y744765D01*
X282602Y744740D01*
X282453Y744722D01*
X282404Y744707D01*
X282354Y744698D01*
X282213Y744644D01*
X282070Y744598D01*
X282025Y744572D01*
X281978Y744554D01*
X281780Y744434D01*
X281719Y744400D01*
X281709Y744391D01*
X281694Y744382D01*
X280679Y743644D01*
X279325Y742954D01*
X277880Y742485D01*
X276380Y742247D01*
X270539Y742247D01*
X270539Y751392D01*
X270537Y751410D01*
X270539Y751427D01*
X270518Y751610D01*
X270499Y751792D01*
X270494Y751809D01*
X270492Y751827D01*
X270467Y751905D01*
X270506Y752042D01*
X270508Y752060D01*
X270512Y752077D01*
X270539Y752408D01*
X270539Y761553D01*
X276380Y761553D01*
X277880Y761315D01*
X279325Y760846D01*
X280679Y760156D01*
X281694Y759418D01*
X281738Y759393D01*
X281778Y759360D01*
X281912Y759291D01*
X282042Y759215D01*
X282090Y759199D01*
X282135Y759175D01*
X282280Y759133D01*
X282422Y759084D01*
X282473Y759078D01*
X282522Y759064D01*
X282672Y759051D01*
X282822Y759031D01*
X282873Y759035D01*
X282924Y759031D01*
X283073Y759048D01*
X283223Y759058D01*
X283273Y759072D01*
X283323Y759078D01*
X283467Y759124D01*
X283612Y759164D01*
X283658Y759187D01*
X283706Y759202D01*
X283837Y759276D01*
X283972Y759344D01*
X284012Y759375D01*
X284057Y759400D01*
X284171Y759499D01*
X284289Y759591D01*
X284323Y759630D01*
X284362Y759664D01*
X284454Y759782D01*
X284552Y759897D01*
X284577Y759941D01*
X284608Y759982D01*
X284675Y760116D01*
X284749Y760248D01*
X284765Y760296D01*
X284788Y760342D01*
X284827Y760488D01*
X284873Y760631D01*
X284879Y760682D01*
X284892Y760731D01*
X284911Y760961D01*
X284919Y761031D01*
X284918Y761044D01*
X284919Y761062D01*
X284919Y768404D01*
X284918Y768412D01*
X284919Y768421D01*
X284898Y768614D01*
X284879Y768804D01*
X284877Y768813D01*
X284876Y768822D01*
X284818Y769005D01*
X284761Y769189D01*
X284757Y769197D01*
X284754Y769206D01*
X284661Y769375D01*
X284569Y769543D01*
X284564Y769550D01*
X284559Y769558D01*
X284434Y769706D01*
X284312Y769852D01*
X284305Y769858D01*
X284299Y769865D01*
X284147Y769985D01*
X283998Y770105D01*
X283990Y770109D01*
X283983Y770114D01*
X283810Y770202D01*
X283641Y770290D01*
X283632Y770293D01*
X283624Y770297D01*
X283439Y770348D01*
X283254Y770402D01*
X283245Y770402D01*
X283236Y770405D01*
X283044Y770419D01*
X282852Y770435D01*
X282844Y770433D01*
X282835Y770434D01*
X282643Y770410D01*
X282453Y770388D01*
X282444Y770385D01*
X282435Y770384D01*
X282253Y770323D01*
X282070Y770263D01*
X282062Y770258D01*
X282054Y770256D01*
X281886Y770159D01*
X281719Y770065D01*
X281712Y770059D01*
X281705Y770055D01*
X281452Y769840D01*
X280944Y769332D01*
X279352Y768673D01*
X277490Y767901D01*
X258510Y767901D01*
X255056Y769332D01*
X252412Y771976D01*
X250981Y775430D01*
X250981Y779170D01*
X251568Y780587D01*
X251572Y780600D01*
X251578Y780611D01*
X251630Y780792D01*
X251685Y780972D01*
X251686Y780985D01*
X251690Y780998D01*
X251705Y781186D01*
X251723Y781373D01*
X251721Y781386D01*
X251723Y781400D01*
X251701Y781587D01*
X251681Y781773D01*
X251677Y781786D01*
X251676Y781799D01*
X251617Y781979D01*
X251561Y782158D01*
X251555Y782169D01*
X251551Y782182D01*
X251458Y782347D01*
X251368Y782511D01*
X251360Y782521D01*
X251353Y782533D01*
X251230Y782675D01*
X251109Y782819D01*
X251098Y782827D01*
X251090Y782838D01*
X250941Y782953D01*
X250794Y783070D01*
X250782Y783076D01*
X250772Y783084D01*
X250603Y783168D01*
X250436Y783254D01*
X250423Y783258D01*
X250411Y783264D01*
X250228Y783313D01*
X250049Y783364D01*
X250035Y783365D01*
X250022Y783368D01*
X249692Y783395D01*
X207681Y783395D01*
X207668Y783394D01*
X207654Y783395D01*
X207468Y783374D01*
X207280Y783355D01*
X207268Y783351D01*
X207254Y783350D01*
X207075Y783292D01*
X206896Y783237D01*
X206884Y783231D01*
X206871Y783227D01*
X206707Y783135D01*
X206542Y783045D01*
X206531Y783037D01*
X206519Y783030D01*
X206376Y782907D01*
X206232Y782788D01*
X206224Y782777D01*
X206214Y782769D01*
X206097Y782620D01*
X205980Y782474D01*
X205974Y782462D01*
X205965Y782452D01*
X205880Y782282D01*
X205794Y782117D01*
X205791Y782104D01*
X205785Y782092D01*
X205735Y781910D01*
X205683Y781730D01*
X205682Y781716D01*
X205678Y781703D01*
X205666Y781517D01*
X205650Y781328D01*
X205652Y781315D01*
X205651Y781302D01*
X205675Y781116D01*
X205697Y780929D01*
X205701Y780916D01*
X205703Y780903D01*
X205804Y780587D01*
X206001Y780113D01*
X206001Y777331D01*
X206003Y777304D01*
X206001Y777278D01*
X206023Y777104D01*
X206041Y776930D01*
X206048Y776905D01*
X206052Y776878D01*
X206107Y776713D01*
X206159Y776545D01*
X206172Y776522D01*
X206180Y776497D01*
X206267Y776345D01*
X206351Y776191D01*
X206368Y776171D01*
X206381Y776148D01*
X206596Y775895D01*
X212767Y769724D01*
X212787Y769707D01*
X212805Y769686D01*
X212943Y769579D01*
X213078Y769469D01*
X213102Y769456D01*
X213123Y769440D01*
X213280Y769362D01*
X213434Y769280D01*
X213459Y769272D01*
X213483Y769260D01*
X213653Y769215D01*
X213820Y769165D01*
X213846Y769163D01*
X213872Y769156D01*
X214203Y769129D01*
X219195Y769129D01*
X225129Y763195D01*
X225129Y754805D01*
X222080Y751755D01*
X222063Y751735D01*
X222042Y751717D01*
X221935Y751579D01*
X221824Y751444D01*
X221812Y751420D01*
X221796Y751399D01*
X221718Y751242D01*
X221636Y751088D01*
X221628Y751063D01*
X221616Y751039D01*
X221571Y750869D01*
X221521Y750702D01*
X221519Y750676D01*
X221512Y750650D01*
X221485Y750319D01*
X221485Y697301D01*
X221487Y697274D01*
X221485Y697247D01*
X221507Y697073D01*
X221525Y696900D01*
X221532Y696875D01*
X221536Y696848D01*
X221591Y696682D01*
X221643Y696515D01*
X221655Y696492D01*
X221664Y696466D01*
X221751Y696315D01*
X221834Y696161D01*
X221851Y696141D01*
X221865Y696117D01*
X222080Y695864D01*
X224047Y693897D01*
X225009Y691575D01*
X225009Y689061D01*
X224047Y686739D01*
X222269Y684961D01*
X219947Y683999D01*
X217433Y683999D01*
X215111Y684961D01*
X213333Y686739D01*
X212371Y689061D01*
X212371Y691575D01*
X213333Y693897D01*
X215300Y695864D01*
X215317Y695885D01*
X215337Y695903D01*
X215444Y696040D01*
X215555Y696176D01*
X215568Y696200D01*
X215584Y696221D01*
X215662Y696378D01*
X215744Y696532D01*
X215751Y696557D01*
X215763Y696581D01*
X215809Y696751D01*
X215859Y696917D01*
X215861Y696944D01*
X215868Y696970D01*
X215895Y697301D01*
X215895Y753476D01*
X218944Y756525D01*
X218961Y756546D01*
X218982Y756563D01*
X219089Y756701D01*
X219199Y756836D01*
X219212Y756860D01*
X219228Y756881D01*
X219306Y757038D01*
X219388Y757192D01*
X219396Y757218D01*
X219408Y757242D01*
X219453Y757411D01*
X219503Y757578D01*
X219505Y757605D01*
X219512Y757630D01*
X219539Y757961D01*
X219539Y760039D01*
X219537Y760065D01*
X219539Y760092D01*
X219517Y760266D01*
X219499Y760440D01*
X219492Y760465D01*
X219488Y760492D01*
X219433Y760657D01*
X219381Y760824D01*
X219368Y760848D01*
X219360Y760873D01*
X219273Y761025D01*
X219189Y761178D01*
X219172Y761199D01*
X219159Y761222D01*
X218944Y761475D01*
X217475Y762944D01*
X217454Y762961D01*
X217437Y762982D01*
X217299Y763089D01*
X217164Y763199D01*
X217140Y763212D01*
X217119Y763228D01*
X216962Y763306D01*
X216808Y763388D01*
X216782Y763396D01*
X216758Y763408D01*
X216589Y763453D01*
X216422Y763503D01*
X216395Y763505D01*
X216370Y763512D01*
X216039Y763539D01*
X211046Y763539D01*
X202643Y771942D01*
X202623Y771959D01*
X202605Y771980D01*
X202467Y772087D01*
X202332Y772197D01*
X202308Y772210D01*
X202287Y772226D01*
X202130Y772304D01*
X201976Y772386D01*
X201951Y772394D01*
X201927Y772406D01*
X201757Y772451D01*
X201590Y772501D01*
X201564Y772503D01*
X201538Y772510D01*
X201207Y772537D01*
X198425Y772537D01*
X196103Y773499D01*
X194325Y775277D01*
X193363Y777599D01*
X193363Y780113D01*
X193560Y780587D01*
X193563Y780599D01*
X193570Y780611D01*
X193622Y780793D01*
X193676Y780972D01*
X193677Y780985D01*
X193681Y780998D01*
X193696Y781187D01*
X193714Y781373D01*
X193713Y781386D01*
X193714Y781400D01*
X193692Y781586D01*
X193673Y781773D01*
X193669Y781786D01*
X193667Y781799D01*
X193609Y781978D01*
X193553Y782158D01*
X193546Y782169D01*
X193542Y782182D01*
X193449Y782347D01*
X193359Y782511D01*
X193351Y782521D01*
X193344Y782533D01*
X193221Y782676D01*
X193100Y782819D01*
X193090Y782827D01*
X193081Y782838D01*
X192933Y782952D01*
X192785Y783070D01*
X192774Y783076D01*
X192763Y783084D01*
X192595Y783168D01*
X192427Y783254D01*
X192414Y783258D01*
X192402Y783264D01*
X192220Y783313D01*
X192040Y783364D01*
X192027Y783365D01*
X192014Y783368D01*
X191683Y783395D01*
X183577Y783395D01*
X183551Y783393D01*
X183524Y783395D01*
X183350Y783373D01*
X183177Y783355D01*
X183151Y783348D01*
X183124Y783344D01*
X182959Y783289D01*
X182792Y783237D01*
X182768Y783224D01*
X182743Y783216D01*
X182591Y783129D01*
X182438Y783045D01*
X182417Y783028D01*
X182394Y783015D01*
X182141Y782800D01*
X161250Y761909D01*
X161233Y761888D01*
X161212Y761871D01*
X161105Y761733D01*
X160995Y761598D01*
X160982Y761574D01*
X160966Y761553D01*
X160888Y761396D01*
X160806Y761242D01*
X160798Y761216D01*
X160786Y761192D01*
X160741Y761023D01*
X160691Y760856D01*
X160689Y760829D01*
X160682Y760804D01*
X160655Y760473D01*
X160655Y754226D01*
X147648Y741219D01*
X120194Y741219D01*
X120167Y741217D01*
X120140Y741219D01*
X119966Y741197D01*
X119793Y741179D01*
X119767Y741172D01*
X119741Y741168D01*
X119575Y741113D01*
X119408Y741061D01*
X119384Y741048D01*
X119359Y741040D01*
X119207Y740953D01*
X119054Y740869D01*
X119034Y740852D01*
X119010Y740839D01*
X118757Y740624D01*
X114195Y736063D01*
X101714Y736063D01*
X101688Y736060D01*
X101661Y736062D01*
X101487Y736040D01*
X101314Y736023D01*
X101288Y736015D01*
X101262Y736011D01*
X101096Y735956D01*
X100929Y735905D01*
X100905Y735892D01*
X100880Y735883D01*
X100728Y735796D01*
X100575Y735713D01*
X100554Y735696D01*
X100531Y735682D01*
X100278Y735468D01*
X96914Y732103D01*
X96897Y732083D01*
X96876Y732065D01*
X96769Y731927D01*
X96659Y731792D01*
X96646Y731768D01*
X96630Y731747D01*
X96552Y731590D01*
X96470Y731436D01*
X96462Y731411D01*
X96450Y731387D01*
X96405Y731217D01*
X96355Y731050D01*
X96353Y731024D01*
X96346Y730998D01*
X96319Y730667D01*
X96319Y727885D01*
X95357Y725563D01*
X93579Y723785D01*
X91257Y722823D01*
X88743Y722823D01*
X86421Y723785D01*
X84643Y725563D01*
X83681Y727885D01*
X83681Y730399D01*
X84643Y732721D01*
X84644Y732722D01*
X84649Y732729D01*
X84656Y732734D01*
X84777Y732885D01*
X84899Y733033D01*
X84903Y733041D01*
X84909Y733048D01*
X84997Y733218D01*
X85087Y733389D01*
X85090Y733397D01*
X85094Y733405D01*
X85147Y733590D01*
X85202Y733775D01*
X85203Y733784D01*
X85205Y733792D01*
X85221Y733984D01*
X85239Y734176D01*
X85238Y734185D01*
X85238Y734194D01*
X85216Y734384D01*
X85195Y734576D01*
X85192Y734584D01*
X85191Y734593D01*
X85132Y734777D01*
X85074Y734960D01*
X85069Y734968D01*
X85067Y734976D01*
X84971Y735145D01*
X84879Y735312D01*
X84873Y735319D01*
X84869Y735327D01*
X84743Y735473D01*
X84618Y735619D01*
X84611Y735625D01*
X84606Y735632D01*
X84454Y735749D01*
X84303Y735869D01*
X84294Y735873D01*
X84287Y735878D01*
X84115Y735964D01*
X83944Y736051D01*
X83935Y736054D01*
X83927Y736058D01*
X83740Y736108D01*
X83556Y736159D01*
X83547Y736160D01*
X83538Y736162D01*
X83207Y736189D01*
X82420Y736189D01*
X82393Y736187D01*
X82367Y736189D01*
X82193Y736167D01*
X82019Y736149D01*
X81994Y736142D01*
X81967Y736138D01*
X81801Y736083D01*
X81634Y736031D01*
X81611Y736018D01*
X81585Y736010D01*
X81434Y735923D01*
X81280Y735839D01*
X81260Y735822D01*
X81237Y735809D01*
X80984Y735594D01*
X44406Y699016D01*
X44389Y698996D01*
X44368Y698978D01*
X44261Y698840D01*
X44151Y698705D01*
X44138Y698681D01*
X44122Y698660D01*
X44044Y698503D01*
X43962Y698349D01*
X43954Y698324D01*
X43942Y698300D01*
X43897Y698130D01*
X43847Y697963D01*
X43845Y697937D01*
X43838Y697911D01*
X43811Y697580D01*
X43811Y692420D01*
X43813Y692393D01*
X43811Y692367D01*
X43833Y692193D01*
X43851Y692019D01*
X43858Y691994D01*
X43862Y691967D01*
X43918Y691801D01*
X43969Y691634D01*
X43982Y691611D01*
X43990Y691585D01*
X44077Y691434D01*
X44161Y691280D01*
X44178Y691260D01*
X44191Y691237D01*
X44406Y690984D01*
X68476Y666914D01*
X68496Y666897D01*
X68514Y666876D01*
X68652Y666769D01*
X68787Y666659D01*
X68811Y666646D01*
X68832Y666630D01*
X68989Y666552D01*
X69143Y666470D01*
X69168Y666462D01*
X69192Y666450D01*
X69362Y666405D01*
X69529Y666355D01*
X69555Y666353D01*
X69581Y666346D01*
X69912Y666319D01*
X71257Y666319D01*
X73579Y665357D01*
X75357Y663579D01*
X76319Y661257D01*
X76319Y658743D01*
X75357Y656421D01*
X73579Y654643D01*
X71257Y653681D01*
X68743Y653681D01*
X66421Y654643D01*
X64643Y656421D01*
X63681Y658743D01*
X63681Y660088D01*
X63679Y660115D01*
X63681Y660141D01*
X63659Y660315D01*
X63641Y660489D01*
X63634Y660514D01*
X63630Y660541D01*
X63575Y660707D01*
X63523Y660874D01*
X63510Y660897D01*
X63502Y660923D01*
X63415Y661074D01*
X63331Y661228D01*
X63314Y661248D01*
X63301Y661271D01*
X63086Y661524D01*
X36189Y688422D01*
X36189Y701578D01*
X78422Y743811D01*
X84033Y743811D01*
X84060Y743813D01*
X84087Y743811D01*
X84261Y743833D01*
X84434Y743851D01*
X84459Y743858D01*
X84486Y743862D01*
X84652Y743917D01*
X84819Y743969D01*
X84842Y743982D01*
X84868Y743990D01*
X85019Y744077D01*
X85173Y744161D01*
X85193Y744178D01*
X85217Y744191D01*
X85470Y744406D01*
X86421Y745357D01*
X88743Y746319D01*
X91257Y746319D01*
X93579Y745357D01*
X95357Y743579D01*
X95695Y742762D01*
X95702Y742750D01*
X95706Y742737D01*
X95797Y742573D01*
X95886Y742407D01*
X95894Y742396D01*
X95901Y742385D01*
X96022Y742242D01*
X96142Y742096D01*
X96152Y742088D01*
X96161Y742078D01*
X96309Y741961D01*
X96455Y741843D01*
X96467Y741836D01*
X96477Y741828D01*
X96645Y741743D01*
X96811Y741656D01*
X96824Y741652D01*
X96836Y741646D01*
X97017Y741595D01*
X97198Y741543D01*
X97211Y741541D01*
X97224Y741538D01*
X97411Y741524D01*
X97599Y741508D01*
X97612Y741509D01*
X97626Y741508D01*
X97812Y741532D01*
X97999Y741553D01*
X98012Y741557D01*
X98025Y741559D01*
X98203Y741619D01*
X98307Y741652D01*
X102001Y741652D01*
X102014Y741653D01*
X102028Y741652D01*
X102214Y741673D01*
X102402Y741692D01*
X102414Y741696D01*
X102428Y741697D01*
X102607Y741755D01*
X102786Y741810D01*
X102798Y741816D01*
X102811Y741821D01*
X102975Y741912D01*
X103140Y742002D01*
X103151Y742010D01*
X103163Y742017D01*
X103306Y742140D01*
X103450Y742260D01*
X103458Y742270D01*
X103468Y742279D01*
X103585Y742428D01*
X103702Y742573D01*
X103708Y742585D01*
X103717Y742596D01*
X103802Y742765D01*
X103888Y742931D01*
X103891Y742943D01*
X103897Y742956D01*
X103947Y743137D01*
X103999Y743318D01*
X104000Y743331D01*
X104004Y743344D01*
X104016Y743531D01*
X104032Y743719D01*
X104030Y743732D01*
X104031Y743746D01*
X104007Y743930D01*
X103985Y744119D01*
X103981Y744131D01*
X103979Y744145D01*
X103878Y744461D01*
X103681Y744934D01*
X103681Y747448D01*
X104643Y749771D01*
X106532Y751659D01*
X106543Y751673D01*
X106557Y751685D01*
X106671Y751829D01*
X106787Y751971D01*
X106795Y751987D01*
X106807Y752001D01*
X106890Y752165D01*
X106976Y752327D01*
X106981Y752344D01*
X106989Y752360D01*
X107038Y752537D01*
X107090Y752712D01*
X107092Y752730D01*
X107097Y752747D01*
X107110Y752930D01*
X107127Y753113D01*
X107125Y753131D01*
X107126Y753149D01*
X107103Y753331D01*
X107083Y753514D01*
X107078Y753531D01*
X107076Y753548D01*
X107018Y753722D01*
X106962Y753898D01*
X106953Y753913D01*
X106948Y753930D01*
X106856Y754089D01*
X106767Y754250D01*
X106756Y754263D01*
X106747Y754279D01*
X106532Y754532D01*
X104643Y756421D01*
X103681Y758743D01*
X103681Y761257D01*
X104643Y763579D01*
X105594Y764530D01*
X105611Y764551D01*
X105632Y764569D01*
X105739Y764706D01*
X105849Y764842D01*
X105862Y764866D01*
X105878Y764887D01*
X105956Y765044D01*
X106038Y765198D01*
X106046Y765223D01*
X106058Y765247D01*
X106103Y765417D01*
X106153Y765583D01*
X106155Y765610D01*
X106162Y765636D01*
X106189Y765967D01*
X106189Y810789D01*
X106189Y810794D01*
X106189Y810798D01*
X106169Y810992D01*
X106149Y811190D01*
X106148Y811194D01*
X106148Y811198D01*
X106089Y811386D01*
X106031Y811575D01*
X106029Y811579D01*
X106028Y811583D01*
X105932Y811757D01*
X105839Y811929D01*
X105837Y811932D01*
X105834Y811936D01*
X105706Y812089D01*
X105582Y812238D01*
X105578Y812241D01*
X105575Y812244D01*
X105419Y812369D01*
X105268Y812490D01*
X105264Y812492D01*
X105261Y812495D01*
X105080Y812588D01*
X104911Y812676D01*
X104906Y812677D01*
X104902Y812679D01*
X104712Y812733D01*
X104524Y812787D01*
X104519Y812788D01*
X104515Y812789D01*
X104323Y812804D01*
X104122Y812820D01*
X104118Y812819D01*
X104114Y812820D01*
X103920Y812796D01*
X103723Y812773D01*
X103718Y812772D01*
X103714Y812771D01*
X103529Y812710D01*
X103340Y812648D01*
X103336Y812646D01*
X103332Y812645D01*
X103163Y812548D01*
X102989Y812450D01*
X102986Y812447D01*
X102982Y812445D01*
X102835Y812317D01*
X102685Y812187D01*
X102682Y812184D01*
X102678Y812181D01*
X102558Y812024D01*
X102438Y811869D01*
X102436Y811865D01*
X102433Y811862D01*
X102281Y811566D01*
X101529Y809750D01*
X100309Y807637D01*
X98824Y805701D01*
X97099Y803976D01*
X95163Y802491D01*
X93050Y801271D01*
X90796Y800337D01*
X88863Y799819D01*
X88863Y815968D01*
X88861Y815986D01*
X88863Y816003D01*
X88841Y816186D01*
X88823Y816368D01*
X88818Y816386D01*
X88816Y816403D01*
X88759Y816578D01*
X88705Y816753D01*
X88697Y816769D01*
X88691Y816786D01*
X88601Y816946D01*
X88513Y817107D01*
X88502Y817121D01*
X88493Y817137D01*
X88373Y817276D01*
X88256Y817417D01*
X88242Y817428D01*
X88230Y817441D01*
X88085Y817554D01*
X87942Y817669D01*
X87926Y817677D01*
X87912Y817688D01*
X87747Y817770D01*
X87585Y817855D01*
X87568Y817859D01*
X87551Y817867D01*
X87373Y817915D01*
X87198Y817966D01*
X87180Y817967D01*
X87163Y817972D01*
X86832Y817999D01*
X82768Y817999D01*
X82750Y817997D01*
X82732Y817999D01*
X82550Y817977D01*
X82367Y817959D01*
X82350Y817954D01*
X82333Y817952D01*
X82158Y817895D01*
X81982Y817841D01*
X81967Y817833D01*
X81950Y817827D01*
X81790Y817737D01*
X81628Y817649D01*
X81615Y817638D01*
X81599Y817629D01*
X81460Y817509D01*
X81319Y817392D01*
X81308Y817378D01*
X81295Y817366D01*
X81182Y817221D01*
X81067Y817078D01*
X81059Y817062D01*
X81048Y817048D01*
X80966Y816883D01*
X80881Y816720D01*
X80876Y816703D01*
X80868Y816687D01*
X80821Y816509D01*
X80770Y816334D01*
X80768Y816316D01*
X80764Y816299D01*
X80737Y815968D01*
X80737Y799819D01*
X78804Y800337D01*
X76550Y801271D01*
X74437Y802491D01*
X72501Y803976D01*
X70776Y805701D01*
X69291Y807637D01*
X68071Y809750D01*
X67719Y810601D01*
X67717Y810605D01*
X67715Y810609D01*
X67621Y810782D01*
X67528Y810956D01*
X67526Y810959D01*
X67523Y810963D01*
X67399Y811113D01*
X67272Y811266D01*
X67269Y811269D01*
X67266Y811272D01*
X67112Y811396D01*
X66959Y811520D01*
X66955Y811522D01*
X66952Y811525D01*
X66779Y811614D01*
X66603Y811707D01*
X66598Y811708D01*
X66595Y811710D01*
X66409Y811764D01*
X66217Y811820D01*
X66212Y811820D01*
X66208Y811821D01*
X66011Y811838D01*
X65815Y811854D01*
X65811Y811854D01*
X65806Y811854D01*
X65611Y811831D01*
X65415Y811809D01*
X65411Y811808D01*
X65407Y811807D01*
X65220Y811747D01*
X65032Y811686D01*
X65028Y811684D01*
X65024Y811683D01*
X64851Y811585D01*
X64681Y811490D01*
X64677Y811487D01*
X64673Y811485D01*
X64523Y811355D01*
X64375Y811228D01*
X64372Y811224D01*
X64368Y811222D01*
X64249Y811068D01*
X64126Y810911D01*
X64124Y810907D01*
X64122Y810903D01*
X64034Y810728D01*
X63946Y810551D01*
X63944Y810547D01*
X63942Y810543D01*
X63890Y810348D01*
X63839Y810163D01*
X63839Y810159D01*
X63838Y810154D01*
X63811Y809823D01*
X63811Y748422D01*
X55578Y740189D01*
X36420Y740189D01*
X36393Y740187D01*
X36367Y740189D01*
X36193Y740167D01*
X36019Y740149D01*
X35994Y740142D01*
X35967Y740138D01*
X35801Y740083D01*
X35634Y740031D01*
X35611Y740018D01*
X35585Y740010D01*
X35434Y739923D01*
X35280Y739839D01*
X35260Y739822D01*
X35237Y739809D01*
X34984Y739594D01*
X28218Y732828D01*
X28201Y732808D01*
X28180Y732790D01*
X28073Y732652D01*
X27963Y732517D01*
X27950Y732493D01*
X27934Y732472D01*
X27856Y732315D01*
X27774Y732161D01*
X27766Y732136D01*
X27754Y732112D01*
X27709Y731942D01*
X27659Y731775D01*
X27657Y731749D01*
X27650Y731723D01*
X27623Y731392D01*
X27623Y725924D01*
X23202Y721503D01*
X23185Y721483D01*
X23164Y721465D01*
X23057Y721327D01*
X22947Y721192D01*
X22934Y721168D01*
X22918Y721147D01*
X22840Y720990D01*
X22758Y720836D01*
X22750Y720811D01*
X22738Y720787D01*
X22693Y720617D01*
X22643Y720450D01*
X22641Y720424D01*
X22634Y720398D01*
X22607Y720067D01*
X22607Y623694D01*
X22609Y623668D01*
X22607Y623641D01*
X22629Y623467D01*
X22647Y623294D01*
X22654Y623268D01*
X22658Y623242D01*
X22713Y623076D01*
X22765Y622909D01*
X22778Y622885D01*
X22786Y622860D01*
X22873Y622708D01*
X22957Y622555D01*
X22974Y622534D01*
X22987Y622511D01*
X23202Y622258D01*
X42701Y602758D01*
X42767Y602705D01*
X42825Y602644D01*
X42922Y602578D01*
X43013Y602503D01*
X43087Y602464D01*
X43157Y602416D01*
X43265Y602370D01*
X43369Y602315D01*
X43449Y602291D01*
X43527Y602257D01*
X43642Y602233D01*
X43754Y602200D01*
X43839Y602192D01*
X43921Y602175D01*
X44038Y602174D01*
X44155Y602164D01*
X44239Y602173D01*
X44324Y602172D01*
X44439Y602194D01*
X44556Y602207D01*
X44636Y602232D01*
X44719Y602248D01*
X44828Y602293D01*
X44940Y602328D01*
X45013Y602369D01*
X45091Y602401D01*
X45189Y602466D01*
X45292Y602523D01*
X45356Y602578D01*
X45426Y602625D01*
X45509Y602708D01*
X45599Y602784D01*
X45651Y602850D01*
X45711Y602910D01*
X45776Y603008D01*
X45848Y603100D01*
X45887Y603175D01*
X45933Y603245D01*
X45978Y603354D01*
X46031Y603459D01*
X46053Y603540D01*
X46085Y603618D01*
X46107Y603733D01*
X46139Y603846D01*
X46145Y603931D01*
X46161Y604013D01*
X46160Y604131D01*
X46168Y604248D01*
X46158Y604332D01*
X46157Y604416D01*
X46133Y604531D01*
X46118Y604647D01*
X46091Y604727D01*
X46073Y604810D01*
X46017Y604948D01*
X45990Y605029D01*
X45968Y605066D01*
X45947Y605117D01*
X45471Y606053D01*
X45081Y607251D01*
X54282Y607251D01*
X54300Y607252D01*
X54317Y607251D01*
X54500Y607272D01*
X54682Y607291D01*
X54699Y607296D01*
X54717Y607298D01*
X54892Y607355D01*
X55067Y607409D01*
X55083Y607417D01*
X55100Y607423D01*
X55260Y607513D01*
X55421Y607600D01*
X55435Y607612D01*
X55451Y607621D01*
X55590Y607741D01*
X55731Y607858D01*
X55742Y607872D01*
X55755Y607884D01*
X55868Y608029D01*
X55983Y608172D01*
X55991Y608188D01*
X56002Y608202D01*
X56084Y608367D01*
X56168Y608529D01*
X56173Y608546D01*
X56181Y608562D01*
X56229Y608741D01*
X56235Y608761D01*
X56328Y608791D01*
X56504Y608845D01*
X56519Y608853D01*
X56536Y608859D01*
X56696Y608949D01*
X56858Y609037D01*
X56871Y609048D01*
X56887Y609057D01*
X57026Y609177D01*
X57167Y609295D01*
X57178Y609308D01*
X57192Y609320D01*
X57304Y609465D01*
X57419Y609608D01*
X57427Y609624D01*
X57438Y609638D01*
X57520Y609803D01*
X57605Y609966D01*
X57610Y609983D01*
X57618Y609999D01*
X57665Y610177D01*
X57716Y610352D01*
X57718Y610370D01*
X57722Y610387D01*
X57749Y610718D01*
X57749Y619919D01*
X58947Y619529D01*
X60389Y618795D01*
X61699Y617843D01*
X62843Y616699D01*
X63795Y615389D01*
X64529Y613947D01*
X65029Y612408D01*
X65054Y612255D01*
X65064Y612214D01*
X65069Y612172D01*
X65115Y612020D01*
X65156Y611865D01*
X65174Y611827D01*
X65187Y611787D01*
X65263Y611647D01*
X65333Y611504D01*
X65358Y611470D01*
X65379Y611433D01*
X65481Y611310D01*
X65577Y611184D01*
X65609Y611156D01*
X65636Y611124D01*
X65760Y611024D01*
X65880Y610919D01*
X65917Y610898D01*
X65950Y610871D01*
X66091Y610798D01*
X66230Y610719D01*
X66270Y610705D01*
X66307Y610686D01*
X66460Y610642D01*
X66612Y610591D01*
X66654Y610586D01*
X66694Y610574D01*
X66853Y610561D01*
X67011Y610542D01*
X67053Y610545D01*
X67096Y610541D01*
X67254Y610560D01*
X67413Y610572D01*
X67453Y610583D01*
X67495Y610588D01*
X67647Y610638D01*
X67800Y610681D01*
X67838Y610700D01*
X67878Y610713D01*
X68017Y610792D01*
X68159Y610864D01*
X68192Y610890D01*
X68229Y610911D01*
X68349Y611015D01*
X68474Y611114D01*
X68502Y611147D01*
X68534Y611174D01*
X68631Y611300D01*
X68734Y611422D01*
X68754Y611459D01*
X68780Y611492D01*
X68851Y611635D01*
X68928Y611775D01*
X68941Y611815D01*
X68960Y611853D01*
X69001Y612007D01*
X69049Y612159D01*
X69053Y612201D01*
X69064Y612242D01*
X69087Y612516D01*
X69091Y612559D01*
X69091Y612566D01*
X69091Y612572D01*
X69091Y618208D01*
X69089Y618235D01*
X69091Y618261D01*
X69069Y618435D01*
X69051Y618609D01*
X69044Y618634D01*
X69040Y618661D01*
X68985Y618826D01*
X68933Y618994D01*
X68920Y619017D01*
X68912Y619042D01*
X68825Y619194D01*
X68741Y619348D01*
X68724Y619368D01*
X68711Y619391D01*
X68496Y619644D01*
X52961Y635179D01*
X52941Y635196D01*
X52923Y635217D01*
X52785Y635324D01*
X52650Y635434D01*
X52626Y635447D01*
X52605Y635463D01*
X52448Y635541D01*
X52294Y635623D01*
X52269Y635631D01*
X52245Y635643D01*
X52075Y635688D01*
X51908Y635738D01*
X51882Y635740D01*
X51856Y635747D01*
X51525Y635774D01*
X48743Y635774D01*
X46421Y636736D01*
X44643Y638514D01*
X43681Y640836D01*
X43681Y643350D01*
X44643Y645672D01*
X46421Y647450D01*
X48743Y648412D01*
X51257Y648412D01*
X53579Y647450D01*
X55357Y645672D01*
X56319Y643350D01*
X56319Y640568D01*
X56321Y640541D01*
X56319Y640515D01*
X56341Y640341D01*
X56359Y640167D01*
X56366Y640142D01*
X56370Y640115D01*
X56425Y639950D01*
X56477Y639782D01*
X56490Y639759D01*
X56498Y639734D01*
X56585Y639582D01*
X56669Y639428D01*
X56686Y639408D01*
X56699Y639385D01*
X56914Y639132D01*
X74681Y621365D01*
X74681Y571672D01*
X74627Y571571D01*
X74622Y571554D01*
X74614Y571538D01*
X74565Y571361D01*
X74512Y571185D01*
X74511Y571167D01*
X74506Y571150D01*
X74492Y570967D01*
X74476Y570784D01*
X74478Y570766D01*
X74476Y570748D01*
X74499Y570566D01*
X74519Y570384D01*
X74525Y570367D01*
X74527Y570349D01*
X74585Y570175D01*
X74641Y570000D01*
X74649Y569984D01*
X74655Y569967D01*
X74747Y569807D01*
X74835Y569647D01*
X74847Y569634D01*
X74856Y569618D01*
X75034Y569408D01*
X76001Y567075D01*
X76001Y564561D01*
X75039Y562239D01*
X73261Y560461D01*
X70939Y559499D01*
X68754Y559499D01*
X68746Y559498D01*
X68737Y559499D01*
X68545Y559478D01*
X68354Y559459D01*
X68345Y559457D01*
X68336Y559456D01*
X68154Y559398D01*
X67969Y559341D01*
X67961Y559337D01*
X67953Y559334D01*
X67784Y559241D01*
X67615Y559149D01*
X67608Y559144D01*
X67600Y559139D01*
X67452Y559014D01*
X67306Y558892D01*
X67300Y558885D01*
X67293Y558879D01*
X67173Y558727D01*
X67053Y558578D01*
X67049Y558570D01*
X67044Y558563D01*
X66956Y558391D01*
X66868Y558221D01*
X66865Y558212D01*
X66861Y558204D01*
X66809Y558016D01*
X66756Y557834D01*
X66756Y557825D01*
X66753Y557816D01*
X66739Y557621D01*
X66723Y557432D01*
X66725Y557424D01*
X66724Y557415D01*
X66748Y557222D01*
X66770Y557032D01*
X66773Y557024D01*
X66774Y557015D01*
X66836Y556832D01*
X66895Y556650D01*
X66900Y556642D01*
X66902Y556633D01*
X66999Y556466D01*
X67093Y556299D01*
X67099Y556292D01*
X67103Y556285D01*
X67318Y556032D01*
X68997Y554353D01*
X71511Y548284D01*
X71511Y541716D01*
X68997Y535647D01*
X64353Y531003D01*
X58284Y528489D01*
X51716Y528489D01*
X45647Y531003D01*
X41003Y535647D01*
X38489Y541716D01*
X38489Y548284D01*
X41003Y554353D01*
X45647Y558997D01*
X47513Y559770D01*
X48603Y560221D01*
X48607Y560223D01*
X48611Y560225D01*
X48784Y560318D01*
X48958Y560412D01*
X48961Y560414D01*
X48965Y560417D01*
X49114Y560541D01*
X49268Y560668D01*
X49271Y560671D01*
X49275Y560674D01*
X49396Y560825D01*
X49522Y560981D01*
X49524Y560985D01*
X49527Y560988D01*
X49618Y561163D01*
X49709Y561337D01*
X49710Y561341D01*
X49712Y561345D01*
X49767Y561535D01*
X49822Y561724D01*
X49823Y561728D01*
X49824Y561732D01*
X49840Y561930D01*
X49857Y562125D01*
X49856Y562129D01*
X49857Y562134D01*
X49833Y562331D01*
X49812Y562525D01*
X49810Y562529D01*
X49810Y562533D01*
X49749Y562720D01*
X49689Y562908D01*
X49686Y562912D01*
X49685Y562916D01*
X49588Y563089D01*
X49492Y563260D01*
X49489Y563263D01*
X49487Y563267D01*
X49359Y563416D01*
X49230Y563565D01*
X49227Y563568D01*
X49224Y563572D01*
X49069Y563692D01*
X48913Y563814D01*
X48909Y563816D01*
X48906Y563818D01*
X48728Y563907D01*
X48554Y563994D01*
X48549Y563996D01*
X48545Y563998D01*
X48353Y564049D01*
X48165Y564101D01*
X48161Y564101D01*
X48156Y564102D01*
X47826Y564129D01*
X22314Y564129D01*
X22287Y564127D01*
X22261Y564129D01*
X22087Y564107D01*
X21913Y564089D01*
X21888Y564082D01*
X21861Y564078D01*
X21695Y564023D01*
X21528Y563971D01*
X21505Y563958D01*
X21479Y563950D01*
X21328Y563863D01*
X21174Y563779D01*
X21154Y563762D01*
X21131Y563749D01*
X20878Y563534D01*
X17360Y560016D01*
X17343Y559996D01*
X17322Y559978D01*
X17215Y559840D01*
X17105Y559705D01*
X17092Y559681D01*
X17076Y559660D01*
X16998Y559503D01*
X16916Y559349D01*
X16908Y559324D01*
X16896Y559300D01*
X16851Y559130D01*
X16801Y558963D01*
X16799Y558937D01*
X16792Y558911D01*
X16765Y558580D01*
X16765Y479466D01*
X16767Y479439D01*
X16765Y479413D01*
X16787Y479239D01*
X16805Y479065D01*
X16812Y479040D01*
X16816Y479013D01*
X16871Y478847D01*
X16923Y478680D01*
X16936Y478657D01*
X16944Y478631D01*
X17031Y478480D01*
X17115Y478326D01*
X17132Y478306D01*
X17145Y478283D01*
X17360Y478030D01*
X20984Y474406D01*
X21004Y474389D01*
X21022Y474368D01*
X21160Y474261D01*
X21295Y474151D01*
X21319Y474138D01*
X21340Y474122D01*
X21497Y474044D01*
X21651Y473962D01*
X21676Y473954D01*
X21700Y473942D01*
X21870Y473897D01*
X22037Y473847D01*
X22063Y473845D01*
X22089Y473838D01*
X22420Y473811D01*
X97580Y473811D01*
X97607Y473813D01*
X97634Y473811D01*
X97807Y473833D01*
X97981Y473851D01*
X98006Y473858D01*
X98033Y473862D01*
X98199Y473917D01*
X98366Y473969D01*
X98389Y473982D01*
X98415Y473990D01*
X98566Y474077D01*
X98720Y474161D01*
X98740Y474178D01*
X98764Y474191D01*
X99017Y474406D01*
X105594Y480983D01*
X105611Y481004D01*
X105632Y481022D01*
X105739Y481160D01*
X105849Y481295D01*
X105862Y481319D01*
X105878Y481340D01*
X105956Y481497D01*
X106038Y481651D01*
X106044Y481670D01*
X106045Y481672D01*
X106046Y481678D01*
X106058Y481700D01*
X106103Y481870D01*
X106153Y482037D01*
X106154Y482052D01*
X106156Y482059D01*
X106157Y482070D01*
X106162Y482089D01*
X106189Y482420D01*
X106189Y494033D01*
X106187Y494060D01*
X106189Y494087D01*
X106167Y494261D01*
X106149Y494434D01*
X106142Y494459D01*
X106138Y494486D01*
X106083Y494652D01*
X106031Y494819D01*
X106018Y494842D01*
X106010Y494868D01*
X105923Y495019D01*
X105839Y495173D01*
X105822Y495193D01*
X105809Y495217D01*
X105594Y495470D01*
X104643Y496421D01*
X103681Y498743D01*
X103681Y501257D01*
X104643Y503579D01*
X104802Y503738D01*
X104807Y503745D01*
X104814Y503750D01*
X104934Y503900D01*
X105057Y504049D01*
X105061Y504057D01*
X105067Y504064D01*
X105154Y504233D01*
X105245Y504405D01*
X105248Y504414D01*
X105252Y504421D01*
X105305Y504606D01*
X105360Y504791D01*
X105361Y504800D01*
X105363Y504808D01*
X105379Y505000D01*
X105397Y505192D01*
X105396Y505201D01*
X105396Y505210D01*
X105374Y505400D01*
X105353Y505592D01*
X105350Y505601D01*
X105349Y505609D01*
X105289Y505793D01*
X105232Y505976D01*
X105227Y505984D01*
X105225Y505992D01*
X105130Y506160D01*
X105037Y506328D01*
X105031Y506335D01*
X105027Y506343D01*
X104902Y506487D01*
X104776Y506635D01*
X104769Y506641D01*
X104764Y506648D01*
X104613Y506765D01*
X104460Y506885D01*
X104452Y506889D01*
X104445Y506894D01*
X104273Y506980D01*
X104102Y507067D01*
X104093Y507070D01*
X104085Y507074D01*
X103897Y507124D01*
X103714Y507175D01*
X103705Y507176D01*
X103696Y507178D01*
X103365Y507205D01*
X71999Y507205D01*
X71972Y507203D01*
X71946Y507205D01*
X71772Y507183D01*
X71598Y507165D01*
X71573Y507158D01*
X71546Y507154D01*
X71381Y507099D01*
X71213Y507047D01*
X71190Y507034D01*
X71165Y507026D01*
X71013Y506939D01*
X70859Y506855D01*
X70839Y506838D01*
X70816Y506825D01*
X70563Y506610D01*
X64793Y500841D01*
X64779Y500823D01*
X64762Y500809D01*
X64652Y500668D01*
X64538Y500529D01*
X64527Y500509D01*
X64514Y500492D01*
X64433Y500332D01*
X64349Y500173D01*
X64343Y500152D01*
X64333Y500132D01*
X64285Y499959D01*
X64234Y499788D01*
X64232Y499765D01*
X64227Y499744D01*
X64214Y499566D01*
X64198Y499387D01*
X64201Y499364D01*
X64199Y499342D01*
X64222Y499166D01*
X64241Y498986D01*
X64248Y498965D01*
X64251Y498943D01*
X64353Y498627D01*
X65029Y496995D01*
X65029Y493005D01*
X63502Y489319D01*
X60681Y486498D01*
X56995Y484971D01*
X53005Y484971D01*
X49319Y486498D01*
X46498Y489319D01*
X44971Y493005D01*
X44971Y496995D01*
X46498Y500681D01*
X49319Y503502D01*
X52758Y504926D01*
X53005Y505029D01*
X56995Y505029D01*
X58627Y504353D01*
X58648Y504346D01*
X58668Y504336D01*
X58841Y504288D01*
X59012Y504236D01*
X59034Y504234D01*
X59056Y504228D01*
X59236Y504215D01*
X59413Y504198D01*
X59435Y504200D01*
X59458Y504199D01*
X59636Y504221D01*
X59814Y504240D01*
X59835Y504246D01*
X59857Y504249D01*
X60027Y504306D01*
X60198Y504359D01*
X60218Y504370D01*
X60239Y504377D01*
X60394Y504467D01*
X60551Y504553D01*
X60568Y504567D01*
X60588Y504578D01*
X60841Y504793D01*
X68842Y512795D01*
X143017Y512795D01*
X143044Y512797D01*
X143071Y512795D01*
X143245Y512817D01*
X143418Y512835D01*
X143443Y512842D01*
X143470Y512846D01*
X143636Y512901D01*
X143803Y512953D01*
X143826Y512966D01*
X143852Y512974D01*
X144003Y513061D01*
X144157Y513145D01*
X144177Y513162D01*
X144201Y513175D01*
X144454Y513390D01*
X146421Y515357D01*
X148743Y516319D01*
X151257Y516319D01*
X153579Y515357D01*
X155357Y513579D01*
X156319Y511257D01*
X156319Y508743D01*
X155357Y506421D01*
X153579Y504643D01*
X151257Y503681D01*
X148743Y503681D01*
X146421Y504643D01*
X144454Y506610D01*
X144433Y506627D01*
X144415Y506648D01*
X144278Y506755D01*
X144142Y506865D01*
X144118Y506878D01*
X144097Y506894D01*
X143940Y506972D01*
X143786Y507054D01*
X143761Y507062D01*
X143737Y507074D01*
X143567Y507119D01*
X143401Y507169D01*
X143374Y507171D01*
X143348Y507178D01*
X143017Y507205D01*
X116635Y507205D01*
X116626Y507204D01*
X116617Y507205D01*
X116426Y507184D01*
X116234Y507165D01*
X116225Y507163D01*
X116216Y507162D01*
X116032Y507103D01*
X115849Y507047D01*
X115841Y507043D01*
X115833Y507040D01*
X115663Y506947D01*
X115495Y506855D01*
X115488Y506850D01*
X115480Y506845D01*
X115333Y506720D01*
X115186Y506598D01*
X115180Y506591D01*
X115173Y506585D01*
X115054Y506434D01*
X114933Y506284D01*
X114929Y506276D01*
X114924Y506269D01*
X114836Y506096D01*
X114748Y505927D01*
X114746Y505918D01*
X114741Y505910D01*
X114690Y505724D01*
X114637Y505540D01*
X114636Y505531D01*
X114633Y505522D01*
X114619Y505330D01*
X114604Y505138D01*
X114605Y505130D01*
X114604Y505121D01*
X114629Y504926D01*
X114651Y504739D01*
X114653Y504730D01*
X114654Y504721D01*
X114716Y504540D01*
X114775Y504356D01*
X114780Y504348D01*
X114783Y504340D01*
X114878Y504174D01*
X114973Y504005D01*
X114979Y503998D01*
X114984Y503991D01*
X115198Y503738D01*
X115357Y503579D01*
X116319Y501257D01*
X116319Y498743D01*
X115357Y496421D01*
X114406Y495470D01*
X114389Y495449D01*
X114368Y495431D01*
X114261Y495294D01*
X114151Y495158D01*
X114138Y495134D01*
X114122Y495113D01*
X114044Y494956D01*
X113962Y494802D01*
X113954Y494777D01*
X113942Y494753D01*
X113897Y494583D01*
X113847Y494417D01*
X113845Y494390D01*
X113838Y494364D01*
X113811Y494033D01*
X113811Y478422D01*
X110984Y475595D01*
X110983Y475594D01*
X104406Y469017D01*
X104406Y469016D01*
X101578Y466189D01*
X22420Y466189D01*
X22393Y466187D01*
X22367Y466189D01*
X22193Y466167D01*
X22019Y466149D01*
X21994Y466142D01*
X21967Y466138D01*
X21801Y466083D01*
X21634Y466031D01*
X21611Y466018D01*
X21585Y466010D01*
X21434Y465923D01*
X21280Y465839D01*
X21260Y465822D01*
X21237Y465809D01*
X20984Y465594D01*
X17360Y461970D01*
X17343Y461950D01*
X17322Y461932D01*
X17215Y461794D01*
X17105Y461659D01*
X17092Y461635D01*
X17076Y461614D01*
X16998Y461457D01*
X16916Y461303D01*
X16908Y461278D01*
X16896Y461254D01*
X16851Y461084D01*
X16801Y460917D01*
X16799Y460891D01*
X16792Y460865D01*
X16765Y460534D01*
X16765Y420895D01*
X16767Y420868D01*
X16765Y420841D01*
X16787Y420667D01*
X16805Y420494D01*
X16812Y420468D01*
X16816Y420442D01*
X16871Y420276D01*
X16923Y420109D01*
X16936Y420085D01*
X16944Y420060D01*
X17031Y419908D01*
X17115Y419755D01*
X17132Y419734D01*
X17145Y419711D01*
X17360Y419458D01*
X21919Y414899D01*
X21939Y414835D01*
X21943Y414827D01*
X21946Y414819D01*
X22039Y414650D01*
X22131Y414481D01*
X22136Y414474D01*
X22141Y414466D01*
X22266Y414319D01*
X22388Y414172D01*
X22395Y414166D01*
X22401Y414159D01*
X22553Y414039D01*
X22702Y413919D01*
X22710Y413915D01*
X22717Y413910D01*
X22889Y413822D01*
X23059Y413734D01*
X23068Y413731D01*
X23076Y413727D01*
X23262Y413676D01*
X23446Y413623D01*
X23455Y413622D01*
X23464Y413619D01*
X23656Y413605D01*
X23848Y413590D01*
X23856Y413591D01*
X23865Y413590D01*
X24058Y413614D01*
X24247Y413637D01*
X24256Y413639D01*
X24265Y413640D01*
X24448Y413702D01*
X24630Y413761D01*
X24638Y413766D01*
X24646Y413769D01*
X24812Y413864D01*
X24981Y413959D01*
X24988Y413965D01*
X24995Y413970D01*
X25248Y414184D01*
X26421Y415357D01*
X28743Y416319D01*
X31257Y416319D01*
X33579Y415357D01*
X34530Y414406D01*
X34551Y414389D01*
X34569Y414368D01*
X34706Y414261D01*
X34842Y414151D01*
X34866Y414138D01*
X34887Y414122D01*
X35044Y414044D01*
X35198Y413962D01*
X35223Y413954D01*
X35247Y413942D01*
X35417Y413897D01*
X35583Y413847D01*
X35610Y413845D01*
X35636Y413838D01*
X35967Y413811D01*
X43669Y413811D01*
X43682Y413812D01*
X43695Y413811D01*
X43882Y413832D01*
X44069Y413851D01*
X44082Y413855D01*
X44095Y413856D01*
X44274Y413913D01*
X44454Y413969D01*
X44466Y413975D01*
X44479Y413979D01*
X44643Y414071D01*
X44808Y414161D01*
X44818Y414169D01*
X44830Y414176D01*
X44974Y414299D01*
X45118Y414418D01*
X45126Y414429D01*
X45136Y414437D01*
X45252Y414586D01*
X45370Y414732D01*
X45376Y414744D01*
X45384Y414754D01*
X45469Y414923D01*
X45555Y415089D01*
X45559Y415102D01*
X45565Y415114D01*
X45615Y415296D01*
X45667Y415476D01*
X45668Y415490D01*
X45671Y415503D01*
X45684Y415689D01*
X45700Y415878D01*
X45698Y415891D01*
X45699Y415904D01*
X45675Y416090D01*
X45653Y416277D01*
X45649Y416290D01*
X45647Y416303D01*
X45545Y416619D01*
X44971Y418005D01*
X44971Y421995D01*
X46498Y425681D01*
X49319Y428502D01*
X52380Y429770D01*
X52381Y429770D01*
X53005Y430029D01*
X56995Y430029D01*
X60681Y428502D01*
X63502Y425681D01*
X65029Y421995D01*
X65029Y418005D01*
X64455Y416619D01*
X64451Y416606D01*
X64445Y416595D01*
X64393Y416414D01*
X64338Y416234D01*
X64337Y416221D01*
X64333Y416208D01*
X64318Y416019D01*
X64300Y415833D01*
X64301Y415820D01*
X64300Y415806D01*
X64322Y415620D01*
X64342Y415433D01*
X64346Y415420D01*
X64347Y415407D01*
X64405Y415229D01*
X64462Y415048D01*
X64468Y415037D01*
X64472Y415024D01*
X64565Y414860D01*
X64655Y414695D01*
X64663Y414685D01*
X64670Y414673D01*
X64793Y414531D01*
X64914Y414387D01*
X64924Y414379D01*
X64933Y414368D01*
X65081Y414254D01*
X65229Y414136D01*
X65241Y414130D01*
X65251Y414122D01*
X65419Y414038D01*
X65587Y413952D01*
X65600Y413948D01*
X65612Y413942D01*
X65794Y413893D01*
X65974Y413842D01*
X65988Y413841D01*
X66001Y413838D01*
X66331Y413811D01*
X136367Y413811D01*
X136394Y413813D01*
X136421Y413811D01*
X136595Y413833D01*
X136768Y413851D01*
X136793Y413858D01*
X136820Y413862D01*
X136986Y413917D01*
X137153Y413969D01*
X137176Y413982D01*
X137202Y413990D01*
X137353Y414077D01*
X137507Y414161D01*
X137527Y414178D01*
X137551Y414191D01*
X137804Y414406D01*
X138755Y415357D01*
X141077Y416319D01*
X143591Y416319D01*
X145913Y415357D01*
X147691Y413579D01*
X148653Y411257D01*
X148653Y408743D01*
X147691Y406421D01*
X145913Y404643D01*
X143591Y403681D01*
X141077Y403681D01*
X138755Y404643D01*
X137804Y405594D01*
X137783Y405611D01*
X137765Y405632D01*
X137628Y405739D01*
X137492Y405849D01*
X137468Y405862D01*
X137447Y405878D01*
X137290Y405956D01*
X137136Y406038D01*
X137111Y406046D01*
X137087Y406058D01*
X136917Y406103D01*
X136751Y406153D01*
X136724Y406155D01*
X136698Y406162D01*
X136367Y406189D01*
X64475Y406189D01*
X64449Y406187D01*
X64422Y406189D01*
X64248Y406167D01*
X64075Y406149D01*
X64049Y406142D01*
X64023Y406138D01*
X63857Y406083D01*
X63690Y406031D01*
X63666Y406018D01*
X63641Y406010D01*
X63489Y405923D01*
X63336Y405839D01*
X63315Y405822D01*
X63292Y405809D01*
X63039Y405594D01*
X61428Y403983D01*
X61389Y403971D01*
X61385Y403969D01*
X61381Y403968D01*
X61209Y403874D01*
X61035Y403779D01*
X61031Y403777D01*
X61027Y403774D01*
X60876Y403647D01*
X60725Y403522D01*
X60723Y403518D01*
X60719Y403515D01*
X60596Y403361D01*
X60473Y403208D01*
X60471Y403204D01*
X60468Y403201D01*
X60379Y403026D01*
X60288Y402851D01*
X60286Y402846D01*
X60284Y402842D01*
X60231Y402655D01*
X60176Y402464D01*
X60176Y402459D01*
X60175Y402455D01*
X60159Y402258D01*
X60143Y402062D01*
X60144Y402058D01*
X60143Y402054D01*
X60168Y401856D01*
X60190Y401663D01*
X60192Y401658D01*
X60192Y401654D01*
X60253Y401469D01*
X60315Y401280D01*
X60317Y401276D01*
X60319Y401272D01*
X60417Y401100D01*
X60513Y400929D01*
X60516Y400926D01*
X60518Y400922D01*
X60649Y400771D01*
X60776Y400625D01*
X60780Y400622D01*
X60783Y400618D01*
X60939Y400498D01*
X61094Y400378D01*
X61098Y400376D01*
X61102Y400373D01*
X61397Y400221D01*
X64353Y398997D01*
X68997Y394353D01*
X71511Y388284D01*
X71511Y381716D01*
X68997Y375647D01*
X64353Y371003D01*
X58284Y368489D01*
X51716Y368489D01*
X45647Y371003D01*
X41003Y375647D01*
X38489Y381716D01*
X38489Y388284D01*
X41003Y394353D01*
X45647Y398997D01*
X46382Y399301D01*
X48603Y400221D01*
X48607Y400223D01*
X48611Y400225D01*
X48784Y400318D01*
X48958Y400412D01*
X48961Y400414D01*
X48965Y400417D01*
X49113Y400540D01*
X49268Y400668D01*
X49271Y400671D01*
X49275Y400674D01*
X49397Y400827D01*
X49522Y400981D01*
X49524Y400985D01*
X49527Y400988D01*
X49618Y401163D01*
X49709Y401337D01*
X49710Y401341D01*
X49712Y401345D01*
X49767Y401535D01*
X49822Y401724D01*
X49823Y401728D01*
X49824Y401732D01*
X49840Y401930D01*
X49857Y402125D01*
X49856Y402129D01*
X49857Y402134D01*
X49833Y402331D01*
X49812Y402525D01*
X49810Y402529D01*
X49810Y402533D01*
X49749Y402720D01*
X49689Y402908D01*
X49686Y402912D01*
X49685Y402916D01*
X49588Y403089D01*
X49492Y403260D01*
X49489Y403263D01*
X49487Y403267D01*
X49359Y403415D01*
X49230Y403565D01*
X49227Y403568D01*
X49224Y403572D01*
X49071Y403690D01*
X48913Y403814D01*
X48909Y403816D01*
X48906Y403818D01*
X48728Y403907D01*
X48568Y403987D01*
X46961Y405594D01*
X46940Y405611D01*
X46923Y405632D01*
X46785Y405739D01*
X46650Y405849D01*
X46626Y405862D01*
X46605Y405878D01*
X46448Y405956D01*
X46294Y406038D01*
X46268Y406046D01*
X46244Y406058D01*
X46075Y406103D01*
X45908Y406153D01*
X45881Y406155D01*
X45855Y406162D01*
X45525Y406189D01*
X35967Y406189D01*
X35940Y406187D01*
X35913Y406189D01*
X35739Y406167D01*
X35566Y406149D01*
X35541Y406142D01*
X35514Y406138D01*
X35348Y406083D01*
X35181Y406031D01*
X35158Y406018D01*
X35132Y406010D01*
X34981Y405923D01*
X34827Y405839D01*
X34807Y405822D01*
X34783Y405809D01*
X34530Y405594D01*
X33579Y404643D01*
X31257Y403681D01*
X28743Y403681D01*
X26421Y404643D01*
X25248Y405816D01*
X25241Y405821D01*
X25236Y405828D01*
X25086Y405949D01*
X24937Y406071D01*
X24929Y406075D01*
X24922Y406081D01*
X24752Y406169D01*
X24581Y406259D01*
X24572Y406262D01*
X24565Y406266D01*
X24380Y406319D01*
X24195Y406374D01*
X24186Y406375D01*
X24178Y406377D01*
X23987Y406393D01*
X23794Y406411D01*
X23785Y406410D01*
X23776Y406410D01*
X23587Y406388D01*
X23394Y406367D01*
X23385Y406364D01*
X23377Y406363D01*
X23195Y406304D01*
X23010Y406246D01*
X23002Y406241D01*
X22994Y406239D01*
X22827Y406144D01*
X22658Y406051D01*
X22651Y406045D01*
X22643Y406041D01*
X22498Y405916D01*
X22351Y405790D01*
X22345Y405783D01*
X22338Y405778D01*
X22222Y405627D01*
X22101Y405474D01*
X22097Y405466D01*
X22092Y405459D01*
X22006Y405288D01*
X21919Y405116D01*
X21916Y405107D01*
X21912Y405099D01*
X21911Y405093D01*
X17360Y400542D01*
X17343Y400521D01*
X17322Y400504D01*
X17215Y400366D01*
X17105Y400230D01*
X17092Y400207D01*
X17076Y400186D01*
X16998Y400029D01*
X16916Y399875D01*
X16908Y399849D01*
X16896Y399825D01*
X16851Y399656D01*
X16801Y399489D01*
X16799Y399462D01*
X16792Y399436D01*
X16765Y399105D01*
X16765Y196420D01*
X16767Y196393D01*
X16765Y196367D01*
X16787Y196193D01*
X16805Y196019D01*
X16812Y195994D01*
X16816Y195967D01*
X16871Y195801D01*
X16923Y195634D01*
X16936Y195611D01*
X16944Y195585D01*
X17031Y195434D01*
X17115Y195280D01*
X17132Y195260D01*
X17145Y195237D01*
X17360Y194984D01*
X20878Y191466D01*
X20898Y191449D01*
X20916Y191428D01*
X21054Y191321D01*
X21189Y191211D01*
X21213Y191198D01*
X21234Y191182D01*
X21391Y191104D01*
X21545Y191022D01*
X21570Y191014D01*
X21594Y191002D01*
X21764Y190957D01*
X21931Y190907D01*
X21957Y190905D01*
X21983Y190898D01*
X22314Y190871D01*
X61574Y190871D01*
X70039Y182406D01*
X70060Y182389D01*
X70077Y182368D01*
X70215Y182261D01*
X70350Y182151D01*
X70374Y182138D01*
X70395Y182122D01*
X70552Y182044D01*
X70706Y181962D01*
X70732Y181954D01*
X70756Y181942D01*
X70925Y181897D01*
X71092Y181847D01*
X71119Y181845D01*
X71145Y181838D01*
X71475Y181811D01*
X109033Y181811D01*
X109060Y181813D01*
X109087Y181811D01*
X109261Y181833D01*
X109434Y181851D01*
X109459Y181858D01*
X109486Y181862D01*
X109652Y181917D01*
X109819Y181969D01*
X109842Y181982D01*
X109868Y181990D01*
X110019Y182077D01*
X110173Y182161D01*
X110193Y182178D01*
X110217Y182191D01*
X110470Y182406D01*
X111421Y183357D01*
X113743Y184319D01*
X116257Y184319D01*
X118579Y183357D01*
X120357Y181579D01*
X121319Y179257D01*
X121319Y176743D01*
X120357Y174421D01*
X118579Y172643D01*
X116257Y171681D01*
X113743Y171681D01*
X111421Y172643D01*
X110470Y173594D01*
X110449Y173611D01*
X110431Y173632D01*
X110294Y173739D01*
X110158Y173849D01*
X110134Y173862D01*
X110113Y173878D01*
X109956Y173956D01*
X109802Y174038D01*
X109777Y174046D01*
X109753Y174058D01*
X109583Y174103D01*
X109417Y174153D01*
X109390Y174155D01*
X109364Y174162D01*
X109033Y174189D01*
X66876Y174189D01*
X66854Y174187D01*
X66832Y174189D01*
X66654Y174167D01*
X66476Y174149D01*
X66455Y174143D01*
X66432Y174140D01*
X66262Y174084D01*
X66091Y174031D01*
X66071Y174021D01*
X66050Y174014D01*
X65894Y173925D01*
X65737Y173839D01*
X65720Y173825D01*
X65700Y173814D01*
X65565Y173696D01*
X65428Y173582D01*
X65414Y173564D01*
X65397Y173550D01*
X65287Y173407D01*
X65175Y173268D01*
X65165Y173248D01*
X65151Y173231D01*
X65000Y172935D01*
X63502Y169319D01*
X60681Y166498D01*
X56995Y164971D01*
X53005Y164971D01*
X49319Y166498D01*
X46498Y169319D01*
X44971Y173005D01*
X44971Y176995D01*
X46399Y180441D01*
X46403Y180454D01*
X46409Y180465D01*
X46460Y180645D01*
X46515Y180826D01*
X46516Y180839D01*
X46520Y180852D01*
X46535Y181039D01*
X46553Y181227D01*
X46552Y181240D01*
X46553Y181254D01*
X46531Y181440D01*
X46512Y181627D01*
X46508Y181640D01*
X46506Y181653D01*
X46448Y181833D01*
X46392Y182012D01*
X46385Y182023D01*
X46381Y182036D01*
X46289Y182200D01*
X46198Y182365D01*
X46190Y182375D01*
X46183Y182387D01*
X46061Y182529D01*
X45939Y182673D01*
X45929Y182681D01*
X45920Y182692D01*
X45772Y182806D01*
X45625Y182924D01*
X45613Y182930D01*
X45602Y182938D01*
X45434Y183022D01*
X45266Y183108D01*
X45254Y183112D01*
X45241Y183118D01*
X45059Y183167D01*
X44879Y183218D01*
X44866Y183219D01*
X44853Y183222D01*
X44522Y183249D01*
X18316Y183249D01*
X15488Y186076D01*
X14390Y187175D01*
X14383Y187180D01*
X14378Y187187D01*
X14229Y187307D01*
X14079Y187430D01*
X14071Y187434D01*
X14064Y187439D01*
X13894Y187527D01*
X13723Y187618D01*
X13714Y187621D01*
X13707Y187625D01*
X13522Y187678D01*
X13337Y187733D01*
X13328Y187734D01*
X13320Y187736D01*
X13129Y187752D01*
X12936Y187769D01*
X12927Y187768D01*
X12918Y187769D01*
X12729Y187747D01*
X12536Y187726D01*
X12527Y187723D01*
X12519Y187722D01*
X12336Y187663D01*
X12152Y187605D01*
X12144Y187600D01*
X12136Y187597D01*
X11969Y187503D01*
X11800Y187410D01*
X11793Y187404D01*
X11785Y187400D01*
X11640Y187274D01*
X11493Y187149D01*
X11487Y187142D01*
X11480Y187136D01*
X11363Y186985D01*
X11243Y186833D01*
X11239Y186825D01*
X11234Y186818D01*
X11148Y186646D01*
X11061Y186474D01*
X11058Y186466D01*
X11054Y186458D01*
X11005Y186272D01*
X10953Y186086D01*
X10952Y186078D01*
X10950Y186069D01*
X10923Y185738D01*
X10923Y119842D01*
X10925Y119824D01*
X10923Y119806D01*
X10944Y119624D01*
X10963Y119441D01*
X10968Y119424D01*
X10970Y119407D01*
X11027Y119232D01*
X11081Y119056D01*
X11089Y119041D01*
X11095Y119024D01*
X11185Y118864D01*
X11273Y118702D01*
X11284Y118689D01*
X11293Y118673D01*
X11413Y118534D01*
X11530Y118393D01*
X11544Y118382D01*
X11556Y118368D01*
X11701Y118256D01*
X11844Y118141D01*
X11860Y118133D01*
X11874Y118122D01*
X12039Y118040D01*
X12201Y117955D01*
X12218Y117950D01*
X12234Y117942D01*
X12413Y117895D01*
X12588Y117844D01*
X12606Y117842D01*
X12623Y117838D01*
X12954Y117811D01*
X48032Y117811D01*
X48199Y117827D01*
X48367Y117839D01*
X48399Y117847D01*
X48432Y117851D01*
X48593Y117900D01*
X48755Y117944D01*
X48785Y117959D01*
X48817Y117969D01*
X48965Y118049D01*
X49116Y118124D01*
X49142Y118145D01*
X49171Y118161D01*
X49300Y118268D01*
X49433Y118372D01*
X49455Y118397D01*
X49480Y118418D01*
X49586Y118550D01*
X49696Y118677D01*
X49712Y118706D01*
X49733Y118732D01*
X49810Y118881D01*
X49893Y119028D01*
X49903Y119060D01*
X49918Y119089D01*
X49965Y119251D01*
X50017Y119411D01*
X50020Y119444D01*
X50030Y119476D01*
X50043Y119644D01*
X50063Y119811D01*
X50060Y119844D01*
X50062Y119878D01*
X50043Y120045D01*
X50029Y120212D01*
X50019Y120244D01*
X50016Y120277D01*
X49963Y120437D01*
X49916Y120599D01*
X49901Y120628D01*
X49891Y120660D01*
X49808Y120807D01*
X49730Y120956D01*
X49709Y120982D01*
X49693Y121011D01*
X49583Y121138D01*
X49477Y121269D01*
X49449Y121293D01*
X49430Y121315D01*
X49361Y121368D01*
X49225Y121485D01*
X48301Y122157D01*
X47157Y123301D01*
X46205Y124611D01*
X45471Y126053D01*
X45081Y127251D01*
X54282Y127251D01*
X54300Y127252D01*
X54317Y127251D01*
X54500Y127272D01*
X54682Y127291D01*
X54699Y127296D01*
X54717Y127298D01*
X54892Y127355D01*
X54992Y127386D01*
X54999Y127382D01*
X55177Y127334D01*
X55352Y127284D01*
X55370Y127282D01*
X55387Y127278D01*
X55718Y127251D01*
X64919Y127251D01*
X64529Y126053D01*
X63795Y124611D01*
X62843Y123301D01*
X61699Y122157D01*
X60775Y121485D01*
X60649Y121373D01*
X60520Y121266D01*
X60499Y121240D01*
X60474Y121218D01*
X60373Y121083D01*
X60267Y120952D01*
X60252Y120922D01*
X60232Y120896D01*
X60159Y120744D01*
X60082Y120595D01*
X60073Y120563D01*
X60058Y120533D01*
X60017Y120370D01*
X59970Y120208D01*
X59968Y120174D01*
X59960Y120142D01*
X59951Y119974D01*
X59938Y119806D01*
X59941Y119773D01*
X59940Y119740D01*
X59965Y119574D01*
X59984Y119407D01*
X59995Y119375D01*
X60000Y119342D01*
X60057Y119184D01*
X60109Y119024D01*
X60126Y118995D01*
X60137Y118963D01*
X60224Y118820D01*
X60307Y118673D01*
X60329Y118648D01*
X60346Y118619D01*
X60460Y118496D01*
X60570Y118368D01*
X60597Y118348D01*
X60619Y118324D01*
X60756Y118225D01*
X60888Y118122D01*
X60918Y118107D01*
X60945Y118087D01*
X61098Y118017D01*
X61249Y117942D01*
X61281Y117934D01*
X61311Y117920D01*
X61475Y117882D01*
X61638Y117838D01*
X61675Y117835D01*
X61703Y117828D01*
X61790Y117825D01*
X61968Y117811D01*
X99578Y117811D01*
X122984Y94406D01*
X123004Y94389D01*
X123022Y94368D01*
X123160Y94261D01*
X123295Y94151D01*
X123319Y94138D01*
X123340Y94122D01*
X123497Y94044D01*
X123651Y93962D01*
X123676Y93954D01*
X123700Y93942D01*
X123870Y93897D01*
X124037Y93847D01*
X124063Y93845D01*
X124089Y93838D01*
X124420Y93811D01*
X134033Y93811D01*
X134060Y93813D01*
X134087Y93811D01*
X134261Y93833D01*
X134434Y93851D01*
X134459Y93858D01*
X134486Y93862D01*
X134652Y93917D01*
X134819Y93969D01*
X134842Y93982D01*
X134868Y93990D01*
X135019Y94077D01*
X135173Y94161D01*
X135193Y94178D01*
X135217Y94191D01*
X135470Y94406D01*
X136421Y95357D01*
X138743Y96319D01*
X141257Y96319D01*
X143579Y95357D01*
X145357Y93579D01*
X146319Y91257D01*
X146319Y88743D01*
X145357Y86421D01*
X143579Y84643D01*
X141257Y83681D01*
X138743Y83681D01*
X136421Y84643D01*
X135470Y85594D01*
X135449Y85611D01*
X135431Y85632D01*
X135294Y85739D01*
X135158Y85849D01*
X135134Y85862D01*
X135113Y85878D01*
X134956Y85956D01*
X134802Y86038D01*
X134777Y86046D01*
X134753Y86058D01*
X134583Y86103D01*
X134417Y86153D01*
X134390Y86155D01*
X134364Y86162D01*
X134033Y86189D01*
X120422Y86189D01*
X97016Y109594D01*
X96996Y109611D01*
X96978Y109632D01*
X96840Y109739D01*
X96705Y109849D01*
X96681Y109862D01*
X96660Y109878D01*
X96503Y109956D01*
X96349Y110038D01*
X96324Y110046D01*
X96300Y110058D01*
X96130Y110103D01*
X95963Y110153D01*
X95937Y110155D01*
X95911Y110162D01*
X95580Y110189D01*
X63897Y110189D01*
X63889Y110188D01*
X63880Y110189D01*
X63688Y110168D01*
X63497Y110149D01*
X63488Y110147D01*
X63479Y110146D01*
X63297Y110088D01*
X63112Y110031D01*
X63104Y110027D01*
X63095Y110024D01*
X62927Y109931D01*
X62758Y109839D01*
X62751Y109834D01*
X62743Y109829D01*
X62595Y109704D01*
X62449Y109582D01*
X62443Y109575D01*
X62436Y109569D01*
X62317Y109418D01*
X62196Y109268D01*
X62192Y109260D01*
X62187Y109253D01*
X62100Y109082D01*
X62011Y108911D01*
X62008Y108902D01*
X62004Y108894D01*
X61952Y108708D01*
X61899Y108524D01*
X61899Y108515D01*
X61896Y108506D01*
X61882Y108314D01*
X61866Y108122D01*
X61867Y108114D01*
X61867Y108105D01*
X61891Y107912D01*
X61913Y107723D01*
X61916Y107714D01*
X61917Y107705D01*
X61979Y107522D01*
X62038Y107340D01*
X62043Y107332D01*
X62045Y107324D01*
X62141Y107158D01*
X62236Y106989D01*
X62242Y106982D01*
X62246Y106975D01*
X62461Y106722D01*
X63502Y105681D01*
X65029Y101995D01*
X65029Y98005D01*
X63502Y94319D01*
X60681Y91498D01*
X56995Y89971D01*
X53005Y89971D01*
X49319Y91498D01*
X46498Y94319D01*
X44971Y98005D01*
X44971Y101995D01*
X46498Y105681D01*
X47539Y106722D01*
X47545Y106729D01*
X47551Y106734D01*
X47672Y106885D01*
X47794Y107033D01*
X47798Y107041D01*
X47804Y107048D01*
X47892Y107218D01*
X47983Y107389D01*
X47985Y107398D01*
X47989Y107405D01*
X48042Y107590D01*
X48097Y107775D01*
X48098Y107784D01*
X48101Y107792D01*
X48116Y107983D01*
X48134Y108176D01*
X48133Y108185D01*
X48134Y108194D01*
X48111Y108383D01*
X48090Y108576D01*
X48088Y108585D01*
X48087Y108593D01*
X48027Y108775D01*
X47969Y108960D01*
X47965Y108968D01*
X47962Y108976D01*
X47868Y109143D01*
X47774Y109312D01*
X47768Y109319D01*
X47764Y109327D01*
X47639Y109472D01*
X47514Y109619D01*
X47507Y109625D01*
X47501Y109632D01*
X47350Y109748D01*
X47198Y109869D01*
X47190Y109873D01*
X47183Y109878D01*
X47012Y109963D01*
X46839Y110051D01*
X46830Y110054D01*
X46822Y110058D01*
X46637Y110107D01*
X46451Y110159D01*
X46442Y110160D01*
X46433Y110162D01*
X46103Y110189D01*
X8646Y110189D01*
X8548Y110287D01*
X8541Y110292D01*
X8536Y110299D01*
X8387Y110419D01*
X8237Y110542D01*
X8229Y110546D01*
X8222Y110551D01*
X8053Y110639D01*
X7881Y110730D01*
X7872Y110733D01*
X7865Y110737D01*
X7681Y110790D01*
X7495Y110845D01*
X7486Y110846D01*
X7478Y110848D01*
X7287Y110864D01*
X7094Y110881D01*
X7085Y110880D01*
X7076Y110881D01*
X6887Y110859D01*
X6694Y110838D01*
X6685Y110835D01*
X6677Y110834D01*
X6494Y110775D01*
X6310Y110717D01*
X6302Y110712D01*
X6294Y110709D01*
X6125Y110614D01*
X5958Y110522D01*
X5951Y110516D01*
X5943Y110512D01*
X5798Y110386D01*
X5651Y110261D01*
X5645Y110254D01*
X5638Y110248D01*
X5521Y110096D01*
X5401Y109945D01*
X5397Y109937D01*
X5392Y109930D01*
X5305Y109757D01*
X5219Y109586D01*
X5216Y109578D01*
X5212Y109570D01*
X5162Y109381D01*
X5111Y109199D01*
X5110Y109190D01*
X5108Y109181D01*
X5081Y108850D01*
X5081Y7112D01*
X5083Y7094D01*
X5081Y7076D01*
X5102Y6894D01*
X5121Y6711D01*
X5126Y6694D01*
X5128Y6677D01*
X5185Y6502D01*
X5239Y6326D01*
X5247Y6311D01*
X5253Y6294D01*
X5343Y6134D01*
X5431Y5972D01*
X5442Y5959D01*
X5451Y5943D01*
X5571Y5804D01*
X5688Y5663D01*
X5702Y5652D01*
X5714Y5638D01*
X5859Y5526D01*
X6002Y5411D01*
X6018Y5403D01*
X6032Y5392D01*
X6197Y5310D01*
X6359Y5225D01*
X6376Y5220D01*
X6392Y5212D01*
X6571Y5165D01*
X6746Y5114D01*
X6764Y5112D01*
X6781Y5108D01*
X7112Y5081D01*
X45833Y5081D01*
X45841Y5082D01*
G37*
G36*
X7156Y753344D02*
X7156Y753344D01*
X7165Y753343D01*
X7358Y753368D01*
X7547Y753390D01*
X7556Y753392D01*
X7565Y753394D01*
X7748Y753455D01*
X7930Y753515D01*
X7938Y753519D01*
X7946Y753522D01*
X8113Y753618D01*
X8281Y753712D01*
X8288Y753718D01*
X8295Y753723D01*
X8548Y753937D01*
X18422Y763811D01*
X44033Y763811D01*
X44060Y763813D01*
X44087Y763811D01*
X44261Y763833D01*
X44434Y763851D01*
X44459Y763858D01*
X44486Y763862D01*
X44652Y763917D01*
X44819Y763969D01*
X44842Y763982D01*
X44868Y763990D01*
X45019Y764077D01*
X45173Y764161D01*
X45193Y764178D01*
X45217Y764191D01*
X45470Y764406D01*
X46421Y765357D01*
X48743Y766319D01*
X51257Y766319D01*
X53381Y765439D01*
X53394Y765435D01*
X53405Y765429D01*
X53586Y765377D01*
X53766Y765323D01*
X53779Y765321D01*
X53792Y765318D01*
X53981Y765302D01*
X54167Y765284D01*
X54180Y765286D01*
X54194Y765285D01*
X54380Y765307D01*
X54567Y765326D01*
X54580Y765330D01*
X54593Y765332D01*
X54771Y765390D01*
X54952Y765446D01*
X54963Y765452D01*
X54976Y765456D01*
X55140Y765549D01*
X55305Y765639D01*
X55315Y765648D01*
X55327Y765654D01*
X55469Y765777D01*
X55613Y765898D01*
X55621Y765909D01*
X55632Y765917D01*
X55746Y766065D01*
X55864Y766213D01*
X55870Y766225D01*
X55878Y766236D01*
X55962Y766403D01*
X56048Y766571D01*
X56052Y766584D01*
X56058Y766596D01*
X56107Y766779D01*
X56158Y766959D01*
X56159Y766972D01*
X56162Y766985D01*
X56189Y767316D01*
X56189Y834534D01*
X56188Y834543D01*
X56189Y834552D01*
X56168Y834746D01*
X56149Y834935D01*
X56147Y834943D01*
X56146Y834952D01*
X56088Y835136D01*
X56031Y835320D01*
X56027Y835328D01*
X56024Y835336D01*
X55931Y835505D01*
X55839Y835674D01*
X55834Y835681D01*
X55829Y835689D01*
X55705Y835835D01*
X55582Y835983D01*
X55575Y835989D01*
X55569Y835996D01*
X55420Y836113D01*
X55268Y836236D01*
X55260Y836240D01*
X55253Y836245D01*
X55080Y836333D01*
X54911Y836421D01*
X54902Y836423D01*
X54894Y836428D01*
X54708Y836479D01*
X54524Y836532D01*
X54515Y836533D01*
X54506Y836536D01*
X54313Y836550D01*
X54122Y836565D01*
X54114Y836564D01*
X54105Y836565D01*
X53912Y836541D01*
X53723Y836518D01*
X53714Y836516D01*
X53705Y836515D01*
X53522Y836453D01*
X53340Y836394D01*
X53332Y836389D01*
X53324Y836386D01*
X53157Y836290D01*
X52989Y836196D01*
X52982Y836190D01*
X52975Y836185D01*
X52722Y835971D01*
X46698Y829947D01*
X45239Y829947D01*
X45239Y839092D01*
X45237Y839110D01*
X45239Y839127D01*
X45218Y839310D01*
X45199Y839492D01*
X45194Y839509D01*
X45192Y839527D01*
X45167Y839605D01*
X45206Y839742D01*
X45208Y839760D01*
X45212Y839777D01*
X45239Y840108D01*
X45239Y849253D01*
X46698Y849253D01*
X52353Y843598D01*
X52353Y842646D01*
X52354Y842637D01*
X52353Y842628D01*
X52374Y842436D01*
X52393Y842245D01*
X52395Y842237D01*
X52396Y842228D01*
X52454Y842045D01*
X52511Y841860D01*
X52515Y841852D01*
X52518Y841844D01*
X52611Y841675D01*
X52703Y841506D01*
X52708Y841499D01*
X52713Y841492D01*
X52837Y841345D01*
X52960Y841197D01*
X52967Y841191D01*
X52973Y841185D01*
X53124Y841066D01*
X53274Y840945D01*
X53282Y840940D01*
X53289Y840935D01*
X53462Y840847D01*
X53631Y840759D01*
X53640Y840757D01*
X53648Y840753D01*
X53834Y840701D01*
X54018Y840648D01*
X54027Y840647D01*
X54036Y840645D01*
X54229Y840630D01*
X54420Y840615D01*
X54428Y840616D01*
X54437Y840615D01*
X54630Y840640D01*
X54819Y840662D01*
X54828Y840664D01*
X54837Y840666D01*
X55020Y840727D01*
X55202Y840787D01*
X55210Y840791D01*
X55218Y840794D01*
X55385Y840890D01*
X55553Y840984D01*
X55560Y840990D01*
X55567Y840995D01*
X55820Y841209D01*
X59016Y844406D01*
X65594Y850983D01*
X65611Y851004D01*
X65632Y851022D01*
X65739Y851160D01*
X65849Y851295D01*
X65862Y851319D01*
X65878Y851340D01*
X65956Y851496D01*
X66038Y851651D01*
X66046Y851676D01*
X66058Y851700D01*
X66103Y851870D01*
X66153Y852037D01*
X66155Y852063D01*
X66162Y852089D01*
X66189Y852420D01*
X66189Y901578D01*
X69016Y904405D01*
X69017Y904406D01*
X123086Y958476D01*
X123103Y958496D01*
X123124Y958514D01*
X123231Y958652D01*
X123341Y958787D01*
X123354Y958811D01*
X123370Y958832D01*
X123448Y958989D01*
X123530Y959143D01*
X123538Y959168D01*
X123550Y959192D01*
X123595Y959362D01*
X123645Y959529D01*
X123647Y959555D01*
X123654Y959581D01*
X123681Y959912D01*
X123681Y961257D01*
X124643Y963579D01*
X126421Y965357D01*
X128743Y966319D01*
X131257Y966319D01*
X133579Y965357D01*
X135357Y963579D01*
X136319Y961257D01*
X136319Y958743D01*
X135357Y956421D01*
X133579Y954643D01*
X131257Y953681D01*
X129912Y953681D01*
X129885Y953679D01*
X129859Y953681D01*
X129685Y953659D01*
X129511Y953641D01*
X129486Y953634D01*
X129459Y953630D01*
X129293Y953575D01*
X129126Y953523D01*
X129103Y953510D01*
X129077Y953502D01*
X128926Y953415D01*
X128772Y953331D01*
X128752Y953314D01*
X128729Y953301D01*
X128476Y953086D01*
X74406Y899017D01*
X74389Y898996D01*
X74368Y898978D01*
X74261Y898840D01*
X74151Y898705D01*
X74138Y898681D01*
X74122Y898660D01*
X74044Y898503D01*
X73962Y898349D01*
X73954Y898324D01*
X73942Y898300D01*
X73897Y898130D01*
X73847Y897963D01*
X73845Y897937D01*
X73838Y897911D01*
X73811Y897580D01*
X73811Y848422D01*
X70984Y845595D01*
X70983Y845594D01*
X64406Y839016D01*
X64389Y838996D01*
X64368Y838978D01*
X64261Y838840D01*
X64151Y838705D01*
X64138Y838681D01*
X64122Y838660D01*
X64044Y838503D01*
X63962Y838349D01*
X63954Y838324D01*
X63942Y838300D01*
X63897Y838130D01*
X63847Y837963D01*
X63845Y837937D01*
X63838Y837911D01*
X63811Y837580D01*
X63811Y826177D01*
X63811Y826172D01*
X63811Y826168D01*
X63831Y825970D01*
X63851Y825776D01*
X63852Y825772D01*
X63852Y825767D01*
X63912Y825577D01*
X63969Y825391D01*
X63971Y825387D01*
X63972Y825383D01*
X64066Y825211D01*
X64161Y825037D01*
X64163Y825034D01*
X64166Y825030D01*
X64294Y824877D01*
X64418Y824728D01*
X64422Y824725D01*
X64425Y824722D01*
X64582Y824596D01*
X64732Y824475D01*
X64736Y824473D01*
X64740Y824471D01*
X64917Y824380D01*
X65089Y824290D01*
X65094Y824289D01*
X65098Y824287D01*
X65290Y824232D01*
X65476Y824179D01*
X65481Y824178D01*
X65485Y824177D01*
X65681Y824162D01*
X65878Y824146D01*
X65882Y824146D01*
X65886Y824146D01*
X66081Y824169D01*
X66277Y824193D01*
X66282Y824194D01*
X66286Y824195D01*
X66472Y824256D01*
X66660Y824317D01*
X66664Y824320D01*
X66668Y824321D01*
X66837Y824417D01*
X67011Y824515D01*
X67014Y824518D01*
X67018Y824520D01*
X67167Y824650D01*
X67315Y824778D01*
X67318Y824782D01*
X67322Y824785D01*
X67443Y824943D01*
X67562Y825097D01*
X67564Y825101D01*
X67567Y825104D01*
X67719Y825399D01*
X68071Y826250D01*
X69291Y828363D01*
X70776Y830299D01*
X72501Y832024D01*
X74437Y833509D01*
X76550Y834729D01*
X78804Y835663D01*
X80737Y836181D01*
X80737Y820032D01*
X80739Y820014D01*
X80737Y819997D01*
X80758Y819814D01*
X80777Y819632D01*
X80782Y819614D01*
X80784Y819597D01*
X80841Y819422D01*
X80895Y819247D01*
X80903Y819231D01*
X80909Y819214D01*
X80999Y819054D01*
X81087Y818893D01*
X81098Y818879D01*
X81107Y818863D01*
X81227Y818724D01*
X81344Y818583D01*
X81358Y818572D01*
X81370Y818559D01*
X81515Y818446D01*
X81658Y818331D01*
X81674Y818323D01*
X81688Y818312D01*
X81853Y818230D01*
X82015Y818145D01*
X82032Y818141D01*
X82049Y818133D01*
X82227Y818085D01*
X82402Y818034D01*
X82420Y818033D01*
X82437Y818028D01*
X82768Y818001D01*
X86832Y818001D01*
X86850Y818003D01*
X86867Y818001D01*
X87050Y818023D01*
X87233Y818041D01*
X87250Y818046D01*
X87267Y818048D01*
X87442Y818105D01*
X87617Y818159D01*
X87633Y818167D01*
X87650Y818173D01*
X87810Y818263D01*
X87972Y818351D01*
X87985Y818362D01*
X88001Y818371D01*
X88140Y818491D01*
X88281Y818608D01*
X88292Y818622D01*
X88305Y818634D01*
X88418Y818779D01*
X88533Y818922D01*
X88541Y818938D01*
X88552Y818952D01*
X88634Y819117D01*
X88719Y819280D01*
X88724Y819297D01*
X88732Y819313D01*
X88779Y819491D01*
X88830Y819666D01*
X88831Y819684D01*
X88836Y819701D01*
X88863Y820032D01*
X88863Y836181D01*
X90796Y835663D01*
X93050Y834729D01*
X95163Y833509D01*
X97099Y832024D01*
X98824Y830299D01*
X100309Y828363D01*
X101529Y826250D01*
X102281Y824434D01*
X102283Y824430D01*
X102285Y824425D01*
X102378Y824253D01*
X102472Y824079D01*
X102474Y824075D01*
X102477Y824071D01*
X102601Y823922D01*
X102728Y823768D01*
X102731Y823766D01*
X102734Y823762D01*
X102887Y823639D01*
X103041Y823515D01*
X103045Y823513D01*
X103048Y823510D01*
X103222Y823420D01*
X103397Y823328D01*
X103401Y823326D01*
X103405Y823324D01*
X103593Y823270D01*
X103784Y823214D01*
X103788Y823214D01*
X103792Y823213D01*
X103990Y823197D01*
X104185Y823180D01*
X104189Y823180D01*
X104194Y823180D01*
X104388Y823203D01*
X104585Y823225D01*
X104589Y823226D01*
X104593Y823227D01*
X104779Y823287D01*
X104968Y823348D01*
X104972Y823350D01*
X104976Y823352D01*
X105148Y823448D01*
X105320Y823545D01*
X105323Y823547D01*
X105327Y823550D01*
X105475Y823678D01*
X105625Y823806D01*
X105628Y823810D01*
X105632Y823813D01*
X105752Y823967D01*
X105874Y824123D01*
X105876Y824127D01*
X105878Y824131D01*
X105967Y824309D01*
X106054Y824483D01*
X106056Y824487D01*
X106058Y824491D01*
X106109Y824683D01*
X106161Y824871D01*
X106161Y824876D01*
X106162Y824880D01*
X106189Y825211D01*
X106189Y851033D01*
X109981Y854826D01*
X109998Y854846D01*
X110019Y854864D01*
X110126Y855002D01*
X110236Y855137D01*
X110249Y855161D01*
X110265Y855182D01*
X110343Y855339D01*
X110425Y855493D01*
X110433Y855518D01*
X110445Y855542D01*
X110490Y855712D01*
X110540Y855879D01*
X110542Y855905D01*
X110549Y855931D01*
X110576Y856262D01*
X110576Y857607D01*
X111538Y859929D01*
X113316Y861707D01*
X115638Y862669D01*
X118152Y862669D01*
X120474Y861707D01*
X122252Y859929D01*
X123214Y857607D01*
X123214Y855093D01*
X122252Y852771D01*
X120474Y850993D01*
X118152Y850031D01*
X116807Y850031D01*
X116780Y850029D01*
X116754Y850031D01*
X116580Y850009D01*
X116406Y849991D01*
X116381Y849984D01*
X116354Y849980D01*
X116188Y849925D01*
X116021Y849873D01*
X115998Y849860D01*
X115972Y849852D01*
X115821Y849765D01*
X115667Y849681D01*
X115647Y849664D01*
X115624Y849651D01*
X115371Y849436D01*
X114406Y848471D01*
X114389Y848451D01*
X114368Y848433D01*
X114261Y848295D01*
X114151Y848160D01*
X114138Y848136D01*
X114122Y848115D01*
X114044Y847958D01*
X113962Y847804D01*
X113954Y847779D01*
X113942Y847755D01*
X113897Y847585D01*
X113847Y847418D01*
X113845Y847392D01*
X113838Y847366D01*
X113811Y847035D01*
X113811Y816613D01*
X113812Y816600D01*
X113811Y816586D01*
X113832Y816400D01*
X113851Y816212D01*
X113855Y816200D01*
X113856Y816186D01*
X113914Y816007D01*
X113969Y815828D01*
X113975Y815816D01*
X113979Y815803D01*
X114072Y815637D01*
X114161Y815473D01*
X114169Y815463D01*
X114176Y815452D01*
X114298Y815308D01*
X114418Y815164D01*
X114429Y815156D01*
X114437Y815146D01*
X114586Y815029D01*
X114732Y814912D01*
X114744Y814906D01*
X114754Y814897D01*
X114924Y814812D01*
X115089Y814726D01*
X115102Y814723D01*
X115114Y814717D01*
X115297Y814667D01*
X115476Y814615D01*
X115490Y814614D01*
X115503Y814610D01*
X115691Y814597D01*
X115878Y814582D01*
X115891Y814584D01*
X115904Y814583D01*
X116092Y814607D01*
X116277Y814629D01*
X116290Y814633D01*
X116303Y814635D01*
X116619Y814736D01*
X118025Y815319D01*
X120539Y815319D01*
X121673Y814849D01*
X121691Y814844D01*
X121706Y814835D01*
X121882Y814786D01*
X122059Y814732D01*
X122077Y814731D01*
X122094Y814726D01*
X122276Y814712D01*
X122460Y814694D01*
X122477Y814696D01*
X122495Y814695D01*
X122678Y814717D01*
X122860Y814736D01*
X122877Y814741D01*
X122895Y814743D01*
X123069Y814801D01*
X123244Y814856D01*
X123260Y814864D01*
X123277Y814870D01*
X123437Y814961D01*
X123598Y815049D01*
X123611Y815060D01*
X123627Y815069D01*
X123766Y815190D01*
X123906Y815308D01*
X123917Y815322D01*
X123930Y815334D01*
X124042Y815479D01*
X124157Y815623D01*
X124165Y815639D01*
X124176Y815653D01*
X124327Y815948D01*
X125143Y817916D01*
X127584Y820357D01*
X130774Y821679D01*
X134226Y821679D01*
X137416Y820358D01*
X137734Y820040D01*
X137741Y820034D01*
X137746Y820027D01*
X137896Y819907D01*
X138045Y819785D01*
X138053Y819781D01*
X138060Y819775D01*
X138230Y819687D01*
X138401Y819596D01*
X138410Y819594D01*
X138417Y819590D01*
X138601Y819537D01*
X138787Y819481D01*
X138796Y819481D01*
X138804Y819478D01*
X138995Y819462D01*
X139188Y819445D01*
X139197Y819446D01*
X139206Y819445D01*
X139395Y819467D01*
X139588Y819488D01*
X139597Y819491D01*
X139605Y819492D01*
X139788Y819552D01*
X139972Y819610D01*
X139980Y819614D01*
X139988Y819617D01*
X140157Y819712D01*
X140324Y819805D01*
X140331Y819810D01*
X140339Y819815D01*
X140484Y819940D01*
X140631Y820065D01*
X140637Y820072D01*
X140644Y820078D01*
X140761Y820229D01*
X140881Y820381D01*
X140885Y820389D01*
X140890Y820396D01*
X140976Y820569D01*
X141063Y820740D01*
X141066Y820749D01*
X141070Y820757D01*
X141120Y820945D01*
X141171Y821128D01*
X141172Y821137D01*
X141174Y821145D01*
X141201Y821476D01*
X141201Y836524D01*
X141200Y836533D01*
X141201Y836542D01*
X141181Y836731D01*
X141161Y836924D01*
X141159Y836933D01*
X141158Y836942D01*
X141100Y837125D01*
X141043Y837309D01*
X141039Y837317D01*
X141036Y837326D01*
X140943Y837494D01*
X140851Y837663D01*
X140846Y837670D01*
X140841Y837678D01*
X140717Y837825D01*
X140594Y837973D01*
X140587Y837978D01*
X140581Y837985D01*
X140430Y838104D01*
X140280Y838225D01*
X140272Y838229D01*
X140265Y838235D01*
X140092Y838323D01*
X139923Y838410D01*
X139914Y838413D01*
X139906Y838417D01*
X139719Y838469D01*
X139536Y838522D01*
X139527Y838523D01*
X139518Y838525D01*
X139326Y838539D01*
X139134Y838555D01*
X139126Y838554D01*
X139117Y838554D01*
X138925Y838530D01*
X138735Y838508D01*
X138726Y838505D01*
X138717Y838504D01*
X138535Y838443D01*
X138352Y838383D01*
X138344Y838379D01*
X138336Y838376D01*
X138168Y838280D01*
X138001Y838185D01*
X137994Y838179D01*
X137987Y838175D01*
X137734Y837960D01*
X137416Y837642D01*
X134226Y836321D01*
X130774Y836321D01*
X127584Y837643D01*
X125143Y840084D01*
X123821Y843274D01*
X123821Y846726D01*
X125143Y849916D01*
X127584Y852357D01*
X130774Y853679D01*
X134226Y853679D01*
X137416Y852357D01*
X138176Y851598D01*
X138189Y851587D01*
X138201Y851573D01*
X138345Y851459D01*
X138487Y851343D01*
X138503Y851335D01*
X138517Y851324D01*
X138681Y851240D01*
X138843Y851154D01*
X138860Y851149D01*
X138876Y851141D01*
X139053Y851092D01*
X139229Y851040D01*
X139246Y851038D01*
X139264Y851033D01*
X139447Y851020D01*
X139630Y851003D01*
X139647Y851005D01*
X139665Y851004D01*
X139847Y851027D01*
X140030Y851047D01*
X140047Y851052D01*
X140065Y851054D01*
X140238Y851113D01*
X140414Y851168D01*
X140429Y851177D01*
X140446Y851182D01*
X140605Y851274D01*
X140766Y851363D01*
X140780Y851375D01*
X140795Y851383D01*
X141048Y851598D01*
X142800Y853350D01*
X142817Y853371D01*
X142838Y853388D01*
X142944Y853526D01*
X143055Y853662D01*
X143068Y853686D01*
X143084Y853707D01*
X143162Y853863D01*
X143244Y854018D01*
X143252Y854043D01*
X143264Y854067D01*
X143309Y854236D01*
X143359Y854403D01*
X143361Y854430D01*
X143368Y854456D01*
X143395Y854787D01*
X143395Y1012736D01*
X159276Y1028617D01*
X159293Y1028638D01*
X159314Y1028655D01*
X159420Y1028793D01*
X159531Y1028928D01*
X159544Y1028952D01*
X159560Y1028973D01*
X159638Y1029130D01*
X159720Y1029284D01*
X159728Y1029310D01*
X159740Y1029334D01*
X159785Y1029503D01*
X159835Y1029670D01*
X159837Y1029697D01*
X159844Y1029722D01*
X159871Y1030053D01*
X159871Y1034195D01*
X196618Y1070943D01*
X197127Y1071452D01*
X197133Y1071459D01*
X197140Y1071464D01*
X197261Y1071614D01*
X197383Y1071763D01*
X197387Y1071771D01*
X197392Y1071778D01*
X197481Y1071948D01*
X197571Y1072119D01*
X197574Y1072128D01*
X197578Y1072135D01*
X197631Y1072319D01*
X197686Y1072505D01*
X197687Y1072514D01*
X197689Y1072522D01*
X197705Y1072713D01*
X197722Y1072906D01*
X197721Y1072915D01*
X197722Y1072924D01*
X197700Y1073113D01*
X197679Y1073306D01*
X197676Y1073315D01*
X197675Y1073323D01*
X197615Y1073507D01*
X197557Y1073690D01*
X197553Y1073698D01*
X197550Y1073706D01*
X197455Y1073875D01*
X197363Y1074042D01*
X197357Y1074049D01*
X197352Y1074057D01*
X197227Y1074202D01*
X197102Y1074349D01*
X197095Y1074355D01*
X197089Y1074362D01*
X196938Y1074479D01*
X196786Y1074599D01*
X196778Y1074603D01*
X196771Y1074608D01*
X196599Y1074694D01*
X196427Y1074781D01*
X196419Y1074784D01*
X196411Y1074788D01*
X196223Y1074838D01*
X196039Y1074889D01*
X196031Y1074890D01*
X196022Y1074892D01*
X195691Y1074919D01*
X54167Y1074919D01*
X54159Y1074918D01*
X54150Y1074919D01*
X53958Y1074898D01*
X53767Y1074879D01*
X53758Y1074877D01*
X53749Y1074876D01*
X53567Y1074818D01*
X53382Y1074761D01*
X53374Y1074757D01*
X53365Y1074754D01*
X53197Y1074661D01*
X53028Y1074569D01*
X53021Y1074564D01*
X53013Y1074559D01*
X52865Y1074434D01*
X52719Y1074312D01*
X52713Y1074305D01*
X52706Y1074299D01*
X52587Y1074148D01*
X52466Y1073998D01*
X52462Y1073990D01*
X52457Y1073983D01*
X52370Y1073812D01*
X52281Y1073641D01*
X52278Y1073632D01*
X52274Y1073624D01*
X52223Y1073439D01*
X52169Y1073254D01*
X52169Y1073245D01*
X52166Y1073236D01*
X52152Y1073044D01*
X52136Y1072852D01*
X52137Y1072844D01*
X52137Y1072835D01*
X52161Y1072644D01*
X52183Y1072453D01*
X52186Y1072444D01*
X52187Y1072435D01*
X52248Y1072254D01*
X52308Y1072070D01*
X52313Y1072062D01*
X52315Y1072054D01*
X52411Y1071888D01*
X52506Y1071719D01*
X52512Y1071712D01*
X52516Y1071705D01*
X52731Y1071452D01*
X53502Y1070681D01*
X55029Y1066995D01*
X55029Y1063005D01*
X53502Y1059319D01*
X50681Y1056498D01*
X46995Y1054971D01*
X43005Y1054971D01*
X39319Y1056498D01*
X36498Y1059319D01*
X34971Y1063005D01*
X34971Y1066995D01*
X36498Y1070681D01*
X37269Y1071452D01*
X37275Y1071459D01*
X37281Y1071464D01*
X37401Y1071613D01*
X37524Y1071763D01*
X37528Y1071771D01*
X37534Y1071778D01*
X37622Y1071948D01*
X37713Y1072119D01*
X37715Y1072128D01*
X37719Y1072135D01*
X37772Y1072320D01*
X37827Y1072505D01*
X37828Y1072514D01*
X37831Y1072522D01*
X37846Y1072713D01*
X37864Y1072906D01*
X37863Y1072915D01*
X37864Y1072924D01*
X37841Y1073113D01*
X37820Y1073306D01*
X37818Y1073315D01*
X37817Y1073323D01*
X37757Y1073506D01*
X37699Y1073690D01*
X37695Y1073698D01*
X37692Y1073706D01*
X37598Y1073873D01*
X37504Y1074042D01*
X37498Y1074049D01*
X37494Y1074057D01*
X37369Y1074202D01*
X37244Y1074349D01*
X37237Y1074355D01*
X37231Y1074362D01*
X37079Y1074479D01*
X36928Y1074599D01*
X36920Y1074603D01*
X36913Y1074608D01*
X36741Y1074694D01*
X36569Y1074781D01*
X36560Y1074784D01*
X36552Y1074788D01*
X36367Y1074837D01*
X36181Y1074889D01*
X36172Y1074890D01*
X36163Y1074892D01*
X35833Y1074919D01*
X7112Y1074919D01*
X7094Y1074917D01*
X7076Y1074919D01*
X6894Y1074898D01*
X6711Y1074879D01*
X6694Y1074874D01*
X6677Y1074872D01*
X6502Y1074815D01*
X6326Y1074761D01*
X6311Y1074753D01*
X6294Y1074747D01*
X6134Y1074657D01*
X5972Y1074569D01*
X5959Y1074558D01*
X5943Y1074549D01*
X5804Y1074429D01*
X5663Y1074312D01*
X5652Y1074298D01*
X5638Y1074286D01*
X5526Y1074141D01*
X5411Y1073998D01*
X5403Y1073982D01*
X5392Y1073968D01*
X5310Y1073803D01*
X5225Y1073641D01*
X5220Y1073624D01*
X5212Y1073608D01*
X5165Y1073429D01*
X5114Y1073254D01*
X5112Y1073236D01*
X5108Y1073219D01*
X5081Y1072888D01*
X5081Y921776D01*
X5082Y921768D01*
X5081Y921759D01*
X5102Y921567D01*
X5121Y921376D01*
X5123Y921367D01*
X5124Y921358D01*
X5182Y921174D01*
X5239Y920991D01*
X5243Y920983D01*
X5246Y920974D01*
X5339Y920806D01*
X5431Y920637D01*
X5436Y920630D01*
X5441Y920622D01*
X5565Y920475D01*
X5688Y920328D01*
X5695Y920322D01*
X5701Y920315D01*
X5852Y920196D01*
X6002Y920075D01*
X6010Y920071D01*
X6017Y920066D01*
X6190Y919978D01*
X6359Y919890D01*
X6368Y919887D01*
X6376Y919883D01*
X6562Y919831D01*
X6746Y919778D01*
X6755Y919778D01*
X6764Y919775D01*
X6957Y919761D01*
X7148Y919745D01*
X7156Y919746D01*
X7165Y919746D01*
X7358Y919770D01*
X7547Y919792D01*
X7556Y919795D01*
X7565Y919796D01*
X7748Y919858D01*
X7930Y919917D01*
X7938Y919922D01*
X7946Y919924D01*
X8113Y920021D01*
X8281Y920115D01*
X8288Y920121D01*
X8295Y920125D01*
X8548Y920340D01*
X13407Y925199D01*
X21193Y925199D01*
X26699Y919693D01*
X26699Y911907D01*
X21193Y906401D01*
X13407Y906401D01*
X8548Y911260D01*
X8541Y911266D01*
X8536Y911272D01*
X8386Y911393D01*
X8237Y911515D01*
X8229Y911519D01*
X8222Y911525D01*
X8052Y911613D01*
X7881Y911704D01*
X7872Y911706D01*
X7865Y911710D01*
X7680Y911763D01*
X7495Y911818D01*
X7486Y911819D01*
X7478Y911822D01*
X7286Y911837D01*
X7094Y911855D01*
X7085Y911854D01*
X7076Y911855D01*
X6887Y911832D01*
X6694Y911811D01*
X6685Y911809D01*
X6677Y911808D01*
X6495Y911748D01*
X6310Y911690D01*
X6302Y911686D01*
X6294Y911683D01*
X6125Y911588D01*
X5958Y911495D01*
X5951Y911489D01*
X5943Y911485D01*
X5797Y911359D01*
X5651Y911235D01*
X5645Y911228D01*
X5638Y911222D01*
X5521Y911070D01*
X5401Y910919D01*
X5397Y910911D01*
X5392Y910904D01*
X5306Y910732D01*
X5219Y910560D01*
X5216Y910551D01*
X5212Y910543D01*
X5162Y910357D01*
X5111Y910172D01*
X5110Y910163D01*
X5108Y910154D01*
X5081Y909824D01*
X5081Y896736D01*
X5082Y896727D01*
X5081Y896718D01*
X5102Y896526D01*
X5121Y896335D01*
X5123Y896326D01*
X5124Y896318D01*
X5182Y896135D01*
X5239Y895950D01*
X5243Y895942D01*
X5246Y895934D01*
X5339Y895765D01*
X5431Y895596D01*
X5436Y895589D01*
X5441Y895581D01*
X5565Y895434D01*
X5688Y895287D01*
X5695Y895281D01*
X5701Y895274D01*
X5852Y895155D01*
X6002Y895034D01*
X6010Y895030D01*
X6017Y895025D01*
X6190Y894937D01*
X6359Y894849D01*
X6368Y894847D01*
X6376Y894842D01*
X6562Y894791D01*
X6746Y894738D01*
X6755Y894737D01*
X6764Y894734D01*
X6957Y894720D01*
X7148Y894705D01*
X7156Y894706D01*
X7165Y894705D01*
X7358Y894729D01*
X7547Y894752D01*
X7556Y894754D01*
X7565Y894755D01*
X7748Y894817D01*
X7930Y894876D01*
X7938Y894881D01*
X7946Y894884D01*
X8113Y894980D01*
X8281Y895074D01*
X8288Y895080D01*
X8295Y895085D01*
X8548Y895299D01*
X13302Y900053D01*
X14761Y900053D01*
X14761Y890908D01*
X14762Y890890D01*
X14761Y890873D01*
X14782Y890690D01*
X14801Y890508D01*
X14806Y890491D01*
X14808Y890473D01*
X14833Y890395D01*
X14794Y890258D01*
X14792Y890240D01*
X14788Y890223D01*
X14761Y889892D01*
X14761Y880747D01*
X13302Y880747D01*
X8548Y885501D01*
X8541Y885506D01*
X8536Y885513D01*
X8386Y885634D01*
X8237Y885756D01*
X8229Y885760D01*
X8222Y885766D01*
X8052Y885854D01*
X7881Y885944D01*
X7872Y885947D01*
X7865Y885951D01*
X7680Y886004D01*
X7495Y886059D01*
X7486Y886060D01*
X7478Y886062D01*
X7286Y886078D01*
X7094Y886096D01*
X7085Y886095D01*
X7076Y886095D01*
X6887Y886073D01*
X6694Y886052D01*
X6685Y886049D01*
X6677Y886048D01*
X6495Y885989D01*
X6310Y885931D01*
X6302Y885926D01*
X6294Y885924D01*
X6125Y885829D01*
X5958Y885736D01*
X5951Y885730D01*
X5943Y885726D01*
X5797Y885600D01*
X5651Y885475D01*
X5645Y885468D01*
X5638Y885463D01*
X5521Y885311D01*
X5401Y885159D01*
X5397Y885151D01*
X5392Y885144D01*
X5306Y884972D01*
X5219Y884800D01*
X5216Y884792D01*
X5212Y884784D01*
X5162Y884597D01*
X5111Y884413D01*
X5110Y884404D01*
X5108Y884395D01*
X5081Y884064D01*
X5081Y871336D01*
X5082Y871327D01*
X5081Y871318D01*
X5102Y871126D01*
X5121Y870935D01*
X5123Y870926D01*
X5124Y870918D01*
X5182Y870735D01*
X5239Y870550D01*
X5243Y870542D01*
X5246Y870534D01*
X5339Y870365D01*
X5431Y870196D01*
X5436Y870189D01*
X5441Y870181D01*
X5565Y870034D01*
X5688Y869887D01*
X5695Y869881D01*
X5701Y869874D01*
X5852Y869755D01*
X6002Y869634D01*
X6010Y869630D01*
X6017Y869625D01*
X6190Y869537D01*
X6359Y869449D01*
X6368Y869447D01*
X6376Y869442D01*
X6562Y869391D01*
X6746Y869338D01*
X6755Y869337D01*
X6764Y869334D01*
X6957Y869320D01*
X7148Y869305D01*
X7156Y869306D01*
X7165Y869305D01*
X7358Y869329D01*
X7547Y869352D01*
X7556Y869354D01*
X7565Y869355D01*
X7748Y869417D01*
X7930Y869476D01*
X7938Y869481D01*
X7946Y869484D01*
X8113Y869580D01*
X8281Y869674D01*
X8288Y869680D01*
X8295Y869685D01*
X8548Y869899D01*
X13302Y874653D01*
X14761Y874653D01*
X14761Y865508D01*
X14762Y865490D01*
X14761Y865473D01*
X14782Y865290D01*
X14801Y865108D01*
X14806Y865091D01*
X14808Y865073D01*
X14833Y864995D01*
X14794Y864858D01*
X14792Y864840D01*
X14788Y864823D01*
X14761Y864492D01*
X14761Y855347D01*
X13302Y855347D01*
X8548Y860101D01*
X8541Y860106D01*
X8536Y860113D01*
X8386Y860234D01*
X8237Y860356D01*
X8229Y860360D01*
X8222Y860366D01*
X8052Y860454D01*
X7881Y860544D01*
X7872Y860547D01*
X7865Y860551D01*
X7680Y860604D01*
X7495Y860659D01*
X7486Y860660D01*
X7478Y860662D01*
X7286Y860678D01*
X7094Y860696D01*
X7085Y860695D01*
X7076Y860695D01*
X6887Y860673D01*
X6694Y860652D01*
X6685Y860649D01*
X6677Y860648D01*
X6495Y860589D01*
X6310Y860531D01*
X6302Y860526D01*
X6294Y860524D01*
X6125Y860429D01*
X5958Y860336D01*
X5951Y860330D01*
X5943Y860326D01*
X5797Y860200D01*
X5651Y860075D01*
X5645Y860068D01*
X5638Y860063D01*
X5521Y859911D01*
X5401Y859759D01*
X5397Y859751D01*
X5392Y859744D01*
X5306Y859572D01*
X5219Y859400D01*
X5216Y859392D01*
X5212Y859384D01*
X5162Y859197D01*
X5111Y859013D01*
X5110Y859004D01*
X5108Y858995D01*
X5081Y858664D01*
X5081Y845936D01*
X5082Y845927D01*
X5081Y845918D01*
X5102Y845726D01*
X5121Y845535D01*
X5123Y845526D01*
X5124Y845518D01*
X5182Y845335D01*
X5239Y845150D01*
X5243Y845142D01*
X5246Y845134D01*
X5339Y844965D01*
X5431Y844796D01*
X5436Y844789D01*
X5441Y844781D01*
X5565Y844634D01*
X5688Y844487D01*
X5695Y844481D01*
X5701Y844474D01*
X5852Y844355D01*
X6002Y844234D01*
X6010Y844230D01*
X6017Y844225D01*
X6190Y844137D01*
X6359Y844049D01*
X6368Y844047D01*
X6376Y844042D01*
X6562Y843991D01*
X6746Y843938D01*
X6755Y843937D01*
X6764Y843934D01*
X6957Y843920D01*
X7148Y843905D01*
X7156Y843906D01*
X7165Y843905D01*
X7358Y843929D01*
X7547Y843952D01*
X7556Y843954D01*
X7565Y843955D01*
X7748Y844017D01*
X7930Y844076D01*
X7938Y844081D01*
X7946Y844084D01*
X8113Y844180D01*
X8281Y844274D01*
X8288Y844280D01*
X8295Y844285D01*
X8548Y844499D01*
X13302Y849253D01*
X14761Y849253D01*
X14761Y840108D01*
X14762Y840090D01*
X14761Y840073D01*
X14782Y839890D01*
X14801Y839708D01*
X14806Y839691D01*
X14808Y839673D01*
X14833Y839595D01*
X14794Y839458D01*
X14792Y839440D01*
X14788Y839423D01*
X14761Y839092D01*
X14761Y829947D01*
X13302Y829947D01*
X8548Y834701D01*
X8541Y834706D01*
X8536Y834713D01*
X8386Y834834D01*
X8237Y834956D01*
X8229Y834960D01*
X8222Y834966D01*
X8052Y835054D01*
X7881Y835144D01*
X7872Y835147D01*
X7865Y835151D01*
X7680Y835204D01*
X7495Y835259D01*
X7486Y835260D01*
X7478Y835262D01*
X7286Y835278D01*
X7094Y835296D01*
X7085Y835295D01*
X7076Y835295D01*
X6887Y835273D01*
X6694Y835252D01*
X6685Y835249D01*
X6677Y835248D01*
X6495Y835189D01*
X6310Y835131D01*
X6302Y835126D01*
X6294Y835124D01*
X6125Y835029D01*
X5958Y834936D01*
X5951Y834930D01*
X5943Y834926D01*
X5797Y834799D01*
X5651Y834675D01*
X5645Y834668D01*
X5638Y834663D01*
X5521Y834511D01*
X5401Y834359D01*
X5397Y834351D01*
X5392Y834344D01*
X5306Y834172D01*
X5219Y834000D01*
X5216Y833992D01*
X5212Y833984D01*
X5162Y833797D01*
X5111Y833613D01*
X5110Y833604D01*
X5108Y833595D01*
X5081Y833264D01*
X5081Y820176D01*
X5082Y820168D01*
X5081Y820159D01*
X5102Y819966D01*
X5121Y819776D01*
X5123Y819767D01*
X5124Y819758D01*
X5182Y819576D01*
X5239Y819391D01*
X5243Y819383D01*
X5246Y819374D01*
X5339Y819206D01*
X5431Y819037D01*
X5436Y819030D01*
X5441Y819022D01*
X5565Y818875D01*
X5688Y818728D01*
X5695Y818722D01*
X5701Y818715D01*
X5852Y818596D01*
X6002Y818475D01*
X6010Y818471D01*
X6017Y818466D01*
X6190Y818378D01*
X6359Y818290D01*
X6368Y818287D01*
X6376Y818283D01*
X6562Y818231D01*
X6746Y818178D01*
X6755Y818178D01*
X6764Y818175D01*
X6957Y818161D01*
X7148Y818145D01*
X7156Y818146D01*
X7165Y818146D01*
X7358Y818170D01*
X7547Y818192D01*
X7556Y818195D01*
X7565Y818196D01*
X7748Y818258D01*
X7930Y818317D01*
X7938Y818322D01*
X7946Y818324D01*
X8113Y818421D01*
X8281Y818515D01*
X8288Y818521D01*
X8295Y818525D01*
X8548Y818740D01*
X13407Y823599D01*
X21193Y823599D01*
X26699Y818093D01*
X26699Y810307D01*
X21193Y804801D01*
X13407Y804801D01*
X8548Y809660D01*
X8541Y809666D01*
X8536Y809672D01*
X8386Y809792D01*
X8237Y809915D01*
X8229Y809919D01*
X8222Y809925D01*
X8052Y810013D01*
X7881Y810104D01*
X7872Y810106D01*
X7865Y810110D01*
X7680Y810163D01*
X7495Y810218D01*
X7486Y810219D01*
X7478Y810222D01*
X7286Y810237D01*
X7094Y810255D01*
X7085Y810254D01*
X7076Y810255D01*
X6887Y810232D01*
X6694Y810211D01*
X6685Y810209D01*
X6677Y810208D01*
X6495Y810148D01*
X6310Y810090D01*
X6302Y810086D01*
X6294Y810083D01*
X6125Y809988D01*
X5958Y809895D01*
X5951Y809889D01*
X5943Y809885D01*
X5797Y809759D01*
X5651Y809635D01*
X5645Y809628D01*
X5638Y809622D01*
X5521Y809470D01*
X5401Y809319D01*
X5397Y809311D01*
X5392Y809304D01*
X5306Y809132D01*
X5219Y808960D01*
X5216Y808951D01*
X5212Y808943D01*
X5162Y808757D01*
X5111Y808572D01*
X5110Y808563D01*
X5108Y808554D01*
X5081Y808224D01*
X5081Y755374D01*
X5082Y755365D01*
X5081Y755356D01*
X5102Y755163D01*
X5121Y754973D01*
X5123Y754965D01*
X5124Y754956D01*
X5182Y754772D01*
X5239Y754588D01*
X5243Y754580D01*
X5246Y754572D01*
X5338Y754404D01*
X5431Y754234D01*
X5436Y754227D01*
X5441Y754220D01*
X5565Y754072D01*
X5688Y753925D01*
X5695Y753919D01*
X5701Y753913D01*
X5853Y753793D01*
X6002Y753673D01*
X6010Y753668D01*
X6017Y753663D01*
X6190Y753575D01*
X6359Y753487D01*
X6368Y753485D01*
X6376Y753481D01*
X6562Y753429D01*
X6746Y753376D01*
X6755Y753375D01*
X6764Y753373D01*
X6957Y753358D01*
X7148Y753343D01*
X7156Y753344D01*
G37*
G36*
X150634Y765399D02*
X150634Y765399D01*
X150656Y765397D01*
X150834Y765420D01*
X151012Y765438D01*
X151034Y765445D01*
X151056Y765448D01*
X151226Y765505D01*
X151397Y765558D01*
X151416Y765569D01*
X151437Y765576D01*
X151593Y765665D01*
X151750Y765751D01*
X151767Y765766D01*
X151786Y765777D01*
X152039Y765992D01*
X178842Y792795D01*
X209602Y792795D01*
X209615Y792796D01*
X209629Y792795D01*
X209815Y792816D01*
X210003Y792835D01*
X210016Y792839D01*
X210029Y792840D01*
X210207Y792897D01*
X210388Y792953D01*
X210399Y792959D01*
X210412Y792963D01*
X210576Y793055D01*
X210742Y793145D01*
X210752Y793153D01*
X210764Y793160D01*
X210907Y793283D01*
X211051Y793402D01*
X211059Y793413D01*
X211069Y793421D01*
X211186Y793570D01*
X211303Y793716D01*
X211309Y793728D01*
X211318Y793738D01*
X211403Y793908D01*
X211489Y794073D01*
X211492Y794086D01*
X211498Y794098D01*
X211548Y794280D01*
X211600Y794460D01*
X211601Y794474D01*
X211605Y794487D01*
X211618Y794673D01*
X211633Y794862D01*
X211631Y794875D01*
X211632Y794888D01*
X211608Y795075D01*
X211586Y795261D01*
X211582Y795274D01*
X211580Y795287D01*
X211479Y795603D01*
X211082Y796561D01*
X211082Y797685D01*
X211067Y797835D01*
X211060Y797985D01*
X211047Y798035D01*
X211042Y798085D01*
X210998Y798229D01*
X210961Y798375D01*
X210939Y798421D01*
X210924Y798470D01*
X210852Y798603D01*
X210787Y798739D01*
X210757Y798779D01*
X210732Y798824D01*
X210636Y798940D01*
X210545Y799060D01*
X210507Y799094D01*
X210474Y799134D01*
X210357Y799228D01*
X210245Y799328D01*
X210200Y799354D01*
X210161Y799386D01*
X210027Y799455D01*
X209897Y799531D01*
X209848Y799548D01*
X209803Y799571D01*
X209659Y799613D01*
X209516Y799662D01*
X209465Y799669D01*
X209416Y799683D01*
X209266Y799695D01*
X209263Y799696D01*
X209263Y813937D01*
X223381Y813937D01*
X223078Y812808D01*
X223066Y812736D01*
X223045Y812666D01*
X223034Y812538D01*
X223013Y812411D01*
X223016Y812338D01*
X223009Y812265D01*
X223023Y812137D01*
X223028Y812009D01*
X223045Y811937D01*
X223052Y811864D01*
X223091Y811742D01*
X223121Y811617D01*
X223152Y811551D01*
X223174Y811481D01*
X223236Y811368D01*
X223290Y811252D01*
X223333Y811192D01*
X223369Y811128D01*
X223452Y811030D01*
X223528Y810927D01*
X223582Y810877D01*
X223629Y810821D01*
X223730Y810742D01*
X223825Y810655D01*
X223888Y810617D01*
X223945Y810572D01*
X224060Y810514D01*
X224170Y810447D01*
X224239Y810422D01*
X224304Y810389D01*
X224428Y810355D01*
X224549Y810312D01*
X224621Y810301D01*
X224692Y810281D01*
X224820Y810272D01*
X224947Y810253D01*
X225020Y810257D01*
X225094Y810252D01*
X225221Y810268D01*
X225349Y810275D01*
X225420Y810293D01*
X225493Y810302D01*
X225615Y810343D01*
X225739Y810375D01*
X225805Y810407D01*
X225875Y810431D01*
X225986Y810495D01*
X226102Y810551D01*
X226160Y810595D01*
X226224Y810631D01*
X226353Y810741D01*
X226422Y810794D01*
X226444Y810819D01*
X226477Y810846D01*
X246525Y830895D01*
X250007Y830895D01*
X250030Y830897D01*
X250052Y830895D01*
X250229Y830917D01*
X250408Y830935D01*
X250429Y830941D01*
X250451Y830944D01*
X250621Y831000D01*
X250793Y831053D01*
X250812Y831063D01*
X250834Y831070D01*
X250989Y831159D01*
X251147Y831245D01*
X251164Y831259D01*
X251183Y831270D01*
X251318Y831387D01*
X251456Y831502D01*
X251470Y831520D01*
X251487Y831534D01*
X251596Y831676D01*
X251708Y831816D01*
X251719Y831836D01*
X251732Y831854D01*
X251884Y832149D01*
X252412Y833424D01*
X255056Y836068D01*
X258510Y837499D01*
X277490Y837499D01*
X280944Y836068D01*
X281452Y835560D01*
X281459Y835554D01*
X281464Y835548D01*
X281613Y835428D01*
X281763Y835305D01*
X281771Y835301D01*
X281778Y835295D01*
X281947Y835208D01*
X282119Y835116D01*
X282128Y835114D01*
X282135Y835110D01*
X282319Y835057D01*
X282505Y835002D01*
X282514Y835001D01*
X282522Y834998D01*
X282713Y834983D01*
X282906Y834965D01*
X282915Y834966D01*
X282924Y834965D01*
X283113Y834988D01*
X283306Y835009D01*
X283315Y835011D01*
X283323Y835012D01*
X283506Y835072D01*
X283690Y835130D01*
X283698Y835134D01*
X283706Y835137D01*
X283875Y835232D01*
X284042Y835325D01*
X284049Y835331D01*
X284057Y835335D01*
X284202Y835461D01*
X284349Y835585D01*
X284355Y835592D01*
X284362Y835598D01*
X284479Y835750D01*
X284599Y835901D01*
X284603Y835909D01*
X284608Y835916D01*
X284695Y836090D01*
X284781Y836260D01*
X284784Y836269D01*
X284788Y836277D01*
X284838Y836465D01*
X284889Y836648D01*
X284890Y836657D01*
X284892Y836666D01*
X284919Y836996D01*
X284919Y1014558D01*
X284918Y1014572D01*
X284919Y1014585D01*
X284898Y1014772D01*
X284879Y1014959D01*
X284875Y1014972D01*
X284874Y1014985D01*
X284816Y1015164D01*
X284761Y1015344D01*
X284755Y1015356D01*
X284751Y1015368D01*
X284659Y1015532D01*
X284569Y1015698D01*
X284561Y1015708D01*
X284554Y1015720D01*
X284432Y1015862D01*
X284312Y1016007D01*
X284301Y1016016D01*
X284293Y1016026D01*
X284144Y1016142D01*
X283998Y1016259D01*
X283986Y1016266D01*
X283976Y1016274D01*
X283806Y1016359D01*
X283641Y1016445D01*
X283628Y1016449D01*
X283616Y1016455D01*
X283434Y1016504D01*
X283254Y1016556D01*
X283240Y1016557D01*
X283227Y1016561D01*
X283041Y1016574D01*
X282852Y1016589D01*
X282839Y1016588D01*
X282826Y1016589D01*
X282640Y1016564D01*
X282453Y1016542D01*
X282440Y1016538D01*
X282427Y1016536D01*
X282111Y1016435D01*
X281257Y1016081D01*
X278743Y1016081D01*
X276421Y1017043D01*
X274454Y1019010D01*
X274433Y1019027D01*
X274415Y1019048D01*
X274278Y1019155D01*
X274142Y1019265D01*
X274118Y1019278D01*
X274097Y1019294D01*
X273940Y1019372D01*
X273786Y1019454D01*
X273761Y1019462D01*
X273737Y1019474D01*
X273567Y1019519D01*
X273401Y1019569D01*
X273374Y1019571D01*
X273348Y1019578D01*
X273017Y1019605D01*
X263542Y1019605D01*
X263524Y1019603D01*
X263506Y1019605D01*
X263324Y1019584D01*
X263141Y1019565D01*
X263124Y1019560D01*
X263107Y1019558D01*
X262932Y1019501D01*
X262756Y1019447D01*
X262741Y1019439D01*
X262724Y1019433D01*
X262564Y1019343D01*
X262402Y1019255D01*
X262389Y1019244D01*
X262373Y1019235D01*
X262234Y1019115D01*
X262093Y1018998D01*
X262082Y1018984D01*
X262068Y1018972D01*
X261956Y1018827D01*
X261841Y1018684D01*
X261833Y1018668D01*
X261822Y1018654D01*
X261740Y1018489D01*
X261655Y1018327D01*
X261650Y1018310D01*
X261642Y1018294D01*
X261595Y1018115D01*
X261544Y1017940D01*
X261542Y1017922D01*
X261538Y1017905D01*
X261511Y1017574D01*
X261511Y1011716D01*
X258997Y1005647D01*
X254353Y1001003D01*
X248284Y998489D01*
X241716Y998489D01*
X235647Y1001003D01*
X231003Y1005647D01*
X228489Y1011716D01*
X228489Y1018284D01*
X230633Y1023461D01*
X230639Y1023478D01*
X230647Y1023493D01*
X230696Y1023669D01*
X230750Y1023846D01*
X230752Y1023864D01*
X230756Y1023881D01*
X230771Y1024063D01*
X230788Y1024247D01*
X230786Y1024265D01*
X230788Y1024282D01*
X230765Y1024465D01*
X230746Y1024647D01*
X230741Y1024664D01*
X230739Y1024682D01*
X230681Y1024857D01*
X230627Y1025032D01*
X230618Y1025047D01*
X230612Y1025064D01*
X230521Y1025224D01*
X230433Y1025385D01*
X230422Y1025398D01*
X230413Y1025414D01*
X230292Y1025553D01*
X230174Y1025693D01*
X230160Y1025704D01*
X230148Y1025717D01*
X230003Y1025829D01*
X229859Y1025944D01*
X229843Y1025952D01*
X229829Y1025963D01*
X229534Y1026114D01*
X228536Y1026528D01*
X226759Y1028305D01*
X225797Y1030628D01*
X225797Y1033141D01*
X226759Y1035464D01*
X228536Y1037241D01*
X230859Y1038203D01*
X233372Y1038203D01*
X235695Y1037241D01*
X237020Y1035916D01*
X237041Y1035899D01*
X237059Y1035878D01*
X237196Y1035771D01*
X237332Y1035661D01*
X237356Y1035648D01*
X237377Y1035632D01*
X237534Y1035554D01*
X237688Y1035472D01*
X237713Y1035464D01*
X237737Y1035452D01*
X237907Y1035407D01*
X238073Y1035357D01*
X238100Y1035355D01*
X238126Y1035348D01*
X238457Y1035321D01*
X253417Y1035321D01*
X262948Y1025790D01*
X262969Y1025773D01*
X262986Y1025752D01*
X263124Y1025645D01*
X263260Y1025535D01*
X263283Y1025522D01*
X263305Y1025506D01*
X263461Y1025428D01*
X263615Y1025346D01*
X263641Y1025338D01*
X263665Y1025326D01*
X263834Y1025281D01*
X264001Y1025231D01*
X264028Y1025229D01*
X264054Y1025222D01*
X264385Y1025195D01*
X273017Y1025195D01*
X273044Y1025197D01*
X273071Y1025195D01*
X273245Y1025217D01*
X273418Y1025235D01*
X273443Y1025242D01*
X273470Y1025246D01*
X273636Y1025301D01*
X273803Y1025353D01*
X273826Y1025366D01*
X273852Y1025374D01*
X274003Y1025461D01*
X274157Y1025545D01*
X274177Y1025562D01*
X274201Y1025575D01*
X274454Y1025790D01*
X276421Y1027757D01*
X278743Y1028719D01*
X281257Y1028719D01*
X282111Y1028365D01*
X282124Y1028361D01*
X282135Y1028355D01*
X282316Y1028303D01*
X282496Y1028249D01*
X282509Y1028247D01*
X282522Y1028244D01*
X282711Y1028228D01*
X282897Y1028210D01*
X282910Y1028212D01*
X282924Y1028211D01*
X283110Y1028233D01*
X283297Y1028252D01*
X283310Y1028256D01*
X283323Y1028258D01*
X283502Y1028316D01*
X283682Y1028372D01*
X283693Y1028378D01*
X283706Y1028382D01*
X283870Y1028475D01*
X284035Y1028565D01*
X284045Y1028574D01*
X284057Y1028580D01*
X284199Y1028703D01*
X284343Y1028824D01*
X284351Y1028835D01*
X284362Y1028844D01*
X284476Y1028992D01*
X284594Y1029139D01*
X284600Y1029151D01*
X284608Y1029162D01*
X284692Y1029330D01*
X284778Y1029497D01*
X284782Y1029510D01*
X284788Y1029522D01*
X284837Y1029704D01*
X284888Y1029885D01*
X284889Y1029898D01*
X284892Y1029911D01*
X284919Y1030242D01*
X284919Y1072888D01*
X284917Y1072906D01*
X284919Y1072924D01*
X284898Y1073106D01*
X284879Y1073289D01*
X284874Y1073306D01*
X284872Y1073323D01*
X284815Y1073498D01*
X284761Y1073674D01*
X284753Y1073689D01*
X284747Y1073706D01*
X284657Y1073866D01*
X284569Y1074028D01*
X284558Y1074041D01*
X284549Y1074057D01*
X284429Y1074196D01*
X284312Y1074337D01*
X284298Y1074348D01*
X284286Y1074362D01*
X284141Y1074474D01*
X283998Y1074589D01*
X283982Y1074597D01*
X283968Y1074608D01*
X283803Y1074690D01*
X283641Y1074775D01*
X283624Y1074780D01*
X283608Y1074788D01*
X283429Y1074835D01*
X283254Y1074886D01*
X283236Y1074888D01*
X283219Y1074892D01*
X282888Y1074919D01*
X254167Y1074919D01*
X254159Y1074918D01*
X254150Y1074919D01*
X253958Y1074898D01*
X253767Y1074879D01*
X253758Y1074877D01*
X253749Y1074876D01*
X253567Y1074818D01*
X253382Y1074761D01*
X253374Y1074757D01*
X253365Y1074754D01*
X253197Y1074661D01*
X253028Y1074569D01*
X253021Y1074564D01*
X253013Y1074559D01*
X252865Y1074434D01*
X252719Y1074312D01*
X252713Y1074305D01*
X252706Y1074299D01*
X252587Y1074148D01*
X252466Y1073998D01*
X252462Y1073990D01*
X252457Y1073983D01*
X252370Y1073812D01*
X252281Y1073641D01*
X252278Y1073632D01*
X252274Y1073624D01*
X252223Y1073439D01*
X252169Y1073254D01*
X252169Y1073245D01*
X252166Y1073236D01*
X252152Y1073044D01*
X252136Y1072852D01*
X252137Y1072844D01*
X252137Y1072835D01*
X252161Y1072644D01*
X252183Y1072453D01*
X252186Y1072444D01*
X252187Y1072435D01*
X252248Y1072254D01*
X252308Y1072070D01*
X252313Y1072062D01*
X252315Y1072054D01*
X252411Y1071888D01*
X252506Y1071719D01*
X252512Y1071712D01*
X252516Y1071705D01*
X252731Y1071452D01*
X253502Y1070681D01*
X255029Y1066995D01*
X255029Y1063005D01*
X253502Y1059319D01*
X250681Y1056498D01*
X246995Y1054971D01*
X243005Y1054971D01*
X239319Y1056498D01*
X236498Y1059319D01*
X234971Y1063005D01*
X234971Y1066995D01*
X236498Y1070681D01*
X237269Y1071452D01*
X237275Y1071459D01*
X237281Y1071464D01*
X237401Y1071613D01*
X237524Y1071763D01*
X237528Y1071771D01*
X237534Y1071778D01*
X237622Y1071948D01*
X237713Y1072119D01*
X237715Y1072128D01*
X237719Y1072135D01*
X237772Y1072320D01*
X237827Y1072505D01*
X237828Y1072514D01*
X237831Y1072522D01*
X237846Y1072713D01*
X237864Y1072906D01*
X237863Y1072915D01*
X237864Y1072924D01*
X237841Y1073113D01*
X237820Y1073306D01*
X237818Y1073315D01*
X237817Y1073323D01*
X237757Y1073506D01*
X237699Y1073690D01*
X237695Y1073698D01*
X237692Y1073706D01*
X237598Y1073873D01*
X237504Y1074042D01*
X237498Y1074049D01*
X237494Y1074057D01*
X237369Y1074202D01*
X237244Y1074349D01*
X237237Y1074355D01*
X237231Y1074362D01*
X237079Y1074479D01*
X236928Y1074599D01*
X236920Y1074603D01*
X236913Y1074608D01*
X236741Y1074694D01*
X236569Y1074781D01*
X236560Y1074784D01*
X236552Y1074788D01*
X236367Y1074837D01*
X236181Y1074889D01*
X236172Y1074890D01*
X236163Y1074892D01*
X235833Y1074919D01*
X221999Y1074919D01*
X221986Y1074918D01*
X221972Y1074919D01*
X221786Y1074898D01*
X221598Y1074879D01*
X221586Y1074875D01*
X221572Y1074874D01*
X221393Y1074816D01*
X221214Y1074761D01*
X221202Y1074755D01*
X221189Y1074751D01*
X221025Y1074659D01*
X220860Y1074569D01*
X220849Y1074561D01*
X220837Y1074554D01*
X220694Y1074431D01*
X220550Y1074312D01*
X220542Y1074301D01*
X220532Y1074293D01*
X220415Y1074144D01*
X220298Y1073998D01*
X220292Y1073986D01*
X220283Y1073976D01*
X220198Y1073806D01*
X220112Y1073641D01*
X220109Y1073628D01*
X220103Y1073616D01*
X220053Y1073434D01*
X220001Y1073254D01*
X220000Y1073240D01*
X219996Y1073227D01*
X219984Y1073041D01*
X219968Y1072852D01*
X219970Y1072839D01*
X219969Y1072826D01*
X219993Y1072640D01*
X220015Y1072453D01*
X220019Y1072440D01*
X220021Y1072427D01*
X220122Y1072111D01*
X220319Y1071637D01*
X220319Y1069123D01*
X219357Y1066801D01*
X217579Y1065023D01*
X215257Y1064061D01*
X212743Y1064061D01*
X210421Y1065023D01*
X208454Y1066990D01*
X208433Y1067007D01*
X208415Y1067028D01*
X208278Y1067135D01*
X208142Y1067245D01*
X208119Y1067258D01*
X208097Y1067274D01*
X207941Y1067352D01*
X207786Y1067434D01*
X207761Y1067442D01*
X207737Y1067454D01*
X207568Y1067499D01*
X207401Y1067549D01*
X207374Y1067551D01*
X207348Y1067558D01*
X207017Y1067585D01*
X202007Y1067585D01*
X201981Y1067583D01*
X201954Y1067585D01*
X201780Y1067563D01*
X201606Y1067545D01*
X201581Y1067538D01*
X201554Y1067534D01*
X201389Y1067479D01*
X201222Y1067427D01*
X201198Y1067414D01*
X201173Y1067406D01*
X201021Y1067319D01*
X200868Y1067235D01*
X200847Y1067218D01*
X200824Y1067205D01*
X200571Y1066990D01*
X172446Y1038866D01*
X172438Y1038856D01*
X172428Y1038847D01*
X172311Y1038700D01*
X172191Y1038554D01*
X172185Y1038543D01*
X172177Y1038532D01*
X172091Y1038364D01*
X172003Y1038199D01*
X171999Y1038186D01*
X171993Y1038174D01*
X171942Y1037993D01*
X171888Y1037813D01*
X171887Y1037799D01*
X171883Y1037787D01*
X171869Y1037601D01*
X171852Y1037412D01*
X171853Y1037398D01*
X171852Y1037385D01*
X171875Y1037200D01*
X171895Y1037012D01*
X171899Y1036999D01*
X171901Y1036986D01*
X171960Y1036807D01*
X172016Y1036628D01*
X172023Y1036616D01*
X172027Y1036603D01*
X172121Y1036439D01*
X172211Y1036275D01*
X172220Y1036265D01*
X172227Y1036254D01*
X172350Y1036112D01*
X172472Y1035968D01*
X172482Y1035960D01*
X172491Y1035950D01*
X172640Y1035835D01*
X172788Y1035719D01*
X172800Y1035713D01*
X172810Y1035705D01*
X173105Y1035553D01*
X173579Y1035357D01*
X175357Y1033579D01*
X176319Y1031257D01*
X176319Y1028743D01*
X175357Y1026421D01*
X173579Y1024643D01*
X171257Y1023681D01*
X168475Y1023681D01*
X168448Y1023679D01*
X168422Y1023681D01*
X168248Y1023659D01*
X168074Y1023641D01*
X168049Y1023634D01*
X168022Y1023630D01*
X167857Y1023575D01*
X167689Y1023523D01*
X167666Y1023510D01*
X167641Y1023502D01*
X167489Y1023415D01*
X167335Y1023331D01*
X167315Y1023314D01*
X167292Y1023301D01*
X167039Y1023086D01*
X153390Y1009437D01*
X153373Y1009417D01*
X153352Y1009399D01*
X153245Y1009261D01*
X153135Y1009126D01*
X153122Y1009102D01*
X153106Y1009081D01*
X153028Y1008924D01*
X152946Y1008770D01*
X152938Y1008745D01*
X152926Y1008721D01*
X152881Y1008551D01*
X152831Y1008384D01*
X152829Y1008358D01*
X152822Y1008332D01*
X152795Y1008001D01*
X152795Y876317D01*
X152796Y876308D01*
X152795Y876299D01*
X152816Y876108D01*
X152835Y875916D01*
X152837Y875907D01*
X152838Y875898D01*
X152897Y875714D01*
X152953Y875531D01*
X152957Y875523D01*
X152960Y875515D01*
X153053Y875345D01*
X153145Y875177D01*
X153150Y875170D01*
X153155Y875162D01*
X153280Y875015D01*
X153402Y874868D01*
X153409Y874862D01*
X153415Y874855D01*
X153566Y874736D01*
X153716Y874615D01*
X153724Y874611D01*
X153731Y874606D01*
X153904Y874518D01*
X154073Y874430D01*
X154082Y874428D01*
X154090Y874423D01*
X154276Y874372D01*
X154460Y874319D01*
X154469Y874318D01*
X154478Y874315D01*
X154670Y874301D01*
X154862Y874286D01*
X154870Y874287D01*
X154879Y874286D01*
X155071Y874310D01*
X155261Y874333D01*
X155270Y874335D01*
X155279Y874336D01*
X155460Y874398D01*
X155644Y874457D01*
X155652Y874462D01*
X155660Y874465D01*
X155826Y874560D01*
X155995Y874655D01*
X156002Y874661D01*
X156009Y874666D01*
X156262Y874880D01*
X156421Y875039D01*
X158743Y876001D01*
X161257Y876001D01*
X163579Y875039D01*
X165546Y873072D01*
X165567Y873055D01*
X165585Y873034D01*
X165722Y872927D01*
X165858Y872817D01*
X165882Y872804D01*
X165903Y872788D01*
X166060Y872710D01*
X166214Y872628D01*
X166239Y872620D01*
X166263Y872608D01*
X166433Y872563D01*
X166599Y872513D01*
X166626Y872511D01*
X166652Y872504D01*
X166983Y872477D01*
X217683Y872477D01*
X217710Y872479D01*
X217736Y872477D01*
X217910Y872499D01*
X218084Y872517D01*
X218109Y872524D01*
X218136Y872528D01*
X218301Y872583D01*
X218469Y872635D01*
X218492Y872648D01*
X218517Y872656D01*
X218669Y872743D01*
X218823Y872827D01*
X218843Y872844D01*
X218866Y872857D01*
X219119Y873072D01*
X223086Y877039D01*
X223103Y877059D01*
X223124Y877077D01*
X223231Y877215D01*
X223341Y877350D01*
X223354Y877374D01*
X223370Y877395D01*
X223448Y877552D01*
X223530Y877706D01*
X223538Y877731D01*
X223550Y877755D01*
X223595Y877925D01*
X223645Y878092D01*
X223647Y878118D01*
X223654Y878144D01*
X223681Y878475D01*
X223681Y881257D01*
X224643Y883579D01*
X226421Y885357D01*
X228743Y886319D01*
X231257Y886319D01*
X233579Y885357D01*
X235357Y883579D01*
X236319Y881257D01*
X236319Y878743D01*
X235357Y876421D01*
X233579Y874643D01*
X231257Y873681D01*
X228475Y873681D01*
X228448Y873679D01*
X228422Y873681D01*
X228248Y873659D01*
X228074Y873641D01*
X228049Y873634D01*
X228022Y873630D01*
X227857Y873575D01*
X227689Y873523D01*
X227666Y873510D01*
X227641Y873502D01*
X227489Y873415D01*
X227335Y873331D01*
X227315Y873314D01*
X227292Y873301D01*
X227039Y873086D01*
X220840Y866887D01*
X166983Y866887D01*
X166956Y866885D01*
X166929Y866887D01*
X166755Y866865D01*
X166582Y866847D01*
X166557Y866840D01*
X166530Y866836D01*
X166364Y866781D01*
X166197Y866729D01*
X166174Y866716D01*
X166148Y866708D01*
X165997Y866621D01*
X165843Y866537D01*
X165823Y866520D01*
X165799Y866507D01*
X165546Y866292D01*
X163579Y864325D01*
X161257Y863363D01*
X158743Y863363D01*
X156421Y864325D01*
X156262Y864484D01*
X156255Y864489D01*
X156250Y864496D01*
X156100Y864616D01*
X155951Y864739D01*
X155943Y864743D01*
X155936Y864749D01*
X155767Y864836D01*
X155595Y864927D01*
X155586Y864930D01*
X155579Y864934D01*
X155394Y864987D01*
X155209Y865042D01*
X155200Y865043D01*
X155192Y865045D01*
X155000Y865061D01*
X154808Y865079D01*
X154799Y865078D01*
X154790Y865078D01*
X154600Y865056D01*
X154408Y865035D01*
X154399Y865032D01*
X154391Y865031D01*
X154207Y864971D01*
X154024Y864914D01*
X154016Y864909D01*
X154008Y864907D01*
X153840Y864812D01*
X153672Y864719D01*
X153665Y864713D01*
X153657Y864709D01*
X153512Y864583D01*
X153365Y864458D01*
X153359Y864451D01*
X153352Y864446D01*
X153235Y864295D01*
X153115Y864142D01*
X153111Y864134D01*
X153106Y864127D01*
X153020Y863955D01*
X152933Y863784D01*
X152930Y863775D01*
X152926Y863767D01*
X152876Y863579D01*
X152825Y863396D01*
X152824Y863387D01*
X152822Y863378D01*
X152795Y863047D01*
X152795Y855485D01*
X152796Y855471D01*
X152795Y855458D01*
X152816Y855272D01*
X152835Y855084D01*
X152839Y855071D01*
X152840Y855058D01*
X152897Y854880D01*
X152953Y854699D01*
X152959Y854687D01*
X152963Y854675D01*
X153055Y854511D01*
X153145Y854345D01*
X153153Y854335D01*
X153160Y854323D01*
X153282Y854180D01*
X153402Y854036D01*
X153413Y854028D01*
X153421Y854017D01*
X153570Y853901D01*
X153716Y853784D01*
X153728Y853777D01*
X153738Y853769D01*
X153907Y853684D01*
X154073Y853598D01*
X154086Y853594D01*
X154098Y853588D01*
X154280Y853539D01*
X154460Y853487D01*
X154474Y853486D01*
X154487Y853482D01*
X154675Y853469D01*
X154862Y853454D01*
X154875Y853455D01*
X154888Y853454D01*
X155076Y853479D01*
X155261Y853501D01*
X155274Y853505D01*
X155287Y853507D01*
X155603Y853608D01*
X155774Y853679D01*
X159226Y853679D01*
X162416Y852357D01*
X164857Y849916D01*
X166179Y846726D01*
X166179Y843274D01*
X164857Y840084D01*
X162416Y837643D01*
X159226Y836321D01*
X155774Y836321D01*
X153409Y837301D01*
X153396Y837305D01*
X153385Y837311D01*
X153205Y837362D01*
X153024Y837417D01*
X153011Y837418D01*
X152998Y837422D01*
X152810Y837437D01*
X152623Y837455D01*
X152610Y837454D01*
X152596Y837455D01*
X152410Y837433D01*
X152223Y837414D01*
X152210Y837410D01*
X152197Y837408D01*
X152017Y837350D01*
X151838Y837294D01*
X151827Y837287D01*
X151814Y837283D01*
X151650Y837191D01*
X151485Y837101D01*
X151475Y837092D01*
X151463Y837085D01*
X151321Y836963D01*
X151177Y836841D01*
X151169Y836831D01*
X151158Y836822D01*
X151044Y836674D01*
X150926Y836527D01*
X150920Y836515D01*
X150912Y836504D01*
X150828Y836336D01*
X150742Y836168D01*
X150738Y836156D01*
X150732Y836144D01*
X150683Y835961D01*
X150632Y835781D01*
X150631Y835768D01*
X150628Y835755D01*
X150601Y835424D01*
X150601Y822825D01*
X150610Y822732D01*
X150609Y822639D01*
X150630Y822532D01*
X150641Y822424D01*
X150668Y822335D01*
X150686Y822244D01*
X150727Y822143D01*
X150759Y822039D01*
X150803Y821957D01*
X150839Y821871D01*
X150899Y821781D01*
X150951Y821685D01*
X151010Y821614D01*
X151062Y821536D01*
X151139Y821459D01*
X151208Y821376D01*
X151281Y821318D01*
X151347Y821252D01*
X151438Y821192D01*
X151522Y821124D01*
X151605Y821081D01*
X151682Y821029D01*
X151783Y820988D01*
X151879Y820938D01*
X151969Y820912D01*
X152055Y820877D01*
X152162Y820857D01*
X152266Y820827D01*
X152359Y820819D01*
X152451Y820802D01*
X152559Y820803D01*
X152668Y820794D01*
X152760Y820805D01*
X152853Y820806D01*
X152960Y820828D01*
X153067Y820841D01*
X153156Y820870D01*
X153247Y820889D01*
X153371Y820940D01*
X153450Y820966D01*
X153493Y820990D01*
X153554Y821015D01*
X154071Y821278D01*
X155201Y821645D01*
X155201Y813268D01*
X155202Y813250D01*
X155201Y813233D01*
X155222Y813050D01*
X155225Y813026D01*
X155201Y812732D01*
X155201Y804355D01*
X154071Y804722D01*
X153554Y804985D01*
X153467Y805019D01*
X153385Y805062D01*
X153280Y805092D01*
X153179Y805131D01*
X153087Y805147D01*
X152998Y805173D01*
X152889Y805182D01*
X152783Y805201D01*
X152689Y805199D01*
X152596Y805206D01*
X152489Y805193D01*
X152380Y805191D01*
X152289Y805170D01*
X152197Y805159D01*
X152093Y805126D01*
X151987Y805101D01*
X151902Y805063D01*
X151814Y805034D01*
X151719Y804981D01*
X151620Y804937D01*
X151544Y804882D01*
X151463Y804836D01*
X151381Y804766D01*
X151293Y804702D01*
X151229Y804634D01*
X151158Y804573D01*
X151092Y804488D01*
X151018Y804408D01*
X150969Y804329D01*
X150912Y804255D01*
X150863Y804158D01*
X150806Y804066D01*
X150774Y803978D01*
X150732Y803895D01*
X150704Y803790D01*
X150667Y803688D01*
X150652Y803596D01*
X150628Y803506D01*
X150617Y803372D01*
X150604Y803290D01*
X150606Y803241D01*
X150601Y803175D01*
X150601Y771790D01*
X148369Y769558D01*
X148112Y769301D01*
X148103Y769291D01*
X148093Y769282D01*
X147975Y769135D01*
X147857Y768990D01*
X147850Y768978D01*
X147842Y768967D01*
X147756Y768800D01*
X147668Y768634D01*
X147664Y768621D01*
X147658Y768609D01*
X147607Y768429D01*
X147553Y768248D01*
X147552Y768235D01*
X147548Y768222D01*
X147534Y768036D01*
X147517Y767847D01*
X147518Y767834D01*
X147517Y767821D01*
X147540Y767634D01*
X147560Y767447D01*
X147564Y767434D01*
X147566Y767421D01*
X147625Y767241D01*
X147682Y767063D01*
X147688Y767051D01*
X147692Y767039D01*
X147786Y766874D01*
X147876Y766711D01*
X147885Y766701D01*
X147892Y766689D01*
X148016Y766547D01*
X148137Y766404D01*
X148147Y766396D01*
X148156Y766385D01*
X148305Y766271D01*
X148453Y766154D01*
X148465Y766148D01*
X148475Y766140D01*
X148771Y765988D01*
X149826Y765551D01*
X149847Y765545D01*
X149867Y765535D01*
X150039Y765487D01*
X150211Y765435D01*
X150233Y765433D01*
X150255Y765427D01*
X150434Y765414D01*
X150612Y765397D01*
X150634Y765399D01*
G37*
%LPC*%
G36*
X138743Y133681D02*
X138743Y133681D01*
X136421Y134643D01*
X134643Y136421D01*
X133681Y138743D01*
X133681Y141525D01*
X133679Y141552D01*
X133681Y141578D01*
X133659Y141752D01*
X133641Y141926D01*
X133634Y141951D01*
X133630Y141978D01*
X133575Y142143D01*
X133523Y142311D01*
X133510Y142334D01*
X133502Y142359D01*
X133415Y142511D01*
X133331Y142665D01*
X133314Y142685D01*
X133301Y142708D01*
X133086Y142961D01*
X127205Y148842D01*
X127205Y181158D01*
X136610Y190563D01*
X136627Y190583D01*
X136648Y190601D01*
X136755Y190739D01*
X136865Y190874D01*
X136878Y190898D01*
X136894Y190919D01*
X136972Y191076D01*
X137054Y191230D01*
X137062Y191255D01*
X137074Y191279D01*
X137119Y191449D01*
X137169Y191616D01*
X137171Y191642D01*
X137178Y191668D01*
X137205Y191999D01*
X137205Y198001D01*
X137203Y198028D01*
X137205Y198054D01*
X137183Y198228D01*
X137165Y198402D01*
X137158Y198427D01*
X137154Y198454D01*
X137099Y198619D01*
X137047Y198787D01*
X137034Y198810D01*
X137026Y198835D01*
X136939Y198987D01*
X136855Y199141D01*
X136838Y199161D01*
X136825Y199184D01*
X136610Y199437D01*
X132961Y203086D01*
X132941Y203103D01*
X132923Y203124D01*
X132785Y203231D01*
X132650Y203341D01*
X132626Y203354D01*
X132605Y203370D01*
X132448Y203448D01*
X132294Y203530D01*
X132269Y203538D01*
X132245Y203550D01*
X132075Y203595D01*
X131908Y203645D01*
X131882Y203647D01*
X131856Y203654D01*
X131525Y203681D01*
X128743Y203681D01*
X126421Y204643D01*
X124643Y206421D01*
X123681Y208743D01*
X123681Y211257D01*
X124770Y213886D01*
X124773Y213895D01*
X124777Y213903D01*
X124831Y214087D01*
X124887Y214272D01*
X124888Y214281D01*
X124890Y214289D01*
X124907Y214480D01*
X124925Y214673D01*
X124924Y214681D01*
X124925Y214690D01*
X124903Y214880D01*
X124883Y215073D01*
X124881Y215082D01*
X124880Y215090D01*
X124821Y215273D01*
X124764Y215457D01*
X124759Y215465D01*
X124757Y215474D01*
X124663Y215642D01*
X124570Y215811D01*
X124565Y215818D01*
X124560Y215825D01*
X124436Y215971D01*
X124311Y216119D01*
X124304Y216124D01*
X124298Y216131D01*
X124147Y216250D01*
X123996Y216370D01*
X123988Y216374D01*
X123981Y216379D01*
X123809Y216466D01*
X123638Y216554D01*
X123630Y216556D01*
X123622Y216560D01*
X123434Y216611D01*
X123251Y216663D01*
X123242Y216664D01*
X123233Y216666D01*
X123039Y216680D01*
X122849Y216694D01*
X122841Y216693D01*
X122832Y216694D01*
X122639Y216669D01*
X122450Y216646D01*
X122441Y216643D01*
X122432Y216642D01*
X122116Y216540D01*
X121346Y216221D01*
X117854Y216221D01*
X114627Y217558D01*
X112158Y220027D01*
X110821Y223254D01*
X110821Y226746D01*
X112158Y229973D01*
X114627Y232442D01*
X117854Y233779D01*
X121346Y233779D01*
X124573Y232442D01*
X127042Y229973D01*
X128379Y226746D01*
X128379Y223254D01*
X127042Y220027D01*
X126730Y219715D01*
X126727Y219711D01*
X126723Y219708D01*
X126599Y219555D01*
X126474Y219403D01*
X126472Y219399D01*
X126469Y219396D01*
X126379Y219222D01*
X126286Y219047D01*
X126284Y219043D01*
X126282Y219039D01*
X126228Y218854D01*
X126171Y218661D01*
X126171Y218657D01*
X126169Y218653D01*
X126153Y218462D01*
X126135Y218260D01*
X126135Y218256D01*
X126135Y218251D01*
X126156Y218060D01*
X126178Y217860D01*
X126179Y217856D01*
X126180Y217851D01*
X126240Y217665D01*
X126300Y217476D01*
X126302Y217472D01*
X126303Y217468D01*
X126400Y217295D01*
X126494Y217124D01*
X126497Y217121D01*
X126499Y217117D01*
X126628Y216966D01*
X126755Y216817D01*
X126758Y216814D01*
X126761Y216811D01*
X126917Y216689D01*
X127071Y216567D01*
X127075Y216565D01*
X127078Y216563D01*
X127256Y216473D01*
X127430Y216385D01*
X127434Y216384D01*
X127438Y216382D01*
X127630Y216329D01*
X127818Y216277D01*
X127822Y216277D01*
X127826Y216276D01*
X128021Y216262D01*
X128219Y216248D01*
X128224Y216248D01*
X128228Y216248D01*
X128420Y216273D01*
X128619Y216298D01*
X128623Y216300D01*
X128627Y216300D01*
X128685Y216319D01*
X131257Y216319D01*
X133579Y215357D01*
X135357Y213579D01*
X136319Y211257D01*
X136319Y208475D01*
X136321Y208448D01*
X136319Y208422D01*
X136341Y208248D01*
X136359Y208074D01*
X136366Y208049D01*
X136370Y208022D01*
X136426Y207856D01*
X136477Y207689D01*
X136490Y207666D01*
X136498Y207641D01*
X136585Y207489D01*
X136669Y207335D01*
X136686Y207315D01*
X136699Y207292D01*
X136914Y207039D01*
X142795Y201158D01*
X142795Y188842D01*
X133390Y179437D01*
X133373Y179417D01*
X133352Y179399D01*
X133245Y179261D01*
X133135Y179126D01*
X133122Y179102D01*
X133106Y179081D01*
X133028Y178924D01*
X132946Y178770D01*
X132938Y178745D01*
X132926Y178721D01*
X132881Y178551D01*
X132831Y178384D01*
X132829Y178358D01*
X132822Y178332D01*
X132795Y178001D01*
X132795Y151999D01*
X132797Y151972D01*
X132795Y151946D01*
X132817Y151772D01*
X132835Y151598D01*
X132842Y151573D01*
X132846Y151546D01*
X132901Y151381D01*
X132953Y151213D01*
X132966Y151190D01*
X132974Y151165D01*
X133061Y151013D01*
X133145Y150859D01*
X133162Y150839D01*
X133175Y150816D01*
X133390Y150563D01*
X137039Y146914D01*
X137059Y146897D01*
X137077Y146876D01*
X137215Y146769D01*
X137350Y146659D01*
X137374Y146646D01*
X137395Y146630D01*
X137552Y146552D01*
X137706Y146470D01*
X137731Y146462D01*
X137755Y146450D01*
X137925Y146405D01*
X138092Y146355D01*
X138118Y146353D01*
X138144Y146346D01*
X138475Y146319D01*
X141257Y146319D01*
X143579Y145357D01*
X145357Y143579D01*
X146319Y141257D01*
X146319Y138743D01*
X145357Y136421D01*
X143579Y134643D01*
X141257Y133681D01*
X138743Y133681D01*
G37*
%LPD*%
%LPC*%
G36*
X51716Y208489D02*
X51716Y208489D01*
X45647Y211003D01*
X41003Y215647D01*
X38489Y221716D01*
X38489Y228284D01*
X41003Y234353D01*
X45647Y238997D01*
X51716Y241511D01*
X58284Y241511D01*
X64353Y238997D01*
X68997Y234353D01*
X71511Y228284D01*
X71511Y221716D01*
X68997Y215647D01*
X64353Y211003D01*
X58284Y208489D01*
X51716Y208489D01*
G37*
%LPD*%
%LPC*%
G36*
X231716Y208489D02*
X231716Y208489D01*
X225647Y211003D01*
X221003Y215647D01*
X218489Y221716D01*
X218489Y228284D01*
X221003Y234353D01*
X225647Y238997D01*
X231716Y241511D01*
X238284Y241511D01*
X244353Y238997D01*
X248997Y234353D01*
X251511Y228284D01*
X251511Y221716D01*
X248997Y215647D01*
X244353Y211003D01*
X238284Y208489D01*
X231716Y208489D01*
G37*
%LPD*%
%LPC*%
G36*
X41716Y998489D02*
X41716Y998489D01*
X35647Y1001003D01*
X31003Y1005647D01*
X28489Y1011716D01*
X28489Y1018284D01*
X31003Y1024353D01*
X35647Y1028997D01*
X41716Y1031511D01*
X48284Y1031511D01*
X54353Y1028997D01*
X58997Y1024353D01*
X61511Y1018284D01*
X61511Y1011716D01*
X58997Y1005647D01*
X54353Y1001003D01*
X48284Y998489D01*
X41716Y998489D01*
G37*
%LPD*%
%LPC*%
G36*
X231716Y368489D02*
X231716Y368489D01*
X225647Y371003D01*
X221003Y375647D01*
X218489Y381716D01*
X218489Y388284D01*
X221003Y394353D01*
X225647Y398997D01*
X231716Y401511D01*
X238284Y401511D01*
X244353Y398997D01*
X248997Y394353D01*
X251511Y388284D01*
X251511Y381716D01*
X248997Y375647D01*
X244353Y371003D01*
X238284Y368489D01*
X231716Y368489D01*
G37*
%LPD*%
%LPC*%
G36*
X231716Y528489D02*
X231716Y528489D01*
X225647Y531003D01*
X221003Y535647D01*
X218489Y541716D01*
X218489Y548284D01*
X221003Y554353D01*
X225647Y558997D01*
X231716Y561511D01*
X238284Y561511D01*
X244353Y558997D01*
X248997Y554353D01*
X251511Y548284D01*
X251511Y541716D01*
X248997Y535647D01*
X244353Y531003D01*
X238284Y528489D01*
X231716Y528489D01*
G37*
%LPD*%
%LPC*%
G36*
X51716Y48489D02*
X51716Y48489D01*
X45647Y51003D01*
X41003Y55647D01*
X38489Y61716D01*
X38489Y68284D01*
X41003Y74353D01*
X45647Y78997D01*
X51716Y81511D01*
X58284Y81511D01*
X64353Y78997D01*
X68997Y74353D01*
X71511Y68284D01*
X71511Y61716D01*
X68997Y55647D01*
X64353Y51003D01*
X60990Y49610D01*
X58284Y48489D01*
X51716Y48489D01*
G37*
%LPD*%
%LPC*%
G36*
X231716Y48489D02*
X231716Y48489D01*
X225647Y51003D01*
X221003Y55647D01*
X218489Y61716D01*
X218489Y68284D01*
X221003Y74353D01*
X225647Y78997D01*
X231716Y81511D01*
X238284Y81511D01*
X244353Y78997D01*
X248997Y74353D01*
X251511Y68284D01*
X251511Y61716D01*
X248997Y55647D01*
X244353Y51003D01*
X240990Y49610D01*
X238284Y48489D01*
X231716Y48489D01*
G37*
%LPD*%
G36*
X179719Y672460D02*
X179719Y672460D01*
X179728Y672459D01*
X179917Y672482D01*
X180110Y672503D01*
X180119Y672505D01*
X180127Y672506D01*
X180309Y672566D01*
X180494Y672624D01*
X180502Y672628D01*
X180510Y672631D01*
X180677Y672725D01*
X180846Y672819D01*
X180853Y672825D01*
X180861Y672829D01*
X181006Y672954D01*
X181153Y673079D01*
X181159Y673086D01*
X181166Y673092D01*
X181282Y673243D01*
X181403Y673395D01*
X181407Y673403D01*
X181412Y673410D01*
X181497Y673581D01*
X181585Y673754D01*
X181588Y673763D01*
X181592Y673771D01*
X181641Y673956D01*
X181693Y674142D01*
X181694Y674151D01*
X181696Y674160D01*
X181723Y674490D01*
X181723Y685774D01*
X181721Y685801D01*
X181723Y685828D01*
X181701Y686002D01*
X181683Y686175D01*
X181676Y686201D01*
X181672Y686227D01*
X181617Y686393D01*
X181565Y686560D01*
X181552Y686584D01*
X181544Y686609D01*
X181457Y686760D01*
X181373Y686914D01*
X181356Y686934D01*
X181343Y686958D01*
X181128Y687211D01*
X173159Y695180D01*
X173138Y695197D01*
X173121Y695218D01*
X172983Y695325D01*
X172847Y695435D01*
X172824Y695448D01*
X172803Y695464D01*
X172646Y695542D01*
X172492Y695624D01*
X172466Y695632D01*
X172442Y695644D01*
X172273Y695689D01*
X172106Y695739D01*
X172079Y695741D01*
X172053Y695748D01*
X171722Y695775D01*
X157187Y695775D01*
X157160Y695773D01*
X157134Y695775D01*
X156960Y695753D01*
X156786Y695735D01*
X156761Y695728D01*
X156734Y695724D01*
X156568Y695668D01*
X156401Y695617D01*
X156378Y695604D01*
X156353Y695596D01*
X156201Y695509D01*
X156047Y695425D01*
X156027Y695408D01*
X156004Y695395D01*
X155751Y695180D01*
X150724Y690153D01*
X150707Y690133D01*
X150686Y690115D01*
X150580Y689978D01*
X150469Y689842D01*
X150456Y689818D01*
X150440Y689797D01*
X150362Y689640D01*
X150280Y689486D01*
X150272Y689461D01*
X150260Y689436D01*
X150215Y689267D01*
X150165Y689100D01*
X150163Y689074D01*
X150156Y689048D01*
X150129Y688717D01*
X150129Y684089D01*
X146811Y680771D01*
X146797Y680754D01*
X146780Y680739D01*
X146669Y680598D01*
X146556Y680459D01*
X146546Y680440D01*
X146532Y680422D01*
X146451Y680262D01*
X146367Y680104D01*
X146361Y680082D01*
X146351Y680062D01*
X146304Y679890D01*
X146253Y679718D01*
X146251Y679695D01*
X146245Y679674D01*
X146232Y679496D01*
X146216Y679317D01*
X146219Y679294D01*
X146217Y679272D01*
X146240Y679096D01*
X146260Y678917D01*
X146266Y678895D01*
X146269Y678873D01*
X146319Y678719D01*
X146319Y675826D01*
X146321Y675808D01*
X146319Y675790D01*
X146340Y675608D01*
X146359Y675425D01*
X146364Y675408D01*
X146366Y675391D01*
X146423Y675216D01*
X146477Y675040D01*
X146485Y675025D01*
X146491Y675008D01*
X146581Y674848D01*
X146669Y674686D01*
X146680Y674673D01*
X146689Y674657D01*
X146809Y674518D01*
X146926Y674377D01*
X146940Y674366D01*
X146952Y674352D01*
X147097Y674240D01*
X147240Y674125D01*
X147256Y674117D01*
X147270Y674106D01*
X147435Y674024D01*
X147597Y673939D01*
X147614Y673934D01*
X147630Y673926D01*
X147809Y673878D01*
X147984Y673828D01*
X148002Y673826D01*
X148019Y673822D01*
X148350Y673795D01*
X177515Y673795D01*
X178256Y673054D01*
X178263Y673048D01*
X178268Y673041D01*
X178419Y672920D01*
X178567Y672799D01*
X178575Y672795D01*
X178582Y672789D01*
X178752Y672701D01*
X178923Y672610D01*
X178932Y672608D01*
X178939Y672604D01*
X179124Y672551D01*
X179309Y672496D01*
X179318Y672495D01*
X179326Y672492D01*
X179517Y672477D01*
X179710Y672459D01*
X179719Y672460D01*
G37*
%LPC*%
G36*
X233005Y164971D02*
X233005Y164971D01*
X229319Y166498D01*
X226498Y169319D01*
X224971Y173005D01*
X224971Y176995D01*
X226498Y180681D01*
X229319Y183502D01*
X233005Y185029D01*
X236995Y185029D01*
X240681Y183502D01*
X243502Y180681D01*
X245029Y176995D01*
X245029Y173005D01*
X243502Y169319D01*
X240681Y166498D01*
X236995Y164971D01*
X233005Y164971D01*
G37*
%LPD*%
%LPC*%
G36*
X233005Y89971D02*
X233005Y89971D01*
X229319Y91498D01*
X226498Y94319D01*
X224971Y98005D01*
X224971Y101995D01*
X226498Y105681D01*
X229319Y108502D01*
X233005Y110029D01*
X236995Y110029D01*
X240681Y108502D01*
X243502Y105681D01*
X245029Y101995D01*
X245029Y98005D01*
X243502Y94319D01*
X240681Y91498D01*
X236995Y89971D01*
X233005Y89971D01*
G37*
%LPD*%
%LPC*%
G36*
X43005Y969971D02*
X43005Y969971D01*
X39319Y971498D01*
X36498Y974319D01*
X34971Y978005D01*
X34971Y981995D01*
X36498Y985681D01*
X39319Y988502D01*
X43005Y990029D01*
X46995Y990029D01*
X50681Y988502D01*
X53502Y985681D01*
X55029Y981995D01*
X55029Y978005D01*
X53502Y974319D01*
X50681Y971498D01*
X46995Y969971D01*
X43005Y969971D01*
G37*
%LPD*%
%LPC*%
G36*
X53005Y249971D02*
X53005Y249971D01*
X49319Y251498D01*
X46498Y254319D01*
X44971Y258005D01*
X44971Y261995D01*
X46498Y265681D01*
X49319Y268502D01*
X53005Y270029D01*
X56995Y270029D01*
X60681Y268502D01*
X63502Y265681D01*
X65029Y261995D01*
X65029Y258005D01*
X63502Y254319D01*
X60681Y251498D01*
X56995Y249971D01*
X53005Y249971D01*
G37*
%LPD*%
%LPC*%
G36*
X233005Y569971D02*
X233005Y569971D01*
X229319Y571498D01*
X226498Y574319D01*
X224971Y578005D01*
X224971Y581995D01*
X226498Y585681D01*
X229319Y588502D01*
X233005Y590029D01*
X236995Y590029D01*
X240681Y588502D01*
X243502Y585681D01*
X245029Y581995D01*
X245029Y578005D01*
X243502Y574319D01*
X240681Y571498D01*
X236995Y569971D01*
X233005Y569971D01*
G37*
%LPD*%
%LPC*%
G36*
X243005Y969971D02*
X243005Y969971D01*
X239319Y971498D01*
X236498Y974319D01*
X234971Y978005D01*
X234971Y981995D01*
X236498Y985681D01*
X239319Y988502D01*
X243005Y990029D01*
X246995Y990029D01*
X250681Y988502D01*
X253502Y985681D01*
X255029Y981995D01*
X255029Y978005D01*
X253502Y974319D01*
X250681Y971498D01*
X246995Y969971D01*
X243005Y969971D01*
G37*
%LPD*%
%LPC*%
G36*
X233005Y409971D02*
X233005Y409971D01*
X229319Y411498D01*
X226498Y414319D01*
X224971Y418005D01*
X224971Y421995D01*
X226498Y425681D01*
X229319Y428502D01*
X232380Y429770D01*
X232381Y429770D01*
X233005Y430029D01*
X236995Y430029D01*
X240681Y428502D01*
X243502Y425681D01*
X245029Y421995D01*
X245029Y418005D01*
X243502Y414319D01*
X240681Y411498D01*
X236995Y409971D01*
X233005Y409971D01*
G37*
%LPD*%
%LPC*%
G36*
X233005Y484971D02*
X233005Y484971D01*
X229319Y486498D01*
X226498Y489319D01*
X224971Y493005D01*
X224971Y496995D01*
X226498Y500681D01*
X229319Y503502D01*
X232758Y504926D01*
X233005Y505029D01*
X236995Y505029D01*
X240681Y503502D01*
X243502Y500681D01*
X245029Y496995D01*
X245029Y493005D01*
X243502Y489319D01*
X240681Y486498D01*
X236995Y484971D01*
X233005Y484971D01*
G37*
%LPD*%
%LPC*%
G36*
X43005Y939971D02*
X43005Y939971D01*
X39319Y941498D01*
X36498Y944319D01*
X34971Y948005D01*
X34971Y951995D01*
X36498Y955681D01*
X39319Y958502D01*
X42758Y959926D01*
X43005Y960029D01*
X46995Y960029D01*
X50681Y958502D01*
X53502Y955681D01*
X55029Y951995D01*
X55029Y948005D01*
X53502Y944319D01*
X50681Y941498D01*
X46995Y939971D01*
X43005Y939971D01*
G37*
%LPD*%
%LPC*%
G36*
X53005Y324971D02*
X53005Y324971D01*
X49319Y326498D01*
X46498Y329319D01*
X44971Y333005D01*
X44971Y336995D01*
X46498Y340681D01*
X49319Y343502D01*
X51626Y344457D01*
X51626Y344458D01*
X53005Y345029D01*
X56995Y345029D01*
X60681Y343502D01*
X63502Y340681D01*
X65029Y336995D01*
X65029Y333005D01*
X63502Y329319D01*
X60681Y326498D01*
X56995Y324971D01*
X53005Y324971D01*
G37*
%LPD*%
%LPC*%
G36*
X38807Y804801D02*
X38807Y804801D01*
X33301Y810307D01*
X33301Y818093D01*
X38807Y823599D01*
X46593Y823599D01*
X52099Y818093D01*
X52099Y810307D01*
X46593Y804801D01*
X38807Y804801D01*
G37*
%LPD*%
%LPC*%
G36*
X38807Y906401D02*
X38807Y906401D01*
X33301Y911907D01*
X33301Y919693D01*
X38807Y925199D01*
X46593Y925199D01*
X52099Y919693D01*
X52099Y911907D01*
X46593Y906401D01*
X38807Y906401D01*
G37*
%LPD*%
%LPC*%
G36*
X117854Y536221D02*
X117854Y536221D01*
X114627Y537558D01*
X112158Y540027D01*
X110821Y543254D01*
X110821Y546746D01*
X112158Y549973D01*
X114627Y552442D01*
X117854Y553779D01*
X121346Y553779D01*
X124573Y552442D01*
X127042Y549973D01*
X128379Y546746D01*
X128379Y543254D01*
X127042Y540027D01*
X124573Y537558D01*
X121346Y536221D01*
X117854Y536221D01*
G37*
%LPD*%
%LPC*%
G36*
X168654Y376221D02*
X168654Y376221D01*
X165427Y377558D01*
X162958Y380027D01*
X161621Y383254D01*
X161621Y386746D01*
X162958Y389973D01*
X165427Y392442D01*
X168654Y393779D01*
X172146Y393779D01*
X175373Y392442D01*
X177842Y389973D01*
X179179Y386746D01*
X179179Y383254D01*
X177842Y380027D01*
X175373Y377558D01*
X172146Y376221D01*
X168654Y376221D01*
G37*
%LPD*%
%LPC*%
G36*
X168654Y536221D02*
X168654Y536221D01*
X165427Y537558D01*
X162958Y540027D01*
X161621Y543254D01*
X161621Y546746D01*
X162958Y549973D01*
X165427Y552442D01*
X168654Y553779D01*
X172146Y553779D01*
X175373Y552442D01*
X177842Y549973D01*
X179179Y546746D01*
X179179Y543254D01*
X177842Y540027D01*
X175373Y537558D01*
X172146Y536221D01*
X168654Y536221D01*
G37*
%LPD*%
%LPC*%
G36*
X117854Y376221D02*
X117854Y376221D01*
X114627Y377558D01*
X112158Y380027D01*
X110821Y383254D01*
X110821Y386746D01*
X112158Y389973D01*
X114627Y392442D01*
X117854Y393779D01*
X121346Y393779D01*
X124573Y392442D01*
X127042Y389973D01*
X128379Y386746D01*
X128379Y383254D01*
X127042Y380027D01*
X124573Y377558D01*
X121346Y376221D01*
X117854Y376221D01*
G37*
%LPD*%
%LPC*%
G36*
X168654Y56221D02*
X168654Y56221D01*
X165427Y57558D01*
X162958Y60027D01*
X161621Y63254D01*
X161621Y66746D01*
X162958Y69973D01*
X165427Y72442D01*
X168654Y73779D01*
X172146Y73779D01*
X175373Y72442D01*
X177842Y69973D01*
X179179Y66746D01*
X179179Y63254D01*
X177842Y60027D01*
X175373Y57558D01*
X172146Y56221D01*
X168654Y56221D01*
G37*
%LPD*%
%LPC*%
G36*
X168654Y216221D02*
X168654Y216221D01*
X165427Y217558D01*
X162958Y220027D01*
X161621Y223254D01*
X161621Y226746D01*
X162958Y229973D01*
X165427Y232442D01*
X168654Y233779D01*
X172146Y233779D01*
X175373Y232442D01*
X177842Y229973D01*
X179179Y226746D01*
X179179Y223254D01*
X177842Y220027D01*
X175373Y217558D01*
X172146Y216221D01*
X168654Y216221D01*
G37*
%LPD*%
%LPC*%
G36*
X117854Y56221D02*
X117854Y56221D01*
X114627Y57558D01*
X112158Y60027D01*
X110821Y63254D01*
X110821Y66746D01*
X112158Y69973D01*
X114627Y72442D01*
X117854Y73779D01*
X121346Y73779D01*
X124573Y72442D01*
X127042Y69973D01*
X128379Y66746D01*
X128379Y63254D01*
X127042Y60027D01*
X124573Y57558D01*
X121346Y56221D01*
X117854Y56221D01*
G37*
%LPD*%
%LPC*%
G36*
X209263Y822063D02*
X209263Y822063D01*
X209263Y836181D01*
X211196Y835663D01*
X213450Y834729D01*
X215563Y833509D01*
X217499Y832024D01*
X219224Y830299D01*
X220709Y828363D01*
X221929Y826250D01*
X222863Y823996D01*
X223381Y822063D01*
X209263Y822063D01*
G37*
%LPD*%
%LPC*%
G36*
X187019Y822063D02*
X187019Y822063D01*
X187537Y823996D01*
X188471Y826250D01*
X189691Y828363D01*
X191176Y830299D01*
X192901Y832024D01*
X194837Y833509D01*
X196950Y834729D01*
X199204Y835663D01*
X201137Y836181D01*
X201137Y822063D01*
X187019Y822063D01*
G37*
%LPD*%
%LPC*%
G36*
X199204Y800337D02*
X199204Y800337D01*
X196950Y801271D01*
X194837Y802491D01*
X192901Y803976D01*
X191176Y805701D01*
X189691Y807637D01*
X188471Y809750D01*
X187537Y812004D01*
X187019Y813937D01*
X201137Y813937D01*
X201137Y799819D01*
X199204Y800337D01*
G37*
%LPD*%
%LPC*%
G36*
X251056Y754439D02*
X251056Y754439D01*
X251434Y755605D01*
X252124Y756959D01*
X253017Y758188D01*
X254092Y759263D01*
X255321Y760156D01*
X256675Y760846D01*
X258120Y761315D01*
X259620Y761553D01*
X265461Y761553D01*
X265461Y754439D01*
X251056Y754439D01*
G37*
%LPD*%
%LPC*%
G36*
X259620Y742247D02*
X259620Y742247D01*
X258120Y742485D01*
X256675Y742954D01*
X255321Y743644D01*
X254092Y744537D01*
X253017Y745612D01*
X252124Y746841D01*
X251434Y748195D01*
X251056Y749361D01*
X265461Y749361D01*
X265461Y742247D01*
X259620Y742247D01*
G37*
%LPD*%
%LPC*%
G36*
X247749Y952749D02*
X247749Y952749D01*
X247749Y959919D01*
X248947Y959529D01*
X250389Y958795D01*
X251699Y957843D01*
X252843Y956699D01*
X253795Y955389D01*
X254529Y953947D01*
X254919Y952749D01*
X247749Y952749D01*
G37*
%LPD*%
%LPC*%
G36*
X237749Y132749D02*
X237749Y132749D01*
X237749Y139919D01*
X238947Y139529D01*
X240389Y138795D01*
X241699Y137843D01*
X242843Y136699D01*
X243795Y135389D01*
X244529Y133947D01*
X244919Y132749D01*
X237749Y132749D01*
G37*
%LPD*%
%LPC*%
G36*
X237749Y612749D02*
X237749Y612749D01*
X237749Y619919D01*
X238947Y619529D01*
X240389Y618795D01*
X241699Y617843D01*
X242843Y616699D01*
X243795Y615389D01*
X244529Y613947D01*
X244919Y612749D01*
X237749Y612749D01*
G37*
%LPD*%
%LPC*%
G36*
X237749Y452749D02*
X237749Y452749D01*
X237749Y459919D01*
X238947Y459529D01*
X240389Y458795D01*
X241699Y457843D01*
X242843Y456699D01*
X243795Y455389D01*
X244529Y453947D01*
X244919Y452749D01*
X237749Y452749D01*
G37*
%LPD*%
%LPC*%
G36*
X57749Y452749D02*
X57749Y452749D01*
X57749Y459919D01*
X58947Y459529D01*
X60389Y458795D01*
X61699Y457843D01*
X62843Y456699D01*
X63795Y455389D01*
X64529Y453947D01*
X64919Y452749D01*
X57749Y452749D01*
G37*
%LPD*%
%LPC*%
G36*
X57749Y132749D02*
X57749Y132749D01*
X57749Y139919D01*
X58947Y139529D01*
X60389Y138795D01*
X61699Y137843D01*
X62843Y136699D01*
X63795Y135389D01*
X64529Y133947D01*
X64919Y132749D01*
X57749Y132749D01*
G37*
%LPD*%
%LPC*%
G36*
X237749Y292749D02*
X237749Y292749D01*
X237749Y299919D01*
X238947Y299529D01*
X240389Y298795D01*
X241699Y297843D01*
X242843Y296699D01*
X243795Y295389D01*
X244529Y293947D01*
X244919Y292749D01*
X237749Y292749D01*
G37*
%LPD*%
%LPC*%
G36*
X57749Y292749D02*
X57749Y292749D01*
X57749Y299919D01*
X58947Y299529D01*
X60389Y298795D01*
X61699Y297843D01*
X62843Y296699D01*
X63795Y295389D01*
X64529Y293947D01*
X64919Y292749D01*
X57749Y292749D01*
G37*
%LPD*%
%LPC*%
G36*
X225081Y292749D02*
X225081Y292749D01*
X225471Y293947D01*
X226205Y295389D01*
X227157Y296699D01*
X228301Y297843D01*
X229611Y298795D01*
X231053Y299529D01*
X232251Y299919D01*
X232251Y292749D01*
X225081Y292749D01*
G37*
%LPD*%
%LPC*%
G36*
X247749Y947251D02*
X247749Y947251D01*
X254919Y947251D01*
X254529Y946053D01*
X253795Y944611D01*
X252843Y943301D01*
X251699Y942157D01*
X250389Y941205D01*
X248947Y940471D01*
X247749Y940081D01*
X247749Y947251D01*
G37*
%LPD*%
%LPC*%
G36*
X237749Y127251D02*
X237749Y127251D01*
X244919Y127251D01*
X244529Y126053D01*
X243795Y124611D01*
X242843Y123301D01*
X241699Y122157D01*
X240389Y121205D01*
X238947Y120471D01*
X237749Y120081D01*
X237749Y127251D01*
G37*
%LPD*%
%LPC*%
G36*
X45081Y292749D02*
X45081Y292749D01*
X45471Y293947D01*
X46205Y295389D01*
X47157Y296699D01*
X48301Y297843D01*
X49611Y298795D01*
X51053Y299529D01*
X52251Y299919D01*
X52251Y292749D01*
X45081Y292749D01*
G37*
%LPD*%
%LPC*%
G36*
X57749Y287251D02*
X57749Y287251D01*
X64919Y287251D01*
X64529Y286053D01*
X63795Y284611D01*
X62843Y283301D01*
X61699Y282157D01*
X60389Y281205D01*
X58947Y280471D01*
X57749Y280081D01*
X57749Y287251D01*
G37*
%LPD*%
%LPC*%
G36*
X235081Y952749D02*
X235081Y952749D01*
X235471Y953947D01*
X236205Y955389D01*
X237157Y956699D01*
X238301Y957843D01*
X239611Y958795D01*
X241053Y959529D01*
X242251Y959919D01*
X242251Y952749D01*
X235081Y952749D01*
G37*
%LPD*%
%LPC*%
G36*
X237749Y607251D02*
X237749Y607251D01*
X244919Y607251D01*
X244529Y606053D01*
X243795Y604611D01*
X242843Y603301D01*
X241699Y602157D01*
X240389Y601205D01*
X238947Y600471D01*
X237749Y600081D01*
X237749Y607251D01*
G37*
%LPD*%
%LPC*%
G36*
X45081Y132749D02*
X45081Y132749D01*
X45471Y133947D01*
X46205Y135389D01*
X47157Y136699D01*
X48301Y137843D01*
X49611Y138795D01*
X51053Y139529D01*
X52251Y139919D01*
X52251Y132749D01*
X45081Y132749D01*
G37*
%LPD*%
%LPC*%
G36*
X225081Y612749D02*
X225081Y612749D01*
X225471Y613947D01*
X226205Y615389D01*
X227157Y616699D01*
X228301Y617843D01*
X229611Y618795D01*
X231053Y619529D01*
X232251Y619919D01*
X232251Y612749D01*
X225081Y612749D01*
G37*
%LPD*%
%LPC*%
G36*
X45081Y452749D02*
X45081Y452749D01*
X45471Y453947D01*
X46205Y455389D01*
X47157Y456699D01*
X48301Y457843D01*
X49611Y458795D01*
X51053Y459529D01*
X52251Y459919D01*
X52251Y452749D01*
X45081Y452749D01*
G37*
%LPD*%
%LPC*%
G36*
X225081Y452749D02*
X225081Y452749D01*
X225471Y453947D01*
X226205Y455389D01*
X227157Y456699D01*
X228301Y457843D01*
X229611Y458795D01*
X231053Y459529D01*
X232251Y459919D01*
X232251Y452749D01*
X225081Y452749D01*
G37*
%LPD*%
%LPC*%
G36*
X45081Y612749D02*
X45081Y612749D01*
X45471Y613947D01*
X46205Y615389D01*
X47157Y616699D01*
X48301Y617843D01*
X49611Y618795D01*
X51053Y619529D01*
X52251Y619919D01*
X52251Y612749D01*
X45081Y612749D01*
G37*
%LPD*%
%LPC*%
G36*
X237749Y447251D02*
X237749Y447251D01*
X244919Y447251D01*
X244529Y446053D01*
X243795Y444611D01*
X242843Y443301D01*
X241699Y442157D01*
X240389Y441205D01*
X238947Y440471D01*
X237749Y440081D01*
X237749Y447251D01*
G37*
%LPD*%
%LPC*%
G36*
X225081Y132749D02*
X225081Y132749D01*
X225471Y133947D01*
X226205Y135389D01*
X227157Y136699D01*
X228301Y137843D01*
X229611Y138795D01*
X231053Y139529D01*
X232251Y139919D01*
X232251Y132749D01*
X225081Y132749D01*
G37*
%LPD*%
%LPC*%
G36*
X57749Y447251D02*
X57749Y447251D01*
X64919Y447251D01*
X64529Y446053D01*
X63795Y444611D01*
X62843Y443301D01*
X61699Y442157D01*
X60389Y441205D01*
X58947Y440471D01*
X57749Y440081D01*
X57749Y447251D01*
G37*
%LPD*%
%LPC*%
G36*
X51053Y440471D02*
X51053Y440471D01*
X49611Y441205D01*
X48301Y442157D01*
X47157Y443301D01*
X46205Y444611D01*
X45471Y446053D01*
X45081Y447251D01*
X52251Y447251D01*
X52251Y440081D01*
X51053Y440471D01*
G37*
%LPD*%
%LPC*%
G36*
X231053Y440471D02*
X231053Y440471D01*
X229611Y441205D01*
X228301Y442157D01*
X227157Y443301D01*
X226205Y444611D01*
X225471Y446053D01*
X225081Y447251D01*
X232251Y447251D01*
X232251Y440081D01*
X231053Y440471D01*
G37*
%LPD*%
%LPC*%
G36*
X231053Y600471D02*
X231053Y600471D01*
X229611Y601205D01*
X228301Y602157D01*
X227157Y603301D01*
X226205Y604611D01*
X225471Y606053D01*
X225081Y607251D01*
X232251Y607251D01*
X232251Y600081D01*
X231053Y600471D01*
G37*
%LPD*%
%LPC*%
G36*
X231053Y120471D02*
X231053Y120471D01*
X229611Y121205D01*
X228301Y122157D01*
X227157Y123301D01*
X226205Y124611D01*
X225471Y126053D01*
X225081Y127251D01*
X232251Y127251D01*
X232251Y120081D01*
X231053Y120471D01*
G37*
%LPD*%
%LPC*%
G36*
X51053Y280471D02*
X51053Y280471D01*
X49611Y281205D01*
X48301Y282157D01*
X47157Y283301D01*
X46205Y284611D01*
X45471Y286053D01*
X45081Y287251D01*
X52251Y287251D01*
X52251Y280081D01*
X51053Y280471D01*
G37*
%LPD*%
%LPC*%
G36*
X241053Y940471D02*
X241053Y940471D01*
X239611Y941205D01*
X238301Y942157D01*
X237157Y943301D01*
X236205Y944611D01*
X235471Y946053D01*
X235081Y947251D01*
X242251Y947251D01*
X242251Y940081D01*
X241053Y940471D01*
G37*
%LPD*%
%LPC*%
G36*
X19839Y842139D02*
X19839Y842139D01*
X19839Y849253D01*
X21298Y849253D01*
X26953Y843598D01*
X26953Y842139D01*
X19839Y842139D01*
G37*
%LPD*%
%LPC*%
G36*
X19839Y892939D02*
X19839Y892939D01*
X19839Y900053D01*
X21298Y900053D01*
X26953Y894398D01*
X26953Y892939D01*
X19839Y892939D01*
G37*
%LPD*%
%LPC*%
G36*
X19839Y867539D02*
X19839Y867539D01*
X19839Y874653D01*
X21298Y874653D01*
X26953Y868998D01*
X26953Y867539D01*
X19839Y867539D01*
G37*
%LPD*%
%LPC*%
G36*
X45239Y892939D02*
X45239Y892939D01*
X45239Y900053D01*
X46698Y900053D01*
X52353Y894398D01*
X52353Y892939D01*
X45239Y892939D01*
G37*
%LPD*%
%LPC*%
G36*
X45239Y867539D02*
X45239Y867539D01*
X45239Y874653D01*
X46698Y874653D01*
X52353Y868998D01*
X52353Y867539D01*
X45239Y867539D01*
G37*
%LPD*%
%LPC*%
G36*
X19839Y829947D02*
X19839Y829947D01*
X19839Y837061D01*
X26953Y837061D01*
X26953Y835602D01*
X21298Y829947D01*
X19839Y829947D01*
G37*
%LPD*%
%LPC*%
G36*
X33047Y842139D02*
X33047Y842139D01*
X33047Y843598D01*
X38702Y849253D01*
X40161Y849253D01*
X40161Y842139D01*
X33047Y842139D01*
G37*
%LPD*%
%LPC*%
G36*
X45239Y880747D02*
X45239Y880747D01*
X45239Y887861D01*
X52353Y887861D01*
X52353Y886402D01*
X46698Y880747D01*
X45239Y880747D01*
G37*
%LPD*%
%LPC*%
G36*
X45239Y855347D02*
X45239Y855347D01*
X45239Y862461D01*
X52353Y862461D01*
X52353Y861002D01*
X46698Y855347D01*
X45239Y855347D01*
G37*
%LPD*%
%LPC*%
G36*
X19839Y880747D02*
X19839Y880747D01*
X19839Y887861D01*
X26953Y887861D01*
X26953Y886402D01*
X21298Y880747D01*
X19839Y880747D01*
G37*
%LPD*%
%LPC*%
G36*
X33047Y892939D02*
X33047Y892939D01*
X33047Y894398D01*
X38702Y900053D01*
X40161Y900053D01*
X40161Y892939D01*
X33047Y892939D01*
G37*
%LPD*%
%LPC*%
G36*
X19839Y855347D02*
X19839Y855347D01*
X19839Y862461D01*
X26953Y862461D01*
X26953Y861002D01*
X21298Y855347D01*
X19839Y855347D01*
G37*
%LPD*%
%LPC*%
G36*
X33047Y867539D02*
X33047Y867539D01*
X33047Y868998D01*
X38702Y874653D01*
X40161Y874653D01*
X40161Y867539D01*
X33047Y867539D01*
G37*
%LPD*%
%LPC*%
G36*
X38702Y855347D02*
X38702Y855347D01*
X33047Y861002D01*
X33047Y862461D01*
X40161Y862461D01*
X40161Y855347D01*
X38702Y855347D01*
G37*
%LPD*%
%LPC*%
G36*
X38702Y829947D02*
X38702Y829947D01*
X33047Y835602D01*
X33047Y837061D01*
X40161Y837061D01*
X40161Y829947D01*
X38702Y829947D01*
G37*
%LPD*%
%LPC*%
G36*
X38702Y880747D02*
X38702Y880747D01*
X33047Y886402D01*
X33047Y887861D01*
X40161Y887861D01*
X40161Y880747D01*
X38702Y880747D01*
G37*
%LPD*%
%LPC*%
G36*
X147031Y227031D02*
X147031Y227031D01*
X147031Y233824D01*
X147115Y233810D01*
X148468Y233371D01*
X149734Y232726D01*
X150884Y231890D01*
X151890Y230884D01*
X152726Y229734D01*
X153371Y228468D01*
X153810Y227115D01*
X153824Y227031D01*
X147031Y227031D01*
G37*
%LPD*%
%LPC*%
G36*
X147031Y387031D02*
X147031Y387031D01*
X147031Y393824D01*
X147115Y393810D01*
X148468Y393371D01*
X149734Y392726D01*
X150884Y391890D01*
X151890Y390884D01*
X152726Y389734D01*
X153371Y388468D01*
X153810Y387115D01*
X153824Y387031D01*
X147031Y387031D01*
G37*
%LPD*%
%LPC*%
G36*
X147031Y547031D02*
X147031Y547031D01*
X147031Y553824D01*
X147115Y553810D01*
X148468Y553371D01*
X149734Y552726D01*
X150884Y551890D01*
X151890Y550884D01*
X152726Y549734D01*
X153371Y548468D01*
X153810Y547115D01*
X153824Y547031D01*
X147031Y547031D01*
G37*
%LPD*%
%LPC*%
G36*
X147031Y67031D02*
X147031Y67031D01*
X147031Y73824D01*
X147115Y73810D01*
X148468Y73371D01*
X149734Y72726D01*
X150884Y71890D01*
X151890Y70884D01*
X152726Y69734D01*
X153371Y68468D01*
X153810Y67115D01*
X153824Y67031D01*
X147031Y67031D01*
G37*
%LPD*%
%LPC*%
G36*
X147031Y222969D02*
X147031Y222969D01*
X153824Y222969D01*
X153810Y222885D01*
X153371Y221532D01*
X152726Y220266D01*
X151890Y219116D01*
X150884Y218110D01*
X149734Y217274D01*
X148468Y216629D01*
X147115Y216190D01*
X147031Y216176D01*
X147031Y222969D01*
G37*
%LPD*%
%LPC*%
G36*
X136176Y547031D02*
X136176Y547031D01*
X136190Y547115D01*
X136629Y548468D01*
X137274Y549734D01*
X138110Y550884D01*
X139116Y551890D01*
X140266Y552726D01*
X141532Y553371D01*
X142885Y553810D01*
X142969Y553824D01*
X142969Y547031D01*
X136176Y547031D01*
G37*
%LPD*%
%LPC*%
G36*
X136176Y227031D02*
X136176Y227031D01*
X136190Y227115D01*
X136629Y228468D01*
X137274Y229734D01*
X138110Y230884D01*
X139116Y231890D01*
X140266Y232726D01*
X141532Y233371D01*
X142885Y233810D01*
X142969Y233824D01*
X142969Y227031D01*
X136176Y227031D01*
G37*
%LPD*%
%LPC*%
G36*
X136176Y67031D02*
X136176Y67031D01*
X136190Y67115D01*
X136629Y68468D01*
X137274Y69734D01*
X138110Y70884D01*
X139116Y71890D01*
X140266Y72726D01*
X141532Y73371D01*
X142885Y73810D01*
X142969Y73824D01*
X142969Y67031D01*
X136176Y67031D01*
G37*
%LPD*%
%LPC*%
G36*
X147031Y382969D02*
X147031Y382969D01*
X153824Y382969D01*
X153810Y382885D01*
X153371Y381532D01*
X152726Y380266D01*
X151890Y379116D01*
X150884Y378110D01*
X149734Y377274D01*
X148468Y376629D01*
X147115Y376190D01*
X147031Y376176D01*
X147031Y382969D01*
G37*
%LPD*%
%LPC*%
G36*
X136176Y387031D02*
X136176Y387031D01*
X136190Y387115D01*
X136629Y388468D01*
X137274Y389734D01*
X138110Y390884D01*
X139116Y391890D01*
X140266Y392726D01*
X141532Y393371D01*
X142885Y393810D01*
X142969Y393824D01*
X142969Y387031D01*
X136176Y387031D01*
G37*
%LPD*%
%LPC*%
G36*
X147031Y62969D02*
X147031Y62969D01*
X153824Y62969D01*
X153810Y62885D01*
X153371Y61532D01*
X152726Y60266D01*
X151890Y59116D01*
X150884Y58110D01*
X149734Y57274D01*
X148468Y56629D01*
X147115Y56190D01*
X147031Y56176D01*
X147031Y62969D01*
G37*
%LPD*%
%LPC*%
G36*
X147031Y542969D02*
X147031Y542969D01*
X153824Y542969D01*
X153810Y542885D01*
X153371Y541532D01*
X152726Y540266D01*
X151890Y539116D01*
X150884Y538110D01*
X149734Y537274D01*
X148468Y536629D01*
X147115Y536190D01*
X147031Y536176D01*
X147031Y542969D01*
G37*
%LPD*%
%LPC*%
G36*
X142885Y216190D02*
X142885Y216190D01*
X141532Y216629D01*
X140266Y217274D01*
X139116Y218110D01*
X138110Y219116D01*
X137274Y220266D01*
X136629Y221532D01*
X136190Y222885D01*
X136176Y222969D01*
X142969Y222969D01*
X142969Y216176D01*
X142885Y216190D01*
G37*
%LPD*%
%LPC*%
G36*
X142885Y376190D02*
X142885Y376190D01*
X141532Y376629D01*
X140266Y377274D01*
X139116Y378110D01*
X138110Y379116D01*
X137274Y380266D01*
X136629Y381532D01*
X136190Y382885D01*
X136176Y382969D01*
X142969Y382969D01*
X142969Y376176D01*
X142885Y376190D01*
G37*
%LPD*%
%LPC*%
G36*
X142885Y56190D02*
X142885Y56190D01*
X141532Y56629D01*
X140266Y57274D01*
X139116Y58110D01*
X138110Y59116D01*
X137274Y60266D01*
X136629Y61532D01*
X136190Y62885D01*
X136176Y62969D01*
X142969Y62969D01*
X142969Y56176D01*
X142885Y56190D01*
G37*
%LPD*%
%LPC*%
G36*
X142885Y536190D02*
X142885Y536190D01*
X141532Y536629D01*
X140266Y537274D01*
X139116Y538110D01*
X138110Y539116D01*
X137274Y540266D01*
X136629Y541532D01*
X136190Y542885D01*
X136176Y542969D01*
X142969Y542969D01*
X142969Y536176D01*
X142885Y536190D01*
G37*
%LPD*%
%LPC*%
G36*
X159799Y815299D02*
X159799Y815299D01*
X159799Y821645D01*
X160929Y821278D01*
X162182Y820640D01*
X163319Y819814D01*
X164314Y818819D01*
X165140Y817682D01*
X165778Y816429D01*
X166145Y815299D01*
X159799Y815299D01*
G37*
%LPD*%
%LPC*%
G36*
X159799Y810701D02*
X159799Y810701D01*
X166145Y810701D01*
X165778Y809571D01*
X165140Y808318D01*
X164314Y807181D01*
X163319Y806186D01*
X162182Y805360D01*
X160929Y804722D01*
X159799Y804355D01*
X159799Y810701D01*
G37*
%LPD*%
%LPC*%
G36*
X205199Y817999D02*
X205199Y817999D01*
X205199Y818001D01*
X205201Y818001D01*
X205201Y817999D01*
X205199Y817999D01*
G37*
%LPD*%
D10*
X55000Y495000D03*
X55000Y580000D03*
X55000Y610000D03*
X55000Y335000D03*
X55000Y420000D03*
X55000Y450000D03*
X55000Y175000D03*
X55000Y260000D03*
X55000Y290000D03*
X55000Y15000D03*
X55000Y100000D03*
X55000Y130000D03*
X235000Y495000D03*
X235000Y580000D03*
X235000Y610000D03*
X235000Y335000D03*
X235000Y420000D03*
X235000Y450000D03*
X235000Y175000D03*
X235000Y260000D03*
X235000Y290000D03*
X235000Y15000D03*
X235000Y100000D03*
X235000Y130000D03*
D11*
X132500Y845000D03*
X157500Y845000D03*
X157500Y813000D03*
X132500Y813000D03*
D12*
X84800Y818000D03*
X205200Y818000D03*
D13*
X170400Y545000D03*
X145000Y545000D03*
X119600Y545000D03*
X170400Y385000D03*
X145000Y385000D03*
X119600Y385000D03*
X170400Y225000D03*
X145000Y225000D03*
X119600Y225000D03*
X170400Y65000D03*
X145000Y65000D03*
X119600Y65000D03*
D14*
X42700Y814200D03*
X42700Y839600D03*
X42700Y865000D03*
X42700Y890400D03*
X42700Y915800D03*
X17300Y814200D03*
X17300Y839600D03*
X17300Y865000D03*
X17300Y890400D03*
X17300Y915800D03*
D15*
X260380Y751900D02*
X275620Y751900D01*
X275620Y777300D02*
X260380Y777300D01*
X260380Y802700D02*
X275620Y802700D01*
X275620Y828100D02*
X260380Y828100D01*
D10*
X45000Y1065000D03*
X45000Y980000D03*
X45000Y950000D03*
X245000Y1065000D03*
X245000Y980000D03*
X245000Y950000D03*
D16*
X255000Y618000D03*
X195000Y618000D03*
X235000Y758000D03*
X185000Y798000D03*
X131000Y830000D03*
X85000Y889000D03*
X255000Y909000D03*
X240000Y673000D03*
X249000Y702000D03*
X169000Y684000D03*
X124000Y690000D03*
X106000Y729000D03*
X179000Y724000D03*
X173000Y755000D03*
X215000Y759000D03*
X95000Y588000D03*
X35000Y658000D03*
X114000Y629000D03*
X85000Y657000D03*
X86000Y631000D03*
X42000Y674000D03*
X248000Y720000D03*
X267000Y706000D03*
X225000Y518000D03*
X195000Y418000D03*
X142000Y163000D03*
X135000Y467000D03*
X97000Y496000D03*
X10000Y762000D03*
X15462Y730962D03*
D17*
X12954Y728454D01*
X38350Y593459D02*
X38350Y586541D01*
X33459Y581650D01*
X38350Y593459D02*
X12954Y618855D01*
X9762Y581650D02*
X33459Y581650D01*
X9762Y581650D02*
X7112Y579000D01*
X12954Y618855D02*
X12954Y728454D01*
D16*
X142334Y410000D03*
D17*
X62055Y410000D01*
X59995Y407940D01*
X50005Y407940D01*
X47945Y410000D01*
X30000Y410000D01*
D16*
X30000Y410000D03*
D17*
X7112Y412508D02*
X7112Y579000D01*
X7112Y412508D02*
X7112Y407492D01*
X7112Y400000D02*
X7112Y117112D01*
X10224Y114000D01*
X122000Y90000D02*
X140000Y90000D01*
D16*
X140000Y90000D03*
D17*
X98000Y114000D02*
X10224Y114000D01*
X98000Y114000D02*
X122000Y90000D01*
D16*
X9620Y410000D03*
D17*
X7112Y412508D01*
X9620Y410000D02*
X7112Y407492D01*
X7112Y400000D01*
D16*
X130000Y960000D03*
D17*
X70000Y900000D01*
X70000Y850000D02*
X60000Y840000D01*
X60000Y750000D01*
X54000Y744000D01*
X34000Y744000D01*
X23812Y733812D01*
X23812Y727503D01*
X18796Y722487D01*
X59995Y592060D02*
X67060Y584995D01*
X67060Y575005D01*
X59995Y567940D01*
X59995Y592060D02*
X48011Y592060D01*
X19894Y567940D02*
X12954Y561000D01*
X19894Y567940D02*
X59995Y567940D01*
X70000Y850000D02*
X70000Y900000D01*
X18796Y722487D02*
X18796Y621275D01*
X48011Y592060D01*
X12954Y561000D02*
X12954Y477046D01*
X20000Y470000D01*
X12954Y462954D01*
X20000Y470000D02*
X100000Y470000D01*
X110000Y480000D01*
X110000Y500000D01*
D16*
X110000Y500000D03*
D17*
X17970Y413459D02*
X17970Y406541D01*
X17970Y413459D02*
X12954Y418475D01*
X17970Y406541D02*
X12954Y401525D01*
X12954Y418475D02*
X12954Y462954D01*
X12954Y401525D02*
X12954Y194000D01*
D16*
X115000Y178000D03*
D17*
X69055Y178000D01*
X59995Y187060D01*
X19894Y187060D02*
X12954Y194000D01*
X19894Y187060D02*
X59995Y187060D01*
D16*
X160000Y869682D03*
D18*
X219682Y869682D01*
X230000Y880000D01*
D16*
X230000Y880000D03*
X203282Y676000D03*
D17*
X203282Y750589D01*
X201718Y752153D01*
D16*
X201718Y752153D03*
D17*
X110000Y760000D02*
X110000Y810000D01*
X110000Y849455D01*
X116895Y856350D01*
D16*
X116895Y856350D03*
D18*
X110000Y810000D02*
X111000Y809000D01*
X119282Y809000D01*
D16*
X119282Y809000D03*
X70000Y660000D03*
D17*
X40000Y690000D01*
X40000Y700000D01*
X80000Y740000D01*
X90000Y740000D01*
D16*
X90000Y740000D03*
X110000Y760000D03*
X146716Y760000D03*
D17*
X114191Y760000D02*
X110000Y760000D01*
X146667Y760000D02*
X146716Y760000D01*
X121541Y752650D02*
X114191Y760000D01*
X121541Y752650D02*
X139317Y752650D01*
X146667Y760000D01*
D16*
X50000Y760000D03*
D17*
X20000Y760000D01*
X7112Y747112D01*
D16*
X30000Y590000D03*
D17*
X7112Y612888D01*
X7112Y747112D01*
D16*
X218690Y690318D03*
X199682Y778856D03*
D18*
X218690Y752318D02*
X218690Y690318D01*
X218690Y752318D02*
X222334Y755962D01*
X222334Y762038D01*
X218038Y766334D01*
X212204Y766334D01*
X199682Y778856D01*
D16*
X217401Y797818D03*
D18*
X247683Y828100D01*
X268000Y828100D01*
D16*
X90000Y729142D03*
D18*
X99715Y738857D01*
X113038Y738857D01*
X118195Y744014D01*
X146490Y744014D02*
X157860Y755384D01*
X259110Y786190D02*
X268000Y777300D01*
X146490Y744014D02*
X118195Y744014D01*
X157860Y755384D02*
X157860Y762472D01*
X181578Y786190D01*
X259110Y786190D01*
D16*
X110000Y746191D03*
D18*
X111633Y747824D01*
X144912Y747824D01*
X154050Y764050D02*
X180000Y790000D01*
X154050Y764050D02*
X154050Y756962D01*
X144912Y747824D01*
X255300Y790000D02*
X268000Y802700D01*
X255300Y790000D02*
X180000Y790000D01*
D16*
X150000Y510000D03*
D18*
X70000Y510000D01*
X55000Y495000D01*
D16*
X50000Y642093D03*
D18*
X71886Y573006D02*
X70000Y571120D01*
X71886Y620207D02*
X50000Y642093D01*
X71886Y620207D02*
X71886Y573006D01*
X70000Y566136D02*
X69682Y565818D01*
D16*
X69682Y565818D03*
D18*
X70000Y566136D02*
X70000Y571120D01*
D16*
X130000Y210000D03*
D18*
X140000Y200000D01*
D16*
X140000Y140000D03*
D18*
X140000Y190000D02*
X140000Y200000D01*
X140000Y190000D02*
X130000Y180000D01*
X130000Y150000D01*
X140000Y140000D01*
D16*
X164834Y630000D03*
X165000Y658818D03*
D18*
X165000Y630166D01*
X164834Y630000D01*
D16*
X139142Y660000D03*
D18*
X150142Y671000D01*
X268570Y584735D02*
X268664Y584829D01*
X268570Y584735D02*
X268570Y368000D01*
X250570Y350000D01*
X140000Y350000D01*
D16*
X140000Y350000D03*
D18*
X150142Y671000D02*
X176357Y671000D01*
X198787Y648570D01*
X262781Y648570D01*
X268664Y642687D01*
X268664Y584829D01*
D16*
X150000Y660000D03*
D18*
X157190Y667190D01*
X264760Y586313D02*
X264854Y586407D01*
X264760Y586313D02*
X264760Y369578D01*
X248992Y353810D02*
X185000Y353810D01*
X183000Y355810D01*
X183000Y357334D01*
D16*
X183000Y357334D03*
D18*
X174779Y667190D02*
X157190Y667190D01*
X174779Y667190D02*
X197209Y644760D01*
X261203Y644760D01*
X264854Y641109D01*
X264854Y586407D01*
X264760Y369578D02*
X248992Y353810D01*
D16*
X140000Y688284D03*
D18*
X140000Y688770D01*
X147334Y696104D01*
X147334Y698714D01*
X151000Y702380D01*
X175300Y702380D01*
X190836Y684702D02*
X188328Y682194D01*
X188328Y669806D01*
X201754Y656380D01*
X190836Y686844D02*
X175300Y702380D01*
X190836Y686844D02*
X190836Y684702D01*
X201754Y656380D02*
X210232Y656380D01*
X213768Y656380D02*
X265748Y656380D01*
X276284Y645844D01*
X213768Y656380D02*
X213578Y656190D01*
X210422Y656190D01*
X210232Y656380D01*
X276284Y581672D02*
X276190Y581578D01*
X276190Y280000D01*
X276284Y581672D02*
X276284Y645844D01*
X230425Y271044D02*
X229381Y270000D01*
X150000Y270000D01*
X267234Y271044D02*
X276190Y280000D01*
X267234Y271044D02*
X230425Y271044D01*
D16*
X150000Y270000D03*
X140000Y677426D03*
D18*
X147334Y685246D02*
X147334Y690716D01*
X140000Y677912D02*
X140000Y677426D01*
X140000Y677912D02*
X147334Y685246D01*
X147334Y690716D02*
X155188Y698570D01*
X173721Y698570D02*
X184518Y687773D01*
X184518Y668228D02*
X200366Y652380D01*
X264359Y652380D01*
X184518Y668228D02*
X184518Y687773D01*
X264359Y652380D02*
X272474Y644265D01*
X173721Y698570D02*
X155188Y698570D01*
X272380Y583156D02*
X272474Y583250D01*
X272380Y583156D02*
X272380Y282380D01*
X267334Y277334D02*
X170000Y277334D01*
D16*
X170000Y277334D03*
D18*
X272474Y583250D02*
X272474Y644265D01*
X272380Y282380D02*
X267334Y277334D01*
D16*
X140000Y710000D03*
D18*
X178456Y710000D01*
X198456Y690000D01*
X198456Y681546D01*
X195948Y679038D01*
X195948Y672962D01*
X204910Y664000D01*
X268904Y664000D01*
X283904Y649000D01*
X283904Y580000D01*
X283904Y578000D01*
X283904Y33904D01*
D16*
X140000Y20000D03*
D18*
X224381Y20000D02*
X230425Y26044D01*
X224381Y20000D02*
X140000Y20000D01*
X230425Y26044D02*
X276044Y26044D01*
X283904Y33904D01*
D16*
X140000Y699142D03*
D18*
X142142Y699142D01*
X149190Y706190D01*
X176878Y706190D01*
X194646Y688422D01*
X194646Y683124D01*
X192138Y680616D01*
X192138Y671384D01*
X203332Y660190D01*
X211810Y660190D01*
X280094Y580094D02*
X280000Y580000D01*
X267326Y660190D02*
X211810Y660190D01*
X267326Y660190D02*
X280094Y647422D01*
X280094Y580094D01*
X280000Y580000D02*
X280000Y40000D01*
D16*
X160000Y27334D03*
D18*
X269854Y29854D02*
X280000Y40000D01*
X269854Y29854D02*
X228847Y29854D01*
X226327Y27334D02*
X160000Y27334D01*
X226327Y27334D02*
X228847Y29854D01*
D16*
X135858Y761000D03*
D18*
X147806Y849015D02*
X150000Y851209D01*
X147806Y772948D02*
X135858Y761000D01*
X147806Y772948D02*
X147806Y849015D01*
X150000Y1010000D02*
X170000Y1030000D01*
D16*
X170000Y1030000D03*
D18*
X150000Y1010000D02*
X150000Y851209D01*
D16*
X280000Y1022400D03*
X232115Y1031885D03*
D18*
X262386Y1022400D02*
X280000Y1022400D01*
X262386Y1022400D02*
X252260Y1032526D01*
X237740Y1032526D01*
X237099Y1031885D01*
X232115Y1031885D01*
D16*
X125000Y761000D03*
D18*
X132334Y768334D01*
X137804Y768334D01*
X143996Y850594D02*
X146190Y852788D01*
D16*
X214000Y1070380D03*
D18*
X162666Y1033038D02*
X162666Y1028054D01*
X162666Y1033038D02*
X200008Y1070380D01*
X214000Y1070380D01*
X143996Y774526D02*
X137804Y768334D01*
X143996Y774526D02*
X143996Y850594D01*
X146190Y852788D02*
X146190Y1011578D01*
X162666Y1028054D01*
M02*
