G04 EAGLE Gerber RS-274X export*
G75*
%MOMM*%
%FSLAX34Y34*%
%LPD*%
%IN*%
%IPPOS*%
%AMOC8*
5,1,8,0,0,1.08239X$1,22.5*%
G01*
%ADD10C,0.254000*%


D10*
X0Y0D02*
X290000Y0D01*
X290000Y1080000D01*
X0Y1080000D01*
X0Y0D01*
X43570Y545449D02*
X43640Y546345D01*
X43781Y547232D01*
X43991Y548105D01*
X44268Y548959D01*
X44612Y549789D01*
X45020Y550589D01*
X45489Y551355D01*
X46017Y552082D01*
X46600Y552765D01*
X47235Y553400D01*
X47918Y553983D01*
X48645Y554511D01*
X49411Y554980D01*
X50211Y555388D01*
X51041Y555732D01*
X51895Y556009D01*
X52768Y556219D01*
X53656Y556360D01*
X54551Y556430D01*
X55449Y556430D01*
X56345Y556360D01*
X57232Y556219D01*
X58105Y556009D01*
X58959Y555732D01*
X59789Y555388D01*
X60589Y554980D01*
X61355Y554511D01*
X62082Y553983D01*
X62765Y553400D01*
X63400Y552765D01*
X63983Y552082D01*
X64511Y551355D01*
X64980Y550589D01*
X65388Y549789D01*
X65732Y548959D01*
X66009Y548105D01*
X66219Y547232D01*
X66360Y546345D01*
X66430Y545449D01*
X66430Y544551D01*
X66360Y543656D01*
X66219Y542768D01*
X66009Y541895D01*
X65732Y541041D01*
X65388Y540211D01*
X64980Y539411D01*
X64511Y538645D01*
X63983Y537918D01*
X63400Y537235D01*
X62765Y536600D01*
X62082Y536017D01*
X61355Y535489D01*
X60589Y535020D01*
X59789Y534612D01*
X58959Y534268D01*
X58105Y533991D01*
X57232Y533781D01*
X56345Y533640D01*
X55449Y533570D01*
X54551Y533570D01*
X53656Y533640D01*
X52768Y533781D01*
X51895Y533991D01*
X51041Y534268D01*
X50211Y534612D01*
X49411Y535020D01*
X48645Y535489D01*
X47918Y536017D01*
X47235Y536600D01*
X46600Y537235D01*
X46017Y537918D01*
X45489Y538645D01*
X45020Y539411D01*
X44612Y540211D01*
X44268Y541041D01*
X43991Y541895D01*
X43781Y542768D01*
X43640Y543656D01*
X43570Y544551D01*
X43570Y545449D01*
X43570Y385449D02*
X43640Y386345D01*
X43781Y387232D01*
X43991Y388105D01*
X44268Y388959D01*
X44612Y389789D01*
X45020Y390589D01*
X45489Y391355D01*
X46017Y392082D01*
X46600Y392765D01*
X47235Y393400D01*
X47918Y393983D01*
X48645Y394511D01*
X49411Y394980D01*
X50211Y395388D01*
X51041Y395732D01*
X51895Y396009D01*
X52768Y396219D01*
X53656Y396360D01*
X54551Y396430D01*
X55449Y396430D01*
X56345Y396360D01*
X57232Y396219D01*
X58105Y396009D01*
X58959Y395732D01*
X59789Y395388D01*
X60589Y394980D01*
X61355Y394511D01*
X62082Y393983D01*
X62765Y393400D01*
X63400Y392765D01*
X63983Y392082D01*
X64511Y391355D01*
X64980Y390589D01*
X65388Y389789D01*
X65732Y388959D01*
X66009Y388105D01*
X66219Y387232D01*
X66360Y386345D01*
X66430Y385449D01*
X66430Y384551D01*
X66360Y383656D01*
X66219Y382768D01*
X66009Y381895D01*
X65732Y381041D01*
X65388Y380211D01*
X64980Y379411D01*
X64511Y378645D01*
X63983Y377918D01*
X63400Y377235D01*
X62765Y376600D01*
X62082Y376017D01*
X61355Y375489D01*
X60589Y375020D01*
X59789Y374612D01*
X58959Y374268D01*
X58105Y373991D01*
X57232Y373781D01*
X56345Y373640D01*
X55449Y373570D01*
X54551Y373570D01*
X53656Y373640D01*
X52768Y373781D01*
X51895Y373991D01*
X51041Y374268D01*
X50211Y374612D01*
X49411Y375020D01*
X48645Y375489D01*
X47918Y376017D01*
X47235Y376600D01*
X46600Y377235D01*
X46017Y377918D01*
X45489Y378645D01*
X45020Y379411D01*
X44612Y380211D01*
X44268Y381041D01*
X43991Y381895D01*
X43781Y382768D01*
X43640Y383656D01*
X43570Y384551D01*
X43570Y385449D01*
X43570Y225449D02*
X43640Y226345D01*
X43781Y227232D01*
X43991Y228105D01*
X44268Y228959D01*
X44612Y229789D01*
X45020Y230589D01*
X45489Y231355D01*
X46017Y232082D01*
X46600Y232765D01*
X47235Y233400D01*
X47918Y233983D01*
X48645Y234511D01*
X49411Y234980D01*
X50211Y235388D01*
X51041Y235732D01*
X51895Y236009D01*
X52768Y236219D01*
X53656Y236360D01*
X54551Y236430D01*
X55449Y236430D01*
X56345Y236360D01*
X57232Y236219D01*
X58105Y236009D01*
X58959Y235732D01*
X59789Y235388D01*
X60589Y234980D01*
X61355Y234511D01*
X62082Y233983D01*
X62765Y233400D01*
X63400Y232765D01*
X63983Y232082D01*
X64511Y231355D01*
X64980Y230589D01*
X65388Y229789D01*
X65732Y228959D01*
X66009Y228105D01*
X66219Y227232D01*
X66360Y226345D01*
X66430Y225449D01*
X66430Y224551D01*
X66360Y223656D01*
X66219Y222768D01*
X66009Y221895D01*
X65732Y221041D01*
X65388Y220211D01*
X64980Y219411D01*
X64511Y218645D01*
X63983Y217918D01*
X63400Y217235D01*
X62765Y216600D01*
X62082Y216017D01*
X61355Y215489D01*
X60589Y215020D01*
X59789Y214612D01*
X58959Y214268D01*
X58105Y213991D01*
X57232Y213781D01*
X56345Y213640D01*
X55449Y213570D01*
X54551Y213570D01*
X53656Y213640D01*
X52768Y213781D01*
X51895Y213991D01*
X51041Y214268D01*
X50211Y214612D01*
X49411Y215020D01*
X48645Y215489D01*
X47918Y216017D01*
X47235Y216600D01*
X46600Y217235D01*
X46017Y217918D01*
X45489Y218645D01*
X45020Y219411D01*
X44612Y220211D01*
X44268Y221041D01*
X43991Y221895D01*
X43781Y222768D01*
X43640Y223656D01*
X43570Y224551D01*
X43570Y225449D01*
X43570Y65449D02*
X43640Y66345D01*
X43781Y67232D01*
X43991Y68105D01*
X44268Y68959D01*
X44612Y69789D01*
X45020Y70589D01*
X45489Y71355D01*
X46017Y72082D01*
X46600Y72765D01*
X47235Y73400D01*
X47918Y73983D01*
X48645Y74511D01*
X49411Y74980D01*
X50211Y75388D01*
X51041Y75732D01*
X51895Y76009D01*
X52768Y76219D01*
X53656Y76360D01*
X54551Y76430D01*
X55449Y76430D01*
X56345Y76360D01*
X57232Y76219D01*
X58105Y76009D01*
X58959Y75732D01*
X59789Y75388D01*
X60589Y74980D01*
X61355Y74511D01*
X62082Y73983D01*
X62765Y73400D01*
X63400Y72765D01*
X63983Y72082D01*
X64511Y71355D01*
X64980Y70589D01*
X65388Y69789D01*
X65732Y68959D01*
X66009Y68105D01*
X66219Y67232D01*
X66360Y66345D01*
X66430Y65449D01*
X66430Y64551D01*
X66360Y63656D01*
X66219Y62768D01*
X66009Y61895D01*
X65732Y61041D01*
X65388Y60211D01*
X64980Y59411D01*
X64511Y58645D01*
X63983Y57918D01*
X63400Y57235D01*
X62765Y56600D01*
X62082Y56017D01*
X61355Y55489D01*
X60589Y55020D01*
X59789Y54612D01*
X58959Y54268D01*
X58105Y53991D01*
X57232Y53781D01*
X56345Y53640D01*
X55449Y53570D01*
X54551Y53570D01*
X53656Y53640D01*
X52768Y53781D01*
X51895Y53991D01*
X51041Y54268D01*
X50211Y54612D01*
X49411Y55020D01*
X48645Y55489D01*
X47918Y56017D01*
X47235Y56600D01*
X46600Y57235D01*
X46017Y57918D01*
X45489Y58645D01*
X45020Y59411D01*
X44612Y60211D01*
X44268Y61041D01*
X43991Y61895D01*
X43781Y62768D01*
X43640Y63656D01*
X43570Y64551D01*
X43570Y65449D01*
X223570Y545449D02*
X223640Y546345D01*
X223781Y547232D01*
X223991Y548105D01*
X224268Y548959D01*
X224612Y549789D01*
X225020Y550589D01*
X225489Y551355D01*
X226017Y552082D01*
X226600Y552765D01*
X227235Y553400D01*
X227918Y553983D01*
X228645Y554511D01*
X229411Y554980D01*
X230211Y555388D01*
X231041Y555732D01*
X231895Y556009D01*
X232768Y556219D01*
X233656Y556360D01*
X234551Y556430D01*
X235449Y556430D01*
X236345Y556360D01*
X237232Y556219D01*
X238105Y556009D01*
X238959Y555732D01*
X239789Y555388D01*
X240589Y554980D01*
X241355Y554511D01*
X242082Y553983D01*
X242765Y553400D01*
X243400Y552765D01*
X243983Y552082D01*
X244511Y551355D01*
X244980Y550589D01*
X245388Y549789D01*
X245732Y548959D01*
X246009Y548105D01*
X246219Y547232D01*
X246360Y546345D01*
X246430Y545449D01*
X246430Y544551D01*
X246360Y543656D01*
X246219Y542768D01*
X246009Y541895D01*
X245732Y541041D01*
X245388Y540211D01*
X244980Y539411D01*
X244511Y538645D01*
X243983Y537918D01*
X243400Y537235D01*
X242765Y536600D01*
X242082Y536017D01*
X241355Y535489D01*
X240589Y535020D01*
X239789Y534612D01*
X238959Y534268D01*
X238105Y533991D01*
X237232Y533781D01*
X236345Y533640D01*
X235449Y533570D01*
X234551Y533570D01*
X233656Y533640D01*
X232768Y533781D01*
X231895Y533991D01*
X231041Y534268D01*
X230211Y534612D01*
X229411Y535020D01*
X228645Y535489D01*
X227918Y536017D01*
X227235Y536600D01*
X226600Y537235D01*
X226017Y537918D01*
X225489Y538645D01*
X225020Y539411D01*
X224612Y540211D01*
X224268Y541041D01*
X223991Y541895D01*
X223781Y542768D01*
X223640Y543656D01*
X223570Y544551D01*
X223570Y545449D01*
X223570Y385449D02*
X223640Y386345D01*
X223781Y387232D01*
X223991Y388105D01*
X224268Y388959D01*
X224612Y389789D01*
X225020Y390589D01*
X225489Y391355D01*
X226017Y392082D01*
X226600Y392765D01*
X227235Y393400D01*
X227918Y393983D01*
X228645Y394511D01*
X229411Y394980D01*
X230211Y395388D01*
X231041Y395732D01*
X231895Y396009D01*
X232768Y396219D01*
X233656Y396360D01*
X234551Y396430D01*
X235449Y396430D01*
X236345Y396360D01*
X237232Y396219D01*
X238105Y396009D01*
X238959Y395732D01*
X239789Y395388D01*
X240589Y394980D01*
X241355Y394511D01*
X242082Y393983D01*
X242765Y393400D01*
X243400Y392765D01*
X243983Y392082D01*
X244511Y391355D01*
X244980Y390589D01*
X245388Y389789D01*
X245732Y388959D01*
X246009Y388105D01*
X246219Y387232D01*
X246360Y386345D01*
X246430Y385449D01*
X246430Y384551D01*
X246360Y383656D01*
X246219Y382768D01*
X246009Y381895D01*
X245732Y381041D01*
X245388Y380211D01*
X244980Y379411D01*
X244511Y378645D01*
X243983Y377918D01*
X243400Y377235D01*
X242765Y376600D01*
X242082Y376017D01*
X241355Y375489D01*
X240589Y375020D01*
X239789Y374612D01*
X238959Y374268D01*
X238105Y373991D01*
X237232Y373781D01*
X236345Y373640D01*
X235449Y373570D01*
X234551Y373570D01*
X233656Y373640D01*
X232768Y373781D01*
X231895Y373991D01*
X231041Y374268D01*
X230211Y374612D01*
X229411Y375020D01*
X228645Y375489D01*
X227918Y376017D01*
X227235Y376600D01*
X226600Y377235D01*
X226017Y377918D01*
X225489Y378645D01*
X225020Y379411D01*
X224612Y380211D01*
X224268Y381041D01*
X223991Y381895D01*
X223781Y382768D01*
X223640Y383656D01*
X223570Y384551D01*
X223570Y385449D01*
X223570Y225449D02*
X223640Y226345D01*
X223781Y227232D01*
X223991Y228105D01*
X224268Y228959D01*
X224612Y229789D01*
X225020Y230589D01*
X225489Y231355D01*
X226017Y232082D01*
X226600Y232765D01*
X227235Y233400D01*
X227918Y233983D01*
X228645Y234511D01*
X229411Y234980D01*
X230211Y235388D01*
X231041Y235732D01*
X231895Y236009D01*
X232768Y236219D01*
X233656Y236360D01*
X234551Y236430D01*
X235449Y236430D01*
X236345Y236360D01*
X237232Y236219D01*
X238105Y236009D01*
X238959Y235732D01*
X239789Y235388D01*
X240589Y234980D01*
X241355Y234511D01*
X242082Y233983D01*
X242765Y233400D01*
X243400Y232765D01*
X243983Y232082D01*
X244511Y231355D01*
X244980Y230589D01*
X245388Y229789D01*
X245732Y228959D01*
X246009Y228105D01*
X246219Y227232D01*
X246360Y226345D01*
X246430Y225449D01*
X246430Y224551D01*
X246360Y223656D01*
X246219Y222768D01*
X246009Y221895D01*
X245732Y221041D01*
X245388Y220211D01*
X244980Y219411D01*
X244511Y218645D01*
X243983Y217918D01*
X243400Y217235D01*
X242765Y216600D01*
X242082Y216017D01*
X241355Y215489D01*
X240589Y215020D01*
X239789Y214612D01*
X238959Y214268D01*
X238105Y213991D01*
X237232Y213781D01*
X236345Y213640D01*
X235449Y213570D01*
X234551Y213570D01*
X233656Y213640D01*
X232768Y213781D01*
X231895Y213991D01*
X231041Y214268D01*
X230211Y214612D01*
X229411Y215020D01*
X228645Y215489D01*
X227918Y216017D01*
X227235Y216600D01*
X226600Y217235D01*
X226017Y217918D01*
X225489Y218645D01*
X225020Y219411D01*
X224612Y220211D01*
X224268Y221041D01*
X223991Y221895D01*
X223781Y222768D01*
X223640Y223656D01*
X223570Y224551D01*
X223570Y225449D01*
X223570Y65449D02*
X223640Y66345D01*
X223781Y67232D01*
X223991Y68105D01*
X224268Y68959D01*
X224612Y69789D01*
X225020Y70589D01*
X225489Y71355D01*
X226017Y72082D01*
X226600Y72765D01*
X227235Y73400D01*
X227918Y73983D01*
X228645Y74511D01*
X229411Y74980D01*
X230211Y75388D01*
X231041Y75732D01*
X231895Y76009D01*
X232768Y76219D01*
X233656Y76360D01*
X234551Y76430D01*
X235449Y76430D01*
X236345Y76360D01*
X237232Y76219D01*
X238105Y76009D01*
X238959Y75732D01*
X239789Y75388D01*
X240589Y74980D01*
X241355Y74511D01*
X242082Y73983D01*
X242765Y73400D01*
X243400Y72765D01*
X243983Y72082D01*
X244511Y71355D01*
X244980Y70589D01*
X245388Y69789D01*
X245732Y68959D01*
X246009Y68105D01*
X246219Y67232D01*
X246360Y66345D01*
X246430Y65449D01*
X246430Y64551D01*
X246360Y63656D01*
X246219Y62768D01*
X246009Y61895D01*
X245732Y61041D01*
X245388Y60211D01*
X244980Y59411D01*
X244511Y58645D01*
X243983Y57918D01*
X243400Y57235D01*
X242765Y56600D01*
X242082Y56017D01*
X241355Y55489D01*
X240589Y55020D01*
X239789Y54612D01*
X238959Y54268D01*
X238105Y53991D01*
X237232Y53781D01*
X236345Y53640D01*
X235449Y53570D01*
X234551Y53570D01*
X233656Y53640D01*
X232768Y53781D01*
X231895Y53991D01*
X231041Y54268D01*
X230211Y54612D01*
X229411Y55020D01*
X228645Y55489D01*
X227918Y56017D01*
X227235Y56600D01*
X226600Y57235D01*
X226017Y57918D01*
X225489Y58645D01*
X225020Y59411D01*
X224612Y60211D01*
X224268Y61041D01*
X223991Y61895D01*
X223781Y62768D01*
X223640Y63656D01*
X223570Y64551D01*
X223570Y65449D01*
X56430Y1014551D02*
X56360Y1013656D01*
X56219Y1012768D01*
X56009Y1011895D01*
X55732Y1011041D01*
X55388Y1010211D01*
X54980Y1009411D01*
X54511Y1008645D01*
X53983Y1007918D01*
X53400Y1007235D01*
X52765Y1006600D01*
X52082Y1006017D01*
X51355Y1005489D01*
X50589Y1005020D01*
X49789Y1004612D01*
X48959Y1004268D01*
X48105Y1003991D01*
X47232Y1003781D01*
X46345Y1003640D01*
X45449Y1003570D01*
X44551Y1003570D01*
X43656Y1003640D01*
X42768Y1003781D01*
X41895Y1003991D01*
X41041Y1004268D01*
X40211Y1004612D01*
X39411Y1005020D01*
X38645Y1005489D01*
X37918Y1006017D01*
X37235Y1006600D01*
X36600Y1007235D01*
X36017Y1007918D01*
X35489Y1008645D01*
X35020Y1009411D01*
X34612Y1010211D01*
X34268Y1011041D01*
X33991Y1011895D01*
X33781Y1012768D01*
X33640Y1013656D01*
X33570Y1014551D01*
X33570Y1015449D01*
X33640Y1016345D01*
X33781Y1017232D01*
X33991Y1018105D01*
X34268Y1018959D01*
X34612Y1019789D01*
X35020Y1020589D01*
X35489Y1021355D01*
X36017Y1022082D01*
X36600Y1022765D01*
X37235Y1023400D01*
X37918Y1023983D01*
X38645Y1024511D01*
X39411Y1024980D01*
X40211Y1025388D01*
X41041Y1025732D01*
X41895Y1026009D01*
X42768Y1026219D01*
X43656Y1026360D01*
X44551Y1026430D01*
X45449Y1026430D01*
X46345Y1026360D01*
X47232Y1026219D01*
X48105Y1026009D01*
X48959Y1025732D01*
X49789Y1025388D01*
X50589Y1024980D01*
X51355Y1024511D01*
X52082Y1023983D01*
X52765Y1023400D01*
X53400Y1022765D01*
X53983Y1022082D01*
X54511Y1021355D01*
X54980Y1020589D01*
X55388Y1019789D01*
X55732Y1018959D01*
X56009Y1018105D01*
X56219Y1017232D01*
X56360Y1016345D01*
X56430Y1015449D01*
X56430Y1014551D01*
X256430Y1014551D02*
X256360Y1013656D01*
X256219Y1012768D01*
X256009Y1011895D01*
X255732Y1011041D01*
X255388Y1010211D01*
X254980Y1009411D01*
X254511Y1008645D01*
X253983Y1007918D01*
X253400Y1007235D01*
X252765Y1006600D01*
X252082Y1006017D01*
X251355Y1005489D01*
X250589Y1005020D01*
X249789Y1004612D01*
X248959Y1004268D01*
X248105Y1003991D01*
X247232Y1003781D01*
X246345Y1003640D01*
X245449Y1003570D01*
X244551Y1003570D01*
X243656Y1003640D01*
X242768Y1003781D01*
X241895Y1003991D01*
X241041Y1004268D01*
X240211Y1004612D01*
X239411Y1005020D01*
X238645Y1005489D01*
X237918Y1006017D01*
X237235Y1006600D01*
X236600Y1007235D01*
X236017Y1007918D01*
X235489Y1008645D01*
X235020Y1009411D01*
X234612Y1010211D01*
X234268Y1011041D01*
X233991Y1011895D01*
X233781Y1012768D01*
X233640Y1013656D01*
X233570Y1014551D01*
X233570Y1015449D01*
X233640Y1016345D01*
X233781Y1017232D01*
X233991Y1018105D01*
X234268Y1018959D01*
X234612Y1019789D01*
X235020Y1020589D01*
X235489Y1021355D01*
X236017Y1022082D01*
X236600Y1022765D01*
X237235Y1023400D01*
X237918Y1023983D01*
X238645Y1024511D01*
X239411Y1024980D01*
X240211Y1025388D01*
X241041Y1025732D01*
X241895Y1026009D01*
X242768Y1026219D01*
X243656Y1026360D01*
X244551Y1026430D01*
X245449Y1026430D01*
X246345Y1026360D01*
X247232Y1026219D01*
X248105Y1026009D01*
X248959Y1025732D01*
X249789Y1025388D01*
X250589Y1024980D01*
X251355Y1024511D01*
X252082Y1023983D01*
X252765Y1023400D01*
X253400Y1022765D01*
X253983Y1022082D01*
X254511Y1021355D01*
X254980Y1020589D01*
X255388Y1019789D01*
X255732Y1018959D01*
X256009Y1018105D01*
X256219Y1017232D01*
X256360Y1016345D01*
X256430Y1015449D01*
X256430Y1014551D01*
M02*
