G04 EAGLE Gerber RS-274X export*
G75*
%MOMM*%
%FSLAX34Y34*%
%LPD*%
%INSoldermask Bottom*%
%IPPOS*%
%AMOC8*
5,1,8,0,0,1.08239X$1,22.5*%
G01*
%ADD10C,1.802400*%
%ADD11C,2.438400*%
%ADD12R,1.152400X0.352400*%
%ADD13R,0.352400X1.152400*%
%ADD14C,1.532400*%
%ADD15C,3.468400*%
%ADD16C,1.552400*%
%ADD17R,0.450000X1.000000*%
%ADD18R,0.457200X1.143000*%
%ADD19R,1.252400X1.152400*%
%ADD20C,2.352400*%
%ADD21R,1.575000X1.050000*%
%ADD22R,1.202400X1.232400*%
%ADD23R,1.652400X1.452400*%
%ADD24R,1.452400X1.652400*%
%ADD25R,1.062400X1.372400*%
%ADD26R,1.152400X1.252400*%
%ADD27R,1.232400X1.202400*%
%ADD28R,1.552400X2.052400*%
%ADD29P,1.814519X8X112.500000*%
%ADD30C,1.676400*%
%ADD31R,2.352400X0.752400*%
%ADD32R,2.152400X1.752400*%
%ADD33R,1.552400X1.552400*%
%ADD34R,1.752600X1.320800*%


D10*
X55000Y495000D03*
X55000Y580000D03*
X55000Y610000D03*
D11*
X55000Y545000D03*
D10*
X55000Y335000D03*
X55000Y420000D03*
X55000Y450000D03*
D11*
X55000Y385000D03*
D10*
X55000Y175000D03*
X55000Y260000D03*
X55000Y290000D03*
D11*
X55000Y225000D03*
D10*
X55000Y15000D03*
X55000Y100000D03*
X55000Y130000D03*
D11*
X55000Y65000D03*
D10*
X235000Y495000D03*
X235000Y580000D03*
X235000Y610000D03*
D11*
X235000Y545000D03*
D10*
X235000Y335000D03*
X235000Y420000D03*
X235000Y450000D03*
D11*
X235000Y385000D03*
D10*
X235000Y175000D03*
X235000Y260000D03*
X235000Y290000D03*
D11*
X235000Y225000D03*
D10*
X235000Y15000D03*
X235000Y100000D03*
X235000Y130000D03*
D11*
X235000Y65000D03*
D12*
X187500Y717500D03*
X187500Y712500D03*
X187500Y707500D03*
X187500Y702500D03*
X187500Y697500D03*
X187500Y692500D03*
X187500Y687500D03*
X187500Y682500D03*
X187500Y677500D03*
X187500Y672500D03*
X187500Y667500D03*
X187500Y662500D03*
D13*
X172500Y647500D03*
X167500Y647500D03*
X162500Y647500D03*
X157500Y647500D03*
X152500Y647500D03*
X147500Y647500D03*
X142500Y647500D03*
X137500Y647500D03*
X132500Y647500D03*
X127500Y647500D03*
X122500Y647500D03*
X117500Y647500D03*
D12*
X102500Y662500D03*
X102500Y667500D03*
X102500Y672500D03*
X102500Y677500D03*
X102500Y682500D03*
X102500Y687500D03*
X102500Y692500D03*
X102500Y697500D03*
X102500Y702500D03*
X102500Y707500D03*
X102500Y712500D03*
X102500Y717500D03*
D13*
X117500Y732500D03*
X122500Y732500D03*
X127500Y732500D03*
X132500Y732500D03*
X137500Y732500D03*
X142500Y732500D03*
X147500Y732500D03*
X152500Y732500D03*
X157500Y732500D03*
X162500Y732500D03*
X167500Y732500D03*
X172500Y732500D03*
D14*
X132500Y845000D03*
X157500Y845000D03*
X157500Y813000D03*
X132500Y813000D03*
D15*
X84800Y818000D03*
X205200Y818000D03*
D16*
X170400Y545000D03*
X145000Y545000D03*
X119600Y545000D03*
X170400Y385000D03*
X145000Y385000D03*
X119600Y385000D03*
X170400Y225000D03*
X145000Y225000D03*
X119600Y225000D03*
X170400Y65000D03*
X145000Y65000D03*
X119600Y65000D03*
D17*
X274500Y630750D03*
X268000Y630750D03*
X261500Y630750D03*
X255000Y630750D03*
X248500Y630750D03*
X242000Y630750D03*
X235500Y630750D03*
X235500Y689250D03*
X242000Y689250D03*
X248500Y689250D03*
X255000Y689250D03*
X261500Y689250D03*
X268000Y689250D03*
X274500Y689250D03*
D18*
X52750Y630822D03*
X46250Y630822D03*
X39750Y630822D03*
X33250Y630822D03*
X26750Y630822D03*
X20250Y630822D03*
X13750Y630822D03*
X7250Y630822D03*
X7250Y689178D03*
X13750Y689178D03*
X20250Y689178D03*
X26750Y689178D03*
X33250Y689178D03*
X39750Y689178D03*
X46250Y689178D03*
X52750Y689178D03*
D19*
X260000Y508500D03*
X260000Y491500D03*
X260000Y348500D03*
X260000Y331500D03*
X260000Y188500D03*
X260000Y171500D03*
X260000Y28500D03*
X260000Y11500D03*
D20*
X162900Y887000D02*
X147900Y887000D01*
D21*
X126125Y872000D03*
X126125Y902000D03*
X126125Y887000D03*
D20*
X211900Y927000D02*
X226900Y927000D01*
D21*
X190125Y912000D03*
X190125Y942000D03*
X190125Y927000D03*
D22*
X278750Y718000D03*
X261250Y718000D03*
D23*
X103000Y905500D03*
X103000Y886500D03*
D24*
X102500Y865000D03*
X83500Y865000D03*
X197500Y886000D03*
X216500Y886000D03*
D23*
X169000Y942500D03*
X169000Y923500D03*
D24*
X20500Y745000D03*
X39500Y745000D03*
D23*
X115000Y952500D03*
X115000Y933500D03*
D25*
X63750Y939000D03*
X96250Y939000D03*
X46250Y785000D03*
X13750Y785000D03*
D26*
X71500Y959000D03*
X88500Y959000D03*
X21500Y765000D03*
X38500Y765000D03*
D19*
X144000Y946500D03*
X144000Y929500D03*
D27*
X250000Y851250D03*
X250000Y868750D03*
D28*
X237000Y782000D03*
X237000Y738000D03*
X213000Y738000D03*
X213000Y782000D03*
D22*
X216250Y715000D03*
X233750Y715000D03*
D27*
X236000Y806250D03*
X236000Y823750D03*
D29*
X42700Y814200D03*
X42700Y839600D03*
X42700Y865000D03*
X42700Y890400D03*
X42700Y915800D03*
X17300Y814200D03*
X17300Y839600D03*
X17300Y865000D03*
X17300Y890400D03*
X17300Y915800D03*
D30*
X260380Y751900D02*
X275620Y751900D01*
X275620Y777300D02*
X260380Y777300D01*
X260380Y802700D02*
X275620Y802700D01*
X275620Y828100D02*
X260380Y828100D01*
D31*
X161000Y466350D03*
X109000Y466350D03*
X161000Y479050D03*
X161000Y453650D03*
X161000Y440950D03*
X109000Y479050D03*
X109000Y453650D03*
X109000Y440950D03*
X166000Y151350D03*
X114000Y151350D03*
X166000Y164050D03*
X166000Y138650D03*
X166000Y125950D03*
X114000Y164050D03*
X114000Y138650D03*
X114000Y125950D03*
D26*
X178500Y500000D03*
X161500Y500000D03*
X178500Y520000D03*
X161500Y520000D03*
D19*
X210000Y478500D03*
X210000Y461500D03*
D27*
X190000Y478750D03*
X190000Y461250D03*
D19*
X80000Y428500D03*
X80000Y411500D03*
D26*
X59500Y473000D03*
X42500Y473000D03*
D19*
X80000Y498500D03*
X80000Y481500D03*
D27*
X80000Y468750D03*
X80000Y451250D03*
D26*
X178500Y180000D03*
X161500Y180000D03*
X178500Y200000D03*
X161500Y200000D03*
D19*
X200000Y198500D03*
X200000Y181500D03*
D27*
X200000Y168750D03*
X200000Y151250D03*
D19*
X80000Y128500D03*
X80000Y111500D03*
X30000Y128500D03*
X30000Y111500D03*
X30000Y158500D03*
X30000Y141500D03*
D27*
X80000Y158750D03*
X80000Y141250D03*
D22*
X148750Y625000D03*
X131250Y625000D03*
D27*
X215000Y661250D03*
X215000Y678750D03*
X190000Y736250D03*
X190000Y753750D03*
D22*
X98750Y645000D03*
X81250Y645000D03*
D19*
X270000Y851500D03*
X270000Y868500D03*
D22*
X126250Y496000D03*
X143750Y496000D03*
X126250Y424000D03*
X143750Y424000D03*
X131250Y185000D03*
X148750Y185000D03*
X131250Y105000D03*
X148750Y105000D03*
X81250Y560000D03*
X98750Y560000D03*
X36750Y606000D03*
X19250Y606000D03*
X31250Y711000D03*
X48750Y711000D03*
D26*
X98500Y540000D03*
X81500Y540000D03*
X81500Y520000D03*
X98500Y520000D03*
X121500Y570000D03*
X138500Y570000D03*
X168500Y570000D03*
X151500Y570000D03*
X121500Y365000D03*
X138500Y365000D03*
X168500Y365000D03*
X151500Y365000D03*
X121500Y255000D03*
X138500Y255000D03*
X168500Y255000D03*
X151500Y255000D03*
X116500Y40000D03*
X133500Y40000D03*
X168500Y40000D03*
X151500Y40000D03*
D19*
X115000Y796500D03*
X115000Y779500D03*
X155000Y796500D03*
X155000Y779500D03*
X135000Y779500D03*
X135000Y796500D03*
D27*
X115000Y838750D03*
X115000Y821250D03*
X175000Y826250D03*
X175000Y843750D03*
D10*
X45000Y1065000D03*
X45000Y980000D03*
X45000Y950000D03*
D11*
X45000Y1015000D03*
D10*
X245000Y1065000D03*
X245000Y980000D03*
X245000Y950000D03*
D11*
X245000Y1015000D03*
D32*
X97300Y981900D03*
X97300Y1007300D03*
X97300Y1032700D03*
X97300Y1058100D03*
X192700Y1058100D03*
X192700Y1032700D03*
X192700Y1007300D03*
X192700Y981900D03*
D19*
X70000Y981500D03*
X70000Y998500D03*
D33*
X70000Y1021000D03*
X70000Y1059000D03*
D19*
X220000Y998500D03*
X220000Y981500D03*
D34*
X19000Y1034760D03*
X19000Y1050000D03*
X19000Y1065240D03*
X19000Y980760D03*
X19000Y996000D03*
X19000Y1011240D03*
X270000Y1034760D03*
X270000Y1050000D03*
X270000Y1065240D03*
X270000Y979760D03*
X270000Y995000D03*
X270000Y1010240D03*
D19*
X220000Y1011500D03*
X220000Y1028500D03*
X220000Y1058500D03*
X220000Y1041500D03*
M02*
