M48
;GenerationSoftware,Autodesk,EAGLE,9.6.1*%
;CreationDate,2020-04-09T13:52:45Z*%
FMAT,2
ICI,OFF
METRIC,TZ,000.000
T8C0.400
T7C0.800
T6C0.813
T5C1.000
T4C1.016
T3C1.100
T2C1.900
T1C2.286
%
G90
M71
T1
X24500Y19500
X24500Y6500
X14500Y6500
X4500Y6500
X14500Y19500
X4500Y19500
T2
X21100Y62000
X7900Y62000
T3
X24500Y13000
X24500Y10000
X24500Y1500
X14500Y13000
X14500Y10000
X14500Y1500
X4500Y13000
X4500Y10000
X4500Y1500
X24500Y13000
X24500Y16000
X24500Y24500
X14500Y13000
X14500Y16000
X14500Y24500
X4500Y13000
X4500Y16000
X4500Y24500
T4
X3000Y60190
X3000Y62730
X3000Y65270
X3000Y67810
X3730Y88420
X6270Y88420
X3730Y90960
X6270Y90960
X3730Y93500
X6270Y93500
X3730Y96040
X6270Y96040
X3730Y98580
X6270Y98580
T5
X18310Y106600
X15770Y106600
X13230Y106600
X10690Y106600
X17000Y54500
X14500Y54500
X12000Y54500
X17000Y69000
X12000Y69000
X22250Y39250
X22250Y32750
X26750Y39250
X26750Y32750
X12250Y39250
X12250Y32750
X16750Y39250
X16750Y32750
X2250Y39250
X2250Y32750
X6750Y39250
X6750Y32750
X26500Y98460
X26500Y101000
X26500Y103540
T6
X24500Y27730
X24500Y30270
X14500Y27730
X14500Y30270
X4500Y27730
X4500Y30270
T7
X25000Y76540
X25000Y74000
X25000Y71460
X4000Y76540
X4000Y74000
X4000Y71460
T8
X24000Y79000
X21193Y85300
X16700Y56500
X27800Y89500
X23700Y98000
X18200Y81900
X5500Y36400
X20700Y106000
X7400Y83900
X14300Y35400
X19300Y13400
X8300Y1400
X18300Y1400
X21700Y59300
X16300Y48400
X9000Y66500
X7900Y74700
X10300Y70600
X11000Y76000
X5000Y81000
X10057Y72241
X18000Y38000
X21000Y38000
X19220Y68389
X7100Y43143
X12300Y18800
X23542Y60758
X23200Y65400
X17000Y97000
X6400Y9200
X7000Y56000
X15000Y95000
X6235Y54265
X22200Y70200
X22200Y72800
X16000Y79000
X6170Y68000
X22000Y41352
X22000Y57000
X1012Y5000
X9000Y48000
X9000Y39000
X12500Y8700
X3600Y39900
X7881Y38119
X3700Y46800
X11200Y42400
X10759Y39835
X10187Y28187
X9876Y25776
X10000Y47000
X7835Y37000
X6098Y80526
X14111Y84038
X12976Y76624
X19452Y67278
X18814Y69500
X19000Y39000
X14400Y76639
X7643Y79009
X11287Y56287
X6532Y79009
X16000Y76991
X27108Y61892
X16000Y75880
X27900Y40400
X13495Y72157
X18000Y47000
X14194Y75121
X5600Y33800
X17745Y70245
X13000Y84000
M30