M48
;GenerationSoftware,Autodesk,EAGLE,9.6.2*%
;CreationDate,2021-12-17T00:26:15Z*%
FMAT,2
ICI,OFF
METRIC,TZ,000.000
T7C0.400
T6C0.800
T5C0.920
T4C1.016
T3C1.100
T2C2.286
T1C2.300
%
G90
M71
T1
X8480Y81800
X20520Y81800
T2
X5500Y54500
X5500Y38500
X5500Y22500
X5500Y6500
X23500Y54500
X23500Y38500
X23500Y22500
X23500Y6500
X4500Y101500
X24500Y101500
T3
X24500Y95000
X23500Y26000
X24500Y98000
X24500Y106500
X4500Y95000
X4500Y98000
X4500Y106500
X5500Y49500
X5500Y58000
X5500Y61000
X5500Y33500
X5500Y42000
X5500Y45000
X5500Y17500
X5500Y26000
X5500Y29000
X5500Y1500
X5500Y10000
X5500Y13000
X23500Y49500
X23500Y58000
X23500Y61000
X23500Y33500
X23500Y42000
X23500Y45000
X23500Y17500
X23500Y13000
X23500Y10000
X23500Y1500
X23500Y29000
T4
X1730Y83960
X1730Y86500
X1730Y91580
X1730Y89040
X4270Y81420
X26800Y75190
X26800Y77730
X26800Y80270
X26800Y82810
X4270Y83960
X4270Y86500
X4270Y89040
X4270Y91580
X1730Y81420
T5
X13250Y84500
X15750Y81300
X13250Y81300
X15750Y84500
T6
X17040Y54500
X14500Y54500
X11960Y54500
X17040Y38500
X14500Y38500
X11960Y38500
X17040Y22500
X14500Y22500
X11960Y22500
X17040Y6500
X14500Y6500
X11960Y6500
T7
X16000Y2733
X13586Y76100
X17000Y103000
X25500Y61800
X23212Y103188
X12500Y76100
X21400Y107038
X14000Y69914
X14000Y2000
X14000Y71000
X17000Y27733
X14000Y67743
X15000Y27000
X14000Y68828
X18300Y35733
X15000Y66000
X14000Y35000
X13914Y66000
X16500Y65882
X16483Y63000
X14000Y14000
X13000Y21000
X6968Y56582
X5000Y64209
X15000Y51000
X11000Y74619
X9000Y72914
X21740Y79782
X19968Y77886
X21869Y69032
X3000Y59000
X5000Y76000
X14672Y76000
X11000Y76000
X9000Y74000
X7000Y66000
X11928Y80900
X11690Y85635
X20172Y75215
X20328Y67600
X23000Y88000
X16000Y86968
X11500Y17800
X11000Y50000
X13000Y96000
X962Y41000
X14000Y9000
X3000Y41000
X14233Y41000
X1546Y73096
X1000Y76200
X9700Y49600
X13500Y46700
X14200Y16300
X19500Y41800
X22500Y51800
X26700Y70600
X24800Y72000
X4200Y67400
X8600Y63100
X8500Y65700
X11400Y62900
X3500Y65800
X9500Y58800
X21500Y75900
X17300Y75500
X17900Y72400
X10600Y72900
X12400Y69000
X16900Y68400
X24900Y70200
X24000Y67300
X25500Y90900
X8500Y88900
X13100Y83000
X18500Y79800
X23500Y75800
X19500Y61800
X28000Y102240
M30